<?xml version="1.0" encoding="UTF-8"?>
<svg id="_레이어_2" data-name="레이어 2" xmlns="http://www.w3.org/2000/svg" viewBox="0 0 214 229">
  <defs>
    <style>
      .cls-1 {
        fill: #4371c4;
      }

      .cls-1, .cls-2, .cls-3, .cls-4 {
        stroke-width: 0px;
      }

      .cls-5, .cls-3 {
        opacity: .2;
      }

      .cls-4 {
        fill: #fafaaa;
      }
    </style>
  </defs>
  <g id="_레이어_3" data-name="레이어 3">
    <rect class="cls-3" y="15" width="214" height="214"/>
    <rect class="cls-4" width="214" height="214"/>
    <g class="cls-5">
      <path class="cls-2" d="m74.75,127.7c-1.86-.12-4.21-.12-6.93.12,2.47,11.5-12.5,22.51-18.8,24.25-2.72.74-5.81,1.36-9.15,1.36-4.33,0-8.54-.99-12.37-3.96-4.7-3.34-8.66-9.03-8.66-19.3,0-26.35,25.11-49.73,39.09-54.56,3.59-1.24,6.31-1.48,9.03-1.48,3.22,0,6.31.87,8.41,2.35,5.94,4.33,7.55,10.14,7.55,13.48,0,1.85-.49,4.08-1.61,6.68-1.36,3.22-3.34,8.04-4.7,11.63-.62,1.61-2.1,2.85-4.45.99-2.35-1.86-4.45-4.33-4.45-8.16,0-1.36.12-2.72,1.11-5.32,3.46-8.91,4.7-12.37,3.34-13.73-3.59-3.71-22.14,6.93-33.28,23.87-6.56,10.02-8.91,20.54-8.91,28.45,0,9.52,3.09,12.74,7.05,12.74,6.56,0,15.34-6.81,21.15-17.69-3.22.62-6.18.99-8.66,1.24-6.43.5-11.13-2.35-12.99-6.19-.74-1.85-.12-3.09,2.35-3.09,4.95-.12,9.9-.99,14.47-1.85,4.21-.62,8.04-1.36,11.75-1.36,6.8-.12,10.52,2.72,12.25,6.68.74,1.85.87,3.09-2.6,2.85Z"/>
      <path class="cls-2" d="m109.88,101.96c4.45,0,7.17,2.23,8.29,5.44l2.35-3.83c1.48-2.47,3.59-2.6,5.07-.87,2.1,2.47,3.22,7.92,0,14.35-3.22,6.81-13.61,20.29-13.61,28.58,0,1.86.5,2.97,1.73,2.97,4.45,0,10.64-8.41,14.72-16.45,1.36-2.47,2.47-2.6,3.71,0,.5,1.11,1.24,4.45-.49,8.04-3.22,6.8-11.13,13.36-18.68,13.36-6.19,0-9.77-3.22-10.76-7.79-3.59,3.46-9.15,7.3-14.1,7.3-7.3,0-11.26-5.32-11.26-12.62,0-5.32,2.23-12.25,6.68-18.43,9.9-14.23,20.04-20.04,26.35-20.04Zm-4.33,27.71c4.82-8.41,7.05-14.48,7.05-17.69,0-1.49-.25-2.35-1.48-2.35-2.47,0-11.01,7.79-17.32,17.94-3.71,5.82-5.81,12.37-5.81,16.33,0,2.23.49,3.71,1.73,3.71,4.08,0,9.77-7.55,15.83-17.94Z"/>
      <path class="cls-2" d="m129.55,129.06c2.47-6.06,7.17-15.83,12.12-24.74-3.83-.5-6.06-1.86-7.05-3.34-1.73-2.6-.49-3.84,2.35-3.71,2.85.12,6.19,0,8.91-.25,3.83-6.68,6.43-10.76,9.28-14.85,1.86-2.72,3.34-2.6,4.7-.25.87,1.49,1.36,3.59,1.36,5.07,0,2.23-.5,5.07-1.98,8.54,3.83.5,5.94,2.47,6.8,3.96,1.24,2.23.37,3.71-2.6,3.34-2.23-.25-5.44,0-8.16.37-4.7,8.04-11.75,20.29-16.08,29.69-1.48,3.34-2.23,6.56-2.23,9.28,0,3.71,1.24,6.31,3.34,6.31,4.82,0,11.26-7.79,15.59-17.07,1.36-2.97,4.21-3.22,5.07.12.62,2.6.12,4.45-1.24,7.3-1.73,3.71-10.02,14.35-20.41,14.35-6.56,0-12.25-5.32-12.25-13.86,0-2.72.74-6.19,2.47-10.27Z"/>
      <path class="cls-2" d="m173.1,134.5c-2.97,0-5.94-.87-8.78-2.72-.74,2.47-1.11,5.07-1.11,7.3,0,5.44,2.23,9.28,5.94,9.28,9.4,0,17.69-9.15,22.76-16.83,1.36-1.98,2.97-2.23,3.96.25.37,1.11.49,4.7-1.73,8.04-5.2,7.54-15.09,13.36-24.74,13.48-11.51.12-17.81-7.42-17.81-17.32,0-4.45,1.24-9.28,3.83-14.23,6.43-13.11,16.45-19.67,23.63-19.67,1.73,0,3.09.25,4.33.99,3.46,1.98,5.94,3.96,7.67,6.43.74,1.12,1.24,2.97,1.24,4.58,0,7.42-8.29,20.41-19.18,20.41Zm-7.05-7.42c.99.62,1.86.87,2.72.87,2.97,0,6.93-3.71,9.4-7.05,3.59-4.82,6.19-10.64,4.82-11.75-1.86-1.48-11.01,6.06-16.95,17.94Z"/>
    </g>
    <g>
      <path class="cls-1" d="m74.46,121.15c-1.86-.12-4.21-.12-6.93.12,2.47,11.5-12.5,22.51-18.8,24.25-2.72.74-5.81,1.36-9.15,1.36-4.33,0-8.54-.99-12.37-3.96-4.7-3.34-8.66-9.03-8.66-19.3,0-26.35,25.11-49.73,39.09-54.56,3.59-1.24,6.31-1.48,9.03-1.48,3.22,0,6.31.87,8.41,2.35,5.94,4.33,7.55,10.14,7.55,13.48,0,1.85-.49,4.08-1.61,6.68-1.36,3.22-3.34,8.04-4.7,11.63-.62,1.61-2.1,2.85-4.45.99-2.35-1.86-4.45-4.33-4.45-8.16,0-1.36.12-2.72,1.11-5.32,3.46-8.91,4.7-12.37,3.34-13.73-3.59-3.71-22.14,6.93-33.28,23.87-6.56,10.02-8.91,20.54-8.91,28.45,0,9.52,3.09,12.74,7.05,12.74,6.56,0,15.34-6.81,21.15-17.69-3.22.62-6.18.99-8.66,1.24-6.43.5-11.13-2.35-12.99-6.19-.74-1.85-.12-3.09,2.35-3.09,4.95-.12,9.9-.99,14.47-1.85,4.21-.62,8.04-1.36,11.75-1.36,6.8-.12,10.52,2.72,12.25,6.68.74,1.85.87,3.09-2.6,2.85Z"/>
      <path class="cls-1" d="m109.6,95.41c4.45,0,7.17,2.23,8.29,5.44l2.35-3.83c1.48-2.47,3.59-2.6,5.07-.87,2.1,2.47,3.22,7.92,0,14.35-3.22,6.81-13.61,20.29-13.61,28.58,0,1.86.5,2.97,1.73,2.97,4.45,0,10.64-8.41,14.72-16.45,1.36-2.47,2.47-2.6,3.71,0,.5,1.11,1.24,4.45-.49,8.04-3.22,6.8-11.13,13.36-18.68,13.36-6.19,0-9.77-3.22-10.76-7.79-3.59,3.46-9.15,7.3-14.1,7.3-7.3,0-11.26-5.32-11.26-12.62,0-5.32,2.23-12.25,6.68-18.43,9.9-14.23,20.04-20.04,26.35-20.04Zm-4.33,27.71c4.82-8.41,7.05-14.48,7.05-17.69,0-1.49-.25-2.35-1.48-2.35-2.47,0-11.01,7.79-17.32,17.94-3.71,5.82-5.81,12.37-5.81,16.33,0,2.23.49,3.71,1.73,3.71,4.08,0,9.77-7.55,15.83-17.94Z"/>
      <path class="cls-1" d="m129.27,122.51c2.47-6.06,7.17-15.83,12.12-24.74-3.83-.5-6.06-1.86-7.05-3.34-1.73-2.6-.49-3.84,2.35-3.71,2.85.12,6.19,0,8.91-.25,3.83-6.68,6.43-10.76,9.28-14.85,1.86-2.72,3.34-2.6,4.7-.25.87,1.49,1.36,3.59,1.36,5.07,0,2.23-.5,5.07-1.98,8.54,3.83.5,5.94,2.47,6.8,3.96,1.24,2.23.37,3.71-2.6,3.34-2.23-.25-5.44,0-8.16.37-4.7,8.04-11.75,20.29-16.08,29.69-1.48,3.34-2.23,6.56-2.23,9.28,0,3.71,1.24,6.31,3.34,6.31,4.82,0,11.26-7.79,15.59-17.07,1.36-2.97,4.21-3.22,5.07.12.62,2.6.12,4.45-1.24,7.3-1.73,3.71-10.02,14.35-20.41,14.35-6.56,0-12.25-5.32-12.25-13.86,0-2.72.74-6.19,2.47-10.27Z"/>
      <path class="cls-1" d="m172.81,127.95c-2.97,0-5.94-.87-8.78-2.72-.74,2.47-1.11,5.07-1.11,7.3,0,5.44,2.23,9.28,5.94,9.28,9.4,0,17.69-9.15,22.76-16.83,1.36-1.98,2.97-2.23,3.96.25.37,1.11.49,4.7-1.73,8.04-5.2,7.54-15.09,13.36-24.74,13.48-11.51.12-17.81-7.42-17.81-17.32,0-4.45,1.24-9.28,3.83-14.23,6.43-13.11,16.45-19.67,23.63-19.67,1.73,0,3.09.25,4.33.99,3.46,1.98,5.94,3.96,7.67,6.43.74,1.12,1.24,2.97,1.24,4.58,0,7.42-8.29,20.41-19.18,20.41Zm-7.05-7.42c.99.62,1.86.87,2.72.87,2.97,0,6.93-3.71,9.4-7.05,3.59-4.82,6.19-10.64,4.82-11.75-1.86-1.48-11.01,6.06-16.95,17.94Z"/>
    </g>
  </g>
</svg>