<?xml version="1.0" encoding="UTF-8"?>
<svg id="_레이어_2" data-name="레이어 2" xmlns="http://www.w3.org/2000/svg" viewBox="0 0 222.34 236.8">
  <defs>
    <style>
      .cls-1 {
        fill: #4371c4;
      }

      .cls-1, .cls-2, .cls-3, .cls-4 {
        stroke-width: 0px;
      }

      .cls-5, .cls-3 {
        opacity: .2;
      }

      .cls-4, .cls-6 {
        fill: #fafaaa;
      }

      .cls-6 {
        font-family: Apple-Chancery, 'Apple Chancery';
        font-size: 99.31px;
      }
    </style>
  </defs>
  <g id="_레이어_3" data-name="레이어 3">
    <text class="cls-6" transform="translate(10.2 132.61)"><tspan x="0" y="0">Gate</tspan></text>
    <g class="cls-5">
      <path class="cls-2" d="m73.8,127.47c-1.86-.12-4.21-.12-6.93.12,2.47,11.5-12.5,22.51-18.8,24.25-2.72.74-5.81,1.36-9.15,1.36-4.33,0-8.54-.99-12.37-3.96-4.7-3.34-8.66-9.03-8.66-19.3,0-26.35,25.11-49.73,39.09-54.56,3.59-1.24,6.31-1.48,9.03-1.48,3.22,0,6.31.87,8.41,2.35,5.94,4.33,7.55,10.14,7.55,13.48,0,1.85-.49,4.08-1.61,6.68-1.36,3.22-3.34,8.04-4.7,11.63-.62,1.61-2.1,2.85-4.45.99-2.35-1.86-4.45-4.33-4.45-8.16,0-1.36.12-2.72,1.11-5.32,3.46-8.91,4.7-12.37,3.34-13.73-3.59-3.71-22.14,6.93-33.28,23.87-6.56,10.02-8.91,20.54-8.91,28.45,0,9.52,3.09,12.74,7.05,12.74,6.56,0,15.34-6.81,21.15-17.69-3.22.62-6.18.99-8.66,1.24-6.43.5-11.13-2.35-12.99-6.19-.74-1.85-.12-3.09,2.35-3.09,4.95-.12,9.9-.99,14.47-1.85,4.21-.62,8.04-1.36,11.75-1.36,6.8-.12,10.52,2.72,12.25,6.68.74,1.85.87,3.09-2.6,2.85Z"/>
      <path class="cls-2" d="m108.93,101.74c4.45,0,7.17,2.23,8.29,5.44l2.35-3.83c1.48-2.47,3.59-2.6,5.07-.87,2.1,2.47,3.22,7.92,0,14.35-3.22,6.81-13.61,20.29-13.61,28.58,0,1.86.5,2.97,1.73,2.97,4.45,0,10.64-8.41,14.72-16.45,1.36-2.47,2.47-2.6,3.71,0,.5,1.11,1.24,4.45-.49,8.04-3.22,6.8-11.13,13.36-18.68,13.36-6.19,0-9.77-3.22-10.76-7.79-3.59,3.46-9.15,7.3-14.1,7.3-7.3,0-11.26-5.32-11.26-12.62,0-5.32,2.23-12.25,6.68-18.43,9.9-14.23,20.04-20.04,26.35-20.04Zm-4.33,27.71c4.82-8.41,7.05-14.48,7.05-17.69,0-1.49-.25-2.35-1.48-2.35-2.47,0-11.01,7.79-17.32,17.94-3.71,5.82-5.81,12.37-5.81,16.33,0,2.23.49,3.71,1.73,3.71,4.08,0,9.77-7.55,15.83-17.94Z"/>
      <path class="cls-2" d="m128.6,128.83c2.47-6.06,7.17-15.83,12.12-24.74-3.83-.5-6.06-1.86-7.05-3.34-1.73-2.6-.49-3.84,2.35-3.71,2.85.12,6.19,0,8.91-.25,3.83-6.68,6.43-10.76,9.28-14.85,1.86-2.72,3.34-2.6,4.7-.25.87,1.49,1.36,3.59,1.36,5.07,0,2.23-.5,5.07-1.98,8.54,3.83.5,5.94,2.47,6.8,3.96,1.24,2.23.37,3.71-2.6,3.34-2.23-.25-5.44,0-8.16.37-4.7,8.04-11.75,20.29-16.08,29.69-1.48,3.34-2.23,6.56-2.23,9.28,0,3.71,1.24,6.31,3.34,6.31,4.82,0,11.26-7.79,15.59-17.07,1.36-2.97,4.21-3.22,5.07.12.62,2.6.12,4.45-1.24,7.3-1.73,3.71-10.02,14.35-20.41,14.35-6.56,0-12.25-5.32-12.25-13.86,0-2.72.74-6.19,2.47-10.27Z"/>
      <path class="cls-2" d="m172.15,134.27c-2.97,0-5.94-.87-8.78-2.72-.74,2.47-1.11,5.07-1.11,7.3,0,5.44,2.23,9.28,5.94,9.28,9.4,0,17.69-9.15,22.76-16.83,1.36-1.98,2.97-2.23,3.96.25.37,1.11.49,4.7-1.73,8.04-5.2,7.54-15.09,13.36-24.74,13.48-11.51.12-17.81-7.42-17.81-17.32,0-4.45,1.24-9.28,3.83-14.23,6.43-13.11,16.45-19.67,23.63-19.67,1.73,0,3.09.25,4.33.99,3.46,1.98,5.94,3.96,7.67,6.43.74,1.12,1.24,2.97,1.24,4.58,0,7.42-8.29,20.41-19.18,20.41Zm-7.05-7.42c.99.62,1.86.87,2.72.87,2.97,0,6.93-3.71,9.4-7.05,3.59-4.82,6.19-10.64,4.82-11.75-1.86-1.48-11.01,6.06-16.95,17.94Z"/>
    </g>
    <g>
      <path class="cls-1" d="m73.51,120.92c-1.86-.12-4.21-.12-6.93.12,2.47,11.5-12.5,22.51-18.8,24.25-2.72.74-5.81,1.36-9.15,1.36-4.33,0-8.54-.99-12.37-3.96-4.7-3.34-8.66-9.03-8.66-19.3,0-26.35,25.11-49.73,39.09-54.56,3.59-1.24,6.31-1.48,9.03-1.48,3.22,0,6.31.87,8.41,2.35,5.94,4.33,7.55,10.14,7.55,13.48,0,1.85-.49,4.08-1.61,6.68-1.36,3.22-3.34,8.04-4.7,11.63-.62,1.61-2.1,2.85-4.45.99-2.35-1.86-4.45-4.33-4.45-8.16,0-1.36.12-2.72,1.11-5.32,3.46-8.91,4.7-12.37,3.34-13.73-3.59-3.71-22.14,6.93-33.28,23.87-6.56,10.02-8.91,20.54-8.91,28.45,0,9.52,3.09,12.74,7.05,12.74,6.56,0,15.34-6.81,21.15-17.69-3.22.62-6.18.99-8.66,1.24-6.43.5-11.13-2.35-12.99-6.19-.74-1.85-.12-3.09,2.35-3.09,4.95-.12,9.9-.99,14.47-1.85,4.21-.62,8.04-1.36,11.75-1.36,6.8-.12,10.52,2.72,12.25,6.68.74,1.85.87,3.09-2.6,2.85Z"/>
      <path class="cls-1" d="m108.65,95.19c4.45,0,7.17,2.23,8.29,5.44l2.35-3.83c1.48-2.47,3.59-2.6,5.07-.87,2.1,2.47,3.22,7.92,0,14.35-3.22,6.81-13.61,20.29-13.61,28.58,0,1.86.5,2.97,1.73,2.97,4.45,0,10.64-8.41,14.72-16.45,1.36-2.47,2.47-2.6,3.71,0,.5,1.11,1.24,4.45-.49,8.04-3.22,6.8-11.13,13.36-18.68,13.36-6.19,0-9.77-3.22-10.76-7.79-3.59,3.46-9.15,7.3-14.1,7.3-7.3,0-11.26-5.32-11.26-12.62,0-5.32,2.23-12.25,6.68-18.43,9.9-14.23,20.04-20.04,26.35-20.04Zm-4.33,27.71c4.82-8.41,7.05-14.48,7.05-17.69,0-1.49-.25-2.35-1.48-2.35-2.47,0-11.01,7.79-17.32,17.94-3.71,5.82-5.81,12.37-5.81,16.33,0,2.23.49,3.71,1.73,3.71,4.08,0,9.77-7.55,15.83-17.94Z"/>
      <path class="cls-1" d="m128.32,122.28c2.47-6.06,7.17-15.83,12.12-24.74-3.83-.5-6.06-1.86-7.05-3.34-1.73-2.6-.49-3.84,2.35-3.71,2.85.12,6.19,0,8.91-.25,3.83-6.68,6.43-10.76,9.28-14.85,1.86-2.72,3.34-2.6,4.7-.25.87,1.49,1.36,3.59,1.36,5.07,0,2.23-.5,5.07-1.98,8.54,3.83.5,5.94,2.47,6.8,3.96,1.24,2.23.37,3.71-2.6,3.34-2.23-.25-5.44,0-8.16.37-4.7,8.04-11.75,20.29-16.08,29.69-1.48,3.34-2.23,6.56-2.23,9.28,0,3.71,1.24,6.31,3.34,6.31,4.82,0,11.26-7.79,15.59-17.07,1.36-2.97,4.21-3.22,5.07.12.62,2.6.12,4.45-1.24,7.3-1.73,3.71-10.02,14.35-20.41,14.35-6.56,0-12.25-5.32-12.25-13.86,0-2.72.74-6.19,2.47-10.27Z"/>
      <path class="cls-1" d="m171.86,127.72c-2.97,0-5.94-.87-8.78-2.72-.74,2.47-1.11,5.07-1.11,7.3,0,5.44,2.23,9.28,5.94,9.28,9.4,0,17.69-9.15,22.76-16.83,1.36-1.98,2.97-2.23,3.96.25.37,1.11.49,4.7-1.73,8.04-5.2,7.54-15.09,13.36-24.74,13.48-11.51.12-17.81-7.42-17.81-17.32,0-4.45,1.24-9.28,3.83-14.23,6.43-13.11,16.45-19.67,23.63-19.67,1.73,0,3.09.25,4.33.99,3.46,1.98,5.94,3.96,7.67,6.43.74,1.12,1.24,2.97,1.24,4.58,0,7.42-8.29,20.41-19.18,20.41Zm-7.05-7.42c.99.62,1.86.87,2.72.87,2.97,0,6.93-3.71,9.4-7.05,3.59-4.82,6.19-10.64,4.82-11.75-1.86-1.48-11.01,6.06-16.95,17.94Z"/>
    </g>
    <text class="cls-6" transform="translate(15.43 136.86)"><tspan x="0" y="0">Gate</tspan></text>
    <g>
      <rect class="cls-3" x="4.56" y="19.02" width="214" height="214" transform="translate(-4.46 4.09) rotate(-2.06)"/>
      <rect class="cls-4" x="4.02" y="4.03" width="214" height="214" transform="translate(-3.92 4.07) rotate(-2.06)"/>
    </g>
    <g>
      <path class="cls-1" d="m77.73,120.04c-1.86-.06-4.21.03-6.92.37,2.89,11.41-11.68,22.95-17.92,24.91-2.69.84-5.76,1.57-9.1,1.69-4.33.16-8.57-.68-12.51-3.51-4.82-3.17-8.98-8.71-9.35-18.98-.95-26.33,23.31-50.6,37.1-55.93,3.54-1.36,6.25-1.71,8.97-1.81,3.21-.12,6.34.64,8.49,2.05,6.09,4.11,7.91,9.86,8.03,13.2.07,1.85-.35,4.1-1.37,6.73-1.24,3.26-3.05,8.16-4.28,11.79-.56,1.63-2,2.92-4.42,1.15-2.42-1.77-4.61-4.17-4.74-8-.05-1.36.03-2.72.92-5.36,3.14-9.02,4.25-12.53,2.84-13.84-3.72-3.58-21.88,7.72-32.4,25.06-6.19,10.25-8.16,20.84-7.88,28.76.34,9.52,3.55,12.62,7.51,12.48,6.55-.24,15.08-7.35,20.5-18.44-3.19.74-6.14,1.21-8.61,1.55-6.41.73-11.21-1.95-13.2-5.71-.81-1.83-.24-3.09,2.24-3.18,4.94-.3,9.85-1.34,14.4-2.37,4.18-.77,7.99-1.65,11.7-1.78,6.79-.37,10.61,2.34,12.48,6.23.81,1.83.98,3.06-2.49,2.94Z"/>
      <path class="cls-1" d="m111.92,93.06c4.45-.16,7.25,1.97,8.48,5.14l2.21-3.92c1.39-2.53,3.49-2.72,5.04-1.05,2.19,2.4,3.5,7.8.52,14.34-2.97,6.92-12.87,20.76-12.57,29.05.07,1.86.6,2.95,1.84,2.91,4.45-.16,10.33-8.79,14.12-16.97,1.27-2.52,2.38-2.68,3.71-.13.53,1.09,1.4,4.41-.2,8.05-2.97,6.92-10.65,13.75-18.19,14.02-6.18.22-9.88-2.86-11.04-7.4-3.46,3.59-8.89,7.62-13.83,7.8-7.29.26-11.44-4.91-11.7-12.2-.19-5.32,1.79-12.32,6.01-18.66,9.38-14.57,19.31-20.75,25.61-20.98Zm-3.33,27.85c4.52-8.58,6.53-14.72,6.41-17.93-.05-1.49-.33-2.34-1.57-2.3-2.47.09-10.72,8.18-16.66,18.55-3.5,5.94-5.37,12.57-5.22,16.53.08,2.23.63,3.69,1.86,3.65,4.08-.15,9.5-7.89,15.18-18.5Z"/>
      <path class="cls-1" d="m132.55,119.43c2.25-6.15,6.6-16.08,11.22-25.16-3.85-.36-6.12-1.64-7.17-3.08-1.82-2.53-.63-3.82,2.22-3.8,2.85.02,6.18-.22,8.89-.57,3.59-6.81,6.04-10.99,8.74-15.17,1.76-2.79,3.24-2.72,4.69-.42.92,1.45,1.49,3.54,1.54,5.02.08,2.23-.31,5.09-1.67,8.6,3.85.36,6.02,2.26,6.94,3.71,1.32,2.18.5,3.7-2.48,3.43-2.23-.17-5.44.2-8.15.67-4.41,8.2-11.01,20.7-15,30.25-1.36,3.39-1.99,6.63-1.89,9.35.13,3.71,1.46,6.26,3.57,6.19,4.82-.17,10.97-8.19,14.96-17.62,1.25-3.02,4.09-3.36,5.07-.06.71,2.57.28,4.45-.97,7.34-1.6,3.77-9.5,14.7-19.88,15.07-6.55.24-12.43-4.88-12.74-13.41-.1-2.72.52-6.21,2.1-10.35Z"/>
      <path class="cls-1" d="m176.26,123.3c-2.97.11-5.97-.65-8.88-2.4-.65,2.5-.93,5.11-.85,7.33.2,5.44,2.56,9.19,6.27,9.06,9.4-.34,17.35-9.78,22.14-17.63,1.29-2.02,2.89-2.33,3.97.11.41,1.1.66,4.68-1.44,8.1-4.92,7.73-14.6,13.89-24.24,14.37-11.49.54-18.07-6.78-18.43-16.67-.16-4.45.9-9.32,3.32-14.35,5.96-13.34,15.73-20.25,22.91-20.51,1.73-.06,3.1.14,4.36.83,3.53,1.85,6.08,3.74,7.9,6.15.78,1.09,1.34,2.92,1.4,4.53.27,7.42-7.55,20.7-18.43,21.09Zm-7.31-7.17c1.01.58,1.89.8,2.75.77,2.97-.11,6.79-3.96,9.14-7.39,3.41-4.95,5.8-10.85,4.4-11.92-1.91-1.42-10.78,6.45-16.29,18.53Z"/>
    </g>
    <rect class="cls-4" x="3.78" y="3.78" width="214" height="214" transform="translate(-3.91 4.06) rotate(-2.06)"/>
    <g class="cls-5">
      <path class="cls-2" d="m77.29,133.62c-1.86-.06-4.21.03-6.92.37,2.89,11.41-11.68,22.95-17.92,24.91-2.69.84-5.76,1.57-9.1,1.69-4.33.16-8.57-.68-12.51-3.51-4.82-3.17-8.98-8.71-9.35-18.98-.95-26.33,23.31-50.6,37.1-55.93,3.54-1.36,6.25-1.71,8.97-1.81,3.21-.12,6.34.64,8.49,2.05,6.09,4.11,7.91,9.86,8.03,13.2.07,1.85-.35,4.1-1.37,6.73-1.24,3.26-3.05,8.16-4.28,11.79-.56,1.63-2,2.92-4.42,1.15-2.42-1.77-4.61-4.17-4.74-8-.05-1.36.03-2.72.92-5.36,3.14-9.02,4.25-12.53,2.84-13.84-3.72-3.58-21.88,7.72-32.4,25.06-6.19,10.25-8.16,20.84-7.88,28.76.34,9.52,3.55,12.62,7.51,12.48,6.55-.24,15.08-7.35,20.5-18.44-3.19.74-6.14,1.21-8.61,1.55-6.41.73-11.21-1.95-13.2-5.71-.81-1.83-.24-3.09,2.24-3.18,4.94-.3,9.85-1.34,14.4-2.37,4.18-.77,7.99-1.65,11.7-1.78,6.79-.37,10.61,2.34,12.48,6.23.81,1.83.98,3.06-2.49,2.94Z"/>
      <path class="cls-2" d="m111.48,106.64c4.45-.16,7.25,1.97,8.48,5.14l2.21-3.92c1.39-2.53,3.49-2.72,5.04-1.05,2.19,2.4,3.5,7.8.52,14.34-2.97,6.92-12.87,20.76-12.57,29.05.07,1.86.6,2.95,1.84,2.91,4.45-.16,10.33-8.79,14.12-16.97,1.27-2.52,2.38-2.68,3.71-.13.53,1.09,1.4,4.41-.2,8.05-2.97,6.92-10.65,13.75-18.19,14.02-6.18.22-9.88-2.86-11.04-7.4-3.46,3.59-8.89,7.62-13.83,7.8-7.29.26-11.44-4.91-11.7-12.2-.19-5.32,1.79-12.32,6.01-18.66,9.38-14.57,19.31-20.75,25.61-20.98Zm-3.33,27.85c4.52-8.58,6.53-14.72,6.41-17.93-.05-1.49-.33-2.34-1.57-2.3-2.47.09-10.72,8.18-16.66,18.55-3.5,5.94-5.37,12.57-5.22,16.53.08,2.23.63,3.69,1.86,3.65,4.08-.15,9.5-7.89,15.18-18.5Z"/>
      <path class="cls-2" d="m132.11,133.01c2.25-6.15,6.6-16.08,11.22-25.16-3.85-.36-6.12-1.64-7.17-3.08-1.82-2.53-.63-3.82,2.22-3.8,2.85.02,6.18-.22,8.89-.57,3.59-6.81,6.04-10.99,8.74-15.17,1.76-2.79,3.24-2.72,4.69-.42.92,1.45,1.49,3.54,1.54,5.02.08,2.23-.31,5.09-1.67,8.6,3.85.36,6.02,2.26,6.94,3.71,1.32,2.18.5,3.7-2.48,3.43-2.23-.17-5.44.2-8.15.67-4.41,8.2-11.01,20.7-15,30.25-1.36,3.39-1.99,6.63-1.89,9.35.13,3.71,1.46,6.26,3.57,6.19,4.82-.17,10.97-8.19,14.96-17.62,1.25-3.02,4.09-3.36,5.07-.06.71,2.57.28,4.45-.97,7.34-1.6,3.77-9.5,14.7-19.88,15.07-6.55.24-12.43-4.88-12.74-13.41-.1-2.72.52-6.21,2.1-10.35Z"/>
      <path class="cls-2" d="m175.83,136.88c-2.97.11-5.97-.65-8.88-2.4-.65,2.5-.93,5.11-.85,7.33.2,5.44,2.56,9.19,6.27,9.06,9.4-.34,17.35-9.78,22.14-17.63,1.29-2.02,2.89-2.33,3.97.11.41,1.1.66,4.68-1.44,8.1-4.92,7.73-14.6,13.89-24.24,14.37-11.49.54-18.07-6.78-18.43-16.67-.16-4.45.9-9.32,3.32-14.35,5.96-13.34,15.73-20.25,22.91-20.51,1.73-.06,3.1.14,4.36.83,3.53,1.85,6.08,3.74,7.9,6.15.78,1.09,1.34,2.92,1.4,4.53.27,7.42-7.55,20.7-18.43,21.09Zm-7.31-7.17c1.01.58,1.89.8,2.75.77,2.97-.11,6.79-3.96,9.14-7.39,3.41-4.95,5.8-10.85,4.4-11.92-1.91-1.42-10.78,6.45-16.29,18.53Z"/>
    </g>
    <g>
      <path class="cls-1" d="m78.77,126.09c-1.86-.06-4.21.03-6.92.37,2.89,11.41-11.68,22.95-17.92,24.91-2.69.84-5.76,1.57-9.1,1.69-4.33.16-8.57-.68-12.51-3.51-4.82-3.17-8.98-8.71-9.35-18.98-.95-26.33,23.31-50.6,37.1-55.93,3.54-1.36,6.25-1.71,8.97-1.81,3.21-.12,6.34.64,8.49,2.05,6.09,4.11,7.91,9.86,8.03,13.2.07,1.85-.35,4.1-1.37,6.73-1.24,3.26-3.05,8.16-4.28,11.79-.56,1.63-2,2.92-4.42,1.15-2.42-1.77-4.61-4.17-4.74-8-.05-1.36.03-2.72.92-5.36,3.14-9.02,4.25-12.53,2.84-13.84-3.72-3.58-21.88,7.72-32.4,25.06-6.19,10.25-8.16,20.84-7.88,28.76.34,9.52,3.55,12.62,7.51,12.48,6.55-.24,15.08-7.35,20.5-18.44-3.19.74-6.14,1.21-8.61,1.55-6.41.73-11.21-1.95-13.2-5.71-.81-1.83-.24-3.09,2.24-3.18,4.94-.3,9.85-1.34,14.4-2.37,4.18-.77,7.99-1.65,11.7-1.78,6.79-.37,10.61,2.34,12.48,6.23.81,1.83.98,3.06-2.49,2.94Z"/>
      <path class="cls-1" d="m112.96,99.11c4.45-.16,7.25,1.97,8.48,5.14l2.21-3.92c1.39-2.53,3.49-2.72,5.04-1.05,2.19,2.4,3.5,7.8.52,14.34-2.97,6.92-12.87,20.76-12.57,29.05.07,1.86.6,2.95,1.84,2.91,4.45-.16,10.33-8.79,14.12-16.97,1.27-2.52,2.38-2.68,3.71-.13.53,1.09,1.4,4.41-.2,8.05-2.97,6.92-10.65,13.75-18.19,14.02-6.18.22-9.88-2.86-11.04-7.4-3.46,3.59-8.89,7.62-13.83,7.8-7.29.26-11.44-4.91-11.7-12.2-.19-5.32,1.79-12.32,6.01-18.66,9.38-14.57,19.31-20.75,25.61-20.98Zm-3.33,27.85c4.52-8.58,6.53-14.72,6.41-17.93-.05-1.49-.33-2.34-1.57-2.3-2.47.09-10.72,8.18-16.66,18.55-3.5,5.94-5.37,12.57-5.22,16.53.08,2.23.63,3.69,1.86,3.65,4.08-.15,9.5-7.89,15.18-18.5Z"/>
      <path class="cls-1" d="m133.59,125.48c2.25-6.15,6.6-16.08,11.22-25.16-3.85-.36-6.12-1.64-7.17-3.08-1.82-2.53-.63-3.82,2.22-3.8,2.85.02,6.18-.22,8.89-.57,3.59-6.81,6.04-10.99,8.74-15.17,1.76-2.79,3.24-2.72,4.69-.42.92,1.45,1.49,3.54,1.54,5.02.08,2.23-.31,5.09-1.67,8.6,3.85.36,6.02,2.26,6.94,3.71,1.32,2.18.5,3.7-2.48,3.43-2.23-.17-5.44.2-8.15.67-4.41,8.2-11.01,20.7-15,30.25-1.36,3.39-1.99,6.63-1.89,9.35.13,3.71,1.46,6.26,3.57,6.19,4.82-.17,10.97-8.19,14.96-17.62,1.25-3.02,4.09-3.36,5.07-.06.71,2.57.28,4.45-.97,7.34-1.6,3.77-9.5,14.7-19.88,15.07-6.55.24-12.43-4.88-12.74-13.41-.1-2.72.52-6.21,2.1-10.35Z"/>
      <path class="cls-1" d="m177.3,129.35c-2.97.11-5.97-.65-8.88-2.4-.65,2.5-.93,5.11-.85,7.33.2,5.44,2.56,9.19,6.27,9.06,9.4-.34,17.35-9.78,22.14-17.63,1.29-2.02,2.89-2.33,3.97.11.41,1.1.66,4.68-1.44,8.1-4.92,7.73-14.6,13.89-24.24,14.37-11.49.54-18.07-6.78-18.43-16.67-.16-4.45.9-9.32,3.32-14.35,5.96-13.34,15.73-20.25,22.91-20.51,1.73-.06,3.1.14,4.36.83,3.53,1.85,6.08,3.74,7.9,6.15.78,1.09,1.34,2.92,1.4,4.53.27,7.42-7.55,20.7-18.43,21.09Zm-7.31-7.17c1.01.58,1.89.8,2.75.77,2.97-.11,6.79-3.96,9.14-7.39,3.41-4.95,5.8-10.85,4.4-11.92-1.91-1.42-10.78,6.45-16.29,18.53Z"/>
    </g>
  </g>
</svg>