<?xml version="1.0" encoding="UTF-8"?>
<svg id="_레이어_2" data-name="레이어 2" xmlns="http://www.w3.org/2000/svg" viewBox="0 0 87.18 90.43">
  <defs>
    <style>
      .cls-1, .cls-2, .cls-3, .cls-4, .cls-5, .cls-6, .cls-7, .cls-8, .cls-9 {
        stroke-width: 0px;
      }

      .cls-10, .cls-3 {
        opacity: .2;
      }

      .cls-2 {
        fill: #ffb6c1;
      }

      .cls-4 {
        fill: #c28b93;
      }

      .cls-5 {
        fill: #d7d797;
      }

      .cls-6 {
        fill: #c7eeeb;
      }

      .cls-7 {
        fill: #4472c4;
      }

      .cls-8 {
        fill: #fafaaa;
      }

      .cls-9 {
        fill: #d0fc5c;
      }
    </style>
  </defs>
  <g id="_레이어_3" data-name="레이어 3">
    <g>
      <g>
        <g class="cls-10">
          <polygon class="cls-1" points="57.79 34.52 83.83 31.48 86.31 52.68 82.79 58 60.83 60.56 57.79 34.52"/>
          <polygon class="cls-1" points="82.2 53.16 86.31 52.68 82.77 58 82.2 53.16"/>
        </g>
        <g>
          <polygon class="cls-8" points="57.54 32.97 83.58 29.93 86.05 51.13 82.53 56.44 60.58 59.01 57.54 32.97"/>
          <polygon class="cls-5" points="81.95 51.61 86.05 51.13 82.52 56.45 81.95 51.61"/>
        </g>
      </g>
      <g>
        <rect class="cls-3" x="30.33" y="32.8" width="26.25" height="26.25" transform="translate(-10.47 12.91) rotate(-15.11)"/>
        <rect class="cls-7" x="29.9" y="31.32" width="26.25" height="26.25" transform="translate(-10.1 12.75) rotate(-15.11)"/>
      </g>
      <g>
        <rect class="cls-3" x="30.23" y="62.43" width="26.25" height="26.25" transform="translate(5.03 -2.67) rotate(3.75)"/>
        <rect class="cls-9" x="30.3" y="60.89" width="26.25" height="26.25" transform="translate(4.93 -2.68) rotate(3.75)"/>
      </g>
      <g>
        <rect class="cls-3" x="59.13" y="62.42" width="26.25" height="26.25" transform="translate(-6.97 7.34) rotate(-5.55)"/>
        <rect class="cls-6" x="58.95" y="60.89" width="26.25" height="26.25" transform="translate(-6.82 7.32) rotate(-5.55)"/>
      </g>
      <g>
        <rect class="cls-3" x="30.23" y="3.33" width="26.25" height="26.25" transform="translate(1.17 -2.8) rotate(3.75)"/>
        <rect class="cls-9" x="30.3" y="1.79" width="26.25" height="26.25" transform="translate(1.07 -2.8) rotate(3.75)"/>
      </g>
      <g>
        <rect class="cls-3" x="1.77" y="32.75" width="26.25" height="26.25" transform="translate(3.03 -.87) rotate(3.75)"/>
        <rect class="cls-6" x="1.84" y="31.21" width="26.25" height="26.25" transform="translate(2.93 -.88) rotate(3.75)"/>
      </g>
      <g>
        <rect class="cls-3" x="1.93" y="62.5" width="26.25" height="26.25" transform="translate(-10.28 2.8) rotate(-7.92)"/>
        <rect class="cls-8" x="1.68" y="60.97" width="26.25" height="26.25" transform="translate(-10.07 2.75) rotate(-7.92)"/>
      </g>
      <g>
        <rect class="cls-3" x="58.94" y="3.32" width="26.25" height="26.25" transform="translate(3.21 -10.45) rotate(8.48)"/>
        <rect class="cls-2" x="59.14" y="1.79" width="26.25" height="26.25" transform="translate(2.99 -10.49) rotate(8.48)"/>
      </g>
      <g class="cls-10">
        <polygon class="cls-1" points="1.86 3.36 28.07 3.36 28.07 24.7 23.96 29.57 1.86 29.57 1.86 3.36"/>
        <polygon class="cls-1" points="23.94 24.7 28.07 24.7 23.94 29.57 23.94 24.7"/>
      </g>
      <polygon class="cls-2" points=".61 3.08 26.71 .61 28.72 21.86 25.08 27.1 3.08 29.18 .61 3.08"/>
      <polygon class="cls-4" points="23.87 23.13 28 23.13 23.87 28 23.87 23.13"/>
    </g>
  </g>
</svg>