<?xml version="1.0" encoding="utf-8"?>
<!-- Generator: Adobe Illustrator 27.8.1, SVG Export Plug-In . SVG Version: 6.00 Build 0)  -->
<svg version="1.1" id="_레이어_2" xmlns="http://www.w3.org/2000/svg" xmlns:xlink="http://www.w3.org/1999/xlink" x="0px"
	 y="0px" viewBox="0 0 995.9 280.6" style="enable-background:new 0 0 995.9 280.6;" xml:space="preserve">
<style type="text/css">
	.st0{fill:#FAFAAA;}
	.st1{fill:#4371C4;}
	.st2{fill:#009EE2;}
	.st3{fill:#FFFFFF;}
	.st4{fill:#CACACA;}
	.st5{fill:#00ACE8;}
	.st6{fill:#1DBBEE;}
</style>
<g>
	<path class="st0" d="M15,156c-1.8-1.1-4.1-3.8-4.9-6c-0.7,2.4-2.8,5-5,6.4l-1.5-1.7c3.2-2.1,5.2-5.4,5.2-9.4v-3h2.4v2.9
		c0,3.9,2.1,7.2,5.1,9.1L15,156L15,156z M20.1,148.5h3.1v2h-3.1V161h-2.4v-20.5h2.4V148.5L20.1,148.5z"/>
	<path class="st0" d="M24.1,158.4v-1.9h8v-5h2.4v5h8.1v1.9H24.1L24.1,158.4z M40.8,151.6c-3.1-0.8-6.4-3.1-7.5-5.6
		c-0.9,2.6-4.4,4.9-7.5,5.6l-1.1-1.9c3.4-0.5,7.4-3.3,7.4-6.8v-1.2h2.5v1.2c0,3.5,4.3,6.3,7.4,6.9L40.8,151.6L40.8,151.6z"/>
	<path class="st0" d="M43.8,146v-1.9h11.9v1.9H43.8z M49.8,153.9c-2.8,0-4.9-1.4-4.9-3.6s2.1-3.6,4.9-3.6s4.8,1.4,4.8,3.6
		S52.5,153.9,49.8,153.9z M46.8,141h6v1.9h-6V141z M46.8,160.4v-5.5h2.4v3.6h11.3v1.9H46.8z M49.8,148.5c-1.5,0-2.6,0.7-2.6,1.8
		s1.1,1.8,2.6,1.8s2.5-0.6,2.5-1.8S51.2,148.5,49.8,148.5z M59.9,146.9h3v1.9h-3v6.8h-2.4v-15.1h2.4V146.9z"/>
	<path class="st0" d="M78.1,156.6v-3.8h-8.1v-1.9h18.5v1.9h-8v3.8H78.1L78.1,156.6z M72.3,160.4v-5.8h2.4v3.9h11.6v1.9H72.3z
		 M86,148.9H72.4v-7.3H86V148.9z M83.6,143.5h-8.9v3.5h8.9V143.5z"/>
	<path class="st0" d="M98.6,156.2c-1.4-0.9-3.2-3.1-3.7-5c-0.5,2-2.2,4.4-4,5.5l-1.5-1.6c2.7-1.8,4.3-4.8,4.3-8.8v-1.5h-3.6v-1.9
		h9.3v1.9H96v1.4c0,4.1,1.6,7,3.9,8.3L98.6,156.2L98.6,156.2z M100.8,160v-10.3H98v-1.9h2.8v-6.9h2.2V160H100.8z M104.8,161v-20.5
		h2.2V161H104.8z"/>
	<path class="st0" d="M117.8,161v-6.9h-8v-1.9h18.5v1.9h-8.1v6.9H117.8L117.8,161z M112,149.8v-8.5h2.3v2.5h9.2v-2.5h2.3v8.5
		L112,149.8L112,149.8z M123.6,145.6h-9.2v2.2h9.2V145.6z"/>
	<path class="st0" d="M138.8,149.9h-6v4.5c2.7,0,5.6-0.1,8.3-0.6l0.3,1.9c-2.1,0.5-5,0.7-8.9,0.7h-2.1v-14h9.4v1.9h-7.1v3.8h6
		L138.8,149.9L138.8,149.9z M144.1,161v-11h-3.7V148h3.7v-7.5h2.3V161L144.1,161L144.1,161z"/>
	<path class="st0" d="M150.5,156h2.6l-1,5.1h-1.9L150.5,156L150.5,156z"/>
	<path class="st0" d="M5.4,184.8L3.9,183c4.7-2.2,7.7-6.5,8.1-10.8H5.1v-1.9h9.5C14.4,176.6,11.3,181.6,5.4,184.8L5.4,184.8z
		 M18.7,188.6v-10.4h-4.2v-2h4.2v-8.1h2.4v20.5L18.7,188.6L18.7,188.6z"/>
	<path class="st0" d="M33.7,183c-1.7,0.4-4.4,0.6-6.8,0.6h-2.1v-13h7.7v1.9c-1.8,0-3.6,0-5.3,0v9.1c2.5,0,4.7-0.2,6.2-0.5L33.7,183
		L33.7,183z M39.1,188.6v-10.4H37v9.4h-2.2v-19.1H37v7.7h2.1v-8.1h2.3v20.5L39.1,188.6L39.1,188.6z"/>
	<path class="st0" d="M43.8,173.6v-1.9h11.9v1.9H43.8z M49.8,181.5c-2.8,0-4.9-1.4-4.9-3.6s2.1-3.6,4.9-3.6s4.8,1.4,4.8,3.6
		S52.5,181.5,49.8,181.5z M46.8,168.6h6v1.9h-6V168.6z M46.8,188v-5.5h2.4v3.6h11.3v1.9H46.8z M49.8,176.1c-1.5,0-2.6,0.7-2.6,1.8
		s1.1,1.8,2.6,1.8s2.5-0.6,2.5-1.8S51.2,176.1,49.8,176.1z M59.9,174.5h3v1.9h-3v6.8h-2.4v-15.1h2.4V174.5z"/>
	<path class="st0" d="M78.1,184.2v-3.8h-8.1v-1.9h18.5v1.9h-8v3.8H78.1L78.1,184.2z M72.3,188v-5.8h2.4v3.9h11.6v1.9H72.3z
		 M86,176.5H72.4v-7.3H86V176.5z M83.6,171.1h-8.9v3.5h8.9V171.1z"/>
	<path class="st0" d="M98.6,183.8c-1.4-0.9-3.2-3.1-3.7-5c-0.5,2-2.2,4.4-4,5.5l-1.5-1.6c2.7-1.8,4.3-4.8,4.3-8.8v-1.5h-3.6v-1.9
		h9.3v1.9H96v1.4c0,4.1,1.6,7,3.9,8.3L98.6,183.8L98.6,183.8z M100.8,187.6v-10.3H98v-1.9h2.8v-6.9h2.2v19.1H100.8z M104.8,188.6
		v-20.5h2.2v20.5H104.8z"/>
	<path class="st0" d="M110.9,184l-1.8-1.2c2.9-2.7,4.5-6.9,4.5-10.6h-3.3v-1.9h5.5C115.8,176.4,114.2,180.5,110.9,184L110.9,184z
		 M116.8,185.2l-1.9-1.2c3.1-3.2,4.4-7.6,4.4-11.8h-2.5v-1.9h4.8C121.5,176.9,120.4,180.9,116.8,185.2z M125.8,176.4h3v1.9h-3v10.3
		h-2.2v-20.5h2.2V176.4L125.8,176.4z"/>
	<path class="st0" d="M141,183.6c-1.9-1.1-4.4-3.7-5.1-5.8c-0.5,2.2-2.6,4.9-5,6.2l-1.5-1.7c3.3-1.8,5.3-5.1,5.3-9.2v-1h-4.3v-1.9
		h10.9v1.9h-4.2v1c0,4.1,2.2,7.2,5.2,8.8L141,183.6L141,183.6z M144.1,188.6v-20.5h2.3v20.5H144.1z"/>
	<path class="st0" d="M150.4,183.6h2.5v2.5h-2.5V183.6z"/>
</g>
<g>
	<path class="st0" d="M29.3,29.5h5.2v3.8H2.2v-3.8h22.6c0.5-2.4,0.9-6.6,0.9-8.8H6.4V17h24C30.4,21.6,29.9,26.1,29.3,29.5L29.3,29.5
		z M6.3,50.9V36.1H11v4h14.7V36h4.6v14.9L6.3,50.9L6.3,50.9z M25.7,43.6H11v3.6h14.7V43.6z"/>
	<path class="st0" d="M36.4,25.7v-3.6h20.7v3.6H36.4z M46.9,39.8c-4.9,0-8.5-2.7-8.5-6.5s3.6-6.6,8.5-6.6s8.4,2.8,8.4,6.6
		S51.7,39.8,46.9,39.8z M41,50.5v-9.4h4.7v5.7h19.6v3.7C65.4,50.5,41,50.5,41,50.5z M41.7,16.9h10.6v3.6H41.7V16.9z M46.9,36
		c2,0,3.8-1.1,3.8-2.7c0-1.7-1.8-2.8-3.8-2.8s-3.8,1.2-3.8,2.8S44.9,36,46.9,36z M64.5,27.2h5v3.9h-5v11.1h-4.7V15.7h4.7V27.2
		L64.5,27.2z"/>
	<path class="st0" d="M95.4,43.5V37H81.3v-3.7h32.2V37H100v6.6H95.4L95.4,43.5z M85.4,50.4V40.2h4.7v6.5h19.7v3.7H85.4z M109.2,29.9
		H85.5V17h23.7C109.2,17,109.2,29.9,109.2,29.9z M104.5,20.8H90.3v5.4h14.3V20.8z"/>
	<path class="st0" d="M130.6,43.1c-2.3-1.5-5.3-5.1-6.2-8.3c-0.8,3.3-3.9,7.4-6.8,9.1l-2.8-3.2c5.1-3.4,7.4-8.4,7.4-15.5v-1.7h-6
		v-3.7h16.1v3.7h-5.6v1.6c0,7,2.3,12,6.6,14.6L130.6,43.1L130.6,43.1z M134.5,49.7V31.8h-4.6V28h4.6V16.4h4.4v33.3L134.5,49.7
		L134.5,49.7z M141.6,51.3V15.7h4.4v35.6H141.6z"/>
	<path class="st0" d="M151.6,43.8h5l-2.9,8.1H150L151.6,43.8L151.6,43.8z"/>
	<path class="st0" d="M21.3,96.2c-2.7-1-6.4-4.4-8-7.6c-1.1,3.6-5,7.3-8.2,8.5l-2.8-3.7c5.2-1.9,8.6-6.5,8.6-11.9v-3.8h4.9v3.5
		c0,5.5,4.1,9.9,8.2,11.3C24,92.5,21.3,96.2,21.3,96.2z M7.8,110.4V99.2h4.7v7.5h20v3.7C32.5,110.4,7.8,110.4,7.8,110.4z
		 M27.1,101.5V75.7h4.7v25.8H27.1z"/>
	<path class="st0" d="M36.7,96.7v-3.7h13.8v-4.8h4.7v4.8h13.8v3.7H36.7L36.7,96.7z M40,90.2l-2-3.6c6-0.6,12.3-3.9,12.3-9.2v-1h4.8
		v1c0,5.3,7.2,8.9,12.4,9.2l-2,3.7c-4.8-0.7-11-3.6-12.8-7.6C51,86.7,45.2,89.6,40,90.2z M64.7,99.4v12h-4.6v-8.2H40.5v-3.7H64.7
		L64.7,99.4z"/>
	<path class="st0" d="M71.5,87.7V84h20.8v3.7H71.5z M82.1,89.1c5.2,0,8.7,3.2,8.7,7.7s-3.5,7.7-8.7,7.7s-8.7-3.1-8.7-7.7
		C73.4,92.5,76.9,89.1,82.1,89.1z M76.5,78h11v3.7h-11L76.5,78L76.5,78z M82.1,100.7c2.7,0,4.2-1.6,4.2-3.9s-1.7-3.9-4.2-3.9
		s-4,1.6-4,3.9S79.7,100.7,82.1,100.7z M95.8,111.3V75.7h4.7v35.6H95.8z"/>
	<path class="st0" d="M115.6,84.2h17v3.7h-17V84.2z M124.2,104.1c-4.6,0-7.8-3.2-7.8-7.4c0-4.5,3.2-7.4,7.8-7.4
		c4.6,0,7.8,2.9,7.8,7.4S128.8,104.1,124.2,104.1z M119.5,78.5h9.6v3.7h-9.6V78.5z M124.2,92.9c-2,0-3.6,1.5-3.6,3.7
		s1.5,3.7,3.6,3.7s3.6-1.6,3.6-3.7S126.3,92.9,124.2,92.9z M141.5,111.3V93.9h-3v15.8h-4.4V76.3h4.4v13.8h3V75.7h4.4v35.6
		C146,111.3,141.5,111.3,141.5,111.3z"/>
	<path class="st0" d="M152.3,94.4l-2.3-3.8c6.4-0.9,11.9-4.4,13.1-9.5h-11.4v-3.9h16.6C168.3,87.3,160.3,92.7,152.3,94.4L152.3,94.4
		z M156.1,111.1v-9.6h18.8V99h-19v-3.7h23.6v9.6h-18.7v2.4h19.8v3.8H156.1L156.1,111.1z M174.8,93.5v-3h-6.7V87h6.7v-3h-6v-3.5h6
		v-4.8h4.6v17.8C179.5,93.5,174.8,93.5,174.8,93.5z"/>
	<path class="st0" d="M184.3,84.2h17v3.7h-17V84.2z M192.9,104.1c-4.6,0-7.8-3.2-7.8-7.4c0-4.5,3.2-7.4,7.8-7.4s7.8,2.9,7.8,7.4
		S197.5,104.1,192.9,104.1z M188.2,78.5h9.6v3.7h-9.6V78.5z M192.9,92.9c-2,0-3.6,1.5-3.6,3.7s1.5,3.7,3.6,3.7s3.6-1.6,3.6-3.7
		S195,92.9,192.9,92.9z M210.3,111.3V93.9h-3v15.8h-4.4V76.3h4.4v13.8h3V75.7h4.4v35.6C214.7,111.3,210.3,111.3,210.3,111.3z"/>
	<path class="st0" d="M218.7,106.9v-3.8h7.2v-5.9l4.7,0.2v5.7h8.4v-5.7l4.7-0.2v5.9h7.3v3.8H218.7L218.7,106.9z M234.9,96.6
		c-7.8,0-13-3.9-13-9.4s5.2-9.5,13-9.5s13,4,13,9.5S242.7,96.6,234.9,96.6z M234.9,81.7c-5,0-8.2,2.3-8.2,5.6s3.2,5.5,8.2,5.5
		s8.2-2.3,8.2-5.5S239.8,81.7,234.9,81.7z"/>
	<path class="st0" d="M254.5,102.5h4.9v4.7h-4.9V102.5z"/>
</g>
<path class="st0" d="M7.5,235.6h93c4.1,0,7.5,3.3,7.5,7.5v30c0,4.1-3.3,7.5-7.5,7.5h-93c-4.1,0-7.5-3.3-7.5-7.5v-30
	C0,238.9,3.4,235.6,7.5,235.6z"/>
<g>
	<path class="st1" d="M32.3,255.3h2.3v1.7H20.2v-1.7h10.2c0.2-0.9,0.4-2.4,0.4-3.4H22v-1.7h10.8C32.8,252.3,32.7,253.9,32.3,255.3
		L32.3,255.3z M21.9,265.5v-4.3h8.8V260h-9v-1.7h11.1v4.3H24v1.1h9.4v1.7L21.9,265.5L21.9,265.5z"/>
	<path class="st1" d="M47.7,249.9c3.6,0,5.7,1.1,5.7,2.9c0,1.6-1.7,2.6-4.7,2.8v0.9H55v1.7H40.5v-1.7h6.2v-0.9
		c-2.9-0.2-4.6-1.3-4.6-2.8C42.1,251,44.1,249.9,47.7,249.9L47.7,249.9z M42.3,265.6v-4.1H51v-0.9h-8.8V259H53v4h-8.6v0.9h9.2v1.7
		L42.3,265.6L42.3,265.6z M47.7,254c2.2,0,3.5-0.6,3.5-1.3s-1.3-1.3-3.5-1.3s-3.5,0.6-3.5,1.3S45.5,254,47.7,254z"/>
	<path class="st1" d="M66,261.5c-1.7,0.3-4.7,0.5-7.4,0.5h-1.7v-6.7h5.2v-2.7h-5.3V251h7.4v6H59v3.3c1.5,0,4.7-0.1,6.8-0.5L66,261.5
		L66,261.5z M69.3,249.7v16h-2.1v-16H69.3z"/>
	<path class="st1" d="M72.8,262.8l-1.3-1.6c3.5-1.6,5.9-5,6.2-8.1h-5.2v-1.8h7.5C79.8,256.2,77.7,260.1,72.8,262.8L72.8,262.8z
		 M82.8,265.7v-16h2.1v16H82.8z"/>
</g>
<g>
	<path class="st2" d="M534.3,196.5c1.6-0.6,3.5-1.8,4.1-3.5c0.6-1.9-1.8-4.1-3.8-3.5c-1.7,0.5-8.3,5.8-8.9,7.5
		C525.2,198.8,531.6,197.5,534.3,196.5L534.3,196.5z"/>
	<path class="st2" d="M622.8,200c0.9-1.8,1.6-3.8,1.6-4.9c0-0.8-0.3-1.9-0.8-2.6c-0.8-1.2-1.7-1.3-2.7,0.1c-1.7,2.1-3.2,4.3-5.4,7.8
		c-1.6,0.1-3.5,0.2-5.2,0.1s-2.4,0.6-1.4,1.9c0.6,0.8,1.9,1.5,4.1,1.8c-0.8,1.3-1.6,2.6-2.3,3.9c-0.1,0.1-0.2,0.2-0.2,0.3
		c-2.2,3.9-16.2,20.6-21.1,18.8c-0.9-0.4-1.4-0.8-1.4-2.2c0-1,0.3-2.4,0.9-3.8c0.8-1.6,2.6-4.3,6.5-10.6c0.6-0.9,0.8-1.8,0.8-2.7
		c0-2.5-2.1-4.5-4.2-4.5c-1.4,0-3.9,0.8-6,2.2c0.7-0.9,5.2-6.9,6.6-9.1c1.7-2.7,2.6-5.1,2.6-6.9c0-0.9-0.2-1.8-0.6-2.5
		c-0.7-1.3-1.7-1.6-2.9-0.3c-3.8,4.4-11.2,15.2-16.7,24c-3,3.7-13.1,13.4-22.4,16.4c2.4-4.9,5.2-9.6,7.5-13.7c1.8-3.2,2.6-5,2.6-6.7
		c0-1.4-0.5-2.6-1.2-3.3c-0.9-1-2.2-1-3.1,0.4c-0.4,0.7-0.9,1.4-1.2,1.8c-0.7-1.6-2.2-2.7-4.6-2.7c-5.1,0-12.9,5.6-16.8,12.3
		c-0.2,0.1-0.3,0.3-0.4,0.6c-2.2,4.4-9.6,11.9-16.6,11.1c-0.8-0.1-1.1-0.6-1.1-1.6s0.4-2.4,1-3.9c1.2-2.6,4.5-7.4,5.9-10.2
		c1.9-3.2,1.3-6-0.1-7.3c-0.9-1-1.8-0.8-2.9,0.4c-1.4,1.7-4.2,6.2-6.2,9.6c-4.4,7.8-19.2,21.4-23.4,7.2c-1-3.5-0.6-4.4-0.4-6.2
		c6.4-2.1,12.9-6.2,15.9-10c2.7-3.3,4.2-7,2.2-11.3c-1.8-4.1-5.3-5.5-9.1-5.4c-2.7,0.1-5.2,0.8-7.9,1.6c-2.6,0.8-5.3,1.5-8.2,1.9
		c-1.5,0.2-1.9,0.7-1.3,1.6c0.9,1.4,1.9,2.3,4.2,2.6c-6.3,8.9-12.7,20.6-14.4,26.3c-0.4,1.2-0.5,2.3-0.5,3.2c0,1.6,0.6,2.6,1.4,3.4
		c1.1,1,1.9,0.8,2.4-0.4c2.2-4.8,4-8.5,5.8-11.6l3.9-1c-0.9,3.9-1.8,8,1.8,11.6c4.7,4.6,12,3.8,16,2.1c3.1-1.3,5.8-2.9,7.9-4.7
		c0.3,2.8,2.3,4.6,6.3,4.7c6.3,0.2,11.9-2.3,15.5-5.1c0.5,3,2.8,5,6.3,5c1.9,0,3.8-0.6,5.4-1.6l-0.9,2.1
		c-8.8,2.7-15.7,9.4-15.7,15.2c0,2,1.1,3.7,2.1,5c1.5,1.8,3.3,2.1,5,1.5c5.8-2.5,11.1-12.3,14.9-20.6c7.2-2,13.5-5.8,18.1-9.4
		c0,0.1-0.1,0.1-0.1,0.2c-1.8,4.3-0.8,5.8,0.4,7.1c0.9,1,1.9,0.8,2.5-0.4c1.7-3.9,4.3-8.3,6.8-12c3.8-5.6,10.6-9.6,11.3-9.6
		c0.5,0-0.6,1.6-1.9,3.7c-2.7,3.8-6.2,9.4-6.2,13.5c0,3.4,2.2,5.3,6.9,5.5c5.2,0.3,11.3-3.8,16-8.1c0,0.3,0,0.6,0,0.8
		c0,4.5,3.3,7.2,7.1,7.2c6,0,10.8-5.6,11.9-7.5c0.8-1.5,1.1-2.5,0.7-3.8c-0.5-1.8-2.2-1.6-2.9-0.1c-2.5,4.9-6.2,8.9-9.1,8.9
		c-1.2,0-1.9-1.4-1.9-3.3c0-1.4,0.4-3.1,1.3-4.9c2.5-4.9,6.6-11.3,9.3-15.5c1.6-0.2,14.2-0.1,21.5-0.4c1.7-0.1,2.7-2.2,2-3.4
		C643.9,198.9,626.6,200.9,622.8,200L622.8,200z M491.2,202.8c1.8-3,2.7-5.3,2.7-7.1l2.8-0.8c2.3-0.7,5-1.6,6.7-1.6
		c1.1,0,1.9,0.3,2.3,1.4c1.9,4.3-5.2,12.8-19.5,16.1C487.5,208.8,489.3,206.1,491.2,202.8L491.2,202.8z M538.2,242.7
		c-2.2,3.5-4,5.4-4.7,5c-0.7-0.6,0.2-3.6,2.3-6.8c1.5-2.3,3.7-4.6,6.8-6.5C541.2,237.6,539.7,240.4,538.2,242.7L538.2,242.7z
		 M550.3,217.5c-3.5,5.4-6.9,9.4-9.2,9.3c-0.7,0-0.9-0.8-0.9-2.1c0-7.5,11.1-17.7,13.5-17.7c0.5,0,0.7,0.4,0.7,1.2
		C554.4,209.9,553.1,213.1,550.3,217.5L550.3,217.5z"/>
	<path class="st2" d="M692.1,192c0-0.9-0.2-1.8-0.7-2.5c-0.8-1.2-1.7-1.6-2.7-0.2c-4.7,6.7-11.7,18-16.6,27.2
		c0.5-7.4,1.2-14.2,2.2-19.4c0.2-1.2,0.4-2.2,0.4-3.1c0-2.3-1-3.7-3.2-5.1c-1.1-0.8-1.9-0.8-2.9,0.6c-5.5,8.1-14.6,23.5-18.3,32.2
		c-0.6,1.4-0.9,2.9-0.9,3.9c0,1.5,0.7,2.8,1.4,3.6c1,1,2.1,0.9,2.6-0.4c3.2-8,8.3-16.9,13.4-24.8c-0.7,5.5-0.9,10.9-0.9,14.6
		c0,1.6,0.1,2.9,0.2,4.7c0.3,3.3,1.4,5,3.8,6.1c1.2,0.6,2,0.2,2.4-0.6c4.4-8.7,13.2-23.9,17.2-29.9
		C691.7,195.8,692.2,193.5,692.1,192L692.1,192z"/>
	<path class="st2" d="M744.1,203c-2.1,0-6.9,3.4-8.4,14.2c-3.6,5.8-7.5,9.9-9.7,9.9c-0.5,0-0.8-0.5-0.8-1.4c0-0.9,0.5-2.4,1.3-3.9
		c2.2-4.5,5.2-8.4,6.6-10.9c0.9-1.6,1.2-3,1.2-4.3c0-1.4-0.4-2.3-1.2-3.2c-0.9-1.2-1.9-0.9-3,0.4c-1.2,1.6-2.3,3.2-3.4,5.2
		c-1.4,2.2-3.1,5-6.1,9.5c-3.2,4.8-5.7,8.3-7.3,8.3c-0.7,0-0.9-0.4-0.9-1.2c0-0.9,0.3-2.1,0.9-3.6c1.4-3,3.2-5.9,5.5-9.4
		c1.6-2.3,2.4-4.3,2.4-5.9c0-1-0.4-2.1-1.1-3c-0.8-1-2.2-1.1-3,0.1c-0.8,1-1.8,2.4-2.5,3.4c-2.2,3.1-5.6,5.8-8.9,6.3
		c0.4-3.6-0.9-5.6-2.3-6.9c-0.4-0.3-0.7-0.6-1-1c-1.7-2-2.9-2.6-5.5-2.4c-4.4,0.3-9.2,4.1-11.9,8.3c-1.8,2.9-3,6.3-3,9.1
		c0,1.9,0.7,4,2.1,5.6c2,2.3,4.6,3.2,6.8,3.2c6.6,0,12.4-7.4,14.2-13.4c1.4,0,2.8-0.2,4.2-0.6c-0.8,1.6-1.4,2.9-1.9,4.4
		c-0.7,1.7-0.9,3.2-0.9,4.4c0,2.9,1.5,5.1,4.9,5.1c3.2,0,5.8-1.6,7.9-3.6c0.4,2.3,2.3,3.9,5.1,3.9c5,0,10.1-4.9,14.9-12
		c4.7-6.7,5.7-9.5,6.2-12C746,203.9,745.3,203,744.1,203L744.1,203z M696.8,219.5c-2.5,4.4-5.5,6.7-7.4,6.7c-0.9,0-1.6-0.7-1.6-2.6
		c0-2.4,1.1-5.9,3-9.1c1.2-1.9,2.7-3.6,4.1-5c0.4,2.1,2.3,4.1,4.5,5.1C698.8,216,698,217.7,696.8,219.5L696.8,219.5z M700.5,212.5
		c-0.8-0.8-1.2-2.5-1.2-3.7c0-1,0.7-1.6,1.1-1.6c0.5,0,1.1,0.4,1.1,1.4C701.5,209.4,701.2,211,700.5,212.5L700.5,212.5z"/>
</g>
<g>
	<polygon class="st2" points="906.1,257.1 783.8,203.7 783.8,58 906.1,111.3 	"/>
	<polygon class="st3" points="863.4,238.2 820.2,218.7 820.2,142 863.4,161.5 	"/>
	<polygon class="st4" points="863.4,238.2 820.2,218.7 797.8,231.7 841,251.2 	"/>
	<polygon class="st5" points="995.9,57.3 873.5,4 783.8,58 906.1,111.3 	"/>
	<polygon class="st6" points="906.1,257.1 995.2,203.7 995.2,58 906.1,111.3 	"/>
</g>
</svg>
