<?xml version="1.0" encoding="utf-8"?>
<!-- Generator: Adobe Illustrator 27.8.1, SVG Export Plug-In . SVG Version: 6.00 Build 0)  -->
<svg version="1.1" id="_레이어_2" xmlns="http://www.w3.org/2000/svg" xmlns:xlink="http://www.w3.org/1999/xlink" x="0px"
	 y="0px" viewBox="0 0 996 281.5" style="enable-background:new 0 0 996 281.5;" xml:space="preserve">
<style type="text/css">
	.st0{fill:#FAFAAA;}
	.st1{fill:#4371C4;}
	.st2{fill:#009EE2;}
	.st3{fill:#FFFFFF;}
	.st4{fill:#CACACA;}
	.st5{fill:#00ACE8;}
	.st6{fill:#1DBBEE;}
</style>
<g>
	<path class="st0" d="M11.9,51.3V38.6c-3.3,0.1-6.5,0.1-9.1,0.1L2.2,35c9,0,18.5-0.4,23.6-1l0.4,3.6c-2.8,0.4-6.1,0.6-9.6,0.8v12.9
		C16.6,51.3,11.9,51.3,11.9,51.3z M23.2,31.6H5.9V18.4h17.4V31.6z M18.5,22.1h-7.9v5.8h7.9V22.1z M20.9,40.2h7.4V16.7h4.6v35.6h-4.6
		v-8.6h-7.4V40.2L20.9,40.2z"/>
	<path class="st0" d="M37.2,38.3v-3.8h32.2v3.8H37.2z M41.3,51.2V40.8H46v6.8h19.7v3.7C65.7,51.2,41.3,51.2,41.3,51.2z M41.5,31.3
		v-13h23.9V22H46.2v5.6h19.5v3.7H41.5z"/>
	<path class="st0" d="M91.3,43.8c-3.2-1.6-7.5-6.1-8.6-9.6c-0.8,3.6-4.4,8.4-8.6,10.4l-2.8-3.5c6-3.2,8.9-8.7,8.9-16.2v-1h-7.1v-3.7
		H92V24h-6.9v0.9c0,7.5,3.4,12.5,8.8,15.2L91.3,43.8L91.3,43.8z M96.4,52.3V16.7h4.7v35.6L96.4,52.3L96.4,52.3z"/>
	<path class="st0" d="M107.5,44.8h5l-2.9,8.1h-3.8L107.5,44.8L107.5,44.8z"/>
	<path class="st0" d="M23.3,97.6c-4.5,0.8-12.8,1.3-20.2,1.3L2.5,95h4.3l-0.8-9.8c1.5-0.2,3-0.3,4.6-0.5c0.1,3.4,0.3,6.8,0.4,10.2
		c1.2,0,2.3-0.1,3.5-0.1c0.1-3.4,0.3-6.7,0.5-10.1l4.5,0.4l-0.9,9.4c1.6-0.2,3-0.3,4.4-0.5L23.3,97.6z M3.5,83.2v-3.7h18.4v3.7H3.5z
		 M8.5,111.3v-10.4h4.7v6.7h19.9v3.7H8.5z M23.2,82.8h4.4v-6.2h4.7v25.8h-4.7v-8.9h-4.4V90h4.4v-3.6h-4.4V82.8z"/>
	<path class="st0" d="M37.1,88.9v-3.7h20.7v3.7H37.1z M47.4,90.1c5.1,0,8.6,3.2,8.6,7.7s-3.5,7.7-8.6,7.7s-8.6-3.2-8.6-7.7
		S42.3,90.1,47.4,90.1z M42.1,79h11v3.7h-11V79z M47.4,101.7c2.6,0,4-1.6,4-3.9s-1.7-3.9-4-3.9s-4,1.6-4,3.9S45.1,101.7,47.4,101.7z
		 M65.1,91.1h5V95h-5v17.3h-4.7V76.7h4.7V91.1L65.1,91.1z"/>
	<path class="st0" d="M73.8,105.3l-3-3.2c7-4.2,10.8-10.4,11.3-17.5h-9.2v-3.8h13.7C86.7,91.5,82.5,99.6,73.8,105.3L73.8,105.3z
		 M90.4,110.7V94.4h-4.6v-3.8h4.6V77.3h4.4v33.3L90.4,110.7L90.4,110.7z M97.5,112.3V76.7h4.4v35.6H97.5z"/>
	<path class="st0" d="M124.3,104.9c-5.5,0-7.7-6.3-7.7-12.8s2.2-12.7,7.7-12.7c5.5,0,7.8,6.2,7.8,12.8S129.8,104.9,124.3,104.9z
		 M124.3,83.4c-2.3,0-3.3,3.9-3.3,8.7s1,8.6,3.3,8.6s3.4-3.9,3.4-8.6S126.7,83.4,124.3,83.4z M142.1,112.3V99.6h-3.4v11.1h-4.4V77.4
		h4.4v7.4h3.4v-8.1h4.4v35.6C146.6,112.3,142.1,112.3,142.1,112.3z M138.8,95.8h3.4v-7.2h-3.4V95.8z"/>
	<path class="st0" d="M153.2,105.9l-2.9-3.5c7.8-3.6,13.1-11,13.8-18.1h-11.6v-3.9h16.6C168.8,91.2,164.1,100,153.2,105.9
		L153.2,105.9z M175.4,112.3V76.7h4.7v35.6C180.1,112.3,175.4,112.3,175.4,112.3z"/>
	<path class="st0" d="M184.9,85.2h17v3.7h-17V85.2z M193.5,105c-4.6,0-7.8-3.2-7.8-7.4c0-4.5,3.2-7.4,7.8-7.4s7.8,2.9,7.8,7.4
		S198.1,105,193.5,105z M188.8,79.4h9.6v3.7h-9.6V79.4z M193.5,93.9c-2,0-3.6,1.5-3.6,3.7s1.5,3.7,3.6,3.7s3.6-1.6,3.6-3.7
		S195.5,93.9,193.5,93.9z M210.8,112.3V94.8h-3v15.8h-4.4V77.3h4.4v13.8h3V76.7h4.4v35.6C215.3,112.3,210.8,112.3,210.8,112.3z"/>
	<path class="st0" d="M219.3,107.9v-3.8h7.2v-5.9l4.7,0.2v5.7h8.4v-5.7l4.7-0.2v5.9h7.3v3.8H219.3L219.3,107.9z M235.4,97.6
		c-7.8,0-13-3.9-13-9.4s5.2-9.5,13-9.5s13,4,13,9.5S243.3,97.6,235.4,97.6z M235.4,82.7c-5,0-8.2,2.3-8.2,5.6s3.2,5.5,8.2,5.5
		s8.2-2.3,8.2-5.5S240.4,82.7,235.4,82.7z"/>
	<path class="st0" d="M255.1,103.5h4.9v4.7h-4.9V103.5z"/>
</g>
<path class="st0" d="M7.6,236.5h93c4.1,0,7.5,3.3,7.5,7.5v30c0,4.1-3.3,7.5-7.5,7.5h-93c-4.1,0-7.5-3.3-7.5-7.5v-30
	C0.1,239.8,3.4,236.5,7.6,236.5z"/>
<g>
	<path class="st1" d="M32.4,256.2h2.3v1.7H20.2v-1.7h10.2c0.2-0.9,0.4-2.4,0.4-3.4h-8.7v-1.7h10.8C32.9,253.1,32.7,254.8,32.4,256.2
		L32.4,256.2z M22,266.4v-4.3h8.8v-1.2h-9v-1.7h11.1v4.3h-8.8v1.1h9.4v1.7L22,266.4L22,266.4z"/>
	<path class="st1" d="M47.8,250.8c3.6,0,5.7,1.1,5.7,2.9c0,1.6-1.7,2.6-4.7,2.8v0.9H55v1.7H40.6v-1.7h6.2v-0.9
		c-2.9-0.2-4.6-1.3-4.6-2.8C42.2,251.9,44.2,250.8,47.8,250.8L47.8,250.8z M42.4,266.5v-4.1H51v-0.9h-8.8v-1.7h10.8v4h-8.6v0.9h9.2
		v1.7L42.4,266.5L42.4,266.5z M47.8,254.9c2.2,0,3.5-0.6,3.5-1.3s-1.3-1.3-3.5-1.3s-3.5,0.6-3.5,1.3S45.6,254.9,47.8,254.9z"/>
	<path class="st1" d="M66.1,262.4c-1.7,0.3-4.7,0.5-7.4,0.5H57v-6.7h5.2v-2.7h-5.3v-1.7h7.4v6h-5.2v3.3c1.5,0,4.7-0.1,6.8-0.5
		L66.1,262.4L66.1,262.4z M69.4,250.5v16h-2.1v-16H69.4z"/>
	<path class="st1" d="M72.9,263.7l-1.3-1.6c3.5-1.6,5.9-5,6.2-8.1h-5.2v-1.8H80C79.9,257.1,77.7,261,72.9,263.7L72.9,263.7z
		 M82.8,266.6v-16H85v16H82.8z"/>
</g>
<g>
	<path class="st2" d="M534.4,197.4c1.6-0.6,3.5-1.8,4.1-3.5c0.6-1.9-1.8-4.1-3.8-3.5c-1.7,0.5-8.3,5.8-8.9,7.5
		C525.3,199.7,531.7,198.3,534.4,197.4L534.4,197.4z"/>
	<path class="st2" d="M622.9,200.9c0.9-1.8,1.6-3.8,1.6-4.9c0-0.8-0.3-1.9-0.8-2.6c-0.8-1.2-1.7-1.3-2.7,0.1
		c-1.7,2.1-3.2,4.3-5.4,7.8c-1.6,0.1-3.5,0.2-5.2,0.1s-2.4,0.6-1.4,1.9c0.6,0.8,1.9,1.5,4.1,1.8c-0.8,1.3-1.6,2.6-2.3,3.9
		c-0.1,0.1-0.2,0.2-0.2,0.3c-2.2,3.9-16.2,20.6-21.1,18.8c-0.9-0.4-1.4-0.8-1.4-2.2c0-1,0.3-2.4,0.9-3.8c0.8-1.6,2.6-4.3,6.5-10.6
		c0.6-0.9,0.8-1.8,0.8-2.7c0-2.5-2.1-4.5-4.2-4.5c-1.4,0-3.9,0.8-6,2.2c0.7-0.9,5.2-6.9,6.6-9.1c1.7-2.7,2.6-5.1,2.6-6.9
		c0-0.9-0.2-1.8-0.6-2.5c-0.7-1.3-1.7-1.6-2.9-0.3c-3.8,4.4-11.2,15.2-16.7,24c-3,3.7-13.1,13.4-22.4,16.4c2.4-4.9,5.2-9.6,7.5-13.7
		c1.8-3.2,2.6-5,2.6-6.7c0-1.4-0.5-2.6-1.2-3.3c-0.9-1-2.2-1-3.1,0.4c-0.4,0.7-0.9,1.4-1.2,1.8c-0.7-1.6-2.2-2.7-4.6-2.7
		c-5.1,0-12.9,5.6-16.8,12.3c-0.2,0.1-0.3,0.3-0.4,0.6c-2.2,4.4-9.6,11.9-16.6,11.1c-0.8-0.1-1.1-0.6-1.1-1.6s0.4-2.4,1-3.9
		c1.2-2.6,4.5-7.4,5.9-10.2c1.9-3.2,1.3-6-0.1-7.3c-0.9-1-1.8-0.8-2.9,0.4c-1.4,1.7-4.2,6.2-6.2,9.6c-4.4,7.8-19.1,21.4-23.4,7.2
		c-1-3.5-0.6-4.4-0.4-6.2c6.4-2.1,12.9-6.2,15.9-10c2.7-3.3,4.2-7,2.2-11.3c-1.8-4.1-5.3-5.5-9.1-5.4c-2.7,0.1-5.2,0.8-7.9,1.6
		c-2.6,0.8-5.3,1.5-8.2,1.9c-1.5,0.2-1.9,0.7-1.3,1.6c0.9,1.4,1.9,2.3,4.2,2.6c-6.3,8.9-12.7,20.6-14.4,26.3
		c-0.4,1.2-0.5,2.3-0.5,3.2c0,1.6,0.6,2.6,1.4,3.4c1.1,1,1.9,0.8,2.4-0.4c2.2-4.8,4-8.5,5.8-11.6l3.9-1c-0.9,3.9-1.8,8,1.8,11.6
		c4.7,4.6,12,3.8,16,2.1c3.1-1.3,5.8-2.9,7.9-4.7c0.3,2.8,2.3,4.6,6.3,4.7c6.3,0.2,11.9-2.3,15.5-5.1c0.5,3,2.8,5,6.3,5
		c1.9,0,3.8-0.6,5.4-1.6l-0.9,2.1c-8.8,2.7-15.7,9.4-15.7,15.2c0,2,1.1,3.7,2.1,5c1.5,1.8,3.3,2.1,5,1.5
		c5.8-2.5,11.1-12.3,14.9-20.6c7.2-2,13.5-5.8,18.1-9.4c0,0.1-0.1,0.1-0.1,0.2c-1.8,4.3-0.8,5.8,0.4,7.1c0.9,1,1.9,0.8,2.5-0.4
		c1.7-3.9,4.3-8.3,6.8-12c3.8-5.6,10.6-9.6,11.3-9.6c0.5,0-0.6,1.6-1.9,3.7c-2.7,3.8-6.2,9.4-6.2,13.5c0,3.4,2.2,5.3,6.9,5.5
		c5.2,0.3,11.3-3.8,16-8.1c0,0.3,0,0.6,0,0.8c0,4.5,3.3,7.2,7.1,7.2c6,0,10.8-5.6,11.9-7.5c0.8-1.5,1.1-2.5,0.7-3.8
		c-0.5-1.8-2.2-1.6-2.9-0.1c-2.5,4.9-6.2,8.9-9.1,8.9c-1.2,0-1.9-1.4-1.9-3.3c0-1.4,0.4-3.1,1.3-4.9c2.5-4.9,6.6-11.3,9.3-15.5
		c1.6-0.2,14.2-0.1,21.5-0.4c1.7-0.1,2.7-2.2,2-3.4C644,199.8,626.7,201.8,622.9,200.9L622.9,200.9z M491.3,203.7
		c1.8-3,2.7-5.3,2.7-7.1l2.8-0.8c2.3-0.7,5-1.6,6.7-1.6c1.1,0,1.9,0.3,2.3,1.4c1.9,4.3-5.2,12.8-19.5,16.1
		C487.6,209.7,489.4,207,491.3,203.7L491.3,203.7z M538.3,243.6c-2.2,3.5-4,5.4-4.7,5c-0.7-0.6,0.2-3.6,2.3-6.8
		c1.5-2.3,3.7-4.6,6.8-6.5C541.3,238.4,539.8,241.3,538.3,243.6L538.3,243.6z M550.4,218.4c-3.5,5.4-6.9,9.4-9.2,9.3
		c-0.7,0-0.9-0.8-0.9-2.1c0-7.5,11.1-17.7,13.5-17.7c0.5,0,0.7,0.4,0.7,1.2C554.5,210.8,553.2,214,550.4,218.4L550.4,218.4z"/>
	<path class="st2" d="M692.2,192.9c0-0.9-0.2-1.8-0.7-2.5c-0.8-1.2-1.7-1.6-2.7-0.2c-4.7,6.7-11.7,18-16.6,27.2
		c0.5-7.4,1.2-14.2,2.2-19.4c0.2-1.2,0.4-2.2,0.4-3.1c0-2.3-1-3.7-3.2-5.1c-1.1-0.8-1.9-0.8-2.9,0.6c-5.5,8.1-14.6,23.5-18.3,32.2
		c-0.6,1.4-0.9,2.9-0.9,3.9c0,1.5,0.7,2.8,1.4,3.6c1,1,2.1,0.9,2.6-0.4c3.2-8,8.3-16.9,13.4-24.8c-0.7,5.5-0.9,10.9-0.9,14.6
		c0,1.6,0.1,2.9,0.2,4.7c0.3,3.3,1.4,5,3.8,6.1c1.2,0.6,2,0.2,2.4-0.6c4.4-8.7,13.2-23.9,17.2-29.9
		C691.8,196.7,692.3,194.4,692.2,192.9L692.2,192.9z"/>
	<path class="st2" d="M744.2,203.9c-2.1,0-6.9,3.4-8.4,14.2c-3.6,5.8-7.5,9.9-9.7,9.9c-0.5,0-0.8-0.5-0.8-1.4c0-0.9,0.5-2.4,1.3-3.9
		c2.2-4.5,5.2-8.4,6.6-10.9c0.9-1.6,1.2-3,1.2-4.3c0-1.4-0.4-2.3-1.2-3.2c-0.9-1.2-1.9-0.9-3,0.4c-1.2,1.6-2.3,3.2-3.4,5.2
		c-1.4,2.2-3.1,5-6.1,9.5c-3.2,4.8-5.7,8.3-7.3,8.3c-0.7,0-0.9-0.4-0.9-1.2c0-0.9,0.3-2.1,0.9-3.6c1.4-3,3.2-5.9,5.5-9.4
		c1.6-2.3,2.4-4.3,2.4-5.9c0-1-0.4-2.1-1.1-3c-0.8-1-2.2-1.1-3,0.1c-0.8,1-1.8,2.4-2.5,3.4c-2.2,3.1-5.6,5.8-8.9,6.3
		c0.4-3.6-0.9-5.6-2.3-6.9c-0.4-0.3-0.7-0.6-1-1c-1.7-2-2.9-2.6-5.5-2.4c-4.4,0.3-9.2,4.1-11.9,8.3c-1.8,2.9-3,6.3-3,9.1
		c0,1.9,0.7,4,2.1,5.6c2,2.3,4.6,3.2,6.8,3.2c6.6,0,12.4-7.4,14.2-13.4c1.4,0,2.8-0.2,4.2-0.6c-0.8,1.6-1.4,2.9-1.9,4.4
		c-0.7,1.7-0.9,3.2-0.9,4.4c0,2.9,1.5,5.1,4.9,5.1c3.2,0,5.8-1.6,7.9-3.6c0.4,2.3,2.3,3.9,5.1,3.9c5,0,10.1-4.9,14.9-12
		c4.7-6.7,5.7-9.5,6.2-12C746.1,204.8,745.4,203.8,744.2,203.9L744.2,203.9z M696.9,220.3c-2.5,4.4-5.5,6.7-7.4,6.7
		c-0.9,0-1.6-0.7-1.6-2.6c0-2.4,1.1-5.9,3-9.1c1.2-1.9,2.7-3.6,4.1-5c0.4,2.1,2.3,4.1,4.5,5.1C698.9,216.9,698,218.5,696.9,220.3
		L696.9,220.3z M700.5,213.4c-0.8-0.8-1.2-2.5-1.2-3.7c0-1,0.7-1.6,1.1-1.6c0.5,0,1.1,0.4,1.1,1.4
		C701.6,210.3,701.3,211.9,700.5,213.4L700.5,213.4z"/>
</g>
<g>
	<polygon class="st2" points="906.2,258 783.8,204.6 783.8,58.8 906.2,112.2 	"/>
	<polygon class="st3" points="863.5,239.1 820.3,219.6 820.3,142.9 863.5,162.4 	"/>
	<polygon class="st4" points="863.5,239.1 820.3,219.6 797.9,232.6 841.1,252.1 	"/>
	<polygon class="st5" points="996,58.2 873.6,4.8 783.8,58.8 906.2,112.2 	"/>
	<polygon class="st6" points="906.2,258 995.3,204.6 995.3,58.8 906.2,112.2 	"/>
</g>
<g>
	<path class="st0" d="M15.9,174.8c-1.8-1.1-4.1-3.8-4.9-6c-0.7,2.4-2.8,5-5,6.4l-1.5-1.7c3.2-2.1,5.2-5.4,5.2-9.4v-3h2.4v2.9
		c0,3.9,2.1,7.2,5.1,9.1L15.9,174.8L15.9,174.8z M21,167.3H24v2H21v10.5h-2.4v-20.5H21V167.3L21,167.3z"/>
	<path class="st0" d="M24.9,177.2v-1.9h8v-5h2.4v5h8.1v1.9H24.9L24.9,177.2z M41.6,170.4c-3.1-0.8-6.4-3.1-7.5-5.6
		c-0.9,2.6-4.4,4.9-7.5,5.6l-1.1-1.9c3.4-0.5,7.4-3.3,7.4-6.8v-1.2h2.5v1.2c0,3.5,4.3,6.3,7.4,6.9L41.6,170.4L41.6,170.4z"/>
	<path class="st0" d="M44.7,164.8v-1.9h11.9v1.9H44.7z M50.7,172.7c-2.8,0-4.9-1.4-4.9-3.6s2.1-3.6,4.9-3.6s4.8,1.4,4.8,3.6
		S53.4,172.7,50.7,172.7z M47.6,159.8h6v1.9h-6V159.8z M47.6,179.3v-5.5H50v3.6h11.3v1.9H47.6z M50.7,167.4c-1.5,0-2.6,0.7-2.6,1.8
		s1.1,1.8,2.6,1.8s2.5-0.6,2.5-1.8S52,167.4,50.7,167.4z M60.7,165.7h3v1.9h-3v6.8h-2.4v-15.1h2.4V165.7z"/>
	<path class="st0" d="M78.9,175.4v-3.8h-8.1v-1.9h18.5v1.9h-8v3.8H78.9L78.9,175.4z M73.2,179.2v-5.8h2.4v3.9h11.6v1.9H73.2z
		 M86.8,167.7H73.2v-7.3h13.6V167.7z M84.5,162.3h-8.9v3.5h8.9V162.3z"/>
	<path class="st0" d="M99.4,175.1c-1.4-0.9-3.2-3.1-3.7-5c-0.5,2-2.2,4.4-4,5.5l-1.5-1.6c2.7-1.8,4.3-4.8,4.3-8.8v-1.5H91v-1.9h9.3
		v1.9h-3.4v1.4c0,4.1,1.6,7,3.9,8.3L99.4,175.1L99.4,175.1z M101.7,178.8v-10.3h-2.8v-1.9h2.8v-6.9h2.2v19.1H101.7z M105.7,179.8
		v-20.5h2.2v20.5H105.7z"/>
	<path class="st0" d="M118.6,179.8v-6.9h-8V171h18.5v1.9H121v6.9H118.6L118.6,179.8z M112.9,168.6v-8.5h2.3v2.5h9.2v-2.5h2.3v8.5
		L112.9,168.6L112.9,168.6z M124.4,164.4h-9.2v2.2h9.2V164.4z"/>
	<path class="st0" d="M139.7,168.7h-6v4.5c2.7,0,5.6-0.1,8.3-0.6l0.3,1.9c-2.1,0.5-5,0.7-8.9,0.7h-2.1v-14h9.4v1.9h-7.1v3.8h6
		L139.7,168.7L139.7,168.7z M145,179.8v-11h-3.7v-1.9h3.7v-7.5h2.3v20.5L145,179.8L145,179.8z"/>
	<path class="st0" d="M151.4,174.8h2.6l-1,5.1h-1.9L151.4,174.8L151.4,174.8z"/>
	<path class="st0" d="M177.5,169.2h3.2v1.9h-18.5v-1.9h13.1c0.2-0.8,0.4-1.9,0.5-3.1l-11.6,0.6l-0.3-1.8l12-0.5
		c0-0.8,0.1-1.5,0.1-2.2h-11.5v-1.9h13.8C178.2,163.7,178,167.1,177.5,169.2L177.5,169.2z M164.5,179.2v-6.3h2.4v4.4h11.7v1.9
		L164.5,179.2L164.5,179.2z"/>
	<path class="st0" d="M196.2,175.4v-3.8h-8.1v-1.9h18.5v1.9h-8v3.8H196.2z M190.5,179.2v-5.8h2.4v3.9h11.6v1.9H190.5z M204.2,167.7
		h-13.6v-7.3h13.6V167.7z M201.8,162.3h-8.9v3.5h8.9V162.3z"/>
	<path class="st0" d="M216.8,175.1c-1.4-0.9-3.2-3.1-3.7-5c-0.5,2-2.2,4.4-4,5.5l-1.5-1.6c2.7-1.8,4.3-4.8,4.3-8.8v-1.5h-3.6v-1.9
		h9.3v1.9h-3.4v1.4c0,4.1,1.6,7,3.9,8.3L216.8,175.1L216.8,175.1z M219,178.8v-10.3h-2.8v-1.9h2.8v-6.9h2.2v19.1H219z M223,179.8
		v-20.5h2.2v20.5H223z"/>
	<path class="st0" d="M229.1,175.3l-1.8-1.2c2.9-2.7,4.5-6.9,4.5-10.6h-3.3v-1.9h5.5C234,167.6,232.4,171.7,229.1,175.3L229.1,175.3
		z M234.9,176.5l-1.9-1.2c3.1-3.2,4.4-7.6,4.4-11.8h-2.5v-1.9h4.8C239.7,168.1,238.6,172.2,234.9,176.5z M243.9,167.6h3v1.9h-3v10.3
		h-2.2v-20.5h2.2V167.6L243.9,167.6z"/>
	<path class="st0" d="M259.2,174.9c-1.9-1.1-4.4-3.7-5.1-5.8c-0.5,2.2-2.6,4.9-5,6.2l-1.5-1.7c3.3-1.8,5.3-5.1,5.3-9.2v-1h-4.3v-1.9
		h10.9v1.9h-4.2v1c0,4.1,2.2,7.2,5.2,8.8L259.2,174.9L259.2,174.9z M262.3,179.8v-20.5h2.3v20.5H262.3z"/>
	<path class="st0" d="M4.9,191.8h10.2v1.9H4.9V191.8z M10.1,202.8c-2.6,0-4.4-1.7-4.4-4c0-2.5,1.8-4,4.4-4s4.4,1.6,4.4,4
		S12.7,202.8,10.1,202.8z M7.3,188.4h5.5v2H7.3V188.4z M10.1,196.7c-1.3,0-2.2,0.9-2.2,2.1s0.9,2.1,2.2,2.1s2.2-0.9,2.2-2.1
		C12.3,197.5,11.4,196.7,10.1,196.7z M20.1,207.4v-10.2h-2v9.2h-2.2v-19.1H18v7.9h2v-8.4h2.2v20.5L20.1,207.4L20.1,207.4z"/>
	<path class="st0" d="M26.2,197.8l-1.2-1.9c4-0.7,7-3,7.8-6H26v-1.9h9.4C35.3,193.5,30.9,196.6,26.2,197.8L26.2,197.8z M28.5,207.3
		v-5.4h11v-1.7H28.3v-1.9h13.5v5.3h-11v1.8h11.7v1.9L28.5,207.3L28.5,207.3z M39.5,197.2v-1.9h-4.1v-1.8h4.1v-1.9h-3.8v-1.8h3.8
		v-2.9h2.4v10.3H39.5z"/>
	<path class="st0" d="M44.7,191.8h10.2v1.9H44.7V191.8z M49.9,202.8c-2.6,0-4.4-1.7-4.4-4c0-2.5,1.8-4,4.4-4s4.4,1.6,4.4,4
		S52.5,202.8,49.9,202.8z M47.1,188.4h5.5v2h-5.5V188.4z M49.9,196.7c-1.3,0-2.2,0.9-2.2,2.1s0.9,2.1,2.2,2.1s2.2-0.9,2.2-2.1
		C52.1,197.5,51.2,196.7,49.9,196.7z M59.9,207.4v-10.2h-2v9.2h-2.2v-19.1h2.2v7.9h2v-8.4h2.2v20.5L59.9,207.4L59.9,207.4z"/>
	<path class="st0" d="M67,207.3v-5h11.4v-1.4H67V199h5.8v-1.5h-8v-1.9h18.5v1.9h-8.1v1.5h5.7v5H69.4v1.4h12.2v1.9L67,207.3L67,207.3
		z M81.3,194.8c-3-0.4-6.2-1.8-7.3-3.7c-0.9,2-4,3.3-7.3,3.7l-1-1.8c3.3-0.2,6.4-1.4,7-3.7h-6.1v-1.9h14.9v1.9h-6
		c0.7,2.3,4.2,3.4,6.9,3.6L81.3,194.8L81.3,194.8z"/>
	<path class="st0" d="M85.8,203.3l-1.6-1.6c4.1-2.4,6.4-6.1,6.7-10.4h-5.5v-1.9h7.8C93.2,195.6,90.7,200,85.8,203.3z M95.6,206.4
		v-9.4h-2.7v-1.9h2.7v-7.8h2.2v19.1H95.6z M99.6,207.4v-20.5h2.2v20.5H99.6z"/>
	<path class="st0" d="M104.5,204.8v-1.9h4.3v-3.6l2.4,0v3.6h5.1v-3.6l2.4,0v3.6h4.4v1.9H104.5z M113.8,198.8c-4.4,0-7.4-2.2-7.4-5.3
		s3-5.3,7.4-5.3s7.5,2.2,7.5,5.3S118.3,198.8,113.8,198.8z M113.8,190.2c-3,0-5,1.3-5,3.3s2,3.3,5,3.3s5-1.3,5-3.3
		S116.8,190.2,113.8,190.2z"/>
	<path class="st0" d="M125.3,202.4h2.5v2.5h-2.5V202.4z"/>
</g>
</svg>
