<?xml version="1.0" encoding="UTF-8"?>
<svg id="_레이어_2" data-name="레이어 2" xmlns="http://www.w3.org/2000/svg" viewBox="0 0 1425.94 281.46">
  <defs>
    <style>
      .cls-1 {
        fill: #4371c4;
      }

      .cls-1, .cls-2, .cls-3, .cls-4, .cls-5, .cls-6, .cls-7 {
        stroke-width: 0px;
      }

      .cls-2 {
        fill: #00ace8;
      }

      .cls-3 {
        fill: #009ee2;
      }

      .cls-4 {
        fill: #fff;
      }

      .cls-5 {
        fill: #fafaaa;
      }

      .cls-6 {
        fill: #1dbbee;
      }

      .cls-7 {
        fill: #cacaca;
      }
    </style>
  </defs>
  <g id="_레이어_1-2" data-name="레이어 1">
    <g>
      <path class="cls-5" d="m441.88,51.27v-12.64c-3.32.12-6.48.12-9.08.12l-.64-3.76c8.96,0,18.52-.4,23.6-1l.36,3.56c-2.8.4-6.12.64-9.56.84v12.88h-4.68Zm11.32-19.72h-17.36v-13.16h17.36v13.16Zm-4.76-9.44h-7.92v5.76h7.92v-5.76Zm2.48,18.12h7.36v-23.56h4.64v35.63h-4.64v-8.56h-7.36v-3.52Z"/>
      <path class="cls-5" d="m467.2,38.27v-3.76h32.19v3.76h-32.19Zm4.08,12.96v-10.48h4.68v6.76h19.72v3.72h-24.4Zm.2-19.96v-13h23.88v3.72h-19.2v5.6h19.48v3.68h-24.16Z"/>
      <path class="cls-5" d="m521.24,43.83c-3.16-1.6-7.52-6.12-8.6-9.56-.84,3.6-4.44,8.36-8.6,10.4l-2.8-3.48c6-3.2,8.92-8.72,8.92-16.2v-.96h-7.12v-3.72h18.92v3.72h-6.88v.92c0,7.52,3.4,12.48,8.76,15.24l-2.6,3.64Zm5.12,8.48V16.67h4.68v35.63h-4.68Z"/>
      <path class="cls-5" d="m537.48,44.83h5.04l-2.88,8.08h-3.76l1.6-8.08Z"/>
      <path class="cls-5" d="m453.24,97.59c-4.48.8-12.76,1.28-20.16,1.28l-.64-3.88h4.32l-.84-9.8c1.52-.2,3.04-.32,4.6-.52.12,3.44.28,6.8.44,10.24,1.16,0,2.32-.08,3.48-.12.12-3.36.28-6.72.48-10.08l4.48.44-.92,9.4c1.6-.16,3.04-.28,4.36-.52l.4,3.56Zm-19.76-14.36v-3.72h18.36v3.72h-18.36Zm5,28.12v-10.44h4.72v6.72h19.88v3.72h-24.6Zm14.72-28.52h4.44v-6.16h4.68v25.84h-4.68v-8.92h-4.44v-3.6h4.44v-3.64h-4.44v-3.52Z"/>
      <path class="cls-5" d="m467.04,88.87v-3.72h20.68v3.72h-20.68Zm10.36,1.24c5.12,0,8.6,3.2,8.6,7.68s-3.48,7.68-8.6,7.68-8.6-3.16-8.6-7.68,3.48-7.68,8.6-7.68Zm-5.36-11.12h11v3.68h-11v-3.68Zm5.36,22.68c2.6,0,4.04-1.56,4.04-3.88s-1.72-3.92-4.04-3.92-4.04,1.56-4.04,3.92,1.68,3.88,4.04,3.88Zm17.68-10.56h4.96v3.88h-4.96v17.32h-4.72v-35.63h4.72v14.44Z"/>
      <path class="cls-5" d="m503.8,105.35l-3.04-3.24c6.96-4.16,10.8-10.4,11.32-17.48h-9.16v-3.76h13.72c0,10.64-4.12,18.76-12.84,24.48Zm16.56,5.32v-16.24h-4.64v-3.76h4.64v-13.32h4.36v33.31h-4.36Zm7.08,1.64v-35.63h4.44v35.63h-4.44Z"/>
      <path class="cls-5" d="m554.24,104.91c-5.48,0-7.68-6.28-7.68-12.84s2.2-12.72,7.68-12.72,7.8,6.24,7.8,12.76-2.24,12.8-7.8,12.8Zm.04-21.48c-2.32,0-3.32,3.92-3.32,8.68s1,8.64,3.32,8.64,3.4-3.88,3.4-8.64-1-8.68-3.4-8.68Zm17.84,28.88v-12.76h-3.36v11.12h-4.4v-33.31h4.4v7.4h3.36v-8.08h4.44v35.63h-4.44Zm-3.36-16.52h3.36v-7.24h-3.36v7.24Z"/>
      <path class="cls-5" d="m583.16,105.87l-2.88-3.52c7.8-3.56,13.12-11,13.76-18.08h-11.6v-3.88h16.64c-.28,10.76-5.04,19.56-15.92,25.48Zm22.2,6.44v-35.63h4.68v35.63h-4.68Z"/>
      <path class="cls-5" d="m614.88,85.19h17v3.72h-17v-3.72Zm8.56,19.84c-4.6,0-7.8-3.16-7.8-7.4,0-4.52,3.24-7.4,7.8-7.4s7.8,2.92,7.8,7.4-3.16,7.4-7.8,7.4Zm-4.68-25.6h9.6v3.72h-9.6v-3.72Zm4.68,14.48c-2.04,0-3.56,1.52-3.56,3.72s1.52,3.72,3.56,3.72,3.6-1.56,3.6-3.72-1.52-3.72-3.6-3.72Zm17.36,18.4v-17.48h-2.96v15.84h-4.36v-33.35h4.36v13.76h2.96v-14.4h4.44v35.63h-4.44Z"/>
      <path class="cls-5" d="m649.28,107.87v-3.76h7.2v-5.92l4.68.2v5.72h8.36v-5.72l4.68-.2v5.92h7.28v3.76h-32.19Zm16.12-10.28c-7.8,0-12.96-3.92-12.96-9.36s5.16-9.48,12.96-9.48,13,4,13,9.48-5.16,9.36-13,9.36Zm0-14.92c-4.96,0-8.16,2.32-8.16,5.56s3.2,5.52,8.16,5.52,8.2-2.32,8.2-5.52-3.24-5.56-8.2-5.56Z"/>
      <path class="cls-5" d="m685.04,103.47h4.88v4.68h-4.88v-4.68Z"/>
    </g>
    <rect class="cls-5" x="430.07" y="236.46" width="108" height="45" rx="7.48" ry="7.48"/>
    <g>
      <path class="cls-1" d="m462.39,256.19h2.32v1.67h-14.49v-1.67h10.17c.23-.9.38-2.39.36-3.44h-8.68v-1.66h10.79c0,2.03-.14,3.67-.47,5.1Zm-10.41,10.17v-4.3h8.84v-1.19h-8.97v-1.66h11.06v4.3h-8.84v1.15h9.42v1.69h-11.51Z"/>
      <path class="cls-1" d="m477.8,250.76c3.6,0,5.67,1.15,5.67,2.86,0,1.57-1.69,2.65-4.68,2.84v.86h6.23v1.67h-14.49v-1.67h6.16v-.86c-2.92-.22-4.56-1.31-4.56-2.84,0-1.71,2.05-2.86,5.67-2.86Zm-5.42,15.75v-4.07h8.64v-.9h-8.75v-1.66h10.84v4.03h-8.64v.88h9.22v1.71h-11.31Zm5.42-11.6c2.21,0,3.51-.58,3.51-1.3s-1.3-1.3-3.51-1.3-3.49.58-3.49,1.3,1.28,1.3,3.49,1.3Z"/>
      <path class="cls-1" d="m496.09,262.39c-1.69.34-4.68.52-7.4.52h-1.69v-6.66h5.2v-2.67h-5.28v-1.67h7.4v6.01h-5.24v3.26c1.53,0,4.72-.09,6.77-.47l.23,1.67Zm3.26-11.85v16.04h-2.09v-16.04h2.09Z"/>
      <path class="cls-1" d="m502.83,263.68l-1.3-1.58c3.51-1.6,5.91-4.95,6.19-8.14h-5.22v-1.75h7.49c-.13,4.84-2.27,8.8-7.17,11.47Zm9.99,2.9v-16.04h2.11v16.04h-2.11Z"/>
    </g>
    <g>
      <path class="cls-3" d="m964.4,197.36c1.56-.55,3.49-1.77,4.07-3.48.64-1.9-1.79-4.05-3.75-3.48-1.73.5-8.33,5.83-8.89,7.48-.6,1.78,5.84.46,8.58-.51Z"/>
      <path class="cls-3" d="m1052.9,200.89c.86-1.81,1.56-3.77,1.56-4.93,0-.78-.29-1.88-.79-2.65-.79-1.23-1.65-1.29-2.73.13-1.65,2.13-3.16,4.27-5.39,7.76-1.58.13-3.52.19-5.17.13-1.65-.06-2.37.58-1.37,1.94.57.78,1.87,1.49,4.1,1.75-.78,1.27-1.56,2.58-2.3,3.87-.08.09-.15.2-.21.31-2.16,3.95-16.25,20.58-21.07,18.78-.94-.35-1.37-.84-1.37-2.2,0-1.03.29-2.39.93-3.82.79-1.55,2.59-4.27,6.54-10.61.57-.91.79-1.81.79-2.72,0-2.52-2.08-4.53-4.17-4.53-1.37,0-3.88.78-6.04,2.2.72-.91,5.17-6.92,6.61-9.05,1.72-2.72,2.59-5.11,2.59-6.86,0-.91-.22-1.75-.57-2.46-.65-1.29-1.72-1.55-2.87-.26-3.81,4.4-11.21,15.19-16.69,24.03-3.02,3.66-13.09,13.36-22.41,16.45,2.37-4.92,5.25-9.64,7.55-13.71,1.8-3.23,2.59-4.98,2.59-6.73,0-1.36-.5-2.59-1.15-3.3-.93-.97-2.23-1.03-3.09.45-.43.71-.86,1.36-1.15,1.81-.65-1.55-2.23-2.72-4.6-2.72-5.12,0-12.94,5.65-16.83,12.29-.15.13-.29.32-.42.57-2.23,4.4-9.6,11.94-16.61,11.14-.79-.09-1.08-.58-1.08-1.62s.36-2.39,1.01-3.88c1.22-2.59,4.53-7.44,5.89-10.22,1.87-3.23,1.29-6.02-.07-7.31-.93-.97-1.8-.84-2.87.45-1.36,1.72-4.21,6.22-6.22,9.6-4.41,7.84-19.15,21.36-23.37,7.18-1.03-3.47-.59-4.35-.37-6.2,6.42-2.06,12.86-6.23,15.94-9.99,2.66-3.3,4.17-6.99,2.23-11.32-1.8-4.07-5.32-5.5-9.13-5.37-2.66.13-5.17.78-7.91,1.55-2.59.78-5.32,1.49-8.19,1.88-1.51.19-1.87.71-1.29,1.62.86,1.36,1.87,2.26,4.24,2.65-6.32,8.86-12.65,20.63-14.44,26.26-.36,1.16-.5,2.33-.5,3.23,0,1.62.57,2.65,1.37,3.43,1.08.97,1.87.84,2.37-.39,2.16-4.79,4.02-8.47,5.82-11.64l3.86-.99c-.88,3.87-1.84,8,1.78,11.59,4.67,4.62,12,3.84,16.03,2.11,3.11-1.34,5.84-2.87,7.91-4.73.31,2.78,2.27,4.56,6.28,4.7,6.26.22,11.89-2.26,15.52-5.15.55,3.04,2.8,5.02,6.34,5.02,1.94,0,3.81-.65,5.39-1.62l-.93,2.13c-8.77,2.72-15.74,9.38-15.74,15.2,0,2.01,1.08,3.69,2.08,5.04,1.51,1.81,3.31,2.07,5.03,1.49,5.82-2.46,11.07-12.29,14.88-20.63,7.17-1.99,13.49-5.78,18.12-9.37-.03.06-.06.13-.08.19-1.8,4.27-.79,5.82.36,7.05.86.97,1.94.78,2.52-.39,1.72-3.88,4.31-8.34,6.76-11.97,3.81-5.56,10.64-9.64,11.28-9.64.5,0-.57,1.55-1.94,3.69-2.73,3.82-6.25,9.44-6.25,13.52,0,3.36,2.16,5.26,6.9,5.5,5.22.26,11.26-3.78,16-8.12-.03.28-.04.55-.04.81,0,4.46,3.31,7.24,7.11,7.24,6.04,0,10.85-5.56,11.86-7.5.79-1.49,1.08-2.46.72-3.82-.5-1.75-2.16-1.62-2.95-.06-2.52,4.85-6.25,8.93-9.06,8.93-1.22,0-1.94-1.36-1.94-3.3,0-1.42.43-3.1,1.29-4.85,2.52-4.92,6.61-11.32,9.34-15.52,1.58-.19,14.18-.06,21.48-.39,1.73-.08,2.73-2.24,2.01-3.41-.5-.78-17.85,1.22-21.6.25Zm-131.62,2.83c1.8-3.04,2.66-5.3,2.73-7.11l2.8-.84c2.3-.71,5.03-1.55,6.68-1.55,1.08,0,1.87.32,2.3,1.36,1.87,4.27-5.17,12.81-19.55,16.1,1.29-2,3.09-4.72,5.03-7.96Zm47.01,39.84c-2.23,3.49-4.02,5.43-4.67,4.98-.72-.58.22-3.62,2.3-6.79,1.51-2.26,3.74-4.59,6.76-6.53-1.37,3.23-2.95,6.08-4.38,8.34Zm12.07-25.16c-3.52,5.43-6.9,9.38-9.2,9.31-.65,0-.93-.84-.93-2.07,0-7.5,11.07-17.66,13.51-17.66.5,0,.72.39.72,1.16,0,1.68-1.29,4.85-4.1,9.25Z"/>
      <path class="cls-3" d="m1122.21,192.85c0-.91-.22-1.75-.65-2.52-.79-1.23-1.65-1.55-2.73-.19-4.74,6.66-11.71,17.98-16.6,27.23.5-7.44,1.15-14.16,2.16-19.4.22-1.16.36-2.2.36-3.1,0-2.33-1.01-3.69-3.16-5.11-1.08-.78-1.94-.78-2.87.65-5.46,8.15-14.59,23.54-18.33,32.21-.57,1.36-.93,2.91-.93,3.88,0,1.49.65,2.78,1.37,3.62,1.01.97,2.08.91,2.59-.39,3.16-7.96,8.26-16.88,13.37-24.77-.65,5.5-.93,10.87-.93,14.62,0,1.55.07,2.85.22,4.72.29,3.3,1.44,4.98,3.81,6.08,1.22.58,2.01.19,2.44-.58,4.38-8.73,13.22-23.93,17.25-29.88,2.23-3.23,2.66-5.5,2.66-7.05Z"/>
      <path class="cls-3" d="m1174.14,203.85c-2.08,0-6.9,3.36-8.41,14.16-3.59,5.76-7.47,9.9-9.7,9.9-.5,0-.79-.52-.79-1.36,0-.91.5-2.39,1.29-3.88,2.23-4.46,5.25-8.41,6.61-10.93.93-1.62,1.22-2.98,1.22-4.27,0-1.36-.43-2.26-1.15-3.23-.93-1.16-1.94-.91-3.02.45-1.22,1.55-2.3,3.23-3.38,5.17-1.37,2.2-3.09,5.04-6.11,9.51-3.16,4.79-5.68,8.28-7.26,8.28-.65,0-.86-.39-.86-1.16,0-.91.29-2.13.93-3.56,1.44-3.04,3.16-5.89,5.53-9.44,1.58-2.26,2.37-4.27,2.37-5.89,0-1.03-.36-2.07-1.08-2.98-.79-.97-2.16-1.1-3.02.06-.79.97-1.8,2.39-2.52,3.43-2.16,3.1-5.61,5.76-8.91,6.34.36-3.56-.86-5.63-2.3-6.92-.36-.32-.72-.65-1.01-1.03-1.65-2-2.95-2.59-5.53-2.39-4.38.26-9.2,4.14-11.86,8.34-1.8,2.85-3.02,6.34-3.02,9.05,0,1.94.72,4.01,2.08,5.63,2.01,2.33,4.6,3.23,6.83,3.23,6.61,0,12.36-7.37,14.23-13.39,1.37,0,2.8-.19,4.24-.65-.79,1.55-1.37,2.91-1.94,4.4-.65,1.68-.93,3.17-.93,4.4,0,2.85,1.51,5.11,4.89,5.11,3.16,0,5.75-1.55,7.91-3.62.43,2.26,2.3,3.95,5.1,3.95,4.96,0,10.06-4.85,14.95-12.03,4.67-6.73,5.68-9.51,6.18-11.97.36-1.75-.36-2.72-1.58-2.72Zm-47.29,16.49c-2.52,4.4-5.53,6.73-7.4,6.73-.93,0-1.58-.71-1.58-2.65,0-2.39,1.08-5.95,3.02-9.05,1.15-1.94,2.66-3.62,4.1-4.98.43,2.13,2.3,4.07,4.46,5.11-.57,1.42-1.44,3.04-2.59,4.85Zm3.67-6.99c-.79-.84-1.15-2.52-1.15-3.69,0-1.03.65-1.55,1.08-1.55.5,0,1.08.39,1.08,1.36,0,.84-.29,2.39-1.01,3.88Z"/>
    </g>
    <g>
      <polygon class="cls-3" points="1336.14 257.96 1213.81 204.6 1213.81 58.84 1336.14 112.2 1336.14 257.96"/>
      <polygon class="cls-4" points="1293.49 239.09 1250.25 219.57 1250.25 142.88 1293.49 162.4 1293.49 239.09"/>
      <polygon class="cls-7" points="1293.49 239.09 1250.25 219.57 1227.83 232.58 1271.07 252.1 1293.49 239.09"/>
      <polygon class="cls-2" points="1425.94 58.19 1303.61 4.84 1213.81 58.84 1336.14 112.2 1425.94 58.19"/>
      <polygon class="cls-6" points="1336.14 257.96 1425.29 204.6 1425.29 58.84 1336.14 112.2 1336.14 257.96"/>
    </g>
    <g>
      <path class="cls-5" d="m445.88,174.8c-1.75-1.13-4.14-3.75-4.88-6-.71,2.44-2.76,5.01-5.01,6.37l-1.45-1.72c3.2-2.07,5.22-5.45,5.22-9.36v-2.99h2.41v2.85c0,3.93,2.09,7.2,5.1,9.08l-1.4,1.77Zm5.06-7.47h3.08v1.98h-3.08v10.51h-2.37v-20.49h2.37v8Z"/>
      <path class="cls-5" d="m454.92,177.24v-1.91h8.05v-5.04h2.35v5.04h8.12v1.91h-18.51Zm16.69-6.81c-3.06-.78-6.39-3.1-7.45-5.63-.94,2.55-4.35,4.9-7.45,5.63l-1.15-1.91c3.36-.53,7.4-3.29,7.4-6.81v-1.22h2.46v1.22c0,3.47,4.32,6.32,7.4,6.9l-1.22,1.82Z"/>
      <path class="cls-5" d="m474.65,164.79v-1.86h11.87v1.86h-11.87Zm5.98,7.91c-2.76,0-4.85-1.4-4.85-3.56s2.07-3.56,4.85-3.56,4.81,1.45,4.81,3.56-2.07,3.56-4.81,3.56Zm-3.01-12.92h6v1.89h-6v-1.89Zm0,19.48v-5.5h2.37v3.61h11.34v1.89h-13.71Zm3.01-11.89c-1.45,0-2.6.69-2.6,1.77s1.15,1.75,2.6,1.75,2.55-.64,2.55-1.75-1.17-1.77-2.55-1.77Zm10.09-1.63h3.04v1.95h-3.04v6.78h-2.37v-15.15h2.37v6.42Z"/>
      <path class="cls-5" d="m508.9,175.4v-3.77h-8.14v-1.91h18.51v1.91h-8.02v3.77h-2.35Zm-5.75,3.82v-5.79h2.37v3.93h11.59v1.86h-13.96Zm13.66-11.5h-13.61v-7.31h13.61v7.31Zm-2.37-5.43h-8.88v3.54h8.88v-3.54Z"/>
      <path class="cls-5" d="m529.41,175.05c-1.38-.87-3.17-3.06-3.73-5.01-.46,2.02-2.23,4.37-4,5.47l-1.47-1.59c2.71-1.79,4.35-4.78,4.35-8.83v-1.52h-3.61v-1.91h9.27v1.91h-3.36v1.45c0,4.07,1.63,6.99,3.93,8.32l-1.38,1.7Zm2.23,3.79v-10.28h-2.81v-1.95h2.81v-6.88h2.21v19.11h-2.21Zm4.02.97v-20.49h2.25v20.49h-2.25Z"/>
      <path class="cls-5" d="m548.59,179.83v-6.9h-8.05v-1.91h18.51v1.91h-8.12v6.9h-2.35Zm-5.75-11.24v-8.49h2.32v2.46h9.24v-2.51h2.35v8.53h-13.91Zm11.57-4.16h-9.24v2.25h9.24v-2.25Z"/>
      <path class="cls-5" d="m569.66,168.68h-6.05v4.51c2.74,0,5.59-.07,8.35-.62l.34,1.86c-2.14.46-5.01.67-8.88.69h-2.14v-13.96h9.38v1.86h-7.06v3.75h6.05v1.91Zm5.29,11.13v-11.04h-3.7v-1.95h3.7v-7.5h2.35v20.49h-2.35Z"/>
      <path class="cls-5" d="m581.37,174.84h2.58l-1.01,5.13h-1.91l.34-5.13Z"/>
      <path class="cls-5" d="m607.49,169.23h3.15v1.89h-18.51v-1.89h13.08c.21-.83.37-1.93.46-3.08l-11.59.55-.3-1.82,12-.48c.05-.76.07-1.49.07-2.16h-11.5v-1.89h13.84c0,3.38-.21,6.71-.71,8.88Zm-12.99,9.98v-6.32h2.37v4.42h11.66v1.91h-14.03Z"/>
      <path class="cls-5" d="m626.22,175.4v-3.77h-8.14v-1.91h18.51v1.91h-8.02v3.77h-2.35Zm-5.75,3.82v-5.79h2.37v3.93h11.59v1.86h-13.96Zm13.66-11.5h-13.61v-7.31h13.61v7.31Zm-2.37-5.43h-8.88v3.54h8.88v-3.54Z"/>
      <path class="cls-5" d="m646.73,175.05c-1.38-.87-3.17-3.06-3.73-5.01-.46,2.02-2.23,4.37-4,5.47l-1.47-1.59c2.71-1.79,4.35-4.78,4.35-8.83v-1.52h-3.61v-1.91h9.27v1.91h-3.36v1.45c0,4.07,1.63,6.99,3.93,8.32l-1.38,1.7Zm2.23,3.79v-10.28h-2.81v-1.95h2.81v-6.88h2.21v19.11h-2.21Zm4.02.97v-20.49h2.25v20.49h-2.25Z"/>
      <path class="cls-5" d="m659.06,175.26l-1.82-1.24c2.92-2.69,4.51-6.92,4.53-10.6h-3.27v-1.91h5.5c0,6.09-1.61,10.23-4.94,13.75Zm5.86,1.22l-1.89-1.22c3.1-3.2,4.39-7.61,4.39-11.84h-2.55v-1.91h4.76c0,6.62-1.08,10.67-4.71,14.97Zm8.99-8.9h3.04v1.95h-3.04v10.28h-2.25v-20.49h2.25v8.26Z"/>
      <path class="cls-5" d="m689.19,174.87c-1.91-1.06-4.39-3.68-5.06-5.79-.53,2.21-2.6,4.92-5.04,6.21l-1.49-1.72c3.27-1.84,5.31-5.08,5.31-9.22v-1.01h-4.28v-1.86h10.88v1.86h-4.16v.99c0,4.14,2.21,7.2,5.22,8.83l-1.38,1.72Zm3.1,4.94v-20.49h2.35v20.49h-2.35Z"/>
      <path class="cls-5" d="m434.84,191.8h10.19v1.95h-10.19v-1.95Zm5.2,10.97c-2.62,0-4.42-1.72-4.42-3.98,0-2.46,1.79-4.02,4.42-4.02s4.42,1.61,4.42,4.02-1.79,3.98-4.42,3.98Zm-2.78-14.33h5.54v1.98h-5.54v-1.98Zm2.78,8.21c-1.31,0-2.25.85-2.25,2.14s.94,2.09,2.25,2.09,2.25-.9,2.25-2.09c0-1.29-.94-2.14-2.25-2.14Zm10,10.76v-10.19h-2.02v9.22h-2.23v-19.11h2.23v7.93h2.02v-8.35h2.25v20.49h-2.25Z"/>
      <path class="cls-5" d="m456.21,197.78l-1.22-1.91c3.96-.71,7.04-2.97,7.8-6.02h-6.78v-1.95h9.43c-.21,5.59-4.53,8.71-9.22,9.89Zm2.23,9.5v-5.4h10.99v-1.68h-11.13v-1.89h13.48v5.31h-10.97v1.77h11.66v1.89h-14.03Zm10.99-10.05v-1.93h-4.09v-1.79h4.09v-1.91h-3.75v-1.82h3.75v-2.85h2.35v10.3h-2.35Z"/>
      <path class="cls-5" d="m474.63,191.8h10.19v1.95h-10.19v-1.95Zm5.2,10.97c-2.62,0-4.42-1.72-4.42-3.98,0-2.46,1.79-4.02,4.42-4.02s4.42,1.61,4.42,4.02-1.79,3.98-4.42,3.98Zm-2.78-14.33h5.54v1.98h-5.54v-1.98Zm2.78,8.21c-1.31,0-2.25.85-2.25,2.14s.94,2.09,2.25,2.09,2.25-.9,2.25-2.09c0-1.29-.94-2.14-2.25-2.14Zm10,10.76v-10.19h-2.02v9.22h-2.23v-19.11h2.23v7.93h2.02v-8.35h2.25v20.49h-2.25Z"/>
      <path class="cls-5" d="m497.01,207.27v-5.01h11.41v-1.4h-11.41v-1.89h5.75v-1.54h-8.05v-1.91h18.51v1.91h-8.12v1.54h5.66v4.97h-11.41v1.45h12.16v1.89h-14.51Zm14.26-12.49c-3.01-.37-6.19-1.75-7.29-3.66-.92,1.98-3.96,3.31-7.27,3.68l-1.03-1.82c3.29-.23,6.42-1.36,6.99-3.66h-6.12v-1.86h14.85v1.86h-6.05c.69,2.28,4.16,3.45,6.94,3.61l-1.04,1.84Z"/>
      <path class="cls-5" d="m515.8,203.27l-1.56-1.61c4.07-2.41,6.44-6.12,6.69-10.35h-5.52v-1.93h7.84c-.05,6.25-2.53,10.65-7.45,13.89Zm9.82,3.17v-9.36h-2.74v-1.93h2.74v-7.82h2.21v19.11h-2.21Zm4,.97v-20.49h2.25v20.49h-2.25Z"/>
      <path class="cls-5" d="m534.5,204.81v-1.89h4.28v-3.56l2.39-.02v3.59h5.1v-3.59l2.37.02v3.56h4.37v1.89h-18.51Zm9.24-5.98c-4.44,0-7.4-2.16-7.4-5.27s2.97-5.27,7.4-5.27,7.45,2.18,7.45,5.27-2.94,5.27-7.45,5.27Zm0-8.58c-3.01,0-5.01,1.33-5.01,3.31s2,3.31,5.01,3.31,5.04-1.33,5.04-3.31-1.98-3.31-5.04-3.31Z"/>
      <path class="cls-5" d="m555.31,202.4h2.53v2.48h-2.53v-2.48Z"/>
    </g>
    <g>
      <polygon class="cls-3" points="35.32 73.08 0 57.68 0 15.59 35.32 31 35.32 73.08"/>
      <polygon class="cls-4" points="23.01 67.63 10.52 62 10.52 39.85 23.01 45.49 23.01 67.63"/>
      <polygon class="cls-7" points="23.01 67.63 10.52 62 4.05 65.75 16.53 71.39 23.01 67.63"/>
      <polygon class="cls-2" points="61.24 15.41 25.93 0 0 15.59 35.32 31 61.24 15.41"/>
      <polygon class="cls-6" points="35.32 73.08 61.06 57.68 61.06 15.59 35.32 31 35.32 73.08"/>
    </g>
  </g>
</svg>