<?xml version="1.0" encoding="UTF-8"?>
<svg id="_레이어_2" data-name="레이어 2" xmlns="http://www.w3.org/2000/svg" viewBox="0 0 1424.18 642.88">
  <defs>
    <style>
      .cls-1 {
        fill: #00ace8;
      }

      .cls-1, .cls-2, .cls-3, .cls-4, .cls-5, .cls-6 {
        stroke-width: 0px;
      }

      .cls-2 {
        fill: #009ee2;
      }

      .cls-3 {
        fill: #fff;
      }

      .cls-4 {
        fill: #faf9b3;
      }

      .cls-5 {
        fill: #1dbbee;
      }

      .cls-6 {
        fill: #cacaca;
      }
    </style>
  </defs>
  <g id="_레이어_1-2" data-name="레이어 1">
    <g>
      <polygon class="cls-2" points="1196.12 642.88 885.42 507.36 885.42 137.17 1196.12 272.69 1196.12 642.88"/>
      <polygon class="cls-3" points="1087.8 594.95 977.97 545.37 977.97 350.6 1087.8 400.18 1087.8 594.95"/>
      <polygon class="cls-6" points="1087.8 594.95 977.97 545.37 921.02 578.42 1030.85 628 1087.8 594.95"/>
      <polygon class="cls-1" points="1424.18 135.52 1113.49 0 885.42 137.17 1196.12 272.69 1424.18 135.52"/>
      <polygon class="cls-5" points="1196.12 642.88 1422.53 507.36 1422.53 137.17 1196.12 272.69 1196.12 642.88"/>
    </g>
    <g>
      <path class="cls-4" d="m19.96,394.61v6.18h10.38v2.76H6.19v-2.76h10.26v-6.18h-7.14v-12.48h17.94v2.79h-14.43v6.9h14.58v2.79h-7.44Z"/>
      <path class="cls-4" d="m35.23,406.58v-9.03h7.17v-2.25h-10.26v-2.82h24.15v2.82h-10.38v2.25h7.29v9.03h-17.97Zm8.97-25.83c6.03,0,9.36,2.16,9.36,5.13s-3.33,5.19-9.33,5.19-9.36-2.22-9.36-5.19,3.36-5.13,9.33-5.13Zm0,7.59c3.54,0,5.76-.99,5.76-2.43s-2.1-2.46-5.76-2.46-5.7.96-5.7,2.46,2.1,2.43,5.7,2.43Zm5.55,11.88h-11.04v3.63h11.04v-3.63Z"/>
      <path class="cls-4" d="m65.74,382.01c4.38,0,6.93,3.93,6.93,9.57s-2.55,9.51-6.93,9.51-6.9-3.9-6.9-9.51,2.55-9.57,6.9-9.57Zm0,2.82c-2.01,0-3.48,2.52-3.48,6.75s1.47,6.69,3.48,6.69,3.57-2.49,3.57-6.69-1.5-6.75-3.57-6.75Zm10.95,22.08v-26.73h3.48v26.73h-3.48Z"/>
      <path class="cls-4" d="m92.41,393.95l-.45-2.85h3.48c-.24-1.71-.42-3.42-.63-5.1,1.14-.09,2.28-.24,3.45-.36.06,1.8.18,3.57.3,5.4,1.05-.03,2.1-.06,3.03-.12l.3-5.28c1.11.12,2.22.27,3.36.33l-.6,4.8c1.53-.12,2.82-.24,3.81-.42l.27,2.64c-3.66.72-10.74.96-16.32.96Zm.45-9.48v-2.76h14.85v2.76h-14.85Zm3.48,22.23v-6.99h14.19v-1.62h-14.22v-2.79h17.7v6.96h-14.16v1.62h14.91v2.82h-18.42Zm14.19-12.78v-13.74h3.48v13.74h-3.48Z"/>
      <path class="cls-4" d="m117.88,403.58v-2.82h5.4v-4.44l3.51.15v4.29h6.27v-4.29l3.51-.15v4.44h5.46v2.82h-24.15Zm12.09-7.71c-5.85,0-9.72-2.94-9.72-7.02s3.87-7.11,9.72-7.11,9.75,3,9.75,7.11-3.87,7.02-9.75,7.02Zm0-11.19c-3.72,0-6.12,1.74-6.12,4.17s2.4,4.14,6.12,4.14,6.15-1.74,6.15-4.14-2.43-4.17-6.15-4.17Z"/>
      <path class="cls-4" d="m143.62,387.71v-2.73h15.51v2.73h-15.51Zm7.92,10.53c-3.66,0-6.36-2.01-6.36-4.86s2.67-4.92,6.36-4.92,6.3,2.1,6.3,4.92-2.7,4.86-6.3,4.86Zm-4.44,8.04v-7.05h3.54v4.26h14.73v2.79h-18.27Zm.48-25.23h7.95v2.67h-7.95v-2.67Zm3.96,14.37c1.53,0,2.88-.84,2.88-2.04,0-1.26-1.35-2.13-2.88-2.13s-2.88.87-2.88,2.13,1.32,2.04,2.88,2.04Zm13.2-6.6h3.72v2.91h-3.72v8.31h-3.51v-19.86h3.51v8.64Z"/>
      <path class="cls-4" d="m191.67,400.52c-2.19-1.41-5.28-4.56-6.18-7.47-.87,3.03-3.57,6.39-6.33,8.01-.72-.87-1.41-1.71-2.16-2.55,4.35-2.79,6.63-7.08,6.63-12.42v-3.66h3.63v3.48c0,5.28,2.43,9.42,6.48,12-.72.87-1.35,1.74-2.07,2.61Zm6.87-10.05h3.84v2.88h-3.84v13.56h-3.48v-26.73h3.48v10.29Z"/>
      <path class="cls-4" d="m218.94,394.28c-2.28.57-7.2.96-10.83.96h-3.57v-8.49h8.34v-2.49h-8.46v-2.79h12v7.92h-8.34v3.06c3.27.09,8.34-.3,10.53-.87l.33,2.7Zm-11.91,12.3v-9.3h17.46v9.3h-17.46Zm13.92-6.57h-10.44v3.81h10.44v-3.81Zm3.54-10.35v6.24h-3.51v-15.72h3.51v6.6h3.81v2.88h-3.81Z"/>
      <path class="cls-4" d="m6.19,439.55v-2.79h10.26v-5.67h-7.35v-12.81h18.36v12.81h-7.5v5.67h10.38v2.79H6.19Zm17.76-18.51h-11.37v7.26h11.37v-7.26Z"/>
      <path class="cls-4" d="m42.4,442.91v-8.91h-10.26v-2.76h24.15v2.76h-10.38v8.91h-3.51Zm-7.11-14.79v-10.56h18v2.82h-14.49v4.98h14.61v2.76h-18.12Z"/>
      <path class="cls-4" d="m65.98,439.55v-2.79h10.26v-5.67h-7.35v-12.81h18.36v12.81h-7.5v5.67h10.38v2.79h-24.15Zm17.76-18.51h-11.37v7.26h11.37v-7.26Z"/>
      <path class="cls-4" d="m102.19,442.91v-8.91h-10.26v-2.76h24.15v2.76h-10.38v8.91h-3.51Zm-7.11-14.79v-10.56h18v2.82h-14.49v4.98h14.61v2.76h-18.12Z"/>
      <path class="cls-4" d="m125.77,439.55v-2.79h10.26v-5.67h-7.35v-12.81h18.36v12.81h-7.5v5.67h10.38v2.79h-24.15Zm17.76-18.51h-11.37v7.26h11.37v-7.26Z"/>
      <path class="cls-4" d="m158.73,418.01c4.38,0,6.9,3.93,6.9,9.57s-2.52,9.51-6.9,9.51-6.87-3.9-6.87-9.51,2.52-9.57,6.87-9.57Zm0,2.82c-2.01,0-3.45,2.52-3.45,6.75s1.44,6.69,3.45,6.69,3.54-2.49,3.54-6.69-1.47-6.75-3.54-6.75Zm7.74,9.21h3.84v-5.61h-3.84l-.12-2.97h3.96v-5.28h3.51v26.73h-3.51v-9.87h-3.96l.12-3Z"/>
      <path class="cls-4" d="m181.53,436.79h-2.82v-11.1h8.67v-4.44h-8.79v-2.79h12.3v10.02h-8.67v5.43c2.55,0,7.47-.15,10.92-.78l.3,2.82c-2.82.54-7.38.84-11.91.84Zm17.01-10.35h3.75v2.88h-3.75v13.59h-3.51v-26.73h3.51v10.26Z"/>
    </g>
    <g>
      <path class="cls-4" d="m25.99,235.93c-5.29,1.51-12.1,2.38-18.04-2.16-3.89-2.92-7.13-7.78-7.24-16.63-.22-23.22,21.6-43.74,33.8-47.74,6.05-1.94,10.91-2.05,14.58.65,3.02,2.16,4.75,4.86,5.62,7.67.97,3.02.76,5.94-.76,9.4-1.3,2.92-3.02,7.24-4.21,10.37-.32.86-1.08,1.62-2.27.54-2.48-1.73-4.21-4.86-2.81-10.26,1.4-5.4,5.4-11.45,3.02-13.82-3.46-3.56-21.06,5.72-31.32,21.38-10.04,15.34-9.72,31.75-5.4,35.75,5.94,5.51,18.58-2.59,25.16-15.66-3.46.65-6.91,1.3-9.5,1.51-5.4.54-8.75-1.73-10.37-5.18-.54-1.08-.22-1.73,1.08-1.73,8.42-.11,16.63-2.81,23.22-2.92,5.4-.11,8.42,2.27,9.83,5.51.54,1.19.32,1.94-1.08,1.73-2.05-.22-4.75-.11-7.56.22,2.81,10.15-10.37,19.87-15.77,21.38Z"/>
      <path class="cls-4" d="m90.14,193.59c.97-1.4,1.84-1.62,2.59-.65,1.62,1.94,2.48,6.59-.11,11.99-2.38,4.86-7.78,12.96-10.37,18.68-2.7,6.05-2.81,10.69.86,10.48,4.43-.22,10.37-7.56,14.15-15.01.54-.97,1.3-1.08,1.73-.11.43.97.43,3.67-.97,6.7-2.81,5.94-9.61,11.88-15.55,11.56-5.83-.32-8.86-3.78-8.86-8.86-3.46,4.43-8.32,8.42-13.5,8.42-10.04,0-12.1-13.72-3.13-26.78,8.75-12.74,17.28-17.6,22.68-17.6,4.64,0,6.8,3.56,6.59,7.78,1.4-2.59,2.7-4.86,3.89-6.59Zm-8.64,4.43c-3.46-.32-11.34,6.7-17.28,16.31-5.72,9.29-7.13,18.79-2.92,18.9,4.43.11,10.04-6.8,15.55-16.31,6.8-11.88,7.78-18.58,4.64-18.9Z"/>
      <path class="cls-4" d="m101.7,190.46c-1.08-1.51-.43-2.27,1.19-2.16,3.02.11,6.05-.11,8.96-.43,3.35-5.94,6.37-11.02,8.21-13.39.97-1.4,2.05-1.3,2.59,0,1.19,3.02,1.19,6.59-1.4,12.2,4.21-.11,5.83,1.84,6.7,3.24.76,1.3.32,2.05-1.3,2.05-2.38-.32-5.72,0-8.42.43-4.21,7.24-10.37,17.71-14.47,26.78-3.56,7.88-2.38,14.58,2.16,14.8,4.86.22,11.02-7.45,15.01-15.55.65-1.3,1.84-1.51,2.27,0,.54,1.73,0,3.67-1.08,6.16-1.4,3.13-8.53,12.64-17.17,12.31-7.13-.22-12.85-8.21-7.67-20.63,2.27-5.4,6.8-14.47,11.45-23-3.67,0-6.16-1.62-7.02-2.81Z"/>
      <path class="cls-4" d="m130.97,233.88c8.96.43,16.85-8.21,21.49-15.34.54-.86,1.4-.86,1.84.11.43.86.11,3.89-1.84,6.7-4.54,6.59-12.85,11.56-21.17,11.66-13.72.22-18.47-13.28-11.45-27.22,7.02-13.93,18.04-19.55,23.44-16.42,2.7,1.62,4.64,3.24,6.37,5.62,1.94,2.59,1.08,9.18-3.46,14.69-5.29,6.48-12.53,9.29-20.09,3.13-3.46,9.94-.86,16.74,4.86,17.06Zm8.96-24.84c3.46-4.54,5.83-10.15,4.32-11.34-2.27-1.84-11.23,4.64-16.31,14.9-.32.65-.65,1.3-.86,1.84,5.29,3.35,9.72-1.3,12.85-5.4Z"/>
      <path class="cls-4" d="m182.27,201.94h6.12v-23.33h6.05v58.76h-6.05v-30.17h-6.12c-.58,11.16-5.11,19.3-13.83,19.3-9.36,0-13.83-9.58-13.83-22.18s4.46-21.96,13.83-21.96c8.78,0,13.32,8.28,13.83,19.59Zm-13.83-14.19c-4.97,0-7.56,6.84-7.56,16.63s2.59,16.63,7.56,16.63,7.63-6.77,7.63-16.63-2.52-16.63-7.63-16.63Zm32.11,52.56v-62.93h6.05v62.93h-6.05Z"/>
      <path class="cls-4" d="m249.81,225.35c-5.62-3.67-12.96-11.52-15.34-18.87-2.16,7.7-8.42,15.7-15.48,20.38l-4.03-4.68c9.5-5.98,16.2-16.92,16.2-28.51v-10.87h6.55v10.58c0,11.81,7.06,21.75,15.91,27.22l-3.82,4.75Zm11.45,14.98v-35.43h-14.04v-5.4h14.04v-22.11h6.41v62.93h-6.41Z"/>
      <path class="cls-4" d="m278.03,214.62v-5.18h56.81v5.18h-56.81Zm7.56,24.34v-18.65h6.34v13.39h36.94v5.26h-43.28Zm.22-36.94v-22.03h6.34v16.85h36.44v5.18h-42.77Z"/>
      <path class="cls-4" d="m0,318.73v-5.18h25.06v-14.11H6.77v-30.03h43.2v30.03h-18.51v14.11h25.35v5.18H0Zm43.64-44.14H13.1v19.59h30.53v-19.59Z"/>
      <path class="cls-4" d="m62.28,301.3v-5.18h56.81v5.18h-56.81Zm6.91,23.55v-17.79h6.41v12.67h36.72v5.11h-43.13Zm.14-36.15v-22.25h42.41v5.18h-36v11.88h36.58v5.18h-42.99Z"/>
      <path class="cls-4" d="m175.39,268.9c-.79,16.85-11.88,28.51-28.3,33.99l-3.38-5.33c12.82-3.17,23.33-12.75,24.77-23.33h-21.53v-5.33h28.44Zm19.87,58.47c-8.35-1.58-18.43-8.71-20.88-14.11-2.3,5.76-12.02,12.38-21.24,14.11l-3.31-5.11c10.23-1.15,21.39-8.57,21.39-17.64v-3.53h6.55v3.53c0,8.93,11.38,16.34,20.88,17.57l-3.38,5.18Zm-19.66-40.61v-5.33h13.1v-17.64h6.41v41.91h-6.41v-18.94h-13.1Z"/>
      <path class="cls-4" d="m224.21,268.54c11.16,0,16.13,9.72,16.13,22.25s-4.97,22.25-16.13,22.25-16.2-9.79-16.2-22.32,5.04-22.18,16.2-22.18Zm0,5.47c-6.41,0-9.72,7.06-9.72,16.78s3.31,16.71,9.72,16.71,9.79-6.98,9.79-16.71-3.31-16.78-9.79-16.78Zm27.07,52.71v-62.93h6.41v62.93h-6.41Z"/>
      <path class="cls-4" d="m290.95,314.55l-3.89-4.82c14.83-7.13,23.98-20.31,25.13-33.84h-22.39v-5.4h29.23c-.36,20.02-10.87,34.71-28.08,44.07Zm44.64-24.99h10.08v5.33h-10.08v31.83h-6.34v-62.93h6.34v25.78Z"/>
      <path class="cls-4" d="m349.27,297.92v-5.11h56.81v5.11h-56.81Zm28.44,28.23c-14.11,0-21.82-4.39-21.82-11.59s7.7-11.52,21.82-11.52,21.89,4.39,21.89,11.52-7.7,11.59-21.89,11.59Zm-20.67-39.53v-21.17h6.34v15.98h35.79v5.18h-42.12Zm5.4,28.01c0,4.1,5.9,6.41,15.27,6.41s15.41-2.3,15.41-6.41-5.9-6.41-15.41-6.41-15.27,2.23-15.27,6.41Z"/>
      <path class="cls-4" d="m411.19,278.26v-4.97h36.58v4.97h-36.58Zm18.58,22.83c-8.71,0-14.54-4.03-14.54-10.08s5.83-10.15,14.54-10.15,14.62,4.03,14.62,10.15-5.9,10.08-14.62,10.08Zm-9.58,24.99v-22.75h6.34v6.19h27.29v-6.26h6.34v22.83h-39.96Zm.43-56.67v-5.04h17.86v5.04h-17.86Zm9.14,16.27c-4.46,0-8.28,2.09-8.28,5.33s3.89,5.26,8.28,5.26,8.28-2.09,8.28-5.26-3.89-5.33-8.28-5.33Zm24.05,28.87h-27.29v6.41h27.29v-6.41Zm6.34-27.72v13.32h-6.34v-36.36h6.34v17.71h9.36v5.33h-9.36Z"/>
      <path class="cls-4" d="m513.93,308.15c-7.34,1.8-21.53,2.88-30.46,3.02h-5.9v-40.83h6.41v35.35c8.28,0,21.89-1.01,29.16-2.74l.79,5.18Zm11.45,18.58h-6.34v-62.93h6.34v62.93Z"/>
      <path class="cls-4" d="m547.7,306.06c8.28,0,19.87-.65,26.21-2.02l.72,5.18c-6.55,1.37-17.35,2.09-28.8,2.16h-7.06v-40.97h29.74v5.26h-23.4v30.39h2.59Zm37.01-17.71h9.79v5.33h-9.79v33.05h-6.34v-62.93h6.34v24.55Z"/>
      <path class="cls-4" d="m598.82,313.26h6.99v7.06h-6.99v-7.06Z"/>
    </g>
  </g>
</svg>