<?xml version="1.0" encoding="UTF-8"?>
<svg id="_레이어_2" data-name="레이어 2" xmlns="http://www.w3.org/2000/svg" viewBox="0 0 270.4 65.55">
  <defs>
    <style>
      .cls-1 {
        fill: #4371c4;
        stroke-width: 0px;
      }
    </style>
  </defs>
  <g id="_레이어_1-2" data-name="레이어 1">
    <g>
      <path class="cls-1" d="m60.84,10.44c1.54-.55,3.46-1.75,4.03-3.45.64-1.88-1.77-4.02-3.72-3.45-1.71.49-8.26,5.77-8.81,7.41-.59,1.76,5.78.46,8.5-.51Z"/>
      <path class="cls-1" d="m148.56,13.94c.85-1.8,1.54-3.73,1.54-4.89,0-.77-.28-1.86-.78-2.63-.78-1.22-1.64-1.28-2.71.13-1.64,2.12-3.13,4.23-5.34,7.69-1.57.13-3.49.19-5.13.13-1.64-.06-2.35.58-1.35,1.92.57.77,1.85,1.47,4.06,1.73-.78,1.26-1.54,2.55-2.28,3.83-.08.09-.15.19-.21.31-2.14,3.91-16.11,20.4-20.89,18.62-.93-.35-1.35-.83-1.35-2.18,0-1.03.28-2.37.93-3.78.78-1.54,2.56-4.23,6.48-10.51.57-.9.78-1.8.78-2.69,0-2.5-2.07-4.49-4.13-4.49-1.35,0-3.85.77-5.98,2.18.71-.9,5.13-6.86,6.55-8.98,1.71-2.69,2.56-5.06,2.56-6.8,0-.9-.21-1.73-.57-2.44-.64-1.28-1.71-1.54-2.85-.26-3.77,4.36-11.11,15.06-16.54,23.82-2.99,3.63-12.98,13.24-22.21,16.31,2.35-4.87,5.2-9.55,7.48-13.59,1.78-3.21,2.56-4.94,2.56-6.67,0-1.35-.5-2.56-1.14-3.27-.93-.96-2.21-1.03-3.06.45-.43.71-.85,1.35-1.14,1.8-.64-1.54-2.21-2.69-4.56-2.69-5.08,0-12.83,5.6-16.68,12.18-.15.13-.29.32-.41.57-2.21,4.36-9.52,11.84-16.46,11.04-.78-.09-1.07-.58-1.07-1.6s.36-2.37,1-3.85c1.21-2.56,4.49-7.37,5.84-10.13,1.85-3.21,1.28-5.96-.07-7.24-.93-.96-1.78-.83-2.85.45-1.35,1.7-4.17,6.17-6.16,9.52-4.37,7.77-18.98,21.17-23.17,7.11-1.02-3.44-.59-4.32-.37-6.14,6.36-2.04,12.74-6.18,15.8-9.91,2.64-3.27,4.13-6.92,2.21-11.22-1.78-4.04-5.27-5.45-9.05-5.32-2.64.13-5.13.77-7.84,1.54-2.56.77-5.27,1.47-8.12,1.86-1.5.19-1.85.71-1.28,1.6.85,1.35,1.85,2.24,4.2,2.63C8.55,18.86,2.28,30.53.5,36.1c-.36,1.15-.5,2.31-.5,3.21,0,1.6.57,2.63,1.35,3.4,1.07.96,1.85.83,2.35-.38,2.14-4.74,3.99-8.4,5.77-11.54l3.83-.98c-.88,3.84-1.82,7.93,1.76,11.48,4.63,4.58,11.9,3.81,15.89,2.09,3.08-1.32,5.78-2.84,7.84-4.69.3,2.75,2.25,4.52,6.23,4.66,6.21.22,11.79-2.24,15.38-5.1.54,3.01,2.77,4.97,6.28,4.97,1.92,0,3.78-.64,5.34-1.6l-.93,2.12c-8.69,2.69-15.6,9.3-15.6,15.07,0,1.99,1.07,3.65,2.07,5,1.5,1.8,3.28,2.05,4.99,1.47,5.77-2.44,10.97-12.18,14.75-20.45,7.1-1.97,13.38-5.72,17.96-9.29-.03.06-.06.13-.08.19-1.78,4.23-.78,5.77.36,6.99.85.96,1.92.77,2.49-.38,1.71-3.85,4.27-8.27,6.7-11.86,3.78-5.51,10.54-9.55,11.18-9.55.5,0-.57,1.54-1.92,3.65-2.71,3.78-6.2,9.36-6.2,13.4,0,3.33,2.14,5.21,6.84,5.45,5.17.26,11.16-3.75,15.86-8.05-.03.28-.04.55-.04.8,0,4.42,3.28,7.18,7.05,7.18,5.98,0,10.76-5.51,11.75-7.44.78-1.47,1.07-2.44.71-3.78-.5-1.73-2.14-1.6-2.92-.06-2.49,4.81-6.2,8.85-8.98,8.85-1.21,0-1.92-1.35-1.92-3.27,0-1.41.43-3.08,1.28-4.81,2.49-4.87,6.55-11.22,9.26-15.39,1.57-.19,14.05-.06,21.3-.38,1.72-.08,2.7-2.22,1.99-3.38-.5-.77-17.7,1.21-21.41.25Zm-130.47,2.81c1.78-3.01,2.64-5.26,2.71-7.05l2.78-.83c2.28-.71,4.99-1.54,6.62-1.54,1.07,0,1.85.32,2.28,1.35,1.85,4.23-5.13,12.69-19.38,15.96,1.28-1.99,3.06-4.68,4.99-7.89Zm46.6,39.49c-2.21,3.46-3.99,5.39-4.63,4.94-.71-.58.21-3.59,2.28-6.73,1.5-2.24,3.7-4.55,6.7-6.48-1.35,3.21-2.92,6.03-4.35,8.27Zm11.97-24.94c-3.49,5.39-6.84,9.3-9.12,9.23-.64,0-.93-.83-.93-2.05,0-7.44,10.97-17.5,13.39-17.5.5,0,.71.38.71,1.15,0,1.67-1.28,4.81-4.06,9.17Z"/>
      <path class="cls-1" d="m217.26,5.97c0-.9-.21-1.73-.64-2.5-.78-1.22-1.64-1.54-2.71-.19-4.7,6.6-11.61,17.82-16.46,26.99.5-7.37,1.14-14.04,2.14-19.23.21-1.15.36-2.18.36-3.08,0-2.31-1-3.65-3.13-5.06-1.07-.77-1.92-.77-2.85.64-5.41,8.08-14.46,23.34-18.16,31.93-.57,1.35-.93,2.88-.93,3.85,0,1.47.64,2.76,1.35,3.59,1,.96,2.07.9,2.56-.38,3.13-7.89,8.19-16.73,13.25-24.55-.64,5.45-.93,10.77-.93,14.49,0,1.54.07,2.82.21,4.68.28,3.27,1.42,4.94,3.78,6.03,1.21.58,1.99.19,2.42-.58,4.35-8.65,13.11-23.72,17.1-29.62,2.21-3.21,2.64-5.45,2.64-6.99Z"/>
      <path class="cls-1" d="m268.74,16.87c-2.07,0-6.84,3.33-8.33,14.04-3.56,5.71-7.41,9.81-9.62,9.81-.5,0-.78-.51-.78-1.35,0-.9.5-2.37,1.28-3.85,2.21-4.42,5.2-8.33,6.55-10.83.93-1.6,1.21-2.95,1.21-4.23,0-1.35-.43-2.24-1.14-3.21-.93-1.15-1.92-.9-2.99.45-1.21,1.54-2.28,3.21-3.35,5.13-1.35,2.18-3.06,5-6.05,9.42-3.13,4.74-5.63,8.21-7.19,8.21-.64,0-.85-.38-.85-1.15,0-.9.28-2.12.93-3.53,1.42-3.01,3.13-5.83,5.49-9.36,1.57-2.24,2.35-4.23,2.35-5.83,0-1.03-.36-2.05-1.07-2.95-.78-.96-2.14-1.09-2.99.06-.78.96-1.78,2.37-2.49,3.4-2.14,3.08-5.56,5.71-8.83,6.28.36-3.53-.85-5.58-2.28-6.86-.36-.32-.71-.64-1-1.03-1.64-1.99-2.92-2.56-5.48-2.37-4.35.26-9.12,4.1-11.75,8.27-1.78,2.82-2.99,6.28-2.99,8.98,0,1.92.71,3.97,2.07,5.58,1.99,2.31,4.56,3.21,6.77,3.21,6.55,0,12.25-7.31,14.1-13.27,1.35,0,2.78-.19,4.2-.64-.78,1.54-1.35,2.88-1.92,4.36-.64,1.67-.93,3.14-.93,4.36,0,2.82,1.5,5.06,4.84,5.06,3.13,0,5.7-1.54,7.84-3.59.43,2.24,2.28,3.91,5.06,3.91,4.92,0,9.97-4.81,14.82-11.92,4.63-6.67,5.63-9.42,6.13-11.86.36-1.73-.36-2.69-1.57-2.69Zm-46.87,16.35c-2.49,4.36-5.48,6.67-7.34,6.67-.93,0-1.57-.71-1.57-2.63,0-2.37,1.07-5.9,2.99-8.98,1.14-1.92,2.64-3.59,4.06-4.94.43,2.12,2.28,4.04,4.42,5.06-.57,1.41-1.42,3.01-2.56,4.81Zm3.63-6.92c-.78-.83-1.14-2.5-1.14-3.65,0-1.03.64-1.54,1.07-1.54.5,0,1.07.38,1.07,1.35,0,.83-.28,2.37-1,3.85Z"/>
    </g>
  </g>
</svg>