<?xml version="1.0" encoding="UTF-8"?>
<svg id="_레이어_2" data-name="레이어 2" xmlns="http://www.w3.org/2000/svg" viewBox="0 0 293 31">
  <defs>
    <style>
      .cls-1 {
        fill: #4371c4;
      }

      .cls-1, .cls-2 {
        stroke-width: 0px;
      }

      .cls-2 {
        fill: #fafaaa;
      }
    </style>
  </defs>
  <g id="_레이어_1-2" data-name="레이어 1">
    <g>
      <rect class="cls-1" width="293" height="31" rx="13.33" ry="13.33"/>
      <g>
        <path class="cls-2" d="m25.7,8.84c-.24,4.38-2.99,6.9-7.25,8.33l-.87-1.35c3.15-.76,5.81-2.82,6.31-5.6h-5.51v-1.37h7.33Zm-5.4,14.92v-5.97h10.46v5.97h-10.46Zm8.81-4.68h-7.18v3.38h7.18v-3.38Zm-3.4-5.77v-1.35h3.4v-4.19h1.65v9.18h-1.65v-3.64h-3.4Z"/>
        <path class="cls-2" d="m40.8,16.56c-1.13-.56-2.69-2.08-3.17-3.23-.39,1.32-1.8,2.97-3.23,3.77l-.98-1.19c1.78-.96,3.4-2.97,3.4-5.33v-1.89h1.6v1.86c0,2.39,1.84,4.12,3.27,4.77l-.87,1.24Zm4.79,7.44v-4.34h-9.37v-1.32h10.98v5.66h-1.61Zm.04-6.44v-4.36h-1.84v4.14h-1.56v-9.28h1.56v3.79h1.84v-4.08h1.58v9.8h-1.58Z"/>
        <path class="cls-2" d="m49.6,13.11v-1.35h8.03v1.35h-8.03Zm4.14,7.11c-2.12,0-3.58-1.34-3.58-3.19,0-1.95,1.47-3.17,3.58-3.17s3.56,1.24,3.56,3.17-1.45,3.19-3.56,3.19Zm-2.34-9.89v-1.34h4.36v1.34h-4.36Zm2.34,4.86c-1.19,0-2,.8-2,1.84,0,1.09.82,1.87,2,1.87s1.99-.82,1.99-1.87-.83-1.84-1.99-1.84Zm7.94,8.79v-8.16h-1.67v7.37h-1.58v-15.07h1.58v6.35h1.67v-6.7h1.58v16.22h-1.58Z"/>
        <path class="cls-2" d="m73.73,17.47v3.19h6.53v1.34h-14.64v-1.34h6.46v-3.19h-4.69v-8.57h1.65v2.95h7.81v-2.95h1.63v8.57h-4.75Zm3.12-4.29h-7.81v2.93h7.81v-2.93Z"/>
        <path class="cls-2" d="m88.74,19.93c-1.21-.82-2.63-2.63-3.12-4.4-.39,1.8-1.74,3.73-3.34,4.82l-1.02-1.15c1.91-1.22,3.56-3.88,3.56-7.14v-2.76h1.58v2.75c0,3.14,1.5,5.58,3.34,6.74l-1,1.15Zm1.86,3.25v-8.31h-2.56v-1.35h2.56v-5.38h1.56v15.05h-1.56Zm3.19.8V7.76h1.58v16.22h-1.58Z"/>
        <path class="cls-2" d="m97.72,21.92v-1.34h3.51v-2.88l1.65-.06v2.93h4.29v-2.93l1.63.06v2.88h3.56v1.34h-14.64Zm7.31-4.68c-3.62,0-6.03-1.67-6.03-4.19s2.41-4.21,6.03-4.21,6.05,1.69,6.05,4.21-2.41,4.19-6.05,4.19Zm0-7.05c-2.62,0-4.34,1.15-4.34,2.86s1.73,2.84,4.34,2.84,4.36-1.15,4.36-2.84-1.73-2.86-4.36-2.86Z"/>
      </g>
    </g>
  </g>
</svg>