<?xml version="1.0" encoding="UTF-8"?>
<svg id="_레이어_2" data-name="레이어 2" xmlns="http://www.w3.org/2000/svg" viewBox="0 0 88.16 91.75">
  <defs>
    <style>
      .cls-1, .cls-2, .cls-3, .cls-4, .cls-5, .cls-6, .cls-7, .cls-8, .cls-9 {
        stroke-width: 0px;
      }

      .cls-10, .cls-3 {
        opacity: .2;
      }

      .cls-2 {
        fill: #ffb6c1;
      }

      .cls-4 {
        fill: #c28b93;
      }

      .cls-5 {
        fill: #d7d797;
      }

      .cls-6 {
        fill: #c7eeeb;
      }

      .cls-7 {
        fill: #4472c4;
      }

      .cls-8 {
        fill: #fafaaa;
      }

      .cls-9 {
        fill: #d0fc5c;
      }
    </style>
  </defs>
  <g id="_레이어_3" data-name="레이어 3">
    <g>
      <g>
        <g class="cls-10">
          <polygon class="cls-1" points="60.5 32.85 88.16 32.85 88.16 55.37 83.82 60.51 60.5 60.51 60.5 32.85"/>
          <polygon class="cls-1" points="83.8 55.37 88.16 55.37 83.8 60.51 83.8 55.37"/>
        </g>
        <g>
          <polygon class="cls-8" points="60.43 31.19 88.09 31.19 88.09 53.71 83.75 58.85 60.43 58.85 60.43 31.19"/>
          <polygon class="cls-5" points="83.73 53.71 88.09 53.71 83.73 58.85 83.73 53.71"/>
        </g>
      </g>
      <g>
        <rect class="cls-3" x="29.91" y="32.75" width="27.69" height="27.69"/>
        <rect class="cls-7" x="29.87" y="31.13" width="27.69" height="27.69"/>
      </g>
      <rect class="cls-3" x="30.06" y="63.98" width="27.69" height="27.69"/>
      <rect class="cls-9" x="30.03" y="62.35" width="27.69" height="27.69"/>
      <rect class="cls-3" x="60.42" y="63.98" width="27.69" height="27.69"/>
      <rect class="cls-6" x="60.39" y="62.35" width="27.69" height="27.69"/>
      <g>
        <rect class="cls-3" x="30.06" y="1.63" width="27.69" height="27.69"/>
        <rect class="cls-9" x="30.03" width="27.69" height="27.69"/>
      </g>
      <rect class="cls-3" x=".04" y="32.67" width="27.69" height="27.69"/>
      <rect class="cls-6" x="0" y="31.05" width="27.69" height="27.69"/>
      <rect class="cls-3" x=".04" y="64.06" width="27.69" height="27.69"/>
      <rect class="cls-8" x="0" y="62.43" width="27.69" height="27.69"/>
      <rect class="cls-3" x="60.42" y="1.63" width="27.69" height="27.69"/>
      <rect class="cls-2" x="60.39" width="27.69" height="27.69"/>
      <g class="cls-10">
        <polygon class="cls-1" points=".08 1.66 27.73 1.66 27.73 24.18 23.4 29.32 .08 29.32 .08 1.66"/>
        <polygon class="cls-1" points="23.38 24.18 27.73 24.18 23.38 29.32 23.38 24.18"/>
      </g>
      <polygon class="cls-2" points="0 0 27.66 0 27.66 22.52 23.32 27.66 0 27.66 0 0"/>
      <polygon class="cls-4" points="23.3 22.52 27.66 22.52 23.3 27.66 23.3 22.52"/>
    </g>
  </g>
</svg>