<?xml version="1.0" encoding="UTF-8"?>
<svg id="_레이어_2" data-name="레이어 2" xmlns="http://www.w3.org/2000/svg" viewBox="0 0 1426.78 280.58">
  <defs>
    <style>
      .cls-1 {
        fill: #4371c4;
      }

      .cls-1, .cls-2, .cls-3, .cls-4, .cls-5, .cls-6, .cls-7 {
        stroke-width: 0px;
      }

      .cls-2 {
        fill: #00ace8;
      }

      .cls-3 {
        fill: #009ee2;
      }

      .cls-4 {
        fill: #fff;
      }

      .cls-5 {
        fill: #fafaaa;
      }

      .cls-6 {
        fill: #1dbbee;
      }

      .cls-7 {
        fill: #cacaca;
      }
    </style>
  </defs>
  <g id="_레이어_1-2" data-name="레이어 1">
    <g>
      <path class="cls-5" d="m445.95,173.97c-1.75-1.13-4.14-3.75-4.88-6-.71,2.44-2.76,5.01-5.01,6.37l-1.45-1.72c3.2-2.07,5.22-5.45,5.22-9.36v-2.99h2.41v2.85c0,3.93,2.09,7.2,5.1,9.08l-1.4,1.77Zm5.06-7.47h3.08v1.98h-3.08v10.51h-2.37v-20.49h2.37v8Z"/>
      <path class="cls-5" d="m454.99,176.4v-1.91h8.05v-5.04h2.35v5.04h8.12v1.91h-18.51Zm16.69-6.81c-3.06-.78-6.39-3.1-7.45-5.63-.94,2.55-4.35,4.9-7.45,5.63l-1.15-1.91c3.36-.53,7.4-3.29,7.4-6.81v-1.22h2.46v1.22c0,3.47,4.32,6.32,7.4,6.9l-1.22,1.82Z"/>
      <path class="cls-5" d="m474.72,163.96v-1.86h11.87v1.86h-11.87Zm5.98,7.91c-2.76,0-4.85-1.4-4.85-3.56s2.07-3.56,4.85-3.56,4.81,1.45,4.81,3.56-2.07,3.56-4.81,3.56Zm-3.01-12.92h6v1.89h-6v-1.89Zm0,19.48v-5.5h2.37v3.61h11.34v1.89h-13.71Zm3.01-11.89c-1.45,0-2.6.69-2.6,1.77s1.15,1.75,2.6,1.75,2.55-.64,2.55-1.75-1.17-1.77-2.55-1.77Zm10.09-1.63h3.04v1.95h-3.04v6.78h-2.37v-15.15h2.37v6.42Z"/>
      <path class="cls-5" d="m508.97,174.56v-3.77h-8.14v-1.91h18.51v1.91h-8.02v3.77h-2.35Zm-5.75,3.82v-5.79h2.37v3.93h11.59v1.86h-13.96Zm13.66-11.5h-13.61v-7.31h13.61v7.31Zm-2.37-5.43h-8.88v3.54h8.88v-3.54Z"/>
      <path class="cls-5" d="m529.48,174.22c-1.38-.87-3.17-3.06-3.73-5.01-.46,2.02-2.23,4.37-4,5.47l-1.47-1.59c2.71-1.79,4.35-4.78,4.35-8.83v-1.52h-3.61v-1.91h9.27v1.91h-3.36v1.45c0,4.07,1.63,6.99,3.93,8.32l-1.38,1.7Zm2.23,3.79v-10.28h-2.81v-1.95h2.81v-6.88h2.21v19.11h-2.21Zm4.02.97v-20.49h2.25v20.49h-2.25Z"/>
      <path class="cls-5" d="m548.67,179v-6.9h-8.05v-1.91h18.51v1.91h-8.12v6.9h-2.35Zm-5.75-11.24v-8.49h2.32v2.46h9.24v-2.51h2.35v8.53h-13.91Zm11.57-4.16h-9.24v2.25h9.24v-2.25Z"/>
      <path class="cls-5" d="m569.73,167.85h-6.05v4.51c2.74,0,5.59-.07,8.35-.62l.34,1.86c-2.14.46-5.01.67-8.88.69h-2.14v-13.96h9.38v1.86h-7.06v3.75h6.05v1.91Zm5.29,11.13v-11.04h-3.7v-1.95h3.7v-7.5h2.35v20.49h-2.35Z"/>
      <path class="cls-5" d="m581.44,174.01h2.58l-1.01,5.13h-1.91l.34-5.13Z"/>
      <path class="cls-5" d="m436.31,202.81l-1.47-1.79c4.67-2.16,7.68-6.53,8.07-10.83h-6.92v-1.93h9.45c-.14,6.35-3.24,11.34-9.13,14.56Zm13.31,3.77v-10.42h-4.19v-1.98h4.19v-8.09h2.35v20.49h-2.35Z"/>
      <path class="cls-5" d="m464.56,200.99c-1.7.39-4.35.57-6.83.57h-2.07v-12.99h7.73v1.91c-1.77,0-3.59-.02-5.33-.02v9.15c2.55,0,4.67-.16,6.21-.51l.3,1.89Zm5.43,5.59v-10.37h-2.07v9.38h-2.23v-19.09h2.23v7.73h2.07v-8.14h2.28v20.49h-2.28Z"/>
      <path class="cls-5" d="m474.72,191.56v-1.86h11.87v1.86h-11.87Zm5.98,7.91c-2.76,0-4.85-1.4-4.85-3.56s2.07-3.56,4.85-3.56,4.81,1.45,4.81,3.56-2.07,3.56-4.81,3.56Zm-3.01-12.92h6v1.89h-6v-1.89Zm0,19.48v-5.5h2.37v3.61h11.34v1.89h-13.71Zm3.01-11.89c-1.45,0-2.6.69-2.6,1.77s1.15,1.75,2.6,1.75,2.55-.64,2.55-1.75-1.17-1.77-2.55-1.77Zm10.09-1.63h3.04v1.95h-3.04v6.78h-2.37v-15.15h2.37v6.42Z"/>
      <path class="cls-5" d="m508.97,202.17v-3.77h-8.14v-1.91h18.51v1.91h-8.02v3.77h-2.35Zm-5.75,3.82v-5.79h2.37v3.93h11.59v1.86h-13.96Zm13.66-11.5h-13.61v-7.31h13.61v7.31Zm-2.37-5.43h-8.88v3.54h8.88v-3.54Z"/>
      <path class="cls-5" d="m529.48,201.82c-1.38-.87-3.17-3.06-3.73-5.01-.46,2.02-2.23,4.37-4,5.47l-1.47-1.59c2.71-1.79,4.35-4.78,4.35-8.83v-1.52h-3.61v-1.91h9.27v1.91h-3.36v1.45c0,4.07,1.63,6.99,3.93,8.32l-1.38,1.7Zm2.23,3.79v-10.28h-2.81v-1.95h2.81v-6.88h2.21v19.11h-2.21Zm4.02.97v-20.49h2.25v20.49h-2.25Z"/>
      <path class="cls-5" d="m541.81,202.03l-1.82-1.24c2.92-2.69,4.51-6.92,4.53-10.6h-3.27v-1.91h5.5c0,6.09-1.61,10.23-4.94,13.75Zm5.86,1.22l-1.89-1.22c3.1-3.2,4.39-7.61,4.39-11.84h-2.55v-1.91h4.76c0,6.62-1.08,10.67-4.71,14.97Zm8.99-8.9h3.04v1.95h-3.04v10.28h-2.25v-20.49h2.25v8.26Z"/>
      <path class="cls-5" d="m571.94,201.64c-1.91-1.06-4.39-3.68-5.06-5.79-.53,2.21-2.6,4.92-5.04,6.21l-1.49-1.72c3.27-1.84,5.31-5.08,5.31-9.22v-1.01h-4.28v-1.86h10.88v1.86h-4.16v.99c0,4.14,2.21,7.2,5.22,8.83l-1.38,1.72Zm3.1,4.94v-20.49h2.35v20.49h-2.35Z"/>
      <path class="cls-5" d="m581.33,201.57h2.53v2.48h-2.53v-2.48Z"/>
    </g>
    <g>
      <path class="cls-5" d="m460.16,29.53h5.16v3.76h-32.19v-3.76h22.6c.52-2.4.92-6.64.88-8.84h-19.28v-3.68h23.96c0,4.56-.44,9.08-1.12,12.52Zm-22.92,21.36v-14.8h4.64v4h14.68v-4.08h4.64v14.88h-23.96Zm19.32-7.28h-14.68v3.6h14.68v-3.6Z"/>
      <path class="cls-5" d="m467.28,25.73v-3.64h20.68v3.64h-20.68Zm10.56,14.04c-4.88,0-8.48-2.68-8.48-6.48s3.56-6.56,8.48-6.56,8.4,2.8,8.4,6.56-3.6,6.48-8.4,6.48Zm-5.92,10.72v-9.4h4.72v5.68h19.64v3.72h-24.36Zm.64-33.63h10.6v3.56h-10.6v-3.56Zm5.28,19.16c2.04,0,3.84-1.12,3.84-2.72,0-1.68-1.8-2.84-3.84-2.84s-3.84,1.16-3.84,2.84,1.76,2.72,3.84,2.72Zm17.6-8.8h4.96v3.88h-4.96v11.08h-4.68V15.69h4.68v11.52Z"/>
      <path class="cls-5" d="m526.28,43.52v-6.56h-14.08v-3.72h32.19v3.72h-13.44v6.56h-4.68Zm-9.96,6.84v-10.2h4.68v6.52h19.68v3.68h-24.36Zm23.8-20.44h-23.68v-12.88h23.68v12.88Zm-4.68-9.16h-14.28v5.44h14.28v-5.44Z"/>
      <path class="cls-5" d="m561.48,43.08c-2.32-1.48-5.32-5.12-6.2-8.28-.84,3.32-3.88,7.44-6.76,9.08l-2.84-3.16c5.08-3.36,7.36-8.44,7.36-15.48v-1.72h-6v-3.72h16.08v3.72h-5.56v1.64c0,6.96,2.32,12.04,6.56,14.56l-2.64,3.36Zm3.92,6.6v-17.88h-4.64v-3.84h4.64v-11.6h4.36v33.31h-4.36Zm7.08,1.64V15.69h4.44v35.63h-4.44Z"/>
      <path class="cls-5" d="m582.48,43.84h5.04l-2.88,8.08h-3.76l1.6-8.08Z"/>
      <path class="cls-5" d="m452.24,96.25c-2.72-1.04-6.44-4.36-8-7.64-1.08,3.64-4.96,7.32-8.24,8.48l-2.84-3.72c5.2-1.88,8.6-6.52,8.6-11.88v-3.76h4.88v3.52c0,5.48,4.12,9.92,8.24,11.28l-2.64,3.72Zm-13.56,14.12v-11.16h4.72v7.48h20.04v3.68h-24.76Zm19.32-8.84v-25.84h4.68v25.84h-4.68Z"/>
      <path class="cls-5" d="m467.56,96.73v-3.68h13.76v-4.8h4.68v4.8h13.76v3.68h-32.19Zm3.36-6.48l-1.96-3.64c5.96-.6,12.32-3.88,12.32-9.2v-1.04h4.84v1.04c0,5.32,7.24,8.92,12.36,9.2l-2,3.68c-4.76-.68-11-3.56-12.8-7.64-1.8,4.08-7.6,6.92-12.76,7.6Zm24.68,9.2v11.96h-4.64v-8.24h-19.6v-3.72h24.24Z"/>
      <path class="cls-5" d="m502.36,87.73v-3.72h20.76v3.72h-20.76Zm10.6,1.36c5.2,0,8.72,3.24,8.72,7.68s-3.52,7.68-8.72,7.68-8.68-3.12-8.68-7.68c0-4.32,3.56-7.68,8.68-7.68Zm-5.6-11.12h11v3.72h-11v-3.72Zm5.6,22.72c2.68,0,4.16-1.56,4.16-3.92s-1.72-3.92-4.16-3.92-4.04,1.56-4.04,3.92,1.64,3.92,4.04,3.92Zm13.76,10.64v-35.63h4.68v35.63h-4.68Z"/>
      <path class="cls-5" d="m546.52,84.21h17v3.72h-17v-3.72Zm8.56,19.84c-4.6,0-7.8-3.16-7.8-7.4,0-4.52,3.24-7.4,7.8-7.4s7.8,2.92,7.8,7.4-3.16,7.4-7.8,7.4Zm-4.68-25.6h9.6v3.72h-9.6v-3.72Zm4.68,14.48c-2.04,0-3.56,1.52-3.56,3.72s1.52,3.72,3.56,3.72,3.6-1.56,3.6-3.72-1.52-3.72-3.6-3.72Zm17.36,18.4v-17.48h-2.96v15.84h-4.36v-33.35h4.36v13.76h2.96v-14.4h4.44v35.63h-4.44Z"/>
      <path class="cls-5" d="m583.2,94.41l-2.28-3.8c6.36-.88,11.88-4.4,13.12-9.52h-11.4v-3.88h16.6c-.04,10.08-8.08,15.52-16.04,17.2Zm3.76,16.68v-9.6h18.76v-2.48h-18.96v-3.72h23.6v9.6h-18.68v2.44h19.8v3.76h-24.52Zm18.76-17.56v-3.04h-6.68v-3.52h6.68v-3h-6.04v-3.52h6.04v-4.76h4.64v17.84h-4.64Z"/>
      <path class="cls-5" d="m615.24,84.21h17v3.72h-17v-3.72Zm8.56,19.84c-4.6,0-7.8-3.16-7.8-7.4,0-4.52,3.24-7.4,7.8-7.4s7.8,2.92,7.8,7.4-3.16,7.4-7.8,7.4Zm-4.68-25.6h9.6v3.72h-9.6v-3.72Zm4.68,14.48c-2.04,0-3.56,1.52-3.56,3.72s1.52,3.72,3.56,3.72,3.6-1.56,3.6-3.72-1.52-3.72-3.6-3.72Zm17.36,18.4v-17.48h-2.96v15.84h-4.36v-33.35h4.36v13.76h2.96v-14.4h4.44v35.63h-4.44Z"/>
      <path class="cls-5" d="m649.64,106.88v-3.76h7.2v-5.92l4.68.2v5.72h8.36v-5.72l4.68-.2v5.92h7.28v3.76h-32.19Zm16.12-10.28c-7.8,0-12.96-3.92-12.96-9.36s5.16-9.48,12.96-9.48,13,4,13,9.48-5.16,9.36-13,9.36Zm0-14.92c-4.96,0-8.16,2.32-8.16,5.56s3.2,5.52,8.16,5.52,8.2-2.32,8.2-5.52-3.24-5.56-8.2-5.56Z"/>
      <path class="cls-5" d="m685.4,102.48h4.88v4.68h-4.88v-4.68Z"/>
    </g>
    <rect class="cls-5" x="430.92" y="235.58" width="108" height="45" rx="7.48" ry="7.48"/>
    <g>
      <path class="cls-1" d="m463.24,255.32h2.32v1.67h-14.49v-1.67h10.17c.23-.9.38-2.39.36-3.44h-8.68v-1.66h10.79c0,2.03-.14,3.67-.47,5.1Zm-10.41,10.17v-4.3h8.84v-1.19h-8.97v-1.66h11.06v4.3h-8.84v1.15h9.42v1.69h-11.51Z"/>
      <path class="cls-1" d="m478.64,249.88c3.6,0,5.67,1.15,5.67,2.86,0,1.57-1.69,2.65-4.68,2.84v.86h6.23v1.67h-14.49v-1.67h6.16v-.86c-2.92-.22-4.56-1.31-4.56-2.84,0-1.71,2.05-2.86,5.67-2.86Zm-5.42,15.75v-4.07h8.64v-.9h-8.75v-1.66h10.84v4.03h-8.64v.88h9.22v1.71h-11.31Zm5.42-11.6c2.21,0,3.51-.58,3.51-1.3s-1.3-1.3-3.51-1.3-3.49.58-3.49,1.3,1.28,1.3,3.49,1.3Z"/>
      <path class="cls-1" d="m496.93,261.51c-1.69.34-4.68.52-7.4.52h-1.69v-6.66h5.2v-2.67h-5.28v-1.67h7.4v6.01h-5.24v3.26c1.53,0,4.72-.09,6.77-.47l.23,1.67Zm3.26-11.85v16.04h-2.09v-16.04h2.09Z"/>
      <path class="cls-1" d="m503.68,262.81l-1.3-1.58c3.51-1.6,5.91-4.95,6.19-8.14h-5.22v-1.75h7.49c-.13,4.84-2.27,8.8-7.17,11.47Zm9.99,2.9v-16.04h2.11v16.04h-2.11Z"/>
    </g>
    <g>
      <path class="cls-3" d="m965.25,196.48c1.56-.55,3.49-1.77,4.07-3.48.64-1.9-1.79-4.05-3.75-3.48-1.73.5-8.33,5.83-8.89,7.48-.6,1.78,5.84.46,8.58-.51Z"/>
      <path class="cls-3" d="m1053.74,200.01c.86-1.81,1.56-3.77,1.56-4.93,0-.78-.29-1.88-.79-2.65-.79-1.23-1.65-1.29-2.73.13-1.65,2.13-3.16,4.27-5.39,7.76-1.58.13-3.52.19-5.17.13-1.65-.06-2.37.58-1.37,1.94.57.78,1.87,1.49,4.1,1.75-.78,1.27-1.56,2.58-2.3,3.87-.08.09-.15.2-.21.31-2.16,3.95-16.25,20.58-21.07,18.78-.94-.35-1.37-.84-1.37-2.2,0-1.03.29-2.39.93-3.82.79-1.55,2.59-4.27,6.54-10.61.57-.91.79-1.81.79-2.72,0-2.52-2.08-4.53-4.17-4.53-1.37,0-3.88.78-6.04,2.2.72-.91,5.17-6.92,6.61-9.05,1.72-2.72,2.59-5.11,2.59-6.86,0-.91-.22-1.75-.57-2.46-.65-1.29-1.72-1.55-2.87-.26-3.81,4.4-11.21,15.19-16.69,24.03-3.02,3.66-13.09,13.36-22.41,16.45,2.37-4.92,5.25-9.64,7.55-13.71,1.8-3.23,2.59-4.98,2.59-6.73,0-1.36-.5-2.59-1.15-3.3-.93-.97-2.23-1.03-3.09.45-.43.71-.86,1.36-1.15,1.81-.65-1.55-2.23-2.72-4.6-2.72-5.12,0-12.94,5.65-16.83,12.29-.15.13-.29.32-.42.57-2.23,4.4-9.6,11.94-16.61,11.14-.79-.09-1.08-.58-1.08-1.62s.36-2.39,1.01-3.88c1.22-2.59,4.53-7.44,5.89-10.22,1.87-3.23,1.29-6.02-.07-7.31-.93-.97-1.8-.84-2.87.45-1.36,1.72-4.21,6.22-6.22,9.6-4.41,7.84-19.15,21.36-23.37,7.18-1.03-3.47-.59-4.35-.37-6.2,6.42-2.06,12.86-6.23,15.94-9.99,2.66-3.3,4.17-6.99,2.23-11.32-1.8-4.07-5.32-5.5-9.13-5.37-2.66.13-5.17.78-7.91,1.55-2.59.78-5.32,1.49-8.19,1.88-1.51.19-1.87.71-1.29,1.62.86,1.36,1.87,2.26,4.24,2.65-6.32,8.86-12.65,20.63-14.44,26.26-.36,1.16-.5,2.33-.5,3.23,0,1.62.57,2.65,1.37,3.43,1.08.97,1.87.84,2.37-.39,2.16-4.79,4.02-8.47,5.82-11.64l3.86-.99c-.88,3.87-1.84,8,1.78,11.59,4.67,4.62,12,3.84,16.03,2.11,3.11-1.34,5.84-2.87,7.91-4.73.31,2.78,2.27,4.56,6.28,4.7,6.26.22,11.89-2.26,15.52-5.15.55,3.04,2.8,5.02,6.34,5.02,1.94,0,3.81-.65,5.39-1.62l-.93,2.13c-8.77,2.72-15.74,9.38-15.74,15.2,0,2.01,1.08,3.69,2.08,5.04,1.51,1.81,3.31,2.07,5.03,1.49,5.82-2.46,11.07-12.29,14.88-20.63,7.17-1.99,13.49-5.78,18.12-9.37-.03.06-.06.13-.08.19-1.8,4.27-.79,5.82.36,7.05.86.97,1.94.78,2.52-.39,1.72-3.88,4.31-8.34,6.76-11.97,3.81-5.56,10.64-9.64,11.28-9.64.5,0-.57,1.55-1.94,3.69-2.73,3.82-6.25,9.44-6.25,13.52,0,3.36,2.16,5.26,6.9,5.5,5.22.26,11.26-3.78,16-8.12-.03.28-.04.55-.04.81,0,4.46,3.31,7.24,7.11,7.24,6.04,0,10.85-5.56,11.86-7.5.79-1.49,1.08-2.46.72-3.82-.5-1.75-2.16-1.62-2.95-.06-2.52,4.85-6.25,8.93-9.06,8.93-1.22,0-1.94-1.36-1.94-3.3,0-1.42.43-3.1,1.29-4.85,2.52-4.92,6.61-11.32,9.34-15.52,1.58-.19,14.18-.06,21.48-.39,1.73-.08,2.73-2.24,2.01-3.41-.5-.78-17.85,1.22-21.6.25Zm-131.62,2.83c1.8-3.04,2.66-5.3,2.73-7.11l2.8-.84c2.3-.71,5.03-1.55,6.68-1.55,1.08,0,1.87.32,2.3,1.36,1.87,4.27-5.17,12.81-19.55,16.1,1.29-2,3.09-4.72,5.03-7.96Zm47.01,39.84c-2.23,3.49-4.02,5.43-4.67,4.98-.72-.58.22-3.62,2.3-6.79,1.51-2.26,3.74-4.59,6.76-6.53-1.37,3.23-2.95,6.08-4.38,8.34Zm12.07-25.16c-3.52,5.43-6.9,9.38-9.2,9.31-.65,0-.93-.84-.93-2.07,0-7.5,11.07-17.66,13.51-17.66.5,0,.72.39.72,1.16,0,1.68-1.29,4.85-4.1,9.25Z"/>
      <path class="cls-3" d="m1123.05,191.98c0-.91-.22-1.75-.65-2.52-.79-1.23-1.65-1.55-2.73-.19-4.74,6.66-11.71,17.98-16.6,27.23.5-7.44,1.15-14.16,2.16-19.4.22-1.16.36-2.2.36-3.1,0-2.33-1.01-3.69-3.16-5.11-1.08-.78-1.94-.78-2.87.65-5.46,8.15-14.59,23.54-18.33,32.21-.57,1.36-.93,2.91-.93,3.88,0,1.49.65,2.78,1.37,3.62,1.01.97,2.08.91,2.59-.39,3.16-7.96,8.26-16.88,13.37-24.77-.65,5.5-.93,10.87-.93,14.62,0,1.55.07,2.85.22,4.72.29,3.3,1.44,4.98,3.81,6.08,1.22.58,2.01.19,2.44-.58,4.38-8.73,13.22-23.93,17.25-29.88,2.23-3.23,2.66-5.5,2.66-7.05Z"/>
      <path class="cls-3" d="m1174.99,202.97c-2.08,0-6.9,3.36-8.41,14.16-3.59,5.76-7.47,9.9-9.7,9.9-.5,0-.79-.52-.79-1.36,0-.91.5-2.39,1.29-3.88,2.23-4.46,5.25-8.41,6.61-10.93.93-1.62,1.22-2.98,1.22-4.27,0-1.36-.43-2.26-1.15-3.23-.93-1.16-1.94-.91-3.02.45-1.22,1.55-2.3,3.23-3.38,5.17-1.37,2.2-3.09,5.04-6.11,9.51-3.16,4.79-5.68,8.28-7.26,8.28-.65,0-.86-.39-.86-1.16,0-.91.29-2.13.93-3.56,1.44-3.04,3.16-5.89,5.53-9.44,1.58-2.26,2.37-4.27,2.37-5.89,0-1.03-.36-2.07-1.08-2.98-.79-.97-2.16-1.1-3.02.06-.79.97-1.8,2.39-2.52,3.43-2.16,3.1-5.61,5.76-8.91,6.34.36-3.56-.86-5.63-2.3-6.92-.36-.32-.72-.65-1.01-1.03-1.65-2-2.95-2.59-5.53-2.39-4.38.26-9.2,4.14-11.86,8.34-1.8,2.85-3.02,6.34-3.02,9.05,0,1.94.72,4.01,2.08,5.63,2.01,2.33,4.6,3.23,6.83,3.23,6.61,0,12.36-7.37,14.23-13.39,1.37,0,2.8-.19,4.24-.65-.79,1.55-1.37,2.91-1.94,4.4-.65,1.68-.93,3.17-.93,4.4,0,2.85,1.51,5.11,4.89,5.11,3.16,0,5.75-1.55,7.91-3.62.43,2.26,2.3,3.95,5.1,3.95,4.96,0,10.06-4.85,14.95-12.03,4.67-6.73,5.68-9.51,6.18-11.97.36-1.75-.36-2.72-1.58-2.72Zm-47.29,16.49c-2.52,4.4-5.53,6.73-7.4,6.73-.93,0-1.58-.71-1.58-2.65,0-2.39,1.08-5.95,3.02-9.05,1.15-1.94,2.66-3.62,4.1-4.98.43,2.13,2.3,4.07,4.46,5.11-.57,1.42-1.44,3.04-2.59,4.85Zm3.67-6.99c-.79-.84-1.15-2.52-1.15-3.69,0-1.03.65-1.55,1.08-1.55.5,0,1.08.39,1.08,1.36,0,.84-.29,2.39-1.01,3.88Z"/>
    </g>
    <g>
      <polygon class="cls-3" points="1336.99 257.08 1214.66 203.72 1214.66 57.97 1336.99 111.32 1336.99 257.08"/>
      <polygon class="cls-4" points="1294.34 238.21 1251.1 218.69 1251.1 142 1294.34 161.52 1294.34 238.21"/>
      <polygon class="cls-7" points="1294.34 238.21 1251.1 218.69 1228.68 231.7 1271.92 251.22 1294.34 238.21"/>
      <polygon class="cls-2" points="1426.78 57.32 1304.45 3.96 1214.66 57.97 1336.99 111.32 1426.78 57.32"/>
      <polygon class="cls-6" points="1336.99 257.08 1426.13 203.72 1426.13 57.97 1336.99 111.32 1336.99 257.08"/>
    </g>
    <g>
      <polygon class="cls-3" points="35.32 73.08 0 57.68 0 15.59 35.32 31 35.32 73.08"/>
      <polygon class="cls-4" points="23.01 67.63 10.52 62 10.52 39.85 23.01 45.49 23.01 67.63"/>
      <polygon class="cls-7" points="23.01 67.63 10.52 62 4.05 65.75 16.53 71.39 23.01 67.63"/>
      <polygon class="cls-2" points="61.24 15.41 25.93 0 0 15.59 35.32 31 61.24 15.41"/>
      <polygon class="cls-6" points="35.32 73.08 61.06 57.68 61.06 15.59 35.32 31 35.32 73.08"/>
    </g>
  </g>
</svg>