<?xml version="1.0" encoding="UTF-8"?>
<svg id="_레이어_2" data-name="레이어 2" xmlns="http://www.w3.org/2000/svg" viewBox="0 0 859.87 605.25">
  <defs>
    <style>
      .cls-1 {
        fill: #4371c4;
      }

      .cls-1, .cls-2, .cls-3 {
        stroke-width: 0px;
      }

      .cls-2 {
        fill: #b2b2b2;
      }
    </style>
  </defs>
  <g id="_레이어_1-2" data-name="레이어 1">
    <rect class="cls-1" y="78.25" width="141" height="141" rx="19.08" ry="19.08"/>
    <rect class="cls-1" y="270.25" width="141" height="141" rx="19.08" ry="19.08"/>
    <rect class="cls-1" x="511" y="79.25" width="141" height="141" rx="19.08" ry="19.08"/>
    <rect class="cls-1" x="511" y="271.25" width="141" height="141" rx="19.08" ry="19.08"/>
    <g>
      <path class="cls-1" d="m36.61,25.98c-.9-.06-2.04-.06-3.36.06,1.2,5.58-6.06,10.92-9.12,11.76-1.32.36-2.82.66-4.44.66-2.1,0-4.14-.48-6-1.92-2.28-1.62-4.2-4.38-4.2-9.36C9.49,14.4,21.67,3.06,28.45.72c1.74-.6,3.06-.72,4.38-.72,1.56,0,3.06.42,4.08,1.14,2.88,2.1,3.66,4.92,3.66,6.54,0,.9-.24,1.98-.78,3.24-.66,1.56-1.62,3.9-2.28,5.64-.3.78-1.02,1.38-2.16.48-1.14-.9-2.16-2.1-2.16-3.96,0-.66.06-1.32.54-2.58,1.68-4.32,2.28-6,1.62-6.66-1.74-1.8-10.74,3.36-16.14,11.58-3.18,4.86-4.32,9.96-4.32,13.8,0,4.62,1.5,6.18,3.42,6.18,3.18,0,7.44-3.3,10.26-8.58-1.56.3-3,.48-4.2.6-3.12.24-5.4-1.14-6.3-3-.36-.9-.06-1.5,1.14-1.5,2.4-.06,4.8-.48,7.02-.9,2.04-.3,3.9-.66,5.7-.66,3.3-.06,5.1,1.32,5.94,3.24.36.9.42,1.5-1.26,1.38Z"/>
      <path class="cls-1" d="m53.65,13.5c2.16,0,3.48,1.08,4.02,2.64l1.14-1.86c.72-1.2,1.74-1.26,2.46-.42,1.02,1.2,1.56,3.84,0,6.96-1.56,3.3-6.6,9.84-6.6,13.86,0,.9.24,1.44.84,1.44,2.16,0,5.16-4.08,7.14-7.98.66-1.2,1.2-1.26,1.8,0,.24.54.6,2.16-.24,3.9-1.56,3.3-5.4,6.48-9.06,6.48-3,0-4.74-1.56-5.22-3.78-1.74,1.68-4.44,3.54-6.84,3.54-3.54,0-5.46-2.58-5.46-6.12,0-2.58,1.08-5.94,3.24-8.94,4.8-6.9,9.72-9.72,12.78-9.72Zm-2.1,13.44c2.34-4.08,3.42-7.02,3.42-8.58,0-.72-.12-1.14-.72-1.14-1.2,0-5.34,3.78-8.4,8.7-1.8,2.82-2.82,6-2.82,7.92,0,1.08.24,1.8.84,1.8,1.98,0,4.74-3.66,7.68-8.7Z"/>
      <path class="cls-1" d="m63.19,26.64c1.2-2.94,3.48-7.68,5.88-12-1.86-.24-2.94-.9-3.42-1.62-.84-1.26-.24-1.86,1.14-1.8s3,0,4.32-.12c1.86-3.24,3.12-5.22,4.5-7.2.9-1.32,1.62-1.26,2.28-.12.42.72.66,1.74.66,2.46,0,1.08-.24,2.46-.96,4.14,1.86.24,2.88,1.2,3.3,1.92.6,1.08.18,1.8-1.26,1.62-1.08-.12-2.64,0-3.96.18-2.28,3.9-5.7,9.84-7.8,14.4-.72,1.62-1.08,3.18-1.08,4.5,0,1.8.6,3.06,1.62,3.06,2.34,0,5.46-3.78,7.56-8.28.66-1.44,2.04-1.56,2.46.06.3,1.26.06,2.16-.6,3.54-.84,1.8-4.86,6.96-9.9,6.96-3.18,0-5.94-2.58-5.94-6.72,0-1.32.36-3,1.2-4.98Z"/>
      <path class="cls-1" d="m84.31,29.28c-1.44,0-2.88-.42-4.26-1.32-.36,1.2-.54,2.46-.54,3.54,0,2.64,1.08,4.5,2.88,4.5,4.56,0,8.58-4.44,11.04-8.16.66-.96,1.44-1.08,1.92.12.18.54.24,2.28-.84,3.9-2.52,3.66-7.32,6.48-12,6.54-5.58.06-8.64-3.6-8.64-8.4,0-2.16.6-4.5,1.86-6.9,3.12-6.36,7.98-9.54,11.46-9.54.84,0,1.5.12,2.1.48,1.68.96,2.88,1.92,3.72,3.12.36.54.6,1.44.6,2.22,0,3.6-4.02,9.9-9.3,9.9Zm-3.42-3.6c.48.3.9.42,1.32.42,1.44,0,3.36-1.8,4.56-3.42,1.74-2.34,3-5.16,2.34-5.7-.9-.72-5.34,2.94-8.22,8.7Z"/>
    </g>
    <g>
      <path class="cls-1" d="m171.33,97.67c-1.36.37-4.12.6-6.58.62h-2.02v-9.06h2.35v7.13c1.98,0,4.6-.23,5.93-.62l.32,1.93Zm.8,10.49c-4.42,0-7.04-1.63-7.04-4.05s2.62-4.09,7.04-4.09,7.08,1.63,7.08,4.09-2.62,4.05-7.08,4.05Zm0-6.21c-2.87,0-4.6.8-4.6,2.16s1.72,2.16,4.6,2.16,4.65-.83,4.65-2.16-1.75-2.16-4.65-2.16Zm4.62-1.98v-5.13h-2.18v4.44h-2.21v-11.22h2.21v4.81h2.18v-5.17h2.25v12.28h-2.25Z"/>
      <path class="cls-1" d="m181.92,89h10.78v1.95h-4.09v.07c0,3.01,2.28,5.29,4.65,6.05l-1.29,1.86c-1.72-.69-3.68-2.3-4.58-4.21-.6,2-2.78,4-4.85,4.78l-1.38-1.84c2.87-1.06,5.04-3.52,5.04-6.55v-.16h-4.28v-1.95Zm8.97,19.18c-4.37,0-6.92-1.61-6.92-4.05s2.55-4.07,6.92-4.07,6.97,1.59,6.97,4.07-2.58,4.05-6.97,4.05Zm0-6.21c-2.85,0-4.51.78-4.51,2.16s1.66,2.14,4.51,2.14,4.55-.81,4.55-2.14-1.68-2.16-4.55-2.16Zm6.69-7.27v5.11h-2.37v-12.12h2.37v5.06h3.04v1.95h-3.04Z"/>
      <path class="cls-1" d="m201.56,105.19v-1.91h6.92v-7.01h2.35v7.01h9.24v1.91h-18.51Zm15.31-4.05l-2.25-.35c.6-2.67.78-6.48.78-9.24h-11.7v-1.91h14.07c0,3.54-.07,8.09-.9,11.5Z"/>
      <path class="cls-1" d="m227.5,105.19v-1.91h6.92v-7.01h2.35v7.01h9.24v1.91h-18.51Zm15.31-4.05l-2.25-.35c.6-2.67.78-6.48.78-9.24h-11.7v-1.91h14.07c0,3.54-.07,8.09-.9,11.5Z"/>
      <path class="cls-1" d="m247.65,89h10.78v1.95h-4.09v.07c0,3.01,2.28,5.29,4.65,6.05l-1.29,1.86c-1.72-.69-3.68-2.3-4.58-4.21-.6,2-2.78,4-4.85,4.78l-1.38-1.84c2.87-1.06,5.04-3.52,5.04-6.55v-.16h-4.28v-1.95Zm8.97,19.18c-4.37,0-6.92-1.61-6.92-4.05s2.55-4.07,6.92-4.07,6.97,1.59,6.97,4.07-2.58,4.05-6.97,4.05Zm0-6.21c-2.85,0-4.51.78-4.51,2.16s1.66,2.14,4.51,2.14,4.55-.81,4.55-2.14-1.68-2.16-4.55-2.16Zm6.69-7.27v5.11h-2.37v-12.12h2.37v5.06h3.04v1.95h-3.04Z"/>
    </g>
    <g>
      <path class="cls-2" d="m170.65,134.6c-1.29-.82-2.99-2.75-3.54-4.42-.53,1.8-2.04,3.71-3.67,4.69l-1.09-1.26c2.35-1.53,3.82-4.03,3.82-6.92v-2.5h1.78v2.4c0,2.91,1.51,5.32,3.74,6.71l-1.05,1.29Zm2.58,3.45v-8.46h-2.96v-1.46h2.96v-5.22h1.73v15.15h-1.73Z"/>
      <path class="cls-2" d="m178.95,137.95v-3.76h8.4v-.97h-8.46v-1.39h4.27v-1.16h-5.95v-1.41h13.68v1.41h-6v1.16h4.2v3.64h-8.38v1.09h8.94v1.39h-10.69Zm10.45-12.21c0,1.56-1.99,2.69-5.34,2.69s-5.3-1.12-5.3-2.69,1.97-2.69,5.3-2.69,5.34,1.12,5.34,2.69Zm-8.84,0c0,.82,1.31,1.31,3.5,1.31s3.52-.49,3.52-1.31-1.33-1.29-3.52-1.29-3.5.48-3.5,1.29Z"/>
      <path class="cls-2" d="m191.9,132.13v-1.41h13.68v1.41h-13.68Zm11.9,1.17v4.79h-1.73v-3.4h-8.57v-1.39h10.3Zm-8.33-6.17v1.04h8.47v1.36h-10.22v-6.19h10.11v1.39h-8.36v1.05h7.84v1.34h-7.84Z"/>
      <path class="cls-2" d="m207.15,130.15v-6.58h1.75v1.99h3.52v-2.02h1.75v6.61h-7.02Zm5.27-3.2h-3.52v1.78h3.52v-1.78Zm-3.2,10.98v-3.96h8.12v-1.19h-8.19v-1.41h9.93v3.91h-8.11v1.27h8.6v1.38h-10.35Zm8.11-7.29v-1.62h-2.4v-1.34h2.4v-1.51h-2.4v-1.34h2.4v-1.92h1.73v7.73h-1.73Z"/>
      <path class="cls-2" d="m229.5,134.55c-1.29-.83-2.91-2.7-3.47-4.37-.51,1.8-2.02,3.71-3.69,4.71l-1.07-1.28c2.35-1.53,3.84-4.03,3.84-6.92v-2.48h1.8v2.38c0,2.91,1.41,5.25,3.62,6.65l-1.04,1.31Zm2.55,3.5v-15.15h1.73v15.15h-1.73Z"/>
      <path class="cls-2" d="m248.64,134.6c-1.29-.82-2.99-2.75-3.54-4.42-.53,1.8-2.04,3.71-3.67,4.69l-1.09-1.26c2.35-1.53,3.82-4.03,3.82-6.92v-2.5h1.78v2.4c0,2.91,1.51,5.32,3.74,6.71l-1.05,1.29Zm2.58,3.45v-8.46h-2.96v-1.46h2.96v-5.22h1.73v15.15h-1.73Z"/>
      <path class="cls-2" d="m262.26,133.92c-1.26.29-3.21.43-5.05.43h-1.53v-9.6h5.71v1.41c-1.31,0-2.65-.02-3.94-.02v6.77c1.89,0,3.45-.12,4.59-.37l.22,1.39Zm4.01,4.13v-7.67h-1.53v6.94h-1.65v-14.11h1.65v5.71h1.53v-6.02h1.68v15.15h-1.68Z"/>
      <path class="cls-2" d="m275.91,134.79v-2.79h-6.02v-1.41h13.68v1.41h-5.93v2.79h-1.73Zm-4.25,2.82v-4.28h1.75v2.91h8.57v1.38h-10.32Zm10.1-8.5h-10.06v-5.41h10.06v5.41Zm-1.75-4.01h-6.56v2.62h6.56v-2.62Z"/>
      <path class="cls-2" d="m295.95,130.23h2.33v1.41h-6v6.41h-1.73v-6.41h-5.95v-1.41h9.69c.29-1.34.41-3.28.42-5.03h-8.38v-1.43h10.13c0,2.53-.14,4.66-.51,6.46Z"/>
      <path class="cls-2" d="m310.85,133.92c-1.26.29-3.21.43-5.05.43h-1.53v-9.6h5.71v1.41c-1.31,0-2.65-.02-3.94-.02v6.77c1.89,0,3.45-.12,4.59-.37l.22,1.39Zm4.01,4.13v-7.67h-1.53v6.94h-1.65v-14.11h1.65v5.71h1.53v-6.02h1.68v15.15h-1.68Z"/>
      <path class="cls-2" d="m318.53,126.95v-1.36h8.16v1.36h-8.16Zm4.25,5.83c-2.02,0-3.55-1.04-3.55-2.62s1.51-2.63,3.55-2.63,3.55,1.09,3.55,2.63-1.51,2.62-3.55,2.62Zm-2.19-8.14v-1.39h4.44v1.39h-4.44Zm2.19,4.21c-1.05,0-1.9.51-1.9,1.31s.85,1.29,1.9,1.29,1.9-.49,1.9-1.29-.87-1.31-1.9-1.31Zm-1.72,8.75v-4.06h1.75v2.67h8.46v1.39h-10.22Zm8.14-3.55v-2.5h-2.19v-1.41h2.19v-1.72h-2.19v-1.43h2.19v-4.1h1.73v11.15h-1.73Z"/>
      <path class="cls-2" d="m340.87,128.5v1.58h6v1.41h-13.68v-1.41h5.95v-1.58h-4.15v-5.18h10.13v1.43h-8.38v2.35h8.5v1.41h-4.37Zm-.83,9.57c-3.35,0-5.25-1.07-5.25-2.77s1.9-2.75,5.24-2.75,5.27,1.09,5.27,2.75-1.92,2.77-5.25,2.77Zm-.02-4.13c-2.12,0-3.45.51-3.45,1.38s1.33,1.34,3.45,1.34,3.47-.48,3.47-1.34-1.33-1.38-3.47-1.38Z"/>
    </g>
    <g>
      <path class="cls-3" d="m167.5,147.33c2.18,0,3.76,1.38,3.76,3.31s-1.58,3.19-3.76,3.19-3.79-1.23-3.79-3.19,1.6-3.31,3.79-3.31Zm0,4.95c1.17,0,1.91-.77,1.91-1.65,0-.98-.7-1.76-1.91-1.76-1.06,0-1.94.8-1.94,1.76s.83,1.65,1.94,1.65Zm-1.79,8.72v-3.83h7.51v-.99h-7.59v-1.47h9.44v3.81h-7.49v.98h7.94v1.5h-9.81Zm7.51-7.01v-7.14h1.86v7.14h-1.86Z"/>
      <path class="cls-3" d="m187.91,152.39h2.06v1.5h-12.88v-1.5h9.04c.21-.96.37-2.66.35-3.54h-7.71v-1.47h9.59c0,1.82-.18,3.63-.45,5.01Zm-9.17,8.55v-5.92h1.86v1.6h5.88v-1.63h1.86v5.96h-9.59Zm7.73-2.91h-5.88v1.44h5.88v-1.44Z"/>
      <path class="cls-3" d="m197.14,150.23l-1.84.37v-1.15l2.79-1.25h1.04v11.06h-1.98v-9.03Z"/>
      <path class="cls-3" d="m201.56,154.12v-.69c0-3.92,2.02-5.33,4.27-5.33s4.23,1.42,4.23,5.28v.69c0,3.86-1.95,5.31-4.24,5.31-2.4,0-4.26-1.54-4.26-5.27Zm6.47.08v-.82c0-2.61-.75-3.76-2.19-3.76s-2.22,1.09-2.22,3.65v.85c0,2.54.72,3.76,2.21,3.76s2.21-1.06,2.21-3.68Z"/>
      <path class="cls-3" d="m211.89,154.12v-.69c0-3.92,2.02-5.33,4.27-5.33s4.23,1.42,4.23,5.28v.69c0,3.86-1.95,5.31-4.24,5.31-2.4,0-4.26-1.54-4.26-5.27Zm6.47.08v-.82c0-2.61-.75-3.76-2.19-3.76s-2.22,1.09-2.22,3.65v.85c0,2.54.72,3.76,2.21,3.76s2.21-1.06,2.21-3.68Z"/>
      <path class="cls-3" d="m221.88,158.12h2.02l-1.15,3.23h-1.5l.64-3.23Z"/>
      <path class="cls-3" d="m225.06,154.12v-.69c0-3.92,2.02-5.33,4.27-5.33s4.23,1.42,4.23,5.28v.69c0,3.86-1.95,5.31-4.24,5.31-2.4,0-4.26-1.54-4.26-5.27Zm6.47.08v-.82c0-2.61-.75-3.76-2.19-3.76s-2.22,1.09-2.22,3.65v.85c0,2.54.72,3.76,2.21,3.76s2.21-1.06,2.21-3.68Z"/>
      <path class="cls-3" d="m235.4,154.12v-.69c0-3.92,2.02-5.33,4.27-5.33s4.23,1.42,4.23,5.28v.69c0,3.86-1.95,5.31-4.24,5.31-2.4,0-4.26-1.54-4.26-5.27Zm6.47.08v-.82c0-2.61-.75-3.76-2.19-3.76s-2.22,1.09-2.22,3.65v.85c0,2.54.72,3.76,2.21,3.76s2.21-1.06,2.21-3.68Z"/>
      <path class="cls-3" d="m245.73,154.12v-.69c0-3.92,2.02-5.33,4.27-5.33s4.23,1.42,4.23,5.28v.69c0,3.86-1.95,5.31-4.24,5.31-2.4,0-4.26-1.54-4.26-5.27Zm6.47.08v-.82c0-2.61-.75-3.76-2.19-3.76s-2.22,1.09-2.22,3.65v.85c0,2.54.72,3.76,2.21,3.76s2.21-1.06,2.21-3.68Z"/>
    </g>
    <g>
      <path class="cls-1" d="m682.33,97.67c-1.36.37-4.12.6-6.58.62h-2.02v-9.06h2.35v7.13c1.98,0,4.6-.23,5.93-.62l.32,1.93Zm.8,10.49c-4.42,0-7.04-1.63-7.04-4.05s2.62-4.09,7.04-4.09,7.08,1.63,7.08,4.09-2.62,4.05-7.08,4.05Zm0-6.21c-2.88,0-4.6.8-4.6,2.16s1.72,2.16,4.6,2.16,4.64-.83,4.64-2.16-1.75-2.16-4.64-2.16Zm4.62-1.98v-5.13h-2.18v4.44h-2.21v-11.22h2.21v4.81h2.18v-5.17h2.25v12.28h-2.25Z"/>
      <path class="cls-1" d="m692.92,89h10.79v1.95h-4.09v.07c0,3.01,2.28,5.29,4.65,6.05l-1.29,1.86c-1.72-.69-3.68-2.3-4.58-4.21-.6,2-2.78,4-4.85,4.78l-1.38-1.84c2.87-1.06,5.04-3.52,5.04-6.55v-.16h-4.28v-1.95Zm8.97,19.18c-4.37,0-6.92-1.61-6.92-4.05s2.55-4.07,6.92-4.07,6.97,1.59,6.97,4.07-2.58,4.05-6.97,4.05Zm0-6.21c-2.85,0-4.51.78-4.51,2.16s1.66,2.14,4.51,2.14,4.55-.81,4.55-2.14-1.68-2.16-4.55-2.16Zm6.69-7.27v5.11h-2.37v-12.12h2.37v5.06h3.04v1.95h-3.04Z"/>
      <path class="cls-1" d="m712.56,105.19v-1.91h6.92v-7.01h2.35v7.01h9.24v1.91h-18.51Zm15.31-4.05l-2.25-.35c.6-2.67.78-6.48.78-9.24h-11.7v-1.91h14.07c0,3.54-.07,8.09-.9,11.5Z"/>
      <path class="cls-1" d="m738.5,105.19v-1.91h6.92v-7.01h2.35v7.01h9.24v1.91h-18.51Zm15.31-4.05l-2.25-.35c.6-2.67.78-6.48.78-9.24h-11.7v-1.91h14.07c0,3.54-.07,8.09-.9,11.5Z"/>
      <path class="cls-1" d="m758.65,89h10.79v1.95h-4.09v.07c0,3.01,2.28,5.29,4.65,6.05l-1.29,1.86c-1.72-.69-3.68-2.3-4.58-4.21-.6,2-2.78,4-4.85,4.78l-1.38-1.84c2.87-1.06,5.04-3.52,5.04-6.55v-.16h-4.28v-1.95Zm8.97,19.18c-4.37,0-6.92-1.61-6.92-4.05s2.55-4.07,6.92-4.07,6.97,1.59,6.97,4.07-2.58,4.05-6.97,4.05Zm0-6.21c-2.85,0-4.51.78-4.51,2.16s1.66,2.14,4.51,2.14,4.55-.81,4.55-2.14-1.68-2.16-4.55-2.16Zm6.69-7.27v5.11h-2.37v-12.12h2.37v5.06h3.04v1.95h-3.04Z"/>
    </g>
    <g>
      <path class="cls-2" d="m681.65,134.6c-1.29-.82-2.99-2.75-3.54-4.42-.53,1.8-2.04,3.71-3.67,4.69l-1.09-1.26c2.35-1.53,3.82-4.03,3.82-6.92v-2.5h1.79v2.4c0,2.91,1.51,5.32,3.74,6.71l-1.05,1.29Zm2.58,3.45v-8.46h-2.96v-1.46h2.96v-5.22h1.73v15.15h-1.73Z"/>
      <path class="cls-2" d="m689.95,137.95v-3.76h8.4v-.97h-8.46v-1.39h4.27v-1.16h-5.95v-1.41h13.68v1.41h-6v1.16h4.2v3.64h-8.38v1.09h8.94v1.39h-10.69Zm10.45-12.21c0,1.56-1.99,2.69-5.34,2.69s-5.3-1.12-5.3-2.69,1.97-2.69,5.3-2.69,5.34,1.12,5.34,2.69Zm-8.84,0c0,.82,1.31,1.31,3.5,1.31s3.52-.49,3.52-1.31-1.33-1.29-3.52-1.29-3.5.48-3.5,1.29Z"/>
      <path class="cls-2" d="m702.9,132.13v-1.41h13.68v1.41h-13.68Zm11.9,1.17v4.79h-1.73v-3.4h-8.57v-1.39h10.3Zm-8.33-6.17v1.04h8.46v1.36h-10.22v-6.19h10.11v1.39h-8.36v1.05h7.84v1.34h-7.84Z"/>
      <path class="cls-2" d="m718.15,130.15v-6.58h1.75v1.99h3.52v-2.02h1.75v6.61h-7.02Zm5.27-3.2h-3.52v1.78h3.52v-1.78Zm-3.2,10.98v-3.96h8.12v-1.19h-8.19v-1.41h9.93v3.91h-8.11v1.27h8.6v1.38h-10.35Zm8.11-7.29v-1.62h-2.4v-1.34h2.4v-1.51h-2.4v-1.34h2.4v-1.92h1.73v7.73h-1.73Z"/>
      <path class="cls-2" d="m740.5,134.55c-1.29-.83-2.91-2.7-3.47-4.37-.51,1.8-2.02,3.71-3.69,4.71l-1.07-1.28c2.35-1.53,3.84-4.03,3.84-6.92v-2.48h1.8v2.38c0,2.91,1.41,5.25,3.62,6.65l-1.04,1.31Zm2.55,3.5v-15.15h1.73v15.15h-1.73Z"/>
      <path class="cls-2" d="m759.64,134.6c-1.29-.82-2.99-2.75-3.54-4.42-.53,1.8-2.04,3.71-3.67,4.69l-1.09-1.26c2.35-1.53,3.82-4.03,3.82-6.92v-2.5h1.79v2.4c0,2.91,1.51,5.32,3.74,6.71l-1.05,1.29Zm2.58,3.45v-8.46h-2.96v-1.46h2.96v-5.22h1.73v15.15h-1.73Z"/>
      <path class="cls-2" d="m773.26,133.92c-1.26.29-3.21.43-5.05.43h-1.53v-9.6h5.71v1.41c-1.31,0-2.65-.02-3.94-.02v6.77c1.89,0,3.45-.12,4.59-.37l.22,1.39Zm4.01,4.13v-7.67h-1.53v6.94h-1.65v-14.11h1.65v5.71h1.53v-6.02h1.68v15.15h-1.68Z"/>
      <path class="cls-2" d="m786.91,134.79v-2.79h-6.02v-1.41h13.68v1.41h-5.93v2.79h-1.73Zm-4.25,2.82v-4.28h1.75v2.91h8.57v1.38h-10.32Zm10.1-8.5h-10.06v-5.41h10.06v5.41Zm-1.75-4.01h-6.56v2.62h6.56v-2.62Z"/>
      <path class="cls-2" d="m806.95,130.23h2.33v1.41h-6v6.41h-1.73v-6.41h-5.95v-1.41h9.69c.29-1.34.41-3.28.42-5.03h-8.38v-1.43h10.13c0,2.53-.14,4.66-.51,6.46Z"/>
      <path class="cls-2" d="m821.85,133.92c-1.26.29-3.21.43-5.05.43h-1.53v-9.6h5.71v1.41c-1.31,0-2.65-.02-3.94-.02v6.77c1.89,0,3.45-.12,4.59-.37l.22,1.39Zm4.01,4.13v-7.67h-1.53v6.94h-1.65v-14.11h1.65v5.71h1.53v-6.02h1.68v15.15h-1.68Z"/>
      <path class="cls-2" d="m829.53,126.95v-1.36h8.16v1.36h-8.16Zm4.25,5.83c-2.02,0-3.55-1.04-3.55-2.62s1.51-2.63,3.55-2.63,3.55,1.09,3.55,2.63-1.51,2.62-3.55,2.62Zm-2.19-8.14v-1.39h4.44v1.39h-4.44Zm2.19,4.21c-1.05,0-1.9.51-1.9,1.31s.85,1.29,1.9,1.29,1.9-.49,1.9-1.29-.87-1.31-1.9-1.31Zm-1.72,8.75v-4.06h1.75v2.67h8.46v1.39h-10.22Zm8.14-3.55v-2.5h-2.19v-1.41h2.19v-1.72h-2.19v-1.43h2.19v-4.1h1.73v11.15h-1.73Z"/>
      <path class="cls-2" d="m851.87,128.5v1.58h6v1.41h-13.68v-1.41h5.95v-1.58h-4.15v-5.18h10.13v1.43h-8.38v2.35h8.5v1.41h-4.37Zm-.83,9.57c-3.35,0-5.25-1.07-5.25-2.77s1.9-2.75,5.24-2.75,5.27,1.09,5.27,2.75-1.92,2.77-5.25,2.77Zm-.02-4.13c-2.12,0-3.45.51-3.45,1.38s1.33,1.34,3.45,1.34,3.47-.48,3.47-1.34-1.33-1.38-3.47-1.38Z"/>
    </g>
    <g>
      <path class="cls-3" d="m678.5,147.33c2.18,0,3.76,1.38,3.76,3.31s-1.58,3.19-3.76,3.19-3.79-1.23-3.79-3.19,1.6-3.31,3.79-3.31Zm0,4.95c1.17,0,1.91-.77,1.91-1.65,0-.98-.7-1.76-1.91-1.76-1.06,0-1.94.8-1.94,1.76s.83,1.65,1.94,1.65Zm-1.79,8.72v-3.83h7.51v-.99h-7.59v-1.47h9.44v3.81h-7.49v.98h7.94v1.5h-9.81Zm7.51-7.01v-7.14h1.86v7.14h-1.86Z"/>
      <path class="cls-3" d="m698.91,152.39h2.06v1.5h-12.88v-1.5h9.04c.21-.96.37-2.66.35-3.54h-7.71v-1.47h9.59c0,1.82-.18,3.63-.45,5.01Zm-9.17,8.55v-5.92h1.86v1.6h5.88v-1.63h1.86v5.96h-9.59Zm7.73-2.91h-5.88v1.44h5.88v-1.44Z"/>
      <path class="cls-3" d="m708.14,150.23l-1.84.37v-1.15l2.79-1.25h1.04v11.06h-1.98v-9.03Z"/>
      <path class="cls-3" d="m712.56,154.12v-.69c0-3.92,2.02-5.33,4.27-5.33s4.23,1.42,4.23,5.28v.69c0,3.86-1.95,5.31-4.24,5.31-2.4,0-4.26-1.54-4.26-5.27Zm6.47.08v-.82c0-2.61-.75-3.76-2.19-3.76s-2.22,1.09-2.22,3.65v.85c0,2.54.72,3.76,2.21,3.76s2.21-1.06,2.21-3.68Z"/>
      <path class="cls-3" d="m722.89,154.12v-.69c0-3.92,2.02-5.33,4.27-5.33s4.23,1.42,4.23,5.28v.69c0,3.86-1.95,5.31-4.24,5.31-2.4,0-4.26-1.54-4.26-5.27Zm6.47.08v-.82c0-2.61-.75-3.76-2.19-3.76s-2.22,1.09-2.22,3.65v.85c0,2.54.72,3.76,2.21,3.76s2.21-1.06,2.21-3.68Z"/>
      <path class="cls-3" d="m732.88,158.12h2.02l-1.15,3.23h-1.5l.64-3.23Z"/>
      <path class="cls-3" d="m736.06,154.12v-.69c0-3.92,2.02-5.33,4.27-5.33s4.23,1.42,4.23,5.28v.69c0,3.86-1.95,5.31-4.24,5.31-2.4,0-4.26-1.54-4.26-5.27Zm6.47.08v-.82c0-2.61-.75-3.76-2.19-3.76s-2.22,1.09-2.22,3.65v.85c0,2.54.72,3.76,2.21,3.76s2.21-1.06,2.21-3.68Z"/>
      <path class="cls-3" d="m746.4,154.12v-.69c0-3.92,2.02-5.33,4.27-5.33s4.23,1.42,4.23,5.28v.69c0,3.86-1.95,5.31-4.24,5.31-2.4,0-4.26-1.54-4.26-5.27Zm6.47.08v-.82c0-2.61-.75-3.76-2.19-3.76s-2.22,1.09-2.22,3.65v.85c0,2.54.72,3.76,2.21,3.76s2.21-1.06,2.21-3.68Z"/>
      <path class="cls-3" d="m756.73,154.12v-.69c0-3.92,2.02-5.33,4.27-5.33s4.23,1.42,4.23,5.28v.69c0,3.86-1.95,5.31-4.24,5.31-2.4,0-4.26-1.54-4.26-5.27Zm6.47.08v-.82c0-2.61-.75-3.76-2.19-3.76s-2.22,1.09-2.22,3.65v.85c0,2.54.72,3.76,2.21,3.76s2.21-1.06,2.21-3.68Z"/>
    </g>
    <g>
      <path class="cls-1" d="m172.33,290.67c-1.36.37-4.12.6-6.58.62h-2.02v-9.06h2.35v7.13c1.98,0,4.6-.23,5.93-.62l.32,1.93Zm.8,10.49c-4.42,0-7.04-1.63-7.04-4.05s2.62-4.09,7.04-4.09,7.08,1.63,7.08,4.09-2.62,4.05-7.08,4.05Zm0-6.21c-2.87,0-4.6.8-4.6,2.16s1.72,2.16,4.6,2.16,4.65-.83,4.65-2.16-1.75-2.16-4.65-2.16Zm4.62-1.98v-5.13h-2.18v4.44h-2.21v-11.22h2.21v4.81h2.18v-5.17h2.25v12.28h-2.25Z"/>
      <path class="cls-1" d="m182.92,282h10.78v1.96h-4.09v.07c0,3.01,2.28,5.29,4.65,6.05l-1.29,1.86c-1.72-.69-3.68-2.3-4.58-4.21-.6,2-2.78,4-4.85,4.78l-1.38-1.84c2.87-1.06,5.04-3.52,5.04-6.55v-.16h-4.28v-1.96Zm8.97,19.18c-4.37,0-6.92-1.61-6.92-4.05s2.55-4.07,6.92-4.07,6.97,1.59,6.97,4.07-2.58,4.05-6.97,4.05Zm0-6.21c-2.85,0-4.51.78-4.51,2.16s1.66,2.14,4.51,2.14,4.55-.8,4.55-2.14-1.68-2.16-4.55-2.16Zm6.69-7.27v5.11h-2.37v-12.12h2.37v5.06h3.04v1.95h-3.04Z"/>
      <path class="cls-1" d="m202.56,298.19v-1.91h6.92v-7.01h2.35v7.01h9.24v1.91h-18.51Zm15.31-4.05l-2.25-.35c.6-2.67.78-6.48.78-9.24h-11.7v-1.91h14.07c0,3.54-.07,8.09-.9,11.5Z"/>
      <path class="cls-1" d="m228.5,298.19v-1.91h6.92v-7.01h2.35v7.01h9.24v1.91h-18.51Zm15.31-4.05l-2.25-.35c.6-2.67.78-6.48.78-9.24h-11.7v-1.91h14.07c0,3.54-.07,8.09-.9,11.5Z"/>
      <path class="cls-1" d="m248.65,282h10.78v1.96h-4.09v.07c0,3.01,2.28,5.29,4.65,6.05l-1.29,1.86c-1.72-.69-3.68-2.3-4.58-4.21-.6,2-2.78,4-4.85,4.78l-1.38-1.84c2.87-1.06,5.04-3.52,5.04-6.55v-.16h-4.28v-1.96Zm8.97,19.18c-4.37,0-6.92-1.61-6.92-4.05s2.55-4.07,6.92-4.07,6.97,1.59,6.97,4.07-2.58,4.05-6.97,4.05Zm0-6.21c-2.85,0-4.51.78-4.51,2.16s1.66,2.14,4.51,2.14,4.55-.8,4.55-2.14-1.68-2.16-4.55-2.16Zm6.69-7.27v5.11h-2.37v-12.12h2.37v5.06h3.04v1.95h-3.04Z"/>
    </g>
    <g>
      <path class="cls-2" d="m171.65,327.6c-1.29-.82-2.99-2.75-3.54-4.42-.53,1.8-2.04,3.71-3.67,4.69l-1.09-1.26c2.35-1.53,3.82-4.03,3.82-6.92v-2.5h1.78v2.4c0,2.91,1.51,5.32,3.74,6.71l-1.05,1.29Zm2.58,3.45v-8.46h-2.96v-1.46h2.96v-5.22h1.73v15.15h-1.73Z"/>
      <path class="cls-2" d="m179.95,330.95v-3.76h8.4v-.97h-8.46v-1.39h4.27v-1.16h-5.95v-1.41h13.68v1.41h-6v1.16h4.2v3.64h-8.38v1.09h8.94v1.39h-10.69Zm10.45-12.21c0,1.56-1.99,2.69-5.34,2.69s-5.3-1.12-5.3-2.69,1.97-2.69,5.3-2.69,5.34,1.12,5.34,2.69Zm-8.84,0c0,.82,1.31,1.31,3.5,1.31s3.52-.49,3.52-1.31-1.33-1.29-3.52-1.29-3.5.48-3.5,1.29Z"/>
      <path class="cls-2" d="m192.9,325.13v-1.41h13.68v1.41h-13.68Zm11.9,1.17v4.79h-1.73v-3.4h-8.57v-1.39h10.3Zm-8.33-6.17v1.04h8.47v1.36h-10.22v-6.19h10.11v1.39h-8.36v1.05h7.84v1.34h-7.84Z"/>
      <path class="cls-2" d="m208.15,323.14v-6.58h1.75v1.99h3.52v-2.02h1.75v6.61h-7.02Zm5.27-3.2h-3.52v1.78h3.52v-1.78Zm-3.2,10.98v-3.96h8.12v-1.19h-8.19v-1.41h9.93v3.91h-8.11v1.27h8.6v1.38h-10.35Zm8.11-7.29v-1.62h-2.4v-1.34h2.4v-1.51h-2.4v-1.34h2.4v-1.92h1.73v7.73h-1.73Z"/>
      <path class="cls-2" d="m230.5,327.55c-1.29-.83-2.91-2.7-3.47-4.37-.51,1.8-2.02,3.71-3.69,4.71l-1.07-1.28c2.35-1.53,3.84-4.03,3.84-6.92v-2.48h1.8v2.38c0,2.91,1.41,5.25,3.62,6.65l-1.04,1.31Zm2.55,3.5v-15.15h1.73v15.15h-1.73Z"/>
      <path class="cls-2" d="m249.64,327.6c-1.29-.82-2.99-2.75-3.54-4.42-.53,1.8-2.04,3.71-3.67,4.69l-1.09-1.26c2.35-1.53,3.82-4.03,3.82-6.92v-2.5h1.78v2.4c0,2.91,1.51,5.32,3.74,6.71l-1.05,1.29Zm2.58,3.45v-8.46h-2.96v-1.46h2.96v-5.22h1.73v15.15h-1.73Z"/>
      <path class="cls-2" d="m263.26,326.92c-1.26.29-3.21.43-5.05.43h-1.53v-9.6h5.71v1.41c-1.31,0-2.65-.02-3.94-.02v6.77c1.89,0,3.45-.12,4.59-.37l.22,1.39Zm4.01,4.13v-7.67h-1.53v6.94h-1.65v-14.11h1.65v5.71h1.53v-6.02h1.68v15.15h-1.68Z"/>
      <path class="cls-2" d="m276.91,327.79v-2.79h-6.02v-1.41h13.68v1.41h-5.93v2.79h-1.73Zm-4.25,2.82v-4.28h1.75v2.91h8.57v1.38h-10.32Zm10.1-8.5h-10.06v-5.41h10.06v5.41Zm-1.75-4.01h-6.56v2.62h6.56v-2.62Z"/>
      <path class="cls-2" d="m296.95,323.23h2.33v1.41h-6v6.41h-1.73v-6.41h-5.95v-1.41h9.69c.29-1.34.41-3.28.42-5.03h-8.38v-1.43h10.13c0,2.53-.14,4.66-.51,6.46Z"/>
      <path class="cls-2" d="m311.85,326.92c-1.26.29-3.21.43-5.05.43h-1.53v-9.6h5.71v1.41c-1.31,0-2.65-.02-3.94-.02v6.77c1.89,0,3.45-.12,4.59-.37l.22,1.39Zm4.01,4.13v-7.67h-1.53v6.94h-1.65v-14.11h1.65v5.71h1.53v-6.02h1.68v15.15h-1.68Z"/>
      <path class="cls-2" d="m319.53,319.95v-1.36h8.16v1.36h-8.16Zm4.25,5.83c-2.02,0-3.55-1.04-3.55-2.62s1.51-2.63,3.55-2.63,3.55,1.09,3.55,2.63-1.51,2.62-3.55,2.62Zm-2.19-8.14v-1.39h4.44v1.39h-4.44Zm2.19,4.21c-1.05,0-1.9.51-1.9,1.31s.85,1.29,1.9,1.29,1.9-.49,1.9-1.29-.87-1.31-1.9-1.31Zm-1.72,8.75v-4.06h1.75v2.67h8.46v1.39h-10.22Zm8.14-3.55v-2.5h-2.19v-1.41h2.19v-1.72h-2.19v-1.43h2.19v-4.1h1.73v11.15h-1.73Z"/>
      <path class="cls-2" d="m341.87,321.5v1.58h6v1.41h-13.68v-1.41h5.95v-1.58h-4.15v-5.18h10.13v1.43h-8.38v2.35h8.5v1.41h-4.37Zm-.83,9.57c-3.35,0-5.25-1.07-5.25-2.77s1.9-2.75,5.24-2.75,5.27,1.09,5.27,2.75-1.92,2.77-5.25,2.77Zm-.02-4.13c-2.12,0-3.45.51-3.45,1.38s1.33,1.34,3.45,1.34,3.47-.48,3.47-1.34-1.33-1.38-3.47-1.38Z"/>
    </g>
    <g>
      <path class="cls-3" d="m168.5,340.33c2.18,0,3.76,1.38,3.76,3.31s-1.58,3.19-3.76,3.19-3.79-1.23-3.79-3.19,1.6-3.31,3.79-3.31Zm0,4.95c1.17,0,1.91-.77,1.91-1.65,0-.98-.7-1.76-1.91-1.76-1.06,0-1.94.8-1.94,1.76s.83,1.65,1.94,1.65Zm-1.79,8.72v-3.83h7.51v-.99h-7.59v-1.47h9.44v3.81h-7.49v.98h7.94v1.5h-9.81Zm7.51-7.01v-7.14h1.86v7.14h-1.86Z"/>
      <path class="cls-3" d="m188.91,345.39h2.06v1.5h-12.88v-1.5h9.04c.21-.96.37-2.66.35-3.54h-7.71v-1.47h9.59c0,1.82-.18,3.63-.45,5.01Zm-9.17,8.55v-5.92h1.86v1.6h5.88v-1.63h1.86v5.96h-9.59Zm7.73-2.91h-5.88v1.44h5.88v-1.44Z"/>
      <path class="cls-3" d="m198.14,343.23l-1.84.37v-1.15l2.79-1.25h1.04v11.06h-1.98v-9.03Z"/>
      <path class="cls-3" d="m202.56,347.12v-.69c0-3.92,2.02-5.33,4.27-5.33s4.23,1.42,4.23,5.28v.69c0,3.86-1.95,5.31-4.24,5.31-2.4,0-4.26-1.54-4.26-5.27Zm6.47.08v-.82c0-2.61-.75-3.76-2.19-3.76s-2.22,1.09-2.22,3.65v.85c0,2.54.72,3.76,2.21,3.76s2.21-1.06,2.21-3.68Z"/>
      <path class="cls-3" d="m212.89,347.12v-.69c0-3.92,2.02-5.33,4.27-5.33s4.23,1.42,4.23,5.28v.69c0,3.86-1.95,5.31-4.24,5.31-2.4,0-4.26-1.54-4.26-5.27Zm6.47.08v-.82c0-2.61-.75-3.76-2.19-3.76s-2.22,1.09-2.22,3.65v.85c0,2.54.72,3.76,2.21,3.76s2.21-1.06,2.21-3.68Z"/>
      <path class="cls-3" d="m222.88,351.12h2.02l-1.15,3.23h-1.5l.64-3.23Z"/>
      <path class="cls-3" d="m226.06,347.12v-.69c0-3.92,2.02-5.33,4.27-5.33s4.23,1.42,4.23,5.28v.69c0,3.86-1.95,5.31-4.24,5.31-2.4,0-4.26-1.54-4.26-5.27Zm6.47.08v-.82c0-2.61-.75-3.76-2.19-3.76s-2.22,1.09-2.22,3.65v.85c0,2.54.72,3.76,2.21,3.76s2.21-1.06,2.21-3.68Z"/>
      <path class="cls-3" d="m236.4,347.12v-.69c0-3.92,2.02-5.33,4.27-5.33s4.23,1.42,4.23,5.28v.69c0,3.86-1.95,5.31-4.24,5.31-2.4,0-4.26-1.54-4.26-5.27Zm6.47.08v-.82c0-2.61-.75-3.76-2.19-3.76s-2.22,1.09-2.22,3.65v.85c0,2.54.72,3.76,2.21,3.76s2.21-1.06,2.21-3.68Z"/>
      <path class="cls-3" d="m246.73,347.12v-.69c0-3.92,2.02-5.33,4.27-5.33s4.23,1.42,4.23,5.28v.69c0,3.86-1.95,5.31-4.24,5.31-2.4,0-4.26-1.54-4.26-5.27Zm6.47.08v-.82c0-2.61-.75-3.76-2.19-3.76s-2.22,1.09-2.22,3.65v.85c0,2.54.72,3.76,2.21,3.76s2.21-1.06,2.21-3.68Z"/>
    </g>
    <g>
      <path class="cls-1" d="m684.33,290.67c-1.36.37-4.12.6-6.58.62h-2.02v-9.06h2.35v7.13c1.98,0,4.6-.23,5.93-.62l.32,1.93Zm.8,10.49c-4.42,0-7.04-1.63-7.04-4.05s2.62-4.09,7.04-4.09,7.08,1.63,7.08,4.09-2.62,4.05-7.08,4.05Zm0-6.21c-2.88,0-4.6.8-4.6,2.16s1.72,2.16,4.6,2.16,4.64-.83,4.64-2.16-1.75-2.16-4.64-2.16Zm4.62-1.98v-5.13h-2.18v4.44h-2.21v-11.22h2.21v4.81h2.18v-5.17h2.25v12.28h-2.25Z"/>
      <path class="cls-1" d="m694.92,282h10.79v1.96h-4.09v.07c0,3.01,2.28,5.29,4.65,6.05l-1.29,1.86c-1.72-.69-3.68-2.3-4.58-4.21-.6,2-2.78,4-4.85,4.78l-1.38-1.84c2.87-1.06,5.04-3.52,5.04-6.55v-.16h-4.28v-1.96Zm8.97,19.18c-4.37,0-6.92-1.61-6.92-4.05s2.55-4.07,6.92-4.07,6.97,1.59,6.97,4.07-2.58,4.05-6.97,4.05Zm0-6.21c-2.85,0-4.51.78-4.51,2.16s1.66,2.14,4.51,2.14,4.55-.8,4.55-2.14-1.68-2.16-4.55-2.16Zm6.69-7.27v5.11h-2.37v-12.12h2.37v5.06h3.04v1.95h-3.04Z"/>
      <path class="cls-1" d="m714.56,298.19v-1.91h6.92v-7.01h2.35v7.01h9.24v1.91h-18.51Zm15.31-4.05l-2.25-.35c.6-2.67.78-6.48.78-9.24h-11.7v-1.91h14.07c0,3.54-.07,8.09-.9,11.5Z"/>
      <path class="cls-1" d="m740.5,298.19v-1.91h6.92v-7.01h2.35v7.01h9.24v1.91h-18.51Zm15.31-4.05l-2.25-.35c.6-2.67.78-6.48.78-9.24h-11.7v-1.91h14.07c0,3.54-.07,8.09-.9,11.5Z"/>
      <path class="cls-1" d="m760.65,282h10.79v1.96h-4.09v.07c0,3.01,2.28,5.29,4.65,6.05l-1.29,1.86c-1.72-.69-3.68-2.3-4.58-4.21-.6,2-2.78,4-4.85,4.78l-1.38-1.84c2.87-1.06,5.04-3.52,5.04-6.55v-.16h-4.28v-1.96Zm8.97,19.18c-4.37,0-6.92-1.61-6.92-4.05s2.55-4.07,6.92-4.07,6.97,1.59,6.97,4.07-2.58,4.05-6.97,4.05Zm0-6.21c-2.85,0-4.51.78-4.51,2.16s1.66,2.14,4.51,2.14,4.55-.8,4.55-2.14-1.68-2.16-4.55-2.16Zm6.69-7.27v5.11h-2.37v-12.12h2.37v5.06h3.04v1.95h-3.04Z"/>
    </g>
    <g>
      <path class="cls-2" d="m683.65,327.6c-1.29-.82-2.99-2.75-3.54-4.42-.53,1.8-2.04,3.71-3.67,4.69l-1.09-1.26c2.35-1.53,3.83-4.03,3.83-6.92v-2.5h1.78v2.4c0,2.91,1.51,5.32,3.74,6.71l-1.05,1.29Zm2.58,3.45v-8.46h-2.96v-1.46h2.96v-5.22h1.73v15.15h-1.73Z"/>
      <path class="cls-2" d="m691.95,330.95v-3.76h8.4v-.97h-8.46v-1.39h4.27v-1.16h-5.95v-1.41h13.68v1.41h-6v1.16h4.2v3.64h-8.38v1.09h8.94v1.39h-10.69Zm10.45-12.21c0,1.56-1.99,2.69-5.34,2.69s-5.3-1.12-5.3-2.69,1.97-2.69,5.3-2.69,5.34,1.12,5.34,2.69Zm-8.84,0c0,.82,1.31,1.31,3.5,1.31s3.52-.49,3.52-1.31-1.33-1.29-3.52-1.29-3.5.48-3.5,1.29Z"/>
      <path class="cls-2" d="m704.9,325.13v-1.41h13.68v1.41h-13.68Zm11.9,1.17v4.79h-1.73v-3.4h-8.57v-1.39h10.3Zm-8.33-6.17v1.04h8.47v1.36h-10.22v-6.19h10.11v1.39h-8.36v1.05h7.84v1.34h-7.84Z"/>
      <path class="cls-2" d="m720.15,323.14v-6.58h1.75v1.99h3.52v-2.02h1.75v6.61h-7.02Zm5.27-3.2h-3.52v1.78h3.52v-1.78Zm-3.2,10.98v-3.96h8.12v-1.19h-8.19v-1.41h9.93v3.91h-8.11v1.27h8.6v1.38h-10.35Zm8.11-7.29v-1.62h-2.4v-1.34h2.4v-1.51h-2.4v-1.34h2.4v-1.92h1.73v7.73h-1.73Z"/>
      <path class="cls-2" d="m742.5,327.55c-1.29-.83-2.91-2.7-3.47-4.37-.51,1.8-2.02,3.71-3.69,4.71l-1.07-1.28c2.35-1.53,3.84-4.03,3.84-6.92v-2.48h1.8v2.38c0,2.91,1.41,5.25,3.62,6.65l-1.04,1.31Zm2.55,3.5v-15.15h1.73v15.15h-1.73Z"/>
      <path class="cls-2" d="m761.64,327.6c-1.29-.82-2.99-2.75-3.54-4.42-.53,1.8-2.04,3.71-3.67,4.69l-1.09-1.26c2.35-1.53,3.83-4.03,3.83-6.92v-2.5h1.78v2.4c0,2.91,1.51,5.32,3.74,6.71l-1.05,1.29Zm2.58,3.45v-8.46h-2.96v-1.46h2.96v-5.22h1.73v15.15h-1.73Z"/>
      <path class="cls-2" d="m775.26,326.92c-1.26.29-3.21.43-5.05.43h-1.53v-9.6h5.71v1.41c-1.31,0-2.65-.02-3.94-.02v6.77c1.89,0,3.45-.12,4.59-.37l.22,1.39Zm4.01,4.13v-7.67h-1.53v6.94h-1.65v-14.11h1.65v5.71h1.53v-6.02h1.68v15.15h-1.68Z"/>
      <path class="cls-2" d="m788.91,327.79v-2.79h-6.02v-1.41h13.68v1.41h-5.93v2.79h-1.73Zm-4.25,2.82v-4.28h1.75v2.91h8.57v1.38h-10.32Zm10.1-8.5h-10.06v-5.41h10.06v5.41Zm-1.75-4.01h-6.56v2.62h6.56v-2.62Z"/>
      <path class="cls-2" d="m808.95,323.23h2.33v1.41h-6v6.41h-1.73v-6.41h-5.95v-1.41h9.69c.29-1.34.41-3.28.42-5.03h-8.38v-1.43h10.13c0,2.53-.14,4.66-.51,6.46Z"/>
      <path class="cls-2" d="m823.85,326.92c-1.26.29-3.21.43-5.05.43h-1.53v-9.6h5.71v1.41c-1.31,0-2.65-.02-3.94-.02v6.77c1.89,0,3.45-.12,4.59-.37l.22,1.39Zm4.01,4.13v-7.67h-1.53v6.94h-1.65v-14.11h1.65v5.71h1.53v-6.02h1.68v15.15h-1.68Z"/>
      <path class="cls-2" d="m831.53,319.95v-1.36h8.16v1.36h-8.16Zm4.25,5.83c-2.02,0-3.55-1.04-3.55-2.62s1.51-2.63,3.55-2.63,3.55,1.09,3.55,2.63-1.51,2.62-3.55,2.62Zm-2.19-8.14v-1.39h4.44v1.39h-4.44Zm2.19,4.21c-1.05,0-1.9.51-1.9,1.31s.85,1.29,1.9,1.29,1.9-.49,1.9-1.29-.87-1.31-1.9-1.31Zm-1.72,8.75v-4.06h1.75v2.67h8.46v1.39h-10.22Zm8.14-3.55v-2.5h-2.19v-1.41h2.19v-1.72h-2.19v-1.43h2.19v-4.1h1.73v11.15h-1.73Z"/>
      <path class="cls-2" d="m853.87,321.5v1.58h6v1.41h-13.68v-1.41h5.95v-1.58h-4.15v-5.18h10.13v1.43h-8.38v2.35h8.5v1.41h-4.37Zm-.83,9.57c-3.35,0-5.25-1.07-5.25-2.77s1.9-2.75,5.24-2.75,5.27,1.09,5.27,2.75-1.92,2.77-5.25,2.77Zm-.02-4.13c-2.12,0-3.45.51-3.45,1.38s1.33,1.34,3.45,1.34,3.47-.48,3.47-1.34-1.33-1.38-3.47-1.38Z"/>
    </g>
    <g>
      <path class="cls-3" d="m680.5,340.33c2.18,0,3.76,1.38,3.76,3.31s-1.58,3.19-3.76,3.19-3.79-1.23-3.79-3.19,1.6-3.31,3.79-3.31Zm0,4.95c1.17,0,1.91-.77,1.91-1.65,0-.98-.7-1.76-1.91-1.76-1.06,0-1.94.8-1.94,1.76s.83,1.65,1.94,1.65Zm-1.79,8.72v-3.83h7.51v-.99h-7.59v-1.47h9.44v3.81h-7.49v.98h7.94v1.5h-9.81Zm7.51-7.01v-7.14h1.86v7.14h-1.86Z"/>
      <path class="cls-3" d="m700.91,345.39h2.06v1.5h-12.88v-1.5h9.04c.21-.96.37-2.66.35-3.54h-7.71v-1.47h9.59c0,1.82-.18,3.63-.45,5.01Zm-9.17,8.55v-5.92h1.86v1.6h5.88v-1.63h1.86v5.96h-9.59Zm7.73-2.91h-5.88v1.44h5.88v-1.44Z"/>
      <path class="cls-3" d="m710.14,343.23l-1.84.37v-1.15l2.79-1.25h1.04v11.06h-1.98v-9.03Z"/>
      <path class="cls-3" d="m714.56,347.12v-.69c0-3.92,2.02-5.33,4.27-5.33s4.23,1.42,4.23,5.28v.69c0,3.86-1.95,5.31-4.24,5.31-2.4,0-4.26-1.54-4.26-5.27Zm6.47.08v-.82c0-2.61-.75-3.76-2.19-3.76s-2.22,1.09-2.22,3.65v.85c0,2.54.72,3.76,2.21,3.76s2.21-1.06,2.21-3.68Z"/>
      <path class="cls-3" d="m724.89,347.12v-.69c0-3.92,2.02-5.33,4.27-5.33s4.23,1.42,4.23,5.28v.69c0,3.86-1.95,5.31-4.24,5.31-2.4,0-4.26-1.54-4.26-5.27Zm6.47.08v-.82c0-2.61-.75-3.76-2.19-3.76s-2.22,1.09-2.22,3.65v.85c0,2.54.72,3.76,2.21,3.76s2.21-1.06,2.21-3.68Z"/>
      <path class="cls-3" d="m734.88,351.12h2.02l-1.15,3.23h-1.5l.64-3.23Z"/>
      <path class="cls-3" d="m738.06,347.12v-.69c0-3.92,2.02-5.33,4.27-5.33s4.23,1.42,4.23,5.28v.69c0,3.86-1.95,5.31-4.24,5.31-2.4,0-4.26-1.54-4.26-5.27Zm6.47.08v-.82c0-2.61-.75-3.76-2.19-3.76s-2.22,1.09-2.22,3.65v.85c0,2.54.72,3.76,2.21,3.76s2.21-1.06,2.21-3.68Z"/>
      <path class="cls-3" d="m748.4,347.12v-.69c0-3.92,2.02-5.33,4.27-5.33s4.23,1.42,4.23,5.28v.69c0,3.86-1.95,5.31-4.24,5.31-2.4,0-4.26-1.54-4.26-5.27Zm6.47.08v-.82c0-2.61-.75-3.76-2.19-3.76s-2.22,1.09-2.22,3.65v.85c0,2.54.72,3.76,2.21,3.76s2.21-1.06,2.21-3.68Z"/>
      <path class="cls-3" d="m758.73,347.12v-.69c0-3.92,2.02-5.33,4.27-5.33s4.23,1.42,4.23,5.28v.69c0,3.86-1.95,5.31-4.24,5.31-2.4,0-4.26-1.54-4.26-5.27Zm6.47.08v-.82c0-2.61-.75-3.76-2.19-3.76s-2.22,1.09-2.22,3.65v.85c0,2.54.72,3.76,2.21,3.76s2.21-1.06,2.21-3.68Z"/>
    </g>
    <rect class="cls-1" y="463.25" width="141" height="141" rx="19.08" ry="19.08"/>
    <rect class="cls-1" x="511" y="464.25" width="141" height="141" rx="19.08" ry="19.08"/>
    <g>
      <path class="cls-1" d="m172.33,483.67c-1.36.37-4.12.6-6.58.62h-2.02v-9.06h2.35v7.13c1.98,0,4.6-.23,5.93-.62l.32,1.93Zm.8,10.49c-4.42,0-7.04-1.63-7.04-4.05s2.62-4.09,7.04-4.09,7.08,1.63,7.08,4.09-2.62,4.05-7.08,4.05Zm0-6.21c-2.87,0-4.6.8-4.6,2.16s1.72,2.16,4.6,2.16,4.65-.83,4.65-2.16-1.75-2.16-4.65-2.16Zm4.62-1.98v-5.13h-2.18v4.44h-2.21v-11.22h2.21v4.81h2.18v-5.17h2.25v12.28h-2.25Z"/>
      <path class="cls-1" d="m182.92,475h10.78v1.96h-4.09v.07c0,3.01,2.28,5.29,4.65,6.05l-1.29,1.86c-1.72-.69-3.68-2.3-4.58-4.21-.6,2-2.78,4-4.85,4.78l-1.38-1.84c2.87-1.06,5.04-3.52,5.04-6.55v-.16h-4.28v-1.96Zm8.97,19.18c-4.37,0-6.92-1.61-6.92-4.05s2.55-4.07,6.92-4.07,6.97,1.59,6.97,4.07-2.58,4.05-6.97,4.05Zm0-6.21c-2.85,0-4.51.78-4.51,2.16s1.66,2.14,4.51,2.14,4.55-.8,4.55-2.14-1.68-2.16-4.55-2.16Zm6.69-7.27v5.11h-2.37v-12.12h2.37v5.06h3.04v1.95h-3.04Z"/>
      <path class="cls-1" d="m202.56,491.19v-1.91h6.92v-7.01h2.35v7.01h9.24v1.91h-18.51Zm15.31-4.05l-2.25-.35c.6-2.67.78-6.48.78-9.24h-11.7v-1.91h14.07c0,3.54-.07,8.09-.9,11.5Z"/>
      <path class="cls-1" d="m228.5,491.19v-1.91h6.92v-7.01h2.35v7.01h9.24v1.91h-18.51Zm15.31-4.05l-2.25-.35c.6-2.67.78-6.48.78-9.24h-11.7v-1.91h14.07c0,3.54-.07,8.09-.9,11.5Z"/>
      <path class="cls-1" d="m248.65,475h10.78v1.96h-4.09v.07c0,3.01,2.28,5.29,4.65,6.05l-1.29,1.86c-1.72-.69-3.68-2.3-4.58-4.21-.6,2-2.78,4-4.85,4.78l-1.38-1.84c2.87-1.06,5.04-3.52,5.04-6.55v-.16h-4.28v-1.96Zm8.97,19.18c-4.37,0-6.92-1.61-6.92-4.05s2.55-4.07,6.92-4.07,6.97,1.59,6.97,4.07-2.58,4.05-6.97,4.05Zm0-6.21c-2.85,0-4.51.78-4.51,2.16s1.66,2.14,4.51,2.14,4.55-.8,4.55-2.14-1.68-2.16-4.55-2.16Zm6.69-7.27v5.11h-2.37v-12.12h2.37v5.06h3.04v1.95h-3.04Z"/>
    </g>
    <g>
      <path class="cls-2" d="m171.65,520.6c-1.29-.82-2.99-2.75-3.54-4.42-.53,1.8-2.04,3.71-3.67,4.69l-1.09-1.26c2.35-1.53,3.82-4.03,3.82-6.92v-2.5h1.78v2.4c0,2.91,1.51,5.32,3.74,6.71l-1.05,1.29Zm2.58,3.45v-8.46h-2.96v-1.46h2.96v-5.22h1.73v15.15h-1.73Z"/>
      <path class="cls-2" d="m179.95,523.95v-3.76h8.4v-.97h-8.46v-1.39h4.27v-1.16h-5.95v-1.41h13.68v1.41h-6v1.16h4.2v3.64h-8.38v1.09h8.94v1.39h-10.69Zm10.45-12.21c0,1.56-1.99,2.69-5.34,2.69s-5.3-1.12-5.3-2.69,1.97-2.69,5.3-2.69,5.34,1.12,5.34,2.69Zm-8.84,0c0,.82,1.31,1.31,3.5,1.31s3.52-.49,3.52-1.31-1.33-1.29-3.52-1.29-3.5.48-3.5,1.29Z"/>
      <path class="cls-2" d="m192.9,518.13v-1.41h13.68v1.41h-13.68Zm11.9,1.17v4.79h-1.73v-3.4h-8.57v-1.39h10.3Zm-8.33-6.17v1.04h8.47v1.36h-10.22v-6.19h10.11v1.39h-8.36v1.05h7.84v1.34h-7.84Z"/>
      <path class="cls-2" d="m208.15,516.14v-6.58h1.75v1.99h3.52v-2.02h1.75v6.61h-7.02Zm5.27-3.2h-3.52v1.78h3.52v-1.78Zm-3.2,10.98v-3.96h8.12v-1.19h-8.19v-1.41h9.93v3.91h-8.11v1.27h8.6v1.38h-10.35Zm8.11-7.29v-1.62h-2.4v-1.34h2.4v-1.51h-2.4v-1.34h2.4v-1.92h1.73v7.73h-1.73Z"/>
      <path class="cls-2" d="m230.5,520.55c-1.29-.83-2.91-2.7-3.47-4.37-.51,1.8-2.02,3.71-3.69,4.71l-1.07-1.28c2.35-1.53,3.84-4.03,3.84-6.92v-2.48h1.8v2.38c0,2.91,1.41,5.25,3.62,6.65l-1.04,1.31Zm2.55,3.5v-15.15h1.73v15.15h-1.73Z"/>
      <path class="cls-2" d="m249.64,520.6c-1.29-.82-2.99-2.75-3.54-4.42-.53,1.8-2.04,3.71-3.67,4.69l-1.09-1.26c2.35-1.53,3.82-4.03,3.82-6.92v-2.5h1.78v2.4c0,2.91,1.51,5.32,3.74,6.71l-1.05,1.29Zm2.58,3.45v-8.46h-2.96v-1.46h2.96v-5.22h1.73v15.15h-1.73Z"/>
      <path class="cls-2" d="m263.26,519.92c-1.26.29-3.21.43-5.05.43h-1.53v-9.6h5.71v1.41c-1.31,0-2.65-.02-3.94-.02v6.77c1.89,0,3.45-.12,4.59-.37l.22,1.39Zm4.01,4.13v-7.67h-1.53v6.94h-1.65v-14.11h1.65v5.71h1.53v-6.02h1.68v15.15h-1.68Z"/>
      <path class="cls-2" d="m276.91,520.79v-2.79h-6.02v-1.41h13.68v1.41h-5.93v2.79h-1.73Zm-4.25,2.82v-4.28h1.75v2.91h8.57v1.38h-10.32Zm10.1-8.5h-10.06v-5.41h10.06v5.41Zm-1.75-4.01h-6.56v2.62h6.56v-2.62Z"/>
      <path class="cls-2" d="m296.95,516.23h2.33v1.41h-6v6.41h-1.73v-6.41h-5.95v-1.41h9.69c.29-1.34.41-3.28.42-5.03h-8.38v-1.43h10.13c0,2.53-.14,4.66-.51,6.46Z"/>
      <path class="cls-2" d="m311.85,519.92c-1.26.29-3.21.43-5.05.43h-1.53v-9.6h5.71v1.41c-1.31,0-2.65-.02-3.94-.02v6.77c1.89,0,3.45-.12,4.59-.37l.22,1.39Zm4.01,4.13v-7.67h-1.53v6.94h-1.65v-14.11h1.65v5.71h1.53v-6.02h1.68v15.15h-1.68Z"/>
      <path class="cls-2" d="m319.53,512.95v-1.36h8.16v1.36h-8.16Zm4.25,5.83c-2.02,0-3.55-1.04-3.55-2.62s1.51-2.63,3.55-2.63,3.55,1.09,3.55,2.63-1.51,2.62-3.55,2.62Zm-2.19-8.14v-1.39h4.44v1.39h-4.44Zm2.19,4.21c-1.05,0-1.9.51-1.9,1.31s.85,1.29,1.9,1.29,1.9-.49,1.9-1.29-.87-1.31-1.9-1.31Zm-1.72,8.75v-4.06h1.75v2.67h8.46v1.39h-10.22Zm8.14-3.55v-2.5h-2.19v-1.41h2.19v-1.72h-2.19v-1.43h2.19v-4.1h1.73v11.15h-1.73Z"/>
      <path class="cls-2" d="m341.87,514.5v1.58h6v1.41h-13.68v-1.41h5.95v-1.58h-4.15v-5.18h10.13v1.43h-8.38v2.35h8.5v1.41h-4.37Zm-.83,9.57c-3.35,0-5.25-1.07-5.25-2.77s1.9-2.75,5.24-2.75,5.27,1.09,5.27,2.75-1.92,2.77-5.25,2.77Zm-.02-4.13c-2.12,0-3.45.51-3.45,1.38s1.33,1.34,3.45,1.34,3.47-.48,3.47-1.34-1.33-1.38-3.47-1.38Z"/>
    </g>
    <g>
      <path class="cls-3" d="m168.5,533.33c2.18,0,3.76,1.38,3.76,3.31s-1.58,3.19-3.76,3.19-3.79-1.23-3.79-3.19,1.6-3.31,3.79-3.31Zm0,4.95c1.17,0,1.91-.77,1.91-1.65,0-.98-.7-1.76-1.91-1.76-1.06,0-1.94.8-1.94,1.76s.83,1.65,1.94,1.65Zm-1.79,8.72v-3.83h7.51v-.99h-7.59v-1.47h9.44v3.81h-7.49v.98h7.94v1.5h-9.81Zm7.51-7.01v-7.14h1.86v7.14h-1.86Z"/>
      <path class="cls-3" d="m188.91,538.39h2.06v1.5h-12.88v-1.5h9.04c.21-.96.37-2.66.35-3.54h-7.71v-1.47h9.59c0,1.82-.18,3.63-.45,5.01Zm-9.17,8.55v-5.92h1.86v1.6h5.88v-1.63h1.86v5.96h-9.59Zm7.73-2.91h-5.88v1.44h5.88v-1.44Z"/>
      <path class="cls-3" d="m198.14,536.23l-1.84.37v-1.15l2.79-1.25h1.04v11.06h-1.98v-9.03Z"/>
      <path class="cls-3" d="m202.56,540.12v-.69c0-3.92,2.02-5.33,4.27-5.33s4.23,1.42,4.23,5.28v.69c0,3.86-1.95,5.31-4.24,5.31-2.4,0-4.26-1.54-4.26-5.27Zm6.47.08v-.82c0-2.61-.75-3.76-2.19-3.76s-2.22,1.09-2.22,3.65v.85c0,2.54.72,3.76,2.21,3.76s2.21-1.06,2.21-3.68Z"/>
      <path class="cls-3" d="m212.89,540.12v-.69c0-3.92,2.02-5.33,4.27-5.33s4.23,1.42,4.23,5.28v.69c0,3.86-1.95,5.31-4.24,5.31-2.4,0-4.26-1.54-4.26-5.27Zm6.47.08v-.82c0-2.61-.75-3.76-2.19-3.76s-2.22,1.09-2.22,3.65v.85c0,2.54.72,3.76,2.21,3.76s2.21-1.06,2.21-3.68Z"/>
      <path class="cls-3" d="m222.88,544.12h2.02l-1.15,3.23h-1.5l.64-3.23Z"/>
      <path class="cls-3" d="m226.06,540.12v-.69c0-3.92,2.02-5.33,4.27-5.33s4.23,1.42,4.23,5.28v.69c0,3.86-1.95,5.31-4.24,5.31-2.4,0-4.26-1.54-4.26-5.27Zm6.47.08v-.82c0-2.61-.75-3.76-2.19-3.76s-2.22,1.09-2.22,3.65v.85c0,2.54.72,3.76,2.21,3.76s2.21-1.06,2.21-3.68Z"/>
      <path class="cls-3" d="m236.4,540.12v-.69c0-3.92,2.02-5.33,4.27-5.33s4.23,1.42,4.23,5.28v.69c0,3.86-1.95,5.31-4.24,5.31-2.4,0-4.26-1.54-4.26-5.27Zm6.47.08v-.82c0-2.61-.75-3.76-2.19-3.76s-2.22,1.09-2.22,3.65v.85c0,2.54.72,3.76,2.21,3.76s2.21-1.06,2.21-3.68Z"/>
      <path class="cls-3" d="m246.73,540.12v-.69c0-3.92,2.02-5.33,4.27-5.33s4.23,1.42,4.23,5.28v.69c0,3.86-1.95,5.31-4.24,5.31-2.4,0-4.26-1.54-4.26-5.27Zm6.47.08v-.82c0-2.61-.75-3.76-2.19-3.76s-2.22,1.09-2.22,3.65v.85c0,2.54.72,3.76,2.21,3.76s2.21-1.06,2.21-3.68Z"/>
    </g>
    <g>
      <path class="cls-1" d="m684.33,483.67c-1.36.37-4.12.6-6.58.62h-2.02v-9.06h2.35v7.13c1.98,0,4.6-.23,5.93-.62l.32,1.93Zm.8,10.49c-4.42,0-7.04-1.63-7.04-4.05s2.62-4.09,7.04-4.09,7.08,1.63,7.08,4.09-2.62,4.05-7.08,4.05Zm0-6.21c-2.88,0-4.6.8-4.6,2.16s1.72,2.16,4.6,2.16,4.64-.83,4.64-2.16-1.75-2.16-4.64-2.16Zm4.62-1.98v-5.13h-2.18v4.44h-2.21v-11.22h2.21v4.81h2.18v-5.17h2.25v12.28h-2.25Z"/>
      <path class="cls-1" d="m694.92,475h10.79v1.96h-4.09v.07c0,3.01,2.28,5.29,4.65,6.05l-1.29,1.86c-1.72-.69-3.68-2.3-4.58-4.21-.6,2-2.78,4-4.85,4.78l-1.38-1.84c2.87-1.06,5.04-3.52,5.04-6.55v-.16h-4.28v-1.96Zm8.97,19.18c-4.37,0-6.92-1.61-6.92-4.05s2.55-4.07,6.92-4.07,6.97,1.59,6.97,4.07-2.58,4.05-6.97,4.05Zm0-6.21c-2.85,0-4.51.78-4.51,2.16s1.66,2.14,4.51,2.14,4.55-.8,4.55-2.14-1.68-2.16-4.55-2.16Zm6.69-7.27v5.11h-2.37v-12.12h2.37v5.06h3.04v1.95h-3.04Z"/>
      <path class="cls-1" d="m714.56,491.19v-1.91h6.92v-7.01h2.35v7.01h9.24v1.91h-18.51Zm15.31-4.05l-2.25-.35c.6-2.67.78-6.48.78-9.24h-11.7v-1.91h14.07c0,3.54-.07,8.09-.9,11.5Z"/>
      <path class="cls-1" d="m740.5,491.19v-1.91h6.92v-7.01h2.35v7.01h9.24v1.91h-18.51Zm15.31-4.05l-2.25-.35c.6-2.67.78-6.48.78-9.24h-11.7v-1.91h14.07c0,3.54-.07,8.09-.9,11.5Z"/>
      <path class="cls-1" d="m760.65,475h10.79v1.96h-4.09v.07c0,3.01,2.28,5.29,4.65,6.05l-1.29,1.86c-1.72-.69-3.68-2.3-4.58-4.21-.6,2-2.78,4-4.85,4.78l-1.38-1.84c2.87-1.06,5.04-3.52,5.04-6.55v-.16h-4.28v-1.96Zm8.97,19.18c-4.37,0-6.92-1.61-6.92-4.05s2.55-4.07,6.92-4.07,6.97,1.59,6.97,4.07-2.58,4.05-6.97,4.05Zm0-6.21c-2.85,0-4.51.78-4.51,2.16s1.66,2.14,4.51,2.14,4.55-.8,4.55-2.14-1.68-2.16-4.55-2.16Zm6.69-7.27v5.11h-2.37v-12.12h2.37v5.06h3.04v1.95h-3.04Z"/>
    </g>
    <g>
      <path class="cls-2" d="m683.65,520.6c-1.29-.82-2.99-2.75-3.54-4.42-.53,1.8-2.04,3.71-3.67,4.69l-1.09-1.26c2.35-1.53,3.83-4.03,3.83-6.92v-2.5h1.78v2.4c0,2.91,1.51,5.32,3.74,6.71l-1.05,1.29Zm2.58,3.45v-8.46h-2.96v-1.46h2.96v-5.22h1.73v15.15h-1.73Z"/>
      <path class="cls-2" d="m691.95,523.95v-3.76h8.4v-.97h-8.46v-1.39h4.27v-1.16h-5.95v-1.41h13.68v1.41h-6v1.16h4.2v3.64h-8.38v1.09h8.94v1.39h-10.69Zm10.45-12.21c0,1.56-1.99,2.69-5.34,2.69s-5.3-1.12-5.3-2.69,1.97-2.69,5.3-2.69,5.34,1.12,5.34,2.69Zm-8.84,0c0,.82,1.31,1.31,3.5,1.31s3.52-.49,3.52-1.31-1.33-1.29-3.52-1.29-3.5.48-3.5,1.29Z"/>
      <path class="cls-2" d="m704.9,518.13v-1.41h13.68v1.41h-13.68Zm11.9,1.17v4.79h-1.73v-3.4h-8.57v-1.39h10.3Zm-8.33-6.17v1.04h8.47v1.36h-10.22v-6.19h10.11v1.39h-8.36v1.05h7.84v1.34h-7.84Z"/>
      <path class="cls-2" d="m720.15,516.14v-6.58h1.75v1.99h3.52v-2.02h1.75v6.61h-7.02Zm5.27-3.2h-3.52v1.78h3.52v-1.78Zm-3.2,10.98v-3.96h8.12v-1.19h-8.19v-1.41h9.93v3.91h-8.11v1.27h8.6v1.38h-10.35Zm8.11-7.29v-1.62h-2.4v-1.34h2.4v-1.51h-2.4v-1.34h2.4v-1.92h1.73v7.73h-1.73Z"/>
      <path class="cls-2" d="m742.5,520.55c-1.29-.83-2.91-2.7-3.47-4.37-.51,1.8-2.02,3.71-3.69,4.71l-1.07-1.28c2.35-1.53,3.84-4.03,3.84-6.92v-2.48h1.8v2.38c0,2.91,1.41,5.25,3.62,6.65l-1.04,1.31Zm2.55,3.5v-15.15h1.73v15.15h-1.73Z"/>
      <path class="cls-2" d="m761.64,520.6c-1.29-.82-2.99-2.75-3.54-4.42-.53,1.8-2.04,3.71-3.67,4.69l-1.09-1.26c2.35-1.53,3.83-4.03,3.83-6.92v-2.5h1.78v2.4c0,2.91,1.51,5.32,3.74,6.71l-1.05,1.29Zm2.58,3.45v-8.46h-2.96v-1.46h2.96v-5.22h1.73v15.15h-1.73Z"/>
      <path class="cls-2" d="m775.26,519.92c-1.26.29-3.21.43-5.05.43h-1.53v-9.6h5.71v1.41c-1.31,0-2.65-.02-3.94-.02v6.77c1.89,0,3.45-.12,4.59-.37l.22,1.39Zm4.01,4.13v-7.67h-1.53v6.94h-1.65v-14.11h1.65v5.71h1.53v-6.02h1.68v15.15h-1.68Z"/>
      <path class="cls-2" d="m788.91,520.79v-2.79h-6.02v-1.41h13.68v1.41h-5.93v2.79h-1.73Zm-4.25,2.82v-4.28h1.75v2.91h8.57v1.38h-10.32Zm10.1-8.5h-10.06v-5.41h10.06v5.41Zm-1.75-4.01h-6.56v2.62h6.56v-2.62Z"/>
      <path class="cls-2" d="m808.95,516.23h2.33v1.41h-6v6.41h-1.73v-6.41h-5.95v-1.41h9.69c.29-1.34.41-3.28.42-5.03h-8.38v-1.43h10.13c0,2.53-.14,4.66-.51,6.46Z"/>
      <path class="cls-2" d="m823.85,519.92c-1.26.29-3.21.43-5.05.43h-1.53v-9.6h5.71v1.41c-1.31,0-2.65-.02-3.94-.02v6.77c1.89,0,3.45-.12,4.59-.37l.22,1.39Zm4.01,4.13v-7.67h-1.53v6.94h-1.65v-14.11h1.65v5.71h1.53v-6.02h1.68v15.15h-1.68Z"/>
      <path class="cls-2" d="m831.53,512.95v-1.36h8.16v1.36h-8.16Zm4.25,5.83c-2.02,0-3.55-1.04-3.55-2.62s1.51-2.63,3.55-2.63,3.55,1.09,3.55,2.63-1.51,2.62-3.55,2.62Zm-2.19-8.14v-1.39h4.44v1.39h-4.44Zm2.19,4.21c-1.05,0-1.9.51-1.9,1.31s.85,1.29,1.9,1.29,1.9-.49,1.9-1.29-.87-1.31-1.9-1.31Zm-1.72,8.75v-4.06h1.75v2.67h8.46v1.39h-10.22Zm8.14-3.55v-2.5h-2.19v-1.41h2.19v-1.72h-2.19v-1.43h2.19v-4.1h1.73v11.15h-1.73Z"/>
      <path class="cls-2" d="m853.87,514.5v1.58h6v1.41h-13.68v-1.41h5.95v-1.58h-4.15v-5.18h10.13v1.43h-8.38v2.35h8.5v1.41h-4.37Zm-.83,9.57c-3.35,0-5.25-1.07-5.25-2.77s1.9-2.75,5.24-2.75,5.27,1.09,5.27,2.75-1.92,2.77-5.25,2.77Zm-.02-4.13c-2.12,0-3.45.51-3.45,1.38s1.33,1.34,3.45,1.34,3.47-.48,3.47-1.34-1.33-1.38-3.47-1.38Z"/>
    </g>
    <g>
      <path class="cls-3" d="m680.5,533.33c2.18,0,3.76,1.38,3.76,3.31s-1.58,3.19-3.76,3.19-3.79-1.23-3.79-3.19,1.6-3.31,3.79-3.31Zm0,4.95c1.17,0,1.91-.77,1.91-1.65,0-.98-.7-1.76-1.91-1.76-1.06,0-1.94.8-1.94,1.76s.83,1.65,1.94,1.65Zm-1.79,8.72v-3.83h7.51v-.99h-7.59v-1.47h9.44v3.81h-7.49v.98h7.94v1.5h-9.81Zm7.51-7.01v-7.14h1.86v7.14h-1.86Z"/>
      <path class="cls-3" d="m700.91,538.39h2.06v1.5h-12.88v-1.5h9.04c.21-.96.37-2.66.35-3.54h-7.71v-1.47h9.59c0,1.82-.18,3.63-.45,5.01Zm-9.17,8.55v-5.92h1.86v1.6h5.88v-1.63h1.86v5.96h-9.59Zm7.73-2.91h-5.88v1.44h5.88v-1.44Z"/>
      <path class="cls-3" d="m710.14,536.23l-1.84.37v-1.15l2.79-1.25h1.04v11.06h-1.98v-9.03Z"/>
      <path class="cls-3" d="m714.56,540.12v-.69c0-3.92,2.02-5.33,4.27-5.33s4.23,1.42,4.23,5.28v.69c0,3.86-1.95,5.31-4.24,5.31-2.4,0-4.26-1.54-4.26-5.27Zm6.47.08v-.82c0-2.61-.75-3.76-2.19-3.76s-2.22,1.09-2.22,3.65v.85c0,2.54.72,3.76,2.21,3.76s2.21-1.06,2.21-3.68Z"/>
      <path class="cls-3" d="m724.89,540.12v-.69c0-3.92,2.02-5.33,4.27-5.33s4.23,1.42,4.23,5.28v.69c0,3.86-1.95,5.31-4.24,5.31-2.4,0-4.26-1.54-4.26-5.27Zm6.47.08v-.82c0-2.61-.75-3.76-2.19-3.76s-2.22,1.09-2.22,3.65v.85c0,2.54.72,3.76,2.21,3.76s2.21-1.06,2.21-3.68Z"/>
      <path class="cls-3" d="m734.88,544.12h2.02l-1.15,3.23h-1.5l.64-3.23Z"/>
      <path class="cls-3" d="m738.06,540.12v-.69c0-3.92,2.02-5.33,4.27-5.33s4.23,1.42,4.23,5.28v.69c0,3.86-1.95,5.31-4.24,5.31-2.4,0-4.26-1.54-4.26-5.27Zm6.47.08v-.82c0-2.61-.75-3.76-2.19-3.76s-2.22,1.09-2.22,3.65v.85c0,2.54.72,3.76,2.21,3.76s2.21-1.06,2.21-3.68Z"/>
      <path class="cls-3" d="m748.4,540.12v-.69c0-3.92,2.02-5.33,4.27-5.33s4.23,1.42,4.23,5.28v.69c0,3.86-1.95,5.31-4.24,5.31-2.4,0-4.26-1.54-4.26-5.27Zm6.47.08v-.82c0-2.61-.75-3.76-2.19-3.76s-2.22,1.09-2.22,3.65v.85c0,2.54.72,3.76,2.21,3.76s2.21-1.06,2.21-3.68Z"/>
      <path class="cls-3" d="m758.73,540.12v-.69c0-3.92,2.02-5.33,4.27-5.33s4.23,1.42,4.23,5.28v.69c0,3.86-1.95,5.31-4.24,5.31-2.4,0-4.26-1.54-4.26-5.27Zm6.47.08v-.82c0-2.61-.75-3.76-2.19-3.76s-2.22,1.09-2.22,3.65v.85c0,2.54.72,3.76,2.21,3.76s2.21-1.06,2.21-3.68Z"/>
    </g>
  </g>
</svg>