<?xml version="1.0" encoding="UTF-8"?>
<svg id="_레이어_2" data-name="레이어 2" xmlns="http://www.w3.org/2000/svg" viewBox="0 0 851.1 603.14">
  <defs>
    <style>
      .cls-1 {
        fill: #4371c4;
      }

      .cls-1, .cls-2, .cls-3 {
        stroke-width: 0px;
      }

      .cls-2 {
        fill: #b2b2b2;
      }

      .cls-3 {
        fill: #b1b1b1;
      }
    </style>
  </defs>
  <g id="_레이어_1-2" data-name="레이어 1">
    <rect class="cls-1" y="76.14" width="141" height="141" rx="19.08" ry="19.08"/>
    <g>
      <path class="cls-1" d="m161.12,95.01v-8.99h9.47v8.99h-9.47Zm9.2,9.98c-4.42,0-6.97-1.63-6.97-4.14s2.55-4.16,6.97-4.16,7.06,1.59,7.06,4.16-2.58,4.14-7.06,4.14Zm-2.37-16.88h-4.16v4.78h4.16v-4.78Zm-1.86,12.74c0,1.22,1.59,1.98,4.23,1.98s4.28-.76,4.28-1.98-1.54-2.02-4.28-2.02-4.23.78-4.23,2.02Zm5.54-9.52v-2.16h2.92v-4.67h2.67v11.96h-2.67v-5.13h-2.92Z"/>
      <path class="cls-1" d="m186.05,85.91c3.36,0,5.31,3.01,5.31,7.33s-1.95,7.29-5.31,7.29-5.29-2.99-5.29-7.29,1.95-7.33,5.29-7.33Zm0,2.16c-1.54,0-2.67,1.93-2.67,5.17s1.13,5.13,2.67,5.13,2.74-1.91,2.74-5.13-1.15-5.17-2.74-5.17Zm8.39,16.92v-20.49h2.67v20.49h-2.67Z"/>
      <path class="cls-1" d="m206.38,85.61h10.78v2.21h-3.82c.41,2.53,2.35,4.05,4.48,4.71l-1.47,2.12c-1.56-.55-3.56-2.18-4.46-3.93-.6,1.98-2.76,3.82-4.74,4.51l-1.59-2.07c2.67-.99,4.51-2.74,4.85-5.33h-4.05v-2.21Zm2.39,19.22v-5.45h10.67v-1.33h-10.81v-2.14h13.52v5.45h-10.72v1.31h11.31v2.16h-13.98Zm13.38-13.91v3.93h-2.71v-10.35h2.71v4.21h2.92v2.21h-2.92Z"/>
      <path class="cls-1" d="m232.07,94.83v-2.16h18.51v2.16h-18.51Zm2.37,10.07v-5.33h11.01v-1.24h-11.15v-2.12h13.84v5.29h-11.04v1.2h11.77v2.21h-14.44Zm.09-13.5v-6.55h13.73v2.14h-11.04v2.28h11.2v2.14h-13.89Z"/>
      <path class="cls-1" d="m257.39,85.91c3.04,0,4.9,2.46,5.22,6.12h3.61v-7.52h2.69v20.49h-2.69v-10.69h-3.59c-.3,3.7-2.18,6.23-5.24,6.23-3.33,0-5.29-2.99-5.29-7.29s1.95-7.33,5.29-7.33Zm0,2.16c-1.54,0-2.67,1.93-2.67,5.17s1.13,5.13,2.67,5.13,2.71-1.91,2.71-5.13-1.13-5.17-2.71-5.17Z"/>
      <path class="cls-1" d="m271.86,102.44v-2.16h4.14v-3.4l2.69.12v3.29h4.81v-3.29l2.69-.12v3.4h4.19v2.16h-18.51Zm9.27-5.91c-4.48,0-7.45-2.25-7.45-5.38s2.97-5.45,7.45-5.45,7.47,2.3,7.47,5.45-2.97,5.38-7.47,5.38Zm0-8.58c-2.85,0-4.69,1.33-4.69,3.2s1.84,3.17,4.69,3.17,4.71-1.33,4.71-3.17-1.86-3.2-4.71-3.2Z"/>
    </g>
    <g>
      <path class="cls-3" d="m161.01,132.96v-1.41h5.95v-3.72h1.73v3.72h6v1.41h-13.68Zm12.34-5.03c-2.26-.58-4.73-2.29-5.51-4.16-.7,1.89-3.21,3.62-5.51,4.16l-.85-1.41c2.48-.39,5.47-2.43,5.47-5.03v-.9h1.82v.9c0,2.57,3.2,4.67,5.47,5.1l-.9,1.34Z"/>
      <path class="cls-3" d="m175.71,132.96v-1.41h5.95v-3.72h1.73v3.72h6v1.41h-13.68Zm12.34-5.03c-2.26-.58-4.73-2.29-5.51-4.16-.7,1.89-3.21,3.62-5.51,4.16l-.85-1.41c2.48-.39,5.47-2.43,5.47-5.03v-.9h1.82v.9c0,2.57,3.2,4.67,5.47,5.1l-.9,1.34Z"/>
      <path class="cls-3" d="m190.42,132.65v-1.41h5.12v-5.18h1.73v5.18h6.83v1.41h-13.68Zm11.32-2.99l-1.67-.25c.44-1.97.58-4.79.58-6.83h-8.65v-1.41h10.4c0,2.62-.05,5.98-.66,8.5Z"/>
      <path class="cls-3" d="m205.89,128v-7.07h7.04v7.07h-7.04Zm1.72,6.43v-4.79h1.73v3.4h8.57v1.39h-10.3Zm3.57-12.12h-3.54v4.32h3.54v-4.32Zm4.67,8.4v-10.98h1.73v10.98h-1.73Z"/>
    </g>
    <rect class="cls-1" y="268.14" width="141" height="141" rx="19.08" ry="19.08"/>
    <g>
      <path class="cls-1" d="m161.12,287.01v-8.99h9.47v8.99h-9.47Zm9.2,9.98c-4.42,0-6.97-1.63-6.97-4.14s2.55-4.16,6.97-4.16,7.06,1.59,7.06,4.16-2.58,4.14-7.06,4.14Zm-2.37-16.88h-4.16v4.78h4.16v-4.78Zm-1.86,12.74c0,1.22,1.59,1.98,4.23,1.98s4.28-.76,4.28-1.98-1.54-2.02-4.28-2.02-4.23.78-4.23,2.02Zm5.54-9.52v-2.16h2.92v-4.67h2.67v11.96h-2.67v-5.13h-2.92Z"/>
      <path class="cls-1" d="m186.05,277.91c3.36,0,5.31,3.01,5.31,7.33s-1.95,7.29-5.31,7.29-5.29-2.99-5.29-7.29,1.95-7.33,5.29-7.33Zm0,2.16c-1.54,0-2.67,1.93-2.67,5.17s1.13,5.13,2.67,5.13,2.74-1.91,2.74-5.13-1.15-5.17-2.74-5.17Zm8.39,16.92v-20.49h2.67v20.49h-2.67Z"/>
      <path class="cls-1" d="m206.38,277.61h10.78v2.21h-3.82c.41,2.53,2.35,4.05,4.48,4.71l-1.47,2.12c-1.56-.55-3.56-2.18-4.46-3.93-.6,1.98-2.76,3.82-4.74,4.51l-1.59-2.07c2.67-.99,4.51-2.74,4.85-5.33h-4.05v-2.21Zm2.39,19.22v-5.45h10.67v-1.33h-10.81v-2.14h13.52v5.45h-10.72v1.31h11.31v2.16h-13.98Zm13.38-13.91v3.93h-2.71v-10.35h2.71v4.21h2.92v2.21h-2.92Z"/>
      <path class="cls-1" d="m232.07,286.83v-2.16h18.51v2.16h-18.51Zm2.37,10.07v-5.33h11.01v-1.24h-11.15v-2.12h13.84v5.29h-11.04v1.2h11.77v2.21h-14.44Zm.09-13.5v-6.55h13.73v2.14h-11.04v2.28h11.2v2.14h-13.89Z"/>
      <path class="cls-1" d="m257.39,277.91c3.04,0,4.9,2.46,5.22,6.12h3.61v-7.52h2.69v20.49h-2.69v-10.69h-3.59c-.3,3.7-2.18,6.23-5.24,6.23-3.33,0-5.29-2.99-5.29-7.29s1.95-7.33,5.29-7.33Zm0,2.16c-1.54,0-2.67,1.93-2.67,5.17s1.13,5.13,2.67,5.13,2.71-1.91,2.71-5.13-1.13-5.17-2.71-5.17Z"/>
      <path class="cls-1" d="m271.86,294.44v-2.16h4.14v-3.4l2.69.12v3.29h4.81v-3.29l2.69-.12v3.4h4.19v2.16h-18.51Zm9.27-5.91c-4.48,0-7.45-2.25-7.45-5.38s2.97-5.45,7.45-5.45,7.47,2.3,7.47,5.45-2.97,5.38-7.47,5.38Zm0-8.58c-2.85,0-4.69,1.33-4.69,3.2s1.84,3.17,4.69,3.17,4.71-1.33,4.71-3.17-1.86-3.2-4.71-3.2Z"/>
    </g>
    <g>
      <path class="cls-3" d="m161.01,324.96v-1.41h5.95v-3.72h1.73v3.72h6v1.41h-13.68Zm12.34-5.03c-2.26-.58-4.73-2.29-5.51-4.16-.7,1.89-3.21,3.62-5.51,4.16l-.85-1.41c2.48-.39,5.47-2.43,5.47-5.03v-.9h1.82v.9c0,2.57,3.2,4.67,5.47,5.1l-.9,1.34Z"/>
      <path class="cls-3" d="m175.71,324.96v-1.41h5.95v-3.72h1.73v3.72h6v1.41h-13.68Zm12.34-5.03c-2.26-.58-4.73-2.29-5.51-4.16-.7,1.89-3.21,3.62-5.51,4.16l-.85-1.41c2.48-.39,5.47-2.43,5.47-5.03v-.9h1.82v.9c0,2.57,3.2,4.67,5.47,5.1l-.9,1.34Z"/>
      <path class="cls-3" d="m190.42,324.65v-1.41h5.12v-5.18h1.73v5.18h6.83v1.41h-13.68Zm11.32-2.99l-1.67-.25c.44-1.97.58-4.79.58-6.83h-8.65v-1.41h10.4c0,2.62-.05,5.98-.66,8.5Z"/>
      <path class="cls-3" d="m205.89,320v-7.07h7.04v7.07h-7.04Zm1.72,6.43v-4.79h1.73v3.4h8.57v1.39h-10.3Zm3.57-12.12h-3.54v4.32h3.54v-4.32Zm4.67,8.4v-10.98h1.73v10.98h-1.73Z"/>
    </g>
    <rect class="cls-1" x="511" y="77.14" width="141" height="141" rx="19.08" ry="19.08"/>
    <g>
      <path class="cls-1" d="m677.15,86.91c3.36,0,5.31,3.01,5.31,7.33s-1.96,7.29-5.31,7.29-5.29-2.99-5.29-7.29,1.95-7.33,5.29-7.33Zm0,2.16c-1.54,0-2.67,1.93-2.67,5.17s1.13,5.13,2.67,5.13,2.74-1.91,2.74-5.13-1.15-5.17-2.74-5.17Zm8.39,16.92v-20.49h2.67v20.49h-2.67Z"/>
      <path class="cls-1" d="m715.74,97.42h-18.51v-2.12h18.51v2.12Zm-2.09-3.26c-2.99-.25-5.98-1.84-7.15-3.82-1.04,2.05-3.93,3.54-7.17,3.82l-1.1-2.07c3.17-.16,5.98-1.45,6.69-3.54h-5.77v-2.14h14.76v2.14h-5.75c.8,2.09,3.91,3.36,6.65,3.5l-1.15,2.12Zm-7.15,11.84c-4.55,0-7.17-1.45-7.17-3.82s2.62-3.77,7.15-3.77,7.17,1.45,7.17,3.77-2.62,3.82-7.15,3.82Zm-.02-5.47c-2.64,0-4.37.64-4.37,1.68s1.72,1.68,4.37,1.68,4.42-.64,4.42-1.68-1.72-1.68-4.42-1.68Z"/>
      <path class="cls-1" d="m727.63,96.54c-1.59-.6-3.7-2.25-4.6-4.14-.62,2.09-2.83,4-4.74,4.67l-1.63-2.14c2.99-1.06,4.97-3.5,4.97-6.58v-1.93h2.76v1.77c0,3.17,2.37,5.47,4.78,6.25l-1.54,2.09Zm-1.29,9.45c-4.42,0-6.99-1.63-6.99-4.14s2.58-4.16,6.99-4.16,7.04,1.59,7.04,4.16-2.58,4.14-7.04,4.14Zm-4.23-4.14c0,1.22,1.56,1.98,4.23,1.98s4.3-.76,4.3-1.98-1.59-2.02-4.3-2.02-4.23.78-4.23,2.02Zm11.04-9.27v4.9h-2.71v-11.98h2.71v4.88h2.92v2.21h-2.92Z"/>
      <path class="cls-1" d="m754.5,93.62l.3,2.07c-1.93.44-5.29.71-9.06.71h-2v-9.36h9.13v2.14h-6.46v5.06c2.99,0,6-.16,8.09-.62Zm-2.21,12.33c-4.42,0-6.99-1.61-6.99-4.09s2.58-4.14,6.99-4.14,7.04,1.59,7.04,4.14-2.58,4.09-7.04,4.09Zm0-6.07c-2.67,0-4.23.76-4.23,1.98s1.56,1.96,4.23,1.96,4.25-.74,4.25-1.96-1.54-1.98-4.25-1.98Zm6.78-7.2v4.81h-2.71v-11.98h2.71v4.99h2.9v2.18h-2.9Z"/>
      <path class="cls-1" d="m762.96,103.42v-2.09h4.64v-4.28h2.69v4.28h3.77v-4.28h2.69v4.28h4.71v2.09h-18.51Zm2.28-7.7v-8.69h2.67v6.58h11.38v2.12h-14.05Z"/>
      <path class="cls-1" d="m789.04,87.02c3.38,0,5.54,2.16,5.54,5.06s-2.16,5.04-5.54,5.04-5.54-2.09-5.54-5.04,2.18-5.06,5.54-5.06Zm-3.01,18.42v-6.55h2.71v4.44h11.5v2.12h-14.21Zm3.01-10.53c1.77,0,2.81-1.2,2.81-2.83s-1.04-2.76-2.81-2.76-2.78,1.2-2.78,2.76,1.06,2.83,2.78,2.83Zm8.07,5.45v-14.85h2.67v14.85h-2.67Z"/>
      <path class="cls-1" d="m804.2,102.29l-1.63-2.02c4.46-2.05,7.52-6.35,7.89-10.44h-6.65v-2.23h9.57c-.18,6.19-2.9,11.29-9.17,14.69Zm14.56-6.69v10.39h-2.67v-20.49h2.67v7.86h2.97v2.23h-2.97Z"/>
      <path class="cls-1" d="m822.65,103.44v-2.16h4.14v-3.4l2.69.12v3.29h4.81v-3.29l2.69-.12v3.4h4.19v2.16h-18.51Zm9.27-5.91c-4.48,0-7.45-2.25-7.45-5.38s2.97-5.45,7.45-5.45,7.47,2.3,7.47,5.45-2.97,5.38-7.47,5.38Zm0-8.58c-2.85,0-4.69,1.33-4.69,3.2s1.84,3.17,4.69,3.17,4.71-1.33,4.71-3.17-1.86-3.2-4.71-3.2Z"/>
      <path class="cls-1" d="m844.61,96.96c0-1.59.78-2.23,2.28-3.43.99-.76,1.38-1.31,1.38-2.51,0-1.47-.92-1.95-2.64-1.95-1.33,0-2.07.21-3.01.48v-1.98c1.06-.46,2.23-.69,3.77-.69,2.62,0,4.71,1.1,4.71,3.93,0,1.98-.67,2.69-2.32,3.98-1.17.92-1.77,1.31-1.77,2.37v1.52h-2.39v-1.72Zm-.14,3.93h2.8v2.69h-2.8v-2.69Z"/>
    </g>
    <g>
      <path class="cls-3" d="m682.22,131.99c-3.25.36-6.51.51-10.06.53l-.27-1.5c1.62.02,3.26.02,5.03-.08,2.16-.08,3.86-.2,5.17-.34l.14,1.39Zm-5.44-3.01c-2.21,0-3.88-1.39-3.88-3.45s1.68-3.62,3.88-3.62,3.96,1.5,3.96,3.62-1.73,3.45-3.96,3.45Zm0-5.58c-1.17,0-2.18.85-2.18,2.11s1.02,1.99,2.18,1.99,2.21-.78,2.21-1.99c0-1.31-.99-2.11-2.21-2.11Zm7.89,12.46h-1.73v-15.15h1.73v15.15Z"/>
      <path class="cls-3" d="m696.81,129.98v2.57h3.59v1.39h-13.68v-1.39h3.55v-2.57h-1.8v-4.9h8.43v-1.92h-8.46v-1.39h10.2v4.73h-8.41v2.07h8.86v1.41h-2.26Zm-4.83,2.57h3.11v-2.57h-3.11v2.57Z"/>
      <path class="cls-3" d="m709.63,132.29c-1.41-.78-3.25-2.72-3.72-4.28-.39,1.62-1.9,3.62-3.74,4.62l-1.09-1.29c2.41-1.34,3.93-3.79,3.93-6.83v-.8h-3.16v-1.41h8.04v1.41h-3.08v.8c0,3.08,1.61,5.3,3.82,6.53l-1,1.26Zm3.55-5.64h2.29v1.46h-2.29v7.75h-1.75v-15.15h1.75v5.93Z"/>
      <path class="cls-3" d="m722.14,132.6v-2.79h-6.02v-1.41h13.68v1.41h-5.93v2.79h-1.73Zm-4.25,2.82v-4.28h1.75v2.91h8.57v1.38h-10.32Zm10.1-8.5h-10.06v-5.41h10.06v5.41Zm-1.75-4.01h-6.56v2.62h6.56v-2.62Z"/>
    </g>
    <rect class="cls-1" x="511" y="269.14" width="141" height="141" rx="19.08" ry="19.08"/>
    <g>
      <path class="cls-1" d="m677.15,278.91c3.36,0,5.31,3.01,5.31,7.33s-1.96,7.29-5.31,7.29-5.29-2.99-5.29-7.29,1.95-7.33,5.29-7.33Zm0,2.16c-1.54,0-2.67,1.93-2.67,5.17s1.13,5.13,2.67,5.13,2.74-1.91,2.74-5.13-1.15-5.17-2.74-5.17Zm8.39,16.92v-20.49h2.67v20.49h-2.67Z"/>
      <path class="cls-1" d="m715.74,289.42h-18.51v-2.12h18.51v2.12Zm-2.09-3.27c-2.99-.25-5.98-1.84-7.15-3.82-1.04,2.05-3.93,3.54-7.17,3.82l-1.1-2.07c3.17-.16,5.98-1.45,6.69-3.54h-5.77v-2.14h14.76v2.14h-5.75c.8,2.09,3.91,3.36,6.65,3.5l-1.15,2.12Zm-7.15,11.84c-4.55,0-7.17-1.45-7.17-3.82s2.62-3.77,7.15-3.77,7.17,1.45,7.17,3.77-2.62,3.82-7.15,3.82Zm-.02-5.47c-2.64,0-4.37.64-4.37,1.68s1.72,1.68,4.37,1.68,4.42-.64,4.42-1.68-1.72-1.68-4.42-1.68Z"/>
      <path class="cls-1" d="m727.63,288.54c-1.59-.6-3.7-2.25-4.6-4.14-.62,2.09-2.83,4-4.74,4.67l-1.63-2.14c2.99-1.06,4.97-3.49,4.97-6.58v-1.93h2.76v1.77c0,3.17,2.37,5.47,4.78,6.25l-1.54,2.09Zm-1.29,9.45c-4.42,0-6.99-1.63-6.99-4.14s2.58-4.16,6.99-4.16,7.04,1.59,7.04,4.16-2.58,4.14-7.04,4.14Zm-4.23-4.14c0,1.22,1.56,1.98,4.23,1.98s4.3-.76,4.3-1.98-1.59-2.02-4.3-2.02-4.23.78-4.23,2.02Zm11.04-9.27v4.9h-2.71v-11.98h2.71v4.88h2.92v2.21h-2.92Z"/>
      <path class="cls-1" d="m754.5,285.62l.3,2.07c-1.93.44-5.29.71-9.06.71h-2v-9.36h9.13v2.14h-6.46v5.06c2.99,0,6-.16,8.09-.62Zm-2.21,12.33c-4.42,0-6.99-1.61-6.99-4.09s2.58-4.14,6.99-4.14,7.04,1.59,7.04,4.14-2.58,4.09-7.04,4.09Zm0-6.07c-2.67,0-4.23.76-4.23,1.98s1.56,1.96,4.23,1.96,4.25-.74,4.25-1.96-1.54-1.98-4.25-1.98Zm6.78-7.2v4.81h-2.71v-11.98h2.71v4.99h2.9v2.18h-2.9Z"/>
      <path class="cls-1" d="m762.96,295.42v-2.09h4.64v-4.28h2.69v4.28h3.77v-4.28h2.69v4.28h4.71v2.09h-18.51Zm2.28-7.7v-8.69h2.67v6.58h11.38v2.12h-14.05Z"/>
      <path class="cls-1" d="m789.04,279.02c3.38,0,5.54,2.16,5.54,5.06s-2.16,5.04-5.54,5.04-5.54-2.09-5.54-5.04,2.18-5.06,5.54-5.06Zm-3.01,18.42v-6.55h2.71v4.44h11.5v2.12h-14.21Zm3.01-10.53c1.77,0,2.81-1.2,2.81-2.83s-1.04-2.76-2.81-2.76-2.78,1.2-2.78,2.76,1.06,2.83,2.78,2.83Zm8.07,5.45v-14.86h2.67v14.86h-2.67Z"/>
      <path class="cls-1" d="m804.2,294.29l-1.63-2.02c4.46-2.05,7.52-6.35,7.89-10.44h-6.65v-2.23h9.57c-.18,6.19-2.9,11.29-9.17,14.69Zm14.56-6.69v10.39h-2.67v-20.49h2.67v7.87h2.97v2.23h-2.97Z"/>
      <path class="cls-1" d="m822.65,295.44v-2.16h4.14v-3.4l2.69.12v3.29h4.81v-3.29l2.69-.12v3.4h4.19v2.16h-18.51Zm9.27-5.91c-4.48,0-7.45-2.25-7.45-5.38s2.97-5.45,7.45-5.45,7.47,2.3,7.47,5.45-2.97,5.38-7.47,5.38Zm0-8.58c-2.85,0-4.69,1.33-4.69,3.2s1.84,3.17,4.69,3.17,4.71-1.33,4.71-3.17-1.86-3.2-4.71-3.2Z"/>
      <path class="cls-1" d="m844.61,288.96c0-1.59.78-2.23,2.28-3.43.99-.76,1.38-1.31,1.38-2.51,0-1.47-.92-1.96-2.64-1.96-1.33,0-2.07.21-3.01.48v-1.98c1.06-.46,2.23-.69,3.77-.69,2.62,0,4.71,1.1,4.71,3.93,0,1.98-.67,2.69-2.32,3.98-1.17.92-1.77,1.31-1.77,2.37v1.52h-2.39v-1.72Zm-.14,3.93h2.8v2.69h-2.8v-2.69Z"/>
    </g>
    <g>
      <path class="cls-3" d="m682.22,323.99c-3.25.36-6.51.51-10.06.53l-.27-1.5c1.62.02,3.26.02,5.03-.08,2.16-.08,3.86-.2,5.17-.34l.14,1.39Zm-5.44-3.01c-2.21,0-3.88-1.39-3.88-3.45s1.68-3.62,3.88-3.62,3.96,1.5,3.96,3.62-1.73,3.45-3.96,3.45Zm0-5.58c-1.17,0-2.18.85-2.18,2.11s1.02,1.99,2.18,1.99,2.21-.78,2.21-1.99c0-1.31-.99-2.11-2.21-2.11Zm7.89,12.46h-1.73v-15.15h1.73v15.15Z"/>
      <path class="cls-3" d="m696.81,321.98v2.57h3.59v1.39h-13.68v-1.39h3.55v-2.57h-1.8v-4.9h8.43v-1.92h-8.46v-1.39h10.2v4.73h-8.41v2.07h8.86v1.41h-2.26Zm-4.83,2.57h3.11v-2.57h-3.11v2.57Z"/>
      <path class="cls-3" d="m709.63,324.29c-1.41-.78-3.25-2.72-3.72-4.28-.39,1.62-1.9,3.62-3.74,4.62l-1.09-1.29c2.41-1.34,3.93-3.79,3.93-6.83v-.8h-3.16v-1.41h8.04v1.41h-3.08v.8c0,3.08,1.61,5.3,3.82,6.53l-1,1.26Zm3.55-5.64h2.29v1.46h-2.29v7.75h-1.75v-15.15h1.75v5.93Z"/>
      <path class="cls-3" d="m722.14,324.6v-2.79h-6.02v-1.41h13.68v1.41h-5.93v2.79h-1.73Zm-4.25,2.82v-4.28h1.75v2.91h8.57v1.38h-10.32Zm10.1-8.5h-10.06v-5.41h10.06v5.41Zm-1.75-4.01h-6.56v2.62h6.56v-2.62Z"/>
    </g>
    <g>
      <path class="cls-2" d="m163.45,153.47l-1.56.02v-9.74h1.72v8.26c1.97,0,4.61-.19,6.32-.65l.24,1.43c-1.82.44-4.81.66-6.71.68Zm9.57-3.98v7.85h-1.73v-15.15h1.73v5.85h2.35v1.44h-2.35Z"/>
      <path class="cls-2" d="m180.3,143.38c2.43,0,3.84,2.11,3.84,5.32s-1.41,5.29-3.84,5.29-3.88-2.11-3.88-5.3,1.44-5.3,3.88-5.3Zm0,1.43c-1.27,0-2.16,1.45-2.16,3.88s.88,3.89,2.16,3.89,2.19-1.46,2.19-3.89-.9-3.88-2.19-3.88Zm6.41,12.54v-15.15h1.73v15.15h-1.73Z"/>
      <path class="cls-2" d="m195.91,153.46v-10.01h1.75v3.69h3.62v-3.71h1.77v10.03h-7.14Zm5.37-4.95h-3.62v3.54h3.62v-3.54Zm4.61,8.84v-15.15h1.73v15.15h-1.73Z"/>
      <path class="cls-2" d="m209.86,150.29v-1.38h5.32v-2.7h1.75v2.7h6.61v1.38h-13.68Zm6.73,7.04c-3.37,0-5.29-1.12-5.29-2.86s1.92-2.87,5.29-2.87,5.25,1.12,5.25,2.87-1.89,2.86-5.25,2.86Zm4.73-9.21l-1.68-.24c.29-1.14.42-2.52.39-3.69h-8.55v-1.39h10.3c.05,1.79-.12,3.86-.46,5.32Zm-8.21,6.36c0,.97,1.34,1.46,3.48,1.46s3.47-.49,3.47-1.46-1.34-1.46-3.47-1.46-3.48.51-3.48,1.46Z"/>
      <path class="cls-2" d="m225.45,154.29l-1.12-1.21c3.01-1.79,4.74-4.59,4.95-7.63h-4.11v-1.43h5.85c-.03,4.54-1.92,7.87-5.56,10.27Zm10.22,3.06v-7.67h-1.51v6.95h-1.65v-14.13h1.65v5.71h1.51v-6.02h1.67v15.15h-1.67Z"/>
      <path class="cls-2" d="m242.86,142.64h1.5l-4.05,14.41h-1.5l4.05-14.41Z"/>
      <path class="cls-2" d="m253.14,150.43c-1.24-.53-2.79-1.77-3.45-3.23-.46,1.56-2.04,3.01-3.57,3.6l-1.05-1.34c2.18-.87,3.72-2.69,3.72-5.03v-1.51h1.78v1.45c0,2.36,1.85,4.11,3.57,4.71l-1,1.36Zm-.49,6.92c-3.26,0-5.13-1.21-5.13-2.99s1.87-3.03,5.13-3.03,5.17,1.21,5.17,3.03-1.87,2.99-5.17,2.99Zm0-4.61c-2.09,0-3.33.61-3.33,1.62s1.24,1.6,3.33,1.6,3.37-.61,3.37-1.6-1.22-1.62-3.37-1.62Zm3.3-1.63v-4.28h-2.77v-1.43h2.77v-3.2h1.73v8.91h-1.73Z"/>
      <path class="cls-2" d="m260.45,149.44v-6.58h1.75v1.99h3.52v-2.02h1.75v6.61h-7.02Zm5.27-3.2h-3.52v1.78h3.52v-1.78Zm-3.2,10.98v-3.96h8.12v-1.19h-8.19v-1.41h9.93v3.91h-8.11v1.27h8.6v1.38h-10.35Zm8.11-7.29v-1.62h-2.4v-1.34h2.4v-1.51h-2.4v-1.34h2.4v-1.92h1.73v7.73h-1.73Z"/>
      <path class="cls-2" d="m279.83,153.46v-10.01h1.75v3.69h3.62v-3.71h1.77v10.03h-7.14Zm5.37-4.95h-3.62v3.54h3.62v-3.54Zm4.61,8.84v-15.15h1.73v15.15h-1.73Z"/>
      <path class="cls-2" d="m293.79,150.29v-1.38h5.32v-2.7h1.75v2.7h6.61v1.38h-13.68Zm6.73,7.04c-3.37,0-5.29-1.12-5.29-2.86s1.92-2.87,5.29-2.87,5.25,1.12,5.25,2.87-1.89,2.86-5.25,2.86Zm4.73-9.21l-1.68-.24c.29-1.14.42-2.52.39-3.69h-8.55v-1.39h10.3c.05,1.79-.12,3.86-.46,5.32Zm-8.21,6.36c0,.97,1.34,1.46,3.48,1.46s3.47-.49,3.47-1.46-1.34-1.46-3.47-1.46-3.48.51-3.48,1.46Z"/>
      <path class="cls-2" d="m309.38,154.29l-1.12-1.21c3.01-1.79,4.74-4.59,4.95-7.63h-4.11v-1.43h5.85c-.03,4.54-1.92,7.87-5.56,10.27Zm10.22,3.06v-7.67h-1.51v6.95h-1.65v-14.13h1.65v5.71h1.51v-6.02h1.67v15.15h-1.67Z"/>
    </g>
    <g>
      <path class="cls-2" d="m163.45,345.47l-1.56.02v-9.74h1.72v8.26c1.97,0,4.61-.19,6.32-.65l.24,1.43c-1.82.44-4.81.66-6.71.68Zm9.57-3.98v7.85h-1.73v-15.15h1.73v5.85h2.35v1.44h-2.35Z"/>
      <path class="cls-2" d="m180.3,335.38c2.43,0,3.84,2.11,3.84,5.32s-1.41,5.29-3.84,5.29-3.88-2.11-3.88-5.3,1.44-5.3,3.88-5.3Zm0,1.43c-1.27,0-2.16,1.45-2.16,3.88s.88,3.89,2.16,3.89,2.19-1.46,2.19-3.89-.9-3.88-2.19-3.88Zm6.41,12.54v-15.15h1.73v15.15h-1.73Z"/>
      <path class="cls-2" d="m195.91,345.46v-10.01h1.75v3.69h3.62v-3.71h1.77v10.03h-7.14Zm5.37-4.95h-3.62v3.54h3.62v-3.54Zm4.61,8.84v-15.15h1.73v15.15h-1.73Z"/>
      <path class="cls-2" d="m209.86,342.29v-1.38h5.32v-2.7h1.75v2.7h6.61v1.38h-13.68Zm6.73,7.04c-3.37,0-5.29-1.12-5.29-2.86s1.92-2.87,5.29-2.87,5.25,1.12,5.25,2.87-1.89,2.86-5.25,2.86Zm4.73-9.21l-1.68-.24c.29-1.14.42-2.52.39-3.69h-8.55v-1.39h10.3c.05,1.79-.12,3.86-.46,5.32Zm-8.21,6.36c0,.97,1.34,1.46,3.48,1.46s3.47-.49,3.47-1.46-1.34-1.46-3.47-1.46-3.48.51-3.48,1.46Z"/>
      <path class="cls-2" d="m225.45,346.29l-1.12-1.21c3.01-1.79,4.74-4.59,4.95-7.63h-4.11v-1.43h5.85c-.03,4.54-1.92,7.87-5.56,10.27Zm10.22,3.06v-7.67h-1.51v6.95h-1.65v-14.13h1.65v5.71h1.51v-6.02h1.67v15.15h-1.67Z"/>
      <path class="cls-2" d="m242.86,334.64h1.5l-4.05,14.41h-1.5l4.05-14.41Z"/>
      <path class="cls-2" d="m253.14,342.43c-1.24-.53-2.79-1.77-3.45-3.23-.46,1.56-2.04,3.01-3.57,3.6l-1.05-1.34c2.18-.87,3.72-2.69,3.72-5.03v-1.51h1.78v1.45c0,2.36,1.85,4.11,3.57,4.71l-1,1.36Zm-.49,6.92c-3.26,0-5.13-1.21-5.13-2.99s1.87-3.03,5.13-3.03,5.17,1.21,5.17,3.03-1.87,2.99-5.17,2.99Zm0-4.61c-2.09,0-3.33.61-3.33,1.62s1.24,1.6,3.33,1.6,3.37-.61,3.37-1.6-1.22-1.62-3.37-1.62Zm3.3-1.63v-4.28h-2.77v-1.43h2.77v-3.2h1.73v8.91h-1.73Z"/>
      <path class="cls-2" d="m260.45,341.44v-6.58h1.75v1.99h3.52v-2.02h1.75v6.61h-7.02Zm5.27-3.2h-3.52v1.78h3.52v-1.78Zm-3.2,10.98v-3.96h8.12v-1.19h-8.19v-1.41h9.93v3.91h-8.11v1.27h8.6v1.38h-10.35Zm8.11-7.29v-1.62h-2.4v-1.34h2.4v-1.51h-2.4v-1.34h2.4v-1.92h1.73v7.73h-1.73Z"/>
      <path class="cls-2" d="m279.83,345.46v-10.01h1.75v3.69h3.62v-3.71h1.77v10.03h-7.14Zm5.37-4.95h-3.62v3.54h3.62v-3.54Zm4.61,8.84v-15.15h1.73v15.15h-1.73Z"/>
      <path class="cls-2" d="m293.79,342.29v-1.38h5.32v-2.7h1.75v2.7h6.61v1.38h-13.68Zm6.73,7.04c-3.37,0-5.29-1.12-5.29-2.86s1.92-2.87,5.29-2.87,5.25,1.12,5.25,2.87-1.89,2.86-5.25,2.86Zm4.73-9.21l-1.68-.24c.29-1.14.42-2.52.39-3.69h-8.55v-1.39h10.3c.05,1.79-.12,3.86-.46,5.32Zm-8.21,6.36c0,.97,1.34,1.46,3.48,1.46s3.47-.49,3.47-1.46-1.34-1.46-3.47-1.46-3.48.51-3.48,1.46Z"/>
      <path class="cls-2" d="m309.38,346.29l-1.12-1.21c3.01-1.79,4.74-4.59,4.95-7.63h-4.11v-1.43h5.85c-.03,4.54-1.92,7.87-5.56,10.27Zm10.22,3.06v-7.67h-1.51v6.95h-1.65v-14.13h1.65v5.71h1.51v-6.02h1.67v15.15h-1.67Z"/>
    </g>
    <g>
      <path class="cls-2" d="m674.45,154.47l-1.56.02v-9.74h1.72v8.26c1.97,0,4.61-.19,6.32-.65l.24,1.43c-1.82.44-4.81.66-6.71.68Zm9.57-3.98v7.85h-1.73v-15.15h1.73v5.85h2.35v1.44h-2.35Z"/>
      <path class="cls-2" d="m691.3,144.38c2.43,0,3.84,2.11,3.84,5.32s-1.41,5.29-3.84,5.29-3.88-2.11-3.88-5.3,1.45-5.3,3.88-5.3Zm0,1.43c-1.28,0-2.16,1.45-2.16,3.88s.88,3.89,2.16,3.89,2.19-1.46,2.19-3.89-.9-3.88-2.19-3.88Zm6.41,12.54v-15.15h1.73v15.15h-1.73Z"/>
      <path class="cls-2" d="m706.91,154.46v-10.01h1.75v3.69h3.62v-3.71h1.77v10.03h-7.14Zm5.37-4.95h-3.62v3.54h3.62v-3.54Zm4.61,8.84v-15.15h1.73v15.15h-1.73Z"/>
      <path class="cls-2" d="m720.86,151.29v-1.38h5.32v-2.7h1.75v2.7h6.61v1.38h-13.68Zm6.73,7.04c-3.37,0-5.29-1.12-5.29-2.86s1.92-2.87,5.29-2.87,5.25,1.12,5.25,2.87-1.89,2.86-5.25,2.86Zm4.73-9.21l-1.68-.24c.29-1.14.42-2.52.39-3.69h-8.55v-1.39h10.3c.05,1.79-.12,3.86-.46,5.32Zm-8.21,6.36c0,.97,1.34,1.46,3.48,1.46s3.47-.49,3.47-1.46-1.34-1.46-3.47-1.46-3.48.51-3.48,1.46Z"/>
      <path class="cls-2" d="m736.45,155.29l-1.12-1.21c3.01-1.79,4.74-4.59,4.95-7.63h-4.11v-1.43h5.85c-.03,4.54-1.92,7.87-5.56,10.27Zm10.22,3.06v-7.67h-1.51v6.95h-1.65v-14.13h1.65v5.71h1.51v-6.02h1.67v15.15h-1.67Z"/>
      <path class="cls-2" d="m753.86,143.64h1.5l-4.05,14.41h-1.5l4.05-14.41Z"/>
      <path class="cls-2" d="m764.14,151.43c-1.24-.53-2.79-1.77-3.45-3.23-.46,1.56-2.04,3.01-3.57,3.6l-1.05-1.34c2.18-.87,3.72-2.69,3.72-5.03v-1.51h1.79v1.45c0,2.36,1.85,4.11,3.57,4.71l-1,1.36Zm-.49,6.92c-3.26,0-5.13-1.21-5.13-2.99s1.87-3.03,5.13-3.03,5.17,1.21,5.17,3.03-1.87,2.99-5.17,2.99Zm0-4.61c-2.09,0-3.33.61-3.33,1.62s1.24,1.6,3.33,1.6,3.37-.61,3.37-1.6-1.22-1.62-3.37-1.62Zm3.3-1.63v-4.28h-2.77v-1.43h2.77v-3.2h1.73v8.91h-1.73Z"/>
      <path class="cls-2" d="m771.45,150.44v-6.58h1.75v1.99h3.52v-2.02h1.75v6.61h-7.02Zm5.27-3.2h-3.52v1.78h3.52v-1.78Zm-3.2,10.98v-3.96h8.12v-1.19h-8.19v-1.41h9.93v3.91h-8.11v1.27h8.6v1.38h-10.35Zm8.11-7.29v-1.62h-2.4v-1.34h2.4v-1.51h-2.4v-1.34h2.4v-1.92h1.73v7.73h-1.73Z"/>
      <path class="cls-2" d="m790.83,154.46v-10.01h1.75v3.69h3.62v-3.71h1.77v10.03h-7.14Zm5.37-4.95h-3.62v3.54h3.62v-3.54Zm4.61,8.84v-15.15h1.73v15.15h-1.73Z"/>
      <path class="cls-2" d="m804.79,151.29v-1.38h5.32v-2.7h1.75v2.7h6.61v1.38h-13.68Zm6.73,7.04c-3.37,0-5.29-1.12-5.29-2.86s1.92-2.87,5.29-2.87,5.25,1.12,5.25,2.87-1.89,2.86-5.25,2.86Zm4.73-9.21l-1.68-.24c.29-1.14.42-2.52.39-3.69h-8.55v-1.39h10.3c.05,1.79-.12,3.86-.46,5.32Zm-8.21,6.36c0,.97,1.34,1.46,3.48,1.46s3.47-.49,3.47-1.46-1.34-1.46-3.47-1.46-3.48.51-3.48,1.46Z"/>
      <path class="cls-2" d="m820.38,155.29l-1.12-1.21c3.01-1.79,4.74-4.59,4.95-7.63h-4.11v-1.43h5.85c-.03,4.54-1.92,7.87-5.56,10.27Zm10.22,3.06v-7.67h-1.51v6.95h-1.65v-14.13h1.65v5.71h1.51v-6.02h1.67v15.15h-1.67Z"/>
    </g>
    <g>
      <path class="cls-2" d="m674.45,346.47l-1.56.02v-9.74h1.72v8.26c1.97,0,4.61-.19,6.32-.65l.24,1.43c-1.82.44-4.81.66-6.71.68Zm9.57-3.98v7.85h-1.73v-15.15h1.73v5.85h2.35v1.44h-2.35Z"/>
      <path class="cls-2" d="m691.3,336.38c2.43,0,3.84,2.11,3.84,5.32s-1.41,5.29-3.84,5.29-3.88-2.11-3.88-5.3,1.45-5.3,3.88-5.3Zm0,1.43c-1.28,0-2.16,1.45-2.16,3.88s.88,3.89,2.16,3.89,2.19-1.46,2.19-3.89-.9-3.88-2.19-3.88Zm6.41,12.54v-15.15h1.73v15.15h-1.73Z"/>
      <path class="cls-2" d="m706.91,346.46v-10.01h1.75v3.69h3.62v-3.71h1.77v10.03h-7.14Zm5.37-4.95h-3.62v3.54h3.62v-3.54Zm4.61,8.84v-15.15h1.73v15.15h-1.73Z"/>
      <path class="cls-2" d="m720.86,343.29v-1.38h5.32v-2.7h1.75v2.7h6.61v1.38h-13.68Zm6.73,7.04c-3.37,0-5.29-1.12-5.29-2.86s1.92-2.87,5.29-2.87,5.25,1.12,5.25,2.87-1.89,2.86-5.25,2.86Zm4.73-9.21l-1.68-.24c.29-1.14.42-2.52.39-3.69h-8.55v-1.39h10.3c.05,1.79-.12,3.86-.46,5.32Zm-8.21,6.36c0,.97,1.34,1.46,3.48,1.46s3.47-.49,3.47-1.46-1.34-1.46-3.47-1.46-3.48.51-3.48,1.46Z"/>
      <path class="cls-2" d="m736.45,347.29l-1.12-1.21c3.01-1.79,4.74-4.59,4.95-7.63h-4.11v-1.43h5.85c-.03,4.54-1.92,7.87-5.56,10.27Zm10.22,3.06v-7.67h-1.51v6.95h-1.65v-14.13h1.65v5.71h1.51v-6.02h1.67v15.15h-1.67Z"/>
      <path class="cls-2" d="m753.86,335.64h1.5l-4.05,14.41h-1.5l4.05-14.41Z"/>
      <path class="cls-2" d="m764.14,343.43c-1.24-.53-2.79-1.77-3.45-3.23-.46,1.56-2.04,3.01-3.57,3.6l-1.05-1.34c2.18-.87,3.72-2.69,3.72-5.03v-1.51h1.79v1.45c0,2.36,1.85,4.11,3.57,4.71l-1,1.36Zm-.49,6.92c-3.26,0-5.13-1.21-5.13-2.99s1.87-3.03,5.13-3.03,5.17,1.21,5.17,3.03-1.87,2.99-5.17,2.99Zm0-4.61c-2.09,0-3.33.61-3.33,1.62s1.24,1.6,3.33,1.6,3.37-.61,3.37-1.6-1.22-1.62-3.37-1.62Zm3.3-1.63v-4.28h-2.77v-1.43h2.77v-3.2h1.73v8.91h-1.73Z"/>
      <path class="cls-2" d="m771.45,342.44v-6.58h1.75v1.99h3.52v-2.02h1.75v6.61h-7.02Zm5.27-3.2h-3.52v1.78h3.52v-1.78Zm-3.2,10.98v-3.96h8.12v-1.19h-8.19v-1.41h9.93v3.91h-8.11v1.27h8.6v1.38h-10.35Zm8.11-7.29v-1.62h-2.4v-1.34h2.4v-1.51h-2.4v-1.34h2.4v-1.92h1.73v7.73h-1.73Z"/>
      <path class="cls-2" d="m790.83,346.46v-10.01h1.75v3.69h3.62v-3.71h1.77v10.03h-7.14Zm5.37-4.95h-3.62v3.54h3.62v-3.54Zm4.61,8.84v-15.15h1.73v15.15h-1.73Z"/>
      <path class="cls-2" d="m804.79,343.29v-1.38h5.32v-2.7h1.75v2.7h6.61v1.38h-13.68Zm6.73,7.04c-3.37,0-5.29-1.12-5.29-2.86s1.92-2.87,5.29-2.87,5.25,1.12,5.25,2.87-1.89,2.86-5.25,2.86Zm4.73-9.21l-1.68-.24c.29-1.14.42-2.52.39-3.69h-8.55v-1.39h10.3c.05,1.79-.12,3.86-.46,5.32Zm-8.21,6.36c0,.97,1.34,1.46,3.48,1.46s3.47-.49,3.47-1.46-1.34-1.46-3.47-1.46-3.48.51-3.48,1.46Z"/>
      <path class="cls-2" d="m820.38,347.29l-1.12-1.21c3.01-1.79,4.74-4.59,4.95-7.63h-4.11v-1.43h5.85c-.03,4.54-1.92,7.87-5.56,10.27Zm10.22,3.06v-7.67h-1.51v6.95h-1.65v-14.13h1.65v5.71h1.51v-6.02h1.67v15.15h-1.67Z"/>
    </g>
    <rect class="cls-1" y="461.14" width="141" height="141" rx="19.08" ry="19.08"/>
    <g>
      <path class="cls-1" d="m161.12,480.01v-8.99h9.47v8.99h-9.47Zm9.2,9.98c-4.42,0-6.97-1.63-6.97-4.14s2.55-4.16,6.97-4.16,7.06,1.59,7.06,4.16-2.58,4.14-7.06,4.14Zm-2.37-16.88h-4.16v4.78h4.16v-4.78Zm-1.86,12.74c0,1.22,1.59,1.98,4.23,1.98s4.28-.76,4.28-1.98-1.54-2.02-4.28-2.02-4.23.78-4.23,2.02Zm5.54-9.52v-2.16h2.92v-4.67h2.67v11.96h-2.67v-5.13h-2.92Z"/>
      <path class="cls-1" d="m186.05,470.91c3.36,0,5.31,3.01,5.31,7.33s-1.95,7.29-5.31,7.29-5.29-2.99-5.29-7.29,1.95-7.33,5.29-7.33Zm0,2.16c-1.54,0-2.67,1.93-2.67,5.17s1.13,5.13,2.67,5.13,2.74-1.91,2.74-5.13-1.15-5.17-2.74-5.17Zm8.39,16.92v-20.49h2.67v20.49h-2.67Z"/>
      <path class="cls-1" d="m206.38,470.61h10.78v2.21h-3.82c.41,2.53,2.35,4.05,4.48,4.71l-1.47,2.12c-1.56-.55-3.56-2.18-4.46-3.93-.6,1.98-2.76,3.82-4.74,4.51l-1.59-2.07c2.67-.99,4.51-2.74,4.85-5.33h-4.05v-2.21Zm2.39,19.22v-5.45h10.67v-1.33h-10.81v-2.14h13.52v5.45h-10.72v1.31h11.31v2.16h-13.98Zm13.38-13.91v3.93h-2.71v-10.35h2.71v4.21h2.92v2.21h-2.92Z"/>
      <path class="cls-1" d="m232.07,479.83v-2.16h18.51v2.16h-18.51Zm2.37,10.07v-5.33h11.01v-1.24h-11.15v-2.12h13.84v5.29h-11.04v1.2h11.77v2.21h-14.44Zm.09-13.5v-6.55h13.73v2.14h-11.04v2.28h11.2v2.14h-13.89Z"/>
      <path class="cls-1" d="m257.39,470.91c3.04,0,4.9,2.46,5.22,6.12h3.61v-7.52h2.69v20.49h-2.69v-10.69h-3.59c-.3,3.7-2.18,6.23-5.24,6.23-3.33,0-5.29-2.99-5.29-7.29s1.95-7.33,5.29-7.33Zm0,2.16c-1.54,0-2.67,1.93-2.67,5.17s1.13,5.13,2.67,5.13,2.71-1.91,2.71-5.13-1.13-5.17-2.71-5.17Z"/>
      <path class="cls-1" d="m271.86,487.44v-2.16h4.14v-3.4l2.69.12v3.29h4.81v-3.29l2.69-.12v3.4h4.19v2.16h-18.51Zm9.27-5.91c-4.48,0-7.45-2.25-7.45-5.38s2.97-5.45,7.45-5.45,7.47,2.3,7.47,5.45-2.97,5.38-7.47,5.38Zm0-8.58c-2.85,0-4.69,1.33-4.69,3.2s1.84,3.17,4.69,3.17,4.71-1.33,4.71-3.17-1.86-3.2-4.71-3.2Z"/>
    </g>
    <g>
      <path class="cls-3" d="m161.01,517.96v-1.41h5.95v-3.72h1.73v3.72h6v1.41h-13.68Zm12.34-5.03c-2.26-.58-4.73-2.29-5.51-4.16-.7,1.89-3.21,3.62-5.51,4.16l-.85-1.41c2.48-.39,5.47-2.43,5.47-5.03v-.9h1.82v.9c0,2.57,3.2,4.67,5.47,5.1l-.9,1.34Z"/>
      <path class="cls-3" d="m175.71,517.96v-1.41h5.95v-3.72h1.73v3.72h6v1.41h-13.68Zm12.34-5.03c-2.26-.58-4.73-2.29-5.51-4.16-.7,1.89-3.21,3.62-5.51,4.16l-.85-1.41c2.48-.39,5.47-2.43,5.47-5.03v-.9h1.82v.9c0,2.57,3.2,4.67,5.47,5.1l-.9,1.34Z"/>
      <path class="cls-3" d="m190.42,517.65v-1.41h5.12v-5.18h1.73v5.18h6.83v1.41h-13.68Zm11.32-2.99l-1.67-.25c.44-1.97.58-4.79.58-6.83h-8.65v-1.41h10.4c0,2.62-.05,5.98-.66,8.5Z"/>
      <path class="cls-3" d="m205.89,513v-7.07h7.04v7.07h-7.04Zm1.72,6.43v-4.79h1.73v3.4h8.57v1.39h-10.3Zm3.57-12.12h-3.54v4.32h3.54v-4.32Zm4.67,8.4v-10.98h1.73v10.98h-1.73Z"/>
    </g>
    <rect class="cls-1" x="511" y="462.14" width="141" height="141" rx="19.08" ry="19.08"/>
    <g>
      <path class="cls-1" d="m677.15,471.91c3.36,0,5.31,3.01,5.31,7.33s-1.96,7.29-5.31,7.29-5.29-2.99-5.29-7.29,1.95-7.33,5.29-7.33Zm0,2.16c-1.54,0-2.67,1.93-2.67,5.17s1.13,5.13,2.67,5.13,2.74-1.91,2.74-5.13-1.15-5.17-2.74-5.17Zm8.39,16.92v-20.49h2.67v20.49h-2.67Z"/>
      <path class="cls-1" d="m715.74,482.42h-18.51v-2.12h18.51v2.12Zm-2.09-3.27c-2.99-.25-5.98-1.84-7.15-3.82-1.04,2.05-3.93,3.54-7.17,3.82l-1.1-2.07c3.17-.16,5.98-1.45,6.69-3.54h-5.77v-2.14h14.76v2.14h-5.75c.8,2.09,3.91,3.36,6.65,3.5l-1.15,2.12Zm-7.15,11.84c-4.55,0-7.17-1.45-7.17-3.82s2.62-3.77,7.15-3.77,7.17,1.45,7.17,3.77-2.62,3.82-7.15,3.82Zm-.02-5.47c-2.64,0-4.37.64-4.37,1.68s1.72,1.68,4.37,1.68,4.42-.64,4.42-1.68-1.72-1.68-4.42-1.68Z"/>
      <path class="cls-1" d="m727.63,481.54c-1.59-.6-3.7-2.25-4.6-4.14-.62,2.09-2.83,4-4.74,4.67l-1.63-2.14c2.99-1.06,4.97-3.49,4.97-6.58v-1.93h2.76v1.77c0,3.17,2.37,5.47,4.78,6.25l-1.54,2.09Zm-1.29,9.45c-4.42,0-6.99-1.63-6.99-4.14s2.58-4.16,6.99-4.16,7.04,1.59,7.04,4.16-2.58,4.14-7.04,4.14Zm-4.23-4.14c0,1.22,1.56,1.98,4.23,1.98s4.3-.76,4.3-1.98-1.59-2.02-4.3-2.02-4.23.78-4.23,2.02Zm11.04-9.27v4.9h-2.71v-11.98h2.71v4.88h2.92v2.21h-2.92Z"/>
      <path class="cls-1" d="m754.5,478.62l.3,2.07c-1.93.44-5.29.71-9.06.71h-2v-9.36h9.13v2.14h-6.46v5.06c2.99,0,6-.16,8.09-.62Zm-2.21,12.33c-4.42,0-6.99-1.61-6.99-4.09s2.58-4.14,6.99-4.14,7.04,1.59,7.04,4.14-2.58,4.09-7.04,4.09Zm0-6.07c-2.67,0-4.23.76-4.23,1.98s1.56,1.96,4.23,1.96,4.25-.74,4.25-1.96-1.54-1.98-4.25-1.98Zm6.78-7.2v4.81h-2.71v-11.98h2.71v4.99h2.9v2.18h-2.9Z"/>
      <path class="cls-1" d="m762.96,488.42v-2.09h4.64v-4.28h2.69v4.28h3.77v-4.28h2.69v4.28h4.71v2.09h-18.51Zm2.28-7.7v-8.69h2.67v6.58h11.38v2.12h-14.05Z"/>
      <path class="cls-1" d="m789.04,472.02c3.38,0,5.54,2.16,5.54,5.06s-2.16,5.04-5.54,5.04-5.54-2.09-5.54-5.04,2.18-5.06,5.54-5.06Zm-3.01,18.42v-6.55h2.71v4.44h11.5v2.12h-14.21Zm3.01-10.53c1.77,0,2.81-1.2,2.81-2.83s-1.04-2.76-2.81-2.76-2.78,1.2-2.78,2.76,1.06,2.83,2.78,2.83Zm8.07,5.45v-14.86h2.67v14.86h-2.67Z"/>
      <path class="cls-1" d="m804.2,487.29l-1.63-2.02c4.46-2.05,7.52-6.35,7.89-10.44h-6.65v-2.23h9.57c-.18,6.19-2.9,11.29-9.17,14.69Zm14.56-6.69v10.39h-2.67v-20.49h2.67v7.87h2.97v2.23h-2.97Z"/>
      <path class="cls-1" d="m822.65,488.44v-2.16h4.14v-3.4l2.69.12v3.29h4.81v-3.29l2.69-.12v3.4h4.19v2.16h-18.51Zm9.27-5.91c-4.48,0-7.45-2.25-7.45-5.38s2.97-5.45,7.45-5.45,7.47,2.3,7.47,5.45-2.97,5.38-7.47,5.38Zm0-8.58c-2.85,0-4.69,1.33-4.69,3.2s1.84,3.17,4.69,3.17,4.71-1.33,4.71-3.17-1.86-3.2-4.71-3.2Z"/>
      <path class="cls-1" d="m844.61,481.96c0-1.59.78-2.23,2.28-3.43.99-.76,1.38-1.31,1.38-2.51,0-1.47-.92-1.96-2.64-1.96-1.33,0-2.07.21-3.01.48v-1.98c1.06-.46,2.23-.69,3.77-.69,2.62,0,4.71,1.1,4.71,3.93,0,1.98-.67,2.69-2.32,3.98-1.17.92-1.77,1.31-1.77,2.37v1.52h-2.39v-1.72Zm-.14,3.93h2.8v2.69h-2.8v-2.69Z"/>
    </g>
    <g>
      <path class="cls-3" d="m682.22,516.99c-3.25.36-6.51.51-10.06.53l-.27-1.5c1.62.02,3.26.02,5.03-.08,2.16-.08,3.86-.2,5.17-.34l.14,1.39Zm-5.44-3.01c-2.21,0-3.88-1.39-3.88-3.45s1.68-3.62,3.88-3.62,3.96,1.5,3.96,3.62-1.73,3.45-3.96,3.45Zm0-5.58c-1.17,0-2.18.85-2.18,2.11s1.02,1.99,2.18,1.99,2.21-.78,2.21-1.99c0-1.31-.99-2.11-2.21-2.11Zm7.89,12.46h-1.73v-15.15h1.73v15.15Z"/>
      <path class="cls-3" d="m696.81,514.98v2.57h3.59v1.39h-13.68v-1.39h3.55v-2.57h-1.8v-4.9h8.43v-1.92h-8.46v-1.39h10.2v4.73h-8.41v2.07h8.86v1.41h-2.26Zm-4.83,2.57h3.11v-2.57h-3.11v2.57Z"/>
      <path class="cls-3" d="m709.63,517.29c-1.41-.78-3.25-2.72-3.72-4.28-.39,1.62-1.9,3.62-3.74,4.62l-1.09-1.29c2.41-1.34,3.93-3.79,3.93-6.83v-.8h-3.16v-1.41h8.04v1.41h-3.08v.8c0,3.08,1.61,5.3,3.82,6.53l-1,1.26Zm3.55-5.64h2.29v1.46h-2.29v7.75h-1.75v-15.15h1.75v5.93Z"/>
      <path class="cls-3" d="m722.14,517.6v-2.79h-6.02v-1.41h13.68v1.41h-5.93v2.79h-1.73Zm-4.25,2.82v-4.28h1.75v2.91h8.57v1.38h-10.32Zm10.1-8.5h-10.06v-5.41h10.06v5.41Zm-1.75-4.01h-6.56v2.62h6.56v-2.62Z"/>
    </g>
    <g>
      <path class="cls-2" d="m163.45,538.47l-1.56.02v-9.74h1.72v8.26c1.97,0,4.61-.19,6.32-.65l.24,1.43c-1.82.44-4.81.66-6.71.68Zm9.57-3.98v7.85h-1.73v-15.15h1.73v5.85h2.35v1.44h-2.35Z"/>
      <path class="cls-2" d="m180.3,528.38c2.43,0,3.84,2.11,3.84,5.32s-1.41,5.29-3.84,5.29-3.88-2.11-3.88-5.3,1.44-5.3,3.88-5.3Zm0,1.43c-1.27,0-2.16,1.45-2.16,3.88s.88,3.89,2.16,3.89,2.19-1.46,2.19-3.89-.9-3.88-2.19-3.88Zm6.41,12.54v-15.15h1.73v15.15h-1.73Z"/>
      <path class="cls-2" d="m195.91,538.46v-10.01h1.75v3.69h3.62v-3.71h1.77v10.03h-7.14Zm5.37-4.95h-3.62v3.54h3.62v-3.54Zm4.61,8.84v-15.15h1.73v15.15h-1.73Z"/>
      <path class="cls-2" d="m209.86,535.29v-1.38h5.32v-2.7h1.75v2.7h6.61v1.38h-13.68Zm6.73,7.04c-3.37,0-5.29-1.12-5.29-2.86s1.92-2.87,5.29-2.87,5.25,1.12,5.25,2.87-1.89,2.86-5.25,2.86Zm4.73-9.21l-1.68-.24c.29-1.14.42-2.52.39-3.69h-8.55v-1.39h10.3c.05,1.79-.12,3.86-.46,5.32Zm-8.21,6.36c0,.97,1.34,1.46,3.48,1.46s3.47-.49,3.47-1.46-1.34-1.46-3.47-1.46-3.48.51-3.48,1.46Z"/>
      <path class="cls-2" d="m225.45,539.29l-1.12-1.21c3.01-1.79,4.74-4.59,4.95-7.63h-4.11v-1.43h5.85c-.03,4.54-1.92,7.87-5.56,10.27Zm10.22,3.06v-7.67h-1.51v6.95h-1.65v-14.13h1.65v5.71h1.51v-6.02h1.67v15.15h-1.67Z"/>
      <path class="cls-2" d="m242.86,527.64h1.5l-4.05,14.41h-1.5l4.05-14.41Z"/>
      <path class="cls-2" d="m253.14,535.43c-1.24-.53-2.79-1.77-3.45-3.23-.46,1.56-2.04,3.01-3.57,3.6l-1.05-1.34c2.18-.87,3.72-2.69,3.72-5.03v-1.51h1.78v1.45c0,2.36,1.85,4.11,3.57,4.71l-1,1.36Zm-.49,6.92c-3.26,0-5.13-1.21-5.13-2.99s1.87-3.03,5.13-3.03,5.17,1.21,5.17,3.03-1.87,2.99-5.17,2.99Zm0-4.61c-2.09,0-3.33.61-3.33,1.62s1.24,1.6,3.33,1.6,3.37-.61,3.37-1.6-1.22-1.62-3.37-1.62Zm3.3-1.63v-4.28h-2.77v-1.43h2.77v-3.2h1.73v8.91h-1.73Z"/>
      <path class="cls-2" d="m260.45,534.44v-6.58h1.75v1.99h3.52v-2.02h1.75v6.61h-7.02Zm5.27-3.2h-3.52v1.78h3.52v-1.78Zm-3.2,10.98v-3.96h8.12v-1.19h-8.19v-1.41h9.93v3.91h-8.11v1.27h8.6v1.38h-10.35Zm8.11-7.29v-1.62h-2.4v-1.34h2.4v-1.51h-2.4v-1.34h2.4v-1.92h1.73v7.73h-1.73Z"/>
      <path class="cls-2" d="m279.83,538.46v-10.01h1.75v3.69h3.62v-3.71h1.77v10.03h-7.14Zm5.37-4.95h-3.62v3.54h3.62v-3.54Zm4.61,8.84v-15.15h1.73v15.15h-1.73Z"/>
      <path class="cls-2" d="m293.79,535.29v-1.38h5.32v-2.7h1.75v2.7h6.61v1.38h-13.68Zm6.73,7.04c-3.37,0-5.29-1.12-5.29-2.86s1.92-2.87,5.29-2.87,5.25,1.12,5.25,2.87-1.89,2.86-5.25,2.86Zm4.73-9.21l-1.68-.24c.29-1.14.42-2.52.39-3.69h-8.55v-1.39h10.3c.05,1.79-.12,3.86-.46,5.32Zm-8.21,6.36c0,.97,1.34,1.46,3.48,1.46s3.47-.49,3.47-1.46-1.34-1.46-3.47-1.46-3.48.51-3.48,1.46Z"/>
      <path class="cls-2" d="m309.38,539.29l-1.12-1.21c3.01-1.79,4.74-4.59,4.95-7.63h-4.11v-1.43h5.85c-.03,4.54-1.92,7.87-5.56,10.27Zm10.22,3.06v-7.67h-1.51v6.95h-1.65v-14.13h1.65v5.71h1.51v-6.02h1.67v15.15h-1.67Z"/>
    </g>
    <g>
      <path class="cls-2" d="m674.45,539.47l-1.56.02v-9.74h1.72v8.26c1.97,0,4.61-.19,6.32-.65l.24,1.43c-1.82.44-4.81.66-6.71.68Zm9.57-3.98v7.85h-1.73v-15.15h1.73v5.85h2.35v1.44h-2.35Z"/>
      <path class="cls-2" d="m691.3,529.38c2.43,0,3.84,2.11,3.84,5.32s-1.41,5.29-3.84,5.29-3.88-2.11-3.88-5.3,1.45-5.3,3.88-5.3Zm0,1.43c-1.28,0-2.16,1.45-2.16,3.88s.88,3.89,2.16,3.89,2.19-1.46,2.19-3.89-.9-3.88-2.19-3.88Zm6.41,12.54v-15.15h1.73v15.15h-1.73Z"/>
      <path class="cls-2" d="m706.91,539.46v-10.01h1.75v3.69h3.62v-3.71h1.77v10.03h-7.14Zm5.37-4.95h-3.62v3.54h3.62v-3.54Zm4.61,8.84v-15.15h1.73v15.15h-1.73Z"/>
      <path class="cls-2" d="m720.86,536.29v-1.38h5.32v-2.7h1.75v2.7h6.61v1.38h-13.68Zm6.73,7.04c-3.37,0-5.29-1.12-5.29-2.86s1.92-2.87,5.29-2.87,5.25,1.12,5.25,2.87-1.89,2.86-5.25,2.86Zm4.73-9.21l-1.68-.24c.29-1.14.42-2.52.39-3.69h-8.55v-1.39h10.3c.05,1.79-.12,3.86-.46,5.32Zm-8.21,6.36c0,.97,1.34,1.46,3.48,1.46s3.47-.49,3.47-1.46-1.34-1.46-3.47-1.46-3.48.51-3.48,1.46Z"/>
      <path class="cls-2" d="m736.45,540.29l-1.12-1.21c3.01-1.79,4.74-4.59,4.95-7.63h-4.11v-1.43h5.85c-.03,4.54-1.92,7.87-5.56,10.27Zm10.22,3.06v-7.67h-1.51v6.95h-1.65v-14.13h1.65v5.71h1.51v-6.02h1.67v15.15h-1.67Z"/>
      <path class="cls-2" d="m753.86,528.64h1.5l-4.05,14.41h-1.5l4.05-14.41Z"/>
      <path class="cls-2" d="m764.14,536.43c-1.24-.53-2.79-1.77-3.45-3.23-.46,1.56-2.04,3.01-3.57,3.6l-1.05-1.34c2.18-.87,3.72-2.69,3.72-5.03v-1.51h1.79v1.45c0,2.36,1.85,4.11,3.57,4.71l-1,1.36Zm-.49,6.92c-3.26,0-5.13-1.21-5.13-2.99s1.87-3.03,5.13-3.03,5.17,1.21,5.17,3.03-1.87,2.99-5.17,2.99Zm0-4.61c-2.09,0-3.33.61-3.33,1.62s1.24,1.6,3.33,1.6,3.37-.61,3.37-1.6-1.22-1.62-3.37-1.62Zm3.3-1.63v-4.28h-2.77v-1.43h2.77v-3.2h1.73v8.91h-1.73Z"/>
      <path class="cls-2" d="m771.45,535.44v-6.58h1.75v1.99h3.52v-2.02h1.75v6.61h-7.02Zm5.27-3.2h-3.52v1.78h3.52v-1.78Zm-3.2,10.98v-3.96h8.12v-1.19h-8.19v-1.41h9.93v3.91h-8.11v1.27h8.6v1.38h-10.35Zm8.11-7.29v-1.62h-2.4v-1.34h2.4v-1.51h-2.4v-1.34h2.4v-1.92h1.73v7.73h-1.73Z"/>
      <path class="cls-2" d="m790.83,539.46v-10.01h1.75v3.69h3.62v-3.71h1.77v10.03h-7.14Zm5.37-4.95h-3.62v3.54h3.62v-3.54Zm4.61,8.84v-15.15h1.73v15.15h-1.73Z"/>
      <path class="cls-2" d="m804.79,536.29v-1.38h5.32v-2.7h1.75v2.7h6.61v1.38h-13.68Zm6.73,7.04c-3.37,0-5.29-1.12-5.29-2.86s1.92-2.87,5.29-2.87,5.25,1.12,5.25,2.87-1.89,2.86-5.25,2.86Zm4.73-9.21l-1.68-.24c.29-1.14.42-2.52.39-3.69h-8.55v-1.39h10.3c.05,1.79-.12,3.86-.46,5.32Zm-8.21,6.36c0,.97,1.34,1.46,3.48,1.46s3.47-.49,3.47-1.46-1.34-1.46-3.47-1.46-3.48.51-3.48,1.46Z"/>
      <path class="cls-2" d="m820.38,540.29l-1.12-1.21c3.01-1.79,4.74-4.59,4.95-7.63h-4.11v-1.43h5.85c-.03,4.54-1.92,7.87-5.56,10.27Zm10.22,3.06v-7.67h-1.51v6.95h-1.65v-14.13h1.65v5.71h1.51v-6.02h1.67v15.15h-1.67Z"/>
    </g>
    <g>
      <path class="cls-1" d="m34.07,25.98c-.9-.06-2.04-.06-3.36.06,1.2,5.58-6.06,10.92-9.12,11.76-1.32.36-2.82.66-4.44.66-2.1,0-4.14-.48-6-1.92-2.28-1.62-4.2-4.38-4.2-9.36C6.95,14.4,19.13,3.06,25.91.72c1.74-.6,3.06-.72,4.38-.72,1.56,0,3.06.42,4.08,1.14,2.88,2.1,3.66,4.92,3.66,6.54,0,.9-.24,1.98-.78,3.24-.66,1.56-1.62,3.9-2.28,5.64-.3.78-1.02,1.38-2.16.48-1.14-.9-2.16-2.1-2.16-3.96,0-.66.06-1.32.54-2.58,1.68-4.32,2.28-6,1.62-6.66-1.74-1.8-10.74,3.36-16.14,11.58-3.18,4.86-4.32,9.96-4.32,13.8,0,4.62,1.5,6.18,3.42,6.18,3.18,0,7.44-3.3,10.26-8.58-1.56.3-3,.48-4.2.6-3.12.24-5.4-1.14-6.3-3-.36-.9-.06-1.5,1.14-1.5,2.4-.06,4.8-.48,7.02-.9,2.04-.3,3.9-.66,5.7-.66,3.3-.06,5.1,1.32,5.94,3.24.36.9.42,1.5-1.26,1.38Z"/>
      <path class="cls-1" d="m51.11,13.5c2.16,0,3.48,1.08,4.02,2.64l1.14-1.86c.72-1.2,1.74-1.26,2.46-.42,1.02,1.2,1.56,3.84,0,6.96-1.56,3.3-6.6,9.84-6.6,13.86,0,.9.24,1.44.84,1.44,2.16,0,5.16-4.08,7.14-7.98.66-1.2,1.2-1.26,1.8,0,.24.54.6,2.16-.24,3.9-1.56,3.3-5.4,6.48-9.06,6.48-3,0-4.74-1.56-5.22-3.78-1.74,1.68-4.44,3.54-6.84,3.54-3.54,0-5.46-2.58-5.46-6.12,0-2.58,1.08-5.94,3.24-8.94,4.8-6.9,9.72-9.72,12.78-9.72Zm-2.1,13.44c2.34-4.08,3.42-7.02,3.42-8.58,0-.72-.12-1.14-.72-1.14-1.2,0-5.34,3.78-8.4,8.7-1.8,2.82-2.82,6-2.82,7.92,0,1.08.24,1.8.84,1.8,1.98,0,4.74-3.66,7.68-8.7Z"/>
      <path class="cls-1" d="m60.65,26.64c1.2-2.94,3.48-7.68,5.88-12-1.86-.24-2.94-.9-3.42-1.62-.84-1.26-.24-1.86,1.14-1.8,1.38.06,3,0,4.32-.12,1.86-3.24,3.12-5.22,4.5-7.2.9-1.32,1.62-1.26,2.28-.12.42.72.66,1.74.66,2.46,0,1.08-.24,2.46-.96,4.14,1.86.24,2.88,1.2,3.3,1.92.6,1.08.18,1.8-1.26,1.62-1.08-.12-2.64,0-3.96.18-2.28,3.9-5.7,9.84-7.8,14.4-.72,1.62-1.08,3.18-1.08,4.5,0,1.8.6,3.06,1.62,3.06,2.34,0,5.46-3.78,7.56-8.28.66-1.44,2.04-1.56,2.46.06.3,1.26.06,2.16-.6,3.54-.84,1.8-4.86,6.96-9.9,6.96-3.18,0-5.94-2.58-5.94-6.72,0-1.32.36-3,1.2-4.98Z"/>
      <path class="cls-1" d="m81.77,29.28c-1.44,0-2.88-.42-4.26-1.32-.36,1.2-.54,2.46-.54,3.54,0,2.64,1.08,4.5,2.88,4.5,4.56,0,8.58-4.44,11.04-8.16.66-.96,1.44-1.08,1.92.12.18.54.24,2.28-.84,3.9-2.52,3.66-7.32,6.48-12,6.54-5.58.06-8.64-3.6-8.64-8.4,0-2.16.6-4.5,1.86-6.9,3.12-6.36,7.98-9.54,11.46-9.54.84,0,1.5.12,2.1.48,1.68.96,2.88,1.92,3.72,3.12.36.54.6,1.44.6,2.22,0,3.6-4.02,9.9-9.3,9.9Zm-3.42-3.6c.48.3.9.42,1.32.42,1.44,0,3.36-1.8,4.56-3.42,1.74-2.34,3-5.16,2.34-5.7-.9-.72-5.34,2.94-8.22,8.7Z"/>
    </g>
  </g>
</svg>