<?xml version="1.0" encoding="utf-8"?>
<!-- Generator: Adobe Illustrator 27.8.1, SVG Export Plug-In . SVG Version: 6.00 Build 0)  -->
<svg version="1.1" id="_레이어_2" xmlns="http://www.w3.org/2000/svg" xmlns:xlink="http://www.w3.org/1999/xlink" x="0px"
	 y="0px" viewBox="0 0 995.9 280.6" style="enable-background:new 0 0 995.9 280.6;" xml:space="preserve">
<style type="text/css">
	.st0{fill:#FAFAAA;}
	.st1{fill:#4371C4;}
	.st2{fill:#009EE2;}
	.st3{fill:#FFFFFF;}
	.st4{fill:#CACACA;}
	.st5{fill:#00ACE8;}
	.st6{fill:#1DBBEE;}
</style>
<g>
	<path class="st0" d="M15.1,174c-1.8-1.1-4.1-3.8-4.9-6c-0.7,2.4-2.8,5-5,6.4l-1.5-1.7c3.2-2.1,5.2-5.4,5.2-9.4v-3h2.4v2.9
		c0,3.9,2.1,7.2,5.1,9.1L15.1,174L15.1,174z M20.1,166.5h3.1v2h-3.1V179h-2.4v-20.5h2.4V166.5L20.1,166.5z"/>
	<path class="st0" d="M24.1,176.4v-1.9h8v-5h2.4v5h8.1v1.9H24.1L24.1,176.4z M40.8,169.6c-3.1-0.8-6.4-3.1-7.5-5.6
		c-0.9,2.6-4.4,4.9-7.5,5.6l-1.1-1.9c3.4-0.5,7.4-3.3,7.4-6.8v-1.2h2.5v1.2c0,3.5,4.3,6.3,7.4,6.9L40.8,169.6L40.8,169.6z"/>
	<path class="st0" d="M43.8,164v-1.9h11.9v1.9H43.8z M49.8,171.9c-2.8,0-4.9-1.4-4.9-3.6s2.1-3.6,4.9-3.6s4.8,1.4,4.8,3.6
		S52.6,171.9,49.8,171.9z M46.8,159h6v1.9h-6V159z M46.8,178.4v-5.5h2.4v3.6h11.3v1.9H46.8z M49.8,166.5c-1.5,0-2.6,0.7-2.6,1.8
		s1.1,1.8,2.6,1.8s2.5-0.6,2.5-1.8S51.2,166.5,49.8,166.5z M59.9,164.9h3v1.9h-3v6.8h-2.4v-15.1h2.4V164.9z"/>
	<path class="st0" d="M78.1,174.6v-3.8H70v-1.9h18.5v1.9h-8v3.8H78.1L78.1,174.6z M72.3,178.4v-5.8h2.4v3.9h11.6v1.9H72.3z
		 M86,166.9H72.4v-7.3H86V166.9z M83.6,161.5h-8.9v3.5h8.9V161.5z"/>
	<path class="st0" d="M98.6,174.2c-1.4-0.9-3.2-3.1-3.7-5c-0.5,2-2.2,4.4-4,5.5l-1.5-1.6c2.7-1.8,4.3-4.8,4.3-8.8v-1.5h-3.6v-1.9
		h9.3v1.9h-3.4v1.4c0,4.1,1.6,7,3.9,8.3L98.6,174.2L98.6,174.2z M100.8,178v-10.3H98v-1.9h2.8v-6.9h2.2V178H100.8z M104.9,179v-20.5
		h2.2V179H104.9z"/>
	<path class="st0" d="M117.8,179v-6.9h-8v-1.9h18.5v1.9h-8.1v6.9H117.8L117.8,179z M112,167.8v-8.5h2.3v2.5h9.2v-2.5h2.3v8.5
		L112,167.8L112,167.8z M123.6,163.6h-9.2v2.2h9.2V163.6z"/>
	<path class="st0" d="M138.9,167.9h-6v4.5c2.7,0,5.6-0.1,8.3-0.6l0.3,1.9c-2.1,0.5-5,0.7-8.9,0.7h-2.1v-14h9.4v1.9h-7.1v3.8h6
		L138.9,167.9L138.9,167.9z M144.1,179v-11h-3.7V166h3.7v-7.5h2.3V179L144.1,179L144.1,179z"/>
	<path class="st0" d="M150.6,174h2.6l-1,5.1h-1.9L150.6,174L150.6,174z"/>
	<path class="st0" d="M176.7,168.4h3.2v1.9h-18.5v-1.9h13.1c0.2-0.8,0.4-1.9,0.5-3.1l-11.6,0.6L163,164l12-0.5
		c0-0.8,0.1-1.5,0.1-2.2h-11.5v-1.9h13.8C177.4,162.9,177.2,166.2,176.7,168.4L176.7,168.4z M163.7,178.4v-6.3h2.4v4.4h11.7v1.9
		L163.7,178.4L163.7,178.4z"/>
	<path class="st0" d="M197.8,169.4c-1.7-0.7-3.8-2.4-4.7-4.4c-0.6,2.2-2.8,4.1-4.8,4.9l-1.5-1.9c2.9-1.2,5-3.6,5-6.8v-1.9h2.4v1.8
		c0,3.2,2.5,5.6,4.8,6.4L197.8,169.4L197.8,169.4z M196.5,179c-4.4,0-6.9-1.6-6.9-4.1s2.5-4.1,6.9-4.1s7,1.6,7,4.1
		S200.9,179,196.5,179z M196.5,172.7c-2.8,0-4.5,0.8-4.5,2.2s1.7,2.2,4.5,2.2s4.5-0.8,4.5-2.2S199.4,172.7,196.5,172.7z
		 M203.2,165.4v5.2h-2.4v-12.1h2.4v5h3v1.9H203.2z"/>
	<path class="st0" d="M218.2,175.1c-2-1-4.4-3.4-5.1-5.4c-0.5,2.1-2.7,4.6-5.1,5.8l-1.5-1.7c3.1-1.6,5.3-4.4,5.3-8.6v-0.1h-4.2v-1.9
		h10.9v1.9h-4.2v0.1c0,4.1,2.3,6.7,5.2,8.1L218.2,175.1L218.2,175.1z M209.9,159.7h6.2v1.9h-6.2V159.7z M221.7,179v-9.5h-3.8v-1.9
		h3.8v-9h2.3V179L221.7,179L221.7,179z"/>
	<path class="st0" d="M228.3,174.4l-1.8-1.2c2.9-2.7,4.5-6.9,4.5-10.6h-3.3v-1.9h5.5C233.2,166.8,231.6,170.9,228.3,174.4
		L228.3,174.4z M234.1,175.6l-1.9-1.2c3.1-3.2,4.4-7.6,4.4-11.8h-2.5v-1.9h4.8C238.8,167.3,237.7,171.3,234.1,175.6z M243.1,166.8h3
		v1.9h-3V179h-2.2v-20.5h2.2V166.8L243.1,166.8z"/>
	<path class="st0" d="M258.4,174c-1.9-1.1-4.4-3.7-5.1-5.8c-0.5,2.2-2.6,4.9-5,6.2l-1.5-1.7c3.3-1.8,5.3-5.1,5.3-9.2v-1h-4.3v-1.9
		h10.9v1.9h-4.2v1c0,4.1,2.2,7.2,5.2,8.8L258.4,174L258.4,174z M261.5,179v-20.5h2.3V179H261.5z"/>
	<path class="st0" d="M4,191h10.2v1.9H4V191z M9.2,201.9c-2.6,0-4.4-1.7-4.4-4c0-2.5,1.8-4,4.4-4s4.4,1.6,4.4,4
		S11.9,201.9,9.2,201.9z M6.5,187.6H12v2H6.5V187.6z M9.2,195.8c-1.3,0-2.3,0.9-2.3,2.1s0.9,2.1,2.3,2.1s2.2-0.9,2.2-2.1
		C11.5,196.7,10.5,195.8,9.2,195.8z M19.2,206.6v-10.2h-2v9.2H15v-19.1h2.2v7.9h2v-8.4h2.2v20.5L19.2,206.6L19.2,206.6z"/>
	<path class="st0" d="M25.4,196.9l-1.2-1.9c4-0.7,7-3,7.8-6h-6.8v-1.9h9.4C34.4,192.7,30.1,195.8,25.4,196.9L25.4,196.9z
		 M27.6,206.4v-5.4h11v-1.7H27.5v-1.9H41v5.3H30v1.8h11.7v1.9L27.6,206.4L27.6,206.4z M38.6,196.4v-1.9h-4.1v-1.8h4.1v-1.9h-3.8
		v-1.8h3.8v-2.9H41v10.3H38.6z"/>
	<path class="st0" d="M43.8,191H54v1.9H43.8V191z M49,201.9c-2.6,0-4.4-1.7-4.4-4c0-2.5,1.8-4,4.4-4s4.4,1.6,4.4,4
		S51.7,201.9,49,201.9z M46.2,187.6h5.5v2h-5.5V187.6z M49,195.8c-1.3,0-2.2,0.9-2.2,2.1s0.9,2.1,2.2,2.1s2.2-0.9,2.2-2.1
		C51.3,196.7,50.3,195.8,49,195.8z M59,206.6v-10.2h-2v9.2h-2.2v-19.1H57v7.9h2v-8.4h2.2v20.5L59,206.6L59,206.6z"/>
	<path class="st0" d="M66.2,206.4v-5h11.4V200H66.2v-1.9H72v-1.5h-8v-1.9h18.5v1.9h-8.1v1.5H80v5H68.5v1.4h12.2v1.9L66.2,206.4
		L66.2,206.4z M80.5,193.9c-3-0.4-6.2-1.8-7.3-3.7c-0.9,2-4,3.3-7.3,3.7l-1-1.8c3.3-0.2,6.4-1.4,7-3.7h-6.1v-1.9h14.9v1.9h-6
		c0.7,2.3,4.2,3.4,6.9,3.6L80.5,193.9L80.5,193.9z"/>
	<path class="st0" d="M85,202.4l-1.6-1.6c4.1-2.4,6.4-6.1,6.7-10.4h-5.5v-1.9h7.8C92.4,194.8,89.9,199.2,85,202.4z M94.8,205.6v-9.4
		h-2.7v-1.9h2.7v-7.8H97v19.1H94.8z M98.8,206.6v-20.5h2.2v20.5H98.8z"/>
	<path class="st0" d="M103.7,204v-1.9h4.3v-3.6l2.4,0v3.6h5.1v-3.6l2.4,0v3.6h4.4v1.9H103.7z M112.9,198c-4.4,0-7.4-2.2-7.4-5.3
		s3-5.3,7.4-5.3s7.5,2.2,7.5,5.3S117.4,198,112.9,198z M112.9,189.4c-3,0-5,1.3-5,3.3s2,3.3,5,3.3s5-1.3,5-3.3
		S116,189.4,112.9,189.4z"/>
	<path class="st0" d="M124.5,201.6h2.5v2.5h-2.5V201.6z"/>
</g>
<g>
	<path class="st0" d="M12.6,17.6c5.1,0,9.2,3.7,9.2,8.7s-4,8.4-9.2,8.4s-9.3-3.4-9.3-8.4S7.4,17.6,12.6,17.6z M31.8,38.2v13.1h-4.7
		V42H7.7v-3.7H31.8z M12.6,31c2.8,0,4.7-2.1,4.7-4.8s-1.8-4.8-4.7-4.8s-4.7,2.3-4.7,4.8C7.9,29,9.8,31,12.6,31z M27.1,36.5V15.7h4.6
		v20.8H27.1z"/>
	<path class="st0" d="M38.1,34.3V18.3h16.5v16.1H38.1z M54.1,51.3c-7.7,0-12.1-2.8-12.1-7.2s4.4-7.2,12.1-7.2s12.3,2.8,12.3,7.2
		S61.9,51.3,54.1,51.3z M50,21.9h-7.3v8.9H50V21.9z M46.8,44.1c0,2.1,2.8,3.4,7.4,3.4s7.4-1.3,7.4-3.4s-2.7-3.5-7.4-3.5
		S46.8,42,46.8,44.1z M56.6,24.6v-3.7h4.9v-5.2h4.6v20.8h-4.6v-4.5h-4.9v-3.7h4.9v-3.7C61.5,24.6,56.6,24.6,56.6,24.6z"/>
	<path class="st0" d="M81.2,18.1c5.8,0,9.2,5.2,9.2,12.8s-3.4,12.7-9.2,12.7S72,38.4,72,30.9S75.4,18.1,81.2,18.1z M81.2,21.9
		c-2.7,0-4.6,3.4-4.6,9s2,8.9,4.6,8.9c2.7,0,4.8-3.3,4.8-8.9S84,21.9,81.2,21.9z M95.8,51.3V15.7h4.6v35.6L95.8,51.3L95.8,51.3z"/>
	<path class="st0" d="M127.2,40.8c-4.3,1.1-12.3,1.6-16.5,1.6h-3.3V19.2h4.6v19.2c4.8,0,10.7-0.4,14.6-1.4L127.2,40.8L127.2,40.8z
		 M134.8,51.3h-4.6V15.7h4.6V51.3z"/>
	<path class="st0" d="M141.3,43.8h5l-2.9,8.1h-3.8L141.3,43.8L141.3,43.8z"/>
	<path class="st0" d="M2.3,94.8V91H16v-3.9h4.7V91h13.8v3.8H2.3L2.3,94.8z M5.7,89.4l-1.9-3.6C9.7,85.2,16,82,16,76.8v-0.7h4.8v0.7
		c0,5.2,7.2,8.7,12.3,9l-2,3.6c-4.7-0.7-10.8-3.7-12.7-7.6C16.6,85.8,10.9,88.7,5.7,89.4L5.7,89.4z M6.4,111.2v-8.9h19.1v-1.8H6.2
		v-3.7h24v8.8H11.1v1.8h20.5v3.8H6.4L6.4,111.2z"/>
	<path class="st0" d="M38.3,78.2h18.8v3.7h-6.8c0.4,5.1,4,8.5,8,9.8l-2.6,3.7c-2.7-1-6.2-3.8-7.8-7.1c-1,3.5-4.8,6.8-8.3,8l-2.8-3.6
		c5-1.8,8.4-5.6,8.6-10.8h-7.2L38.3,78.2L38.3,78.2z M66.2,98.2v13.2h-4.7v-9.5H42v-3.7H66.2z M61.5,96.4V75.7h4.7v20.7H61.5z"/>
	<path class="st0" d="M71.5,87.7V84h20.8v3.7H71.5z M82.1,89.1c5.2,0,8.7,3.2,8.7,7.7s-3.5,7.7-8.7,7.7s-8.7-3.1-8.7-7.7
		C73.4,92.5,77,89.1,82.1,89.1z M76.5,78h11v3.7h-11L76.5,78L76.5,78z M82.1,100.7c2.7,0,4.2-1.6,4.2-3.9s-1.7-3.9-4.2-3.9
		s-4,1.6-4,3.9S79.7,100.7,82.1,100.7z M95.8,111.3V75.7h4.7v35.6H95.8z"/>
	<path class="st0" d="M134.2,89.7l0.5,3.6c-4.3,0.7-9.7,1-14.2,0.9l-3.4-0.1V77.6H133v3.7h-11.2v2.4h9.9v3.6h-9.9v3
		C125.2,90.5,130.2,90.4,134.2,89.7L134.2,89.7z M121.5,111v-9.4h19v-2.2h-19v-3.7h23.6v9.3h-19v2.2h20.1v3.8H121.5L121.5,111z
		 M140.4,94v-6.7h-6.7v-3.8h6.7v-7.8h4.7V94H140.4z"/>
	<path class="st0" d="M159.5,78.1c5.3,0,8.5,4.3,9.1,10.6h6.3V75.7h4.7v35.6h-4.7V92.7h-6.2c-0.5,6.4-3.8,10.8-9.1,10.8
		c-5.8,0-9.2-5.2-9.2-12.7S153.7,78.1,159.5,78.1L159.5,78.1z M159.5,81.9c-2.7,0-4.6,3.4-4.6,9s2,8.9,4.6,8.9s4.7-3.3,4.7-8.9
		S162.2,81.9,159.5,81.9z"/>
	<path class="st0" d="M197.8,93.2v7.4c3.2-0.2,5.8-0.3,8.2-0.7l0.4,3.6c-3.4,0.6-8.7,0.9-12.8,1.1c-3.6,0.2-6.4,0.2-9.2,0.2
		l-0.6-3.8c3.2,0,6.2,0,9.3-0.1v-7.6h-6.7V78.9h4.7v10.6h13.8v3.7C204.8,93.2,197.8,93.2,197.8,93.2z M212.6,90h4.6v3.9h-4.6v17.5
		H208V75.7h4.6V90L212.6,90z"/>
	<path class="st0" d="M218.8,106.9v-3.8h7.2v-5.9l4.7,0.2v5.7h8.4v-5.7l4.7-0.2v5.9h7.3v3.8H218.8L218.8,106.9z M234.9,96.6
		c-7.8,0-13-3.9-13-9.4s5.2-9.5,13-9.5s13,4,13,9.5S242.7,96.6,234.9,96.6z M234.9,81.7c-5,0-8.2,2.3-8.2,5.6s3.2,5.5,8.2,5.5
		s8.2-2.3,8.2-5.5S239.8,81.7,234.9,81.7z"/>
	<path class="st0" d="M254.5,102.5h4.9v4.7h-4.9V102.5z"/>
</g>
<path class="st0" d="M7.5,235.6h93c4.1,0,7.5,3.3,7.5,7.5v30c0,4.1-3.3,7.5-7.5,7.5h-93c-4.1,0-7.5-3.3-7.5-7.5v-30
	C0,238.9,3.4,235.6,7.5,235.6z"/>
<g>
	<path class="st1" d="M32.4,255.3h2.3v1.7H20.2v-1.7h10.2c0.2-0.9,0.4-2.4,0.4-3.4H22v-1.7h10.8C32.8,252.3,32.7,253.9,32.4,255.3
		L32.4,255.3z M22,265.5v-4.3h8.8V260h-9v-1.7h11.1v4.3H24v1.1h9.4v1.7L22,265.5L22,265.5z"/>
	<path class="st1" d="M47.8,249.9c3.6,0,5.7,1.1,5.7,2.9c0,1.6-1.7,2.6-4.7,2.8v0.9H55v1.7H40.5v-1.7h6.2v-0.9
		c-2.9-0.2-4.6-1.3-4.6-2.8C42.1,251,44.1,249.9,47.8,249.9L47.8,249.9z M42.3,265.6v-4.1H51v-0.9h-8.8V259h10.8v4h-8.6v0.9h9.2v1.7
		L42.3,265.6L42.3,265.6z M47.8,254c2.2,0,3.5-0.6,3.5-1.3s-1.3-1.3-3.5-1.3s-3.5,0.6-3.5,1.3S45.6,254,47.8,254z"/>
	<path class="st1" d="M66.1,261.5c-1.7,0.3-4.7,0.5-7.4,0.5H57v-6.7h5.2v-2.7h-5.3V251h7.4v6H59v3.3c1.5,0,4.7-0.1,6.8-0.5
		L66.1,261.5L66.1,261.5z M69.3,249.7v16h-2.1v-16H69.3z"/>
	<path class="st1" d="M72.8,262.8l-1.3-1.6c3.5-1.6,5.9-5,6.2-8.1h-5.2v-1.8H80C79.8,256.2,77.7,260.1,72.8,262.8L72.8,262.8z
		 M82.8,265.7v-16h2.1v16H82.8z"/>
</g>
<g>
	<path class="st2" d="M534.4,196.5c1.6-0.6,3.5-1.8,4.1-3.5c0.6-1.9-1.8-4.1-3.8-3.5c-1.7,0.5-8.3,5.8-8.9,7.5
		C525.2,198.8,531.6,197.5,534.4,196.5L534.4,196.5z"/>
	<path class="st2" d="M622.9,200c0.9-1.8,1.6-3.8,1.6-4.9c0-0.8-0.3-1.9-0.8-2.6c-0.8-1.2-1.7-1.3-2.7,0.1c-1.7,2.1-3.2,4.3-5.4,7.8
		c-1.6,0.1-3.5,0.2-5.2,0.1s-2.4,0.6-1.4,1.9c0.6,0.8,1.9,1.5,4.1,1.8c-0.8,1.3-1.6,2.6-2.3,3.9c-0.1,0.1-0.2,0.2-0.2,0.3
		c-2.2,3.9-16.2,20.6-21.1,18.8c-0.9-0.4-1.4-0.8-1.4-2.2c0-1,0.3-2.4,0.9-3.8c0.8-1.6,2.6-4.3,6.5-10.6c0.6-0.9,0.8-1.8,0.8-2.7
		c0-2.5-2.1-4.5-4.2-4.5c-1.4,0-3.9,0.8-6,2.2c0.7-0.9,5.2-6.9,6.6-9.1c1.7-2.7,2.6-5.1,2.6-6.9c0-0.9-0.2-1.8-0.6-2.5
		c-0.7-1.3-1.7-1.6-2.9-0.3c-3.8,4.4-11.2,15.2-16.7,24c-3,3.7-13.1,13.4-22.4,16.4c2.4-4.9,5.2-9.6,7.5-13.7c1.8-3.2,2.6-5,2.6-6.7
		c0-1.4-0.5-2.6-1.2-3.3c-0.9-1-2.2-1-3.1,0.4c-0.4,0.7-0.9,1.4-1.2,1.8c-0.7-1.6-2.2-2.7-4.6-2.7c-5.1,0-12.9,5.6-16.8,12.3
		c-0.2,0.1-0.3,0.3-0.4,0.6c-2.2,4.4-9.6,11.9-16.6,11.1c-0.8-0.1-1.1-0.6-1.1-1.6s0.4-2.4,1-3.9c1.2-2.6,4.5-7.4,5.9-10.2
		c1.9-3.2,1.3-6-0.1-7.3c-0.9-1-1.8-0.8-2.9,0.4c-1.4,1.7-4.2,6.2-6.2,9.6c-4.4,7.8-19.1,21.4-23.4,7.2c-1-3.5-0.6-4.4-0.4-6.2
		c6.4-2.1,12.9-6.2,15.9-10c2.7-3.3,4.2-7,2.2-11.3c-1.8-4.1-5.3-5.5-9.1-5.4c-2.7,0.1-5.2,0.8-7.9,1.6c-2.6,0.8-5.3,1.5-8.2,1.9
		c-1.5,0.2-1.9,0.7-1.3,1.6c0.9,1.4,1.9,2.3,4.2,2.6c-6.3,8.9-12.7,20.6-14.4,26.3c-0.4,1.2-0.5,2.3-0.5,3.2c0,1.6,0.6,2.6,1.4,3.4
		c1.1,1,1.9,0.8,2.4-0.4c2.2-4.8,4-8.5,5.8-11.6l3.9-1c-0.9,3.9-1.8,8,1.8,11.6c4.7,4.6,12,3.8,16,2.1c3.1-1.3,5.8-2.9,7.9-4.7
		c0.3,2.8,2.3,4.6,6.3,4.7c6.3,0.2,11.9-2.3,15.5-5.1c0.5,3,2.8,5,6.3,5c1.9,0,3.8-0.6,5.4-1.6l-0.9,2.1
		c-8.8,2.7-15.7,9.4-15.7,15.2c0,2,1.1,3.7,2.1,5c1.5,1.8,3.3,2.1,5,1.5c5.8-2.5,11.1-12.3,14.9-20.6c7.2-2,13.5-5.8,18.1-9.4
		c0,0.1-0.1,0.1-0.1,0.2c-1.8,4.3-0.8,5.8,0.4,7.1c0.9,1,1.9,0.8,2.5-0.4c1.7-3.9,4.3-8.3,6.8-12c3.8-5.6,10.6-9.6,11.3-9.6
		c0.5,0-0.6,1.6-1.9,3.7c-2.7,3.8-6.2,9.4-6.2,13.5c0,3.4,2.2,5.3,6.9,5.5c5.2,0.3,11.3-3.8,16-8.1c0,0.3,0,0.6,0,0.8
		c0,4.5,3.3,7.2,7.1,7.2c6,0,10.8-5.6,11.9-7.5c0.8-1.5,1.1-2.5,0.7-3.8c-0.5-1.8-2.2-1.6-2.9-0.1c-2.5,4.9-6.2,8.9-9.1,8.9
		c-1.2,0-1.9-1.4-1.9-3.3c0-1.4,0.4-3.1,1.3-4.9c2.5-4.9,6.6-11.3,9.3-15.5c1.6-0.2,14.2-0.1,21.5-0.4c1.7-0.1,2.7-2.2,2-3.4
		C644,198.9,626.6,200.9,622.9,200L622.9,200z M491.2,202.8c1.8-3,2.7-5.3,2.7-7.1l2.8-0.8c2.3-0.7,5-1.6,6.7-1.6
		c1.1,0,1.9,0.3,2.3,1.4c1.9,4.3-5.2,12.8-19.5,16.1C487.5,208.8,489.3,206.1,491.2,202.8L491.2,202.8z M538.3,242.7
		c-2.2,3.5-4,5.4-4.7,5c-0.7-0.6,0.2-3.6,2.3-6.8c1.5-2.3,3.7-4.6,6.8-6.5C541.3,237.6,539.7,240.4,538.3,242.7L538.3,242.7z
		 M550.3,217.5c-3.5,5.4-6.9,9.4-9.2,9.3c-0.7,0-0.9-0.8-0.9-2.1c0-7.5,11.1-17.7,13.5-17.7c0.5,0,0.7,0.4,0.7,1.2
		C554.4,209.9,553.1,213.1,550.3,217.5L550.3,217.5z"/>
	<path class="st2" d="M692.2,192c0-0.9-0.2-1.8-0.7-2.5c-0.8-1.2-1.7-1.6-2.7-0.2c-4.7,6.7-11.7,18-16.6,27.2
		c0.5-7.4,1.2-14.2,2.2-19.4c0.2-1.2,0.4-2.2,0.4-3.1c0-2.3-1-3.7-3.2-5.1c-1.1-0.8-1.9-0.8-2.9,0.6c-5.5,8.1-14.6,23.5-18.3,32.2
		c-0.6,1.4-0.9,2.9-0.9,3.9c0,1.5,0.7,2.8,1.4,3.6c1,1,2.1,0.9,2.6-0.4c3.2-8,8.3-16.9,13.4-24.8c-0.7,5.5-0.9,10.9-0.9,14.6
		c0,1.6,0.1,2.9,0.2,4.7c0.3,3.3,1.4,5,3.8,6.1c1.2,0.6,2,0.2,2.4-0.6c4.4-8.7,13.2-23.9,17.2-29.9
		C691.8,195.8,692.2,193.5,692.2,192L692.2,192z"/>
	<path class="st2" d="M744.1,203c-2.1,0-6.9,3.4-8.4,14.2c-3.6,5.8-7.5,9.9-9.7,9.9c-0.5,0-0.8-0.5-0.8-1.4c0-0.9,0.5-2.4,1.3-3.9
		c2.2-4.5,5.2-8.4,6.6-10.9c0.9-1.6,1.2-3,1.2-4.3c0-1.4-0.4-2.3-1.2-3.2c-0.9-1.2-1.9-0.9-3,0.4c-1.2,1.6-2.3,3.2-3.4,5.2
		c-1.4,2.2-3.1,5-6.1,9.5c-3.2,4.8-5.7,8.3-7.3,8.3c-0.7,0-0.9-0.4-0.9-1.2c0-0.9,0.3-2.1,0.9-3.6c1.4-3,3.2-5.9,5.5-9.4
		c1.6-2.3,2.4-4.3,2.4-5.9c0-1-0.4-2.1-1.1-3c-0.8-1-2.2-1.1-3,0.1c-0.8,1-1.8,2.4-2.5,3.4c-2.2,3.1-5.6,5.8-8.9,6.3
		c0.4-3.6-0.9-5.6-2.3-6.9c-0.4-0.3-0.7-0.6-1-1c-1.7-2-2.9-2.6-5.5-2.4c-4.4,0.3-9.2,4.1-11.9,8.3c-1.8,2.9-3,6.3-3,9.1
		c0,1.9,0.7,4,2.1,5.6c2,2.3,4.6,3.2,6.8,3.2c6.6,0,12.4-7.4,14.2-13.4c1.4,0,2.8-0.2,4.2-0.6c-0.8,1.6-1.4,2.9-1.9,4.4
		c-0.7,1.7-0.9,3.2-0.9,4.4c0,2.9,1.5,5.1,4.9,5.1c3.2,0,5.8-1.6,7.9-3.6c0.4,2.3,2.3,3.9,5.1,3.9c5,0,10.1-4.9,14.9-12
		c4.7-6.7,5.7-9.5,6.2-12C746,203.9,745.3,203,744.1,203L744.1,203z M696.8,219.5c-2.5,4.4-5.5,6.7-7.4,6.7c-0.9,0-1.6-0.7-1.6-2.6
		c0-2.4,1.1-5.9,3-9.1c1.2-1.9,2.7-3.6,4.1-5c0.4,2.1,2.3,4.1,4.5,5.1C698.9,216,698,217.7,696.8,219.5L696.8,219.5z M700.5,212.5
		c-0.8-0.8-1.2-2.5-1.2-3.7c0-1,0.7-1.6,1.1-1.6c0.5,0,1.1,0.4,1.1,1.4C701.5,209.4,701.2,211,700.5,212.5L700.5,212.5z"/>
</g>
<g>
	<polygon class="st2" points="906.1,257.1 783.8,203.7 783.8,58 906.1,111.3 	"/>
	<polygon class="st3" points="863.5,238.2 820.2,218.7 820.2,142 863.5,161.5 	"/>
	<polygon class="st4" points="863.5,238.2 820.2,218.7 797.8,231.7 841,251.2 	"/>
	<polygon class="st5" points="995.9,57.3 873.6,4 783.8,58 906.1,111.3 	"/>
	<polygon class="st6" points="906.1,257.1 995.3,203.7 995.3,58 906.1,111.3 	"/>
</g>
</svg>
