<?xml version="1.0" encoding="UTF-8"?>
<svg id="_레이어_2" data-name="레이어 2" xmlns="http://www.w3.org/2000/svg" viewBox="0 0 740.36 565">
  <defs>
    <style>
      .cls-1 {
        fill: #4371c4;
      }

      .cls-1, .cls-2, .cls-3, .cls-4 {
        stroke-width: 0px;
      }

      .cls-3 {
        fill: #d7d797;
      }

      .cls-4 {
        fill: #fafaaa;
      }

      .cls-5 {
        opacity: .3;
      }
    </style>
  </defs>
  <g id="_레이어_1-2" data-name="레이어 1">
    <polygon class="cls-4" points="76.11 0 641.11 0 641.11 460.03 552.52 565 76.11 565 76.11 0"/>
    <polygon class="cls-3" points="552.11 460 641.11 460 552.11 565 552.11 460"/>
  </g>
  <g id="_레이어_3" data-name="레이어 3">
    <g class="cls-5">
      <path class="cls-2" d="m86.2,245.86c1.04,1.98,1.8,3.46,2.27,4.45,8.29,16.02,14.17,26.55,17.66,31.6,3.49,5.04,6.72,7.65,9.69,7.8,4.69.26,8.34-3.33,10.94-10.78,1.72.99,2.58,2.06,2.58,3.2,0,3.28-2.21,7.37-6.61,12.27-4.41,4.89-8.1,7.34-11.07,7.34-4.33,0-9.96-4.74-16.9-14.22-6.94-9.48-13.8-21.88-20.59-37.19-2.87.26-5.32.39-7.36.39s-4.49-.13-7.52-.39l-.57,5.16-1.02,8.98c-.89,7.45-2.48,12.8-4.77,16.05-2.29,3.26-6.75,6.45-13.36,9.57l18.44,1.17-9.38,9.06-33.83-1.72,10-9.69,8.52.94c6.3-4.01,10.21-12.21,11.72-24.61l.86-7.58,6.56-59.22c-23.7,4.48-35.55,13.41-35.55,26.8,0,5.37,1.12,10.13,3.36,14.3l-12.58,11.09c-1.09-4.01-1.64-8.07-1.64-12.19,0-14.11,6.02-25.65,18.05-34.61,12.03-8.96,27.53-13.44,46.48-13.44,25.73,0,38.59,8.19,38.59,24.56,0,11.94-7.66,22.24-22.99,30.89Zm-21.09-47.95l-5.03,45.39c4.18.68,7.99,1.02,11.45,1.02,3.24,0,6.77-.34,10.58-1.02,9.36-6.68,14.03-14.76,14.03-24.26,0-14.09-10.34-21.13-31.03-21.13Z"/>
      <path class="cls-2" d="m240.21,226.89c-.26.94-.42,1.51-.47,1.72l-.86,4.14c-.68,3.02-1.04,4.69-1.09,5l-3.12,28.59c-.52,4.79-1.07,13.2-1.64,25.23-.73,15.05-2.16,26.2-4.3,33.44-2.14,7.24-5.91,13.7-11.33,19.37-12.4,13.07-25.6,19.61-39.61,19.61-6.77,0-12.39-2.29-16.88-6.87-4.48-4.58-6.72-10.3-6.72-17.17,0-13.99,8.57-27.81,25.7-41.43-3.65-2.87-5.47-7.92-5.47-15.17,0-15.75,5.18-29.43,15.55-41.06,10.36-11.63,22.6-17.44,36.72-17.44,5.99,0,10.49.68,13.52,2.03Zm-16.9,41.06c-14.06,21.48-26.78,32.22-38.18,32.22-.47,0-1.3-.05-2.5-.16-12.14,12.17-18.2,23.01-18.2,32.53,0,6.5,2.31,11.95,6.92,16.34,4.62,4.39,10.34,6.59,17.17,6.59,10.53,0,18.62-4.63,24.25-13.9,4.28-7.13,7.25-24.13,8.92-50.99.62-10.15,1.16-17.7,1.62-22.64Zm3.48-31.29c-3.75-2.66-8.47-3.98-14.15-3.98-7.14,0-13.17,4.48-18.1,13.44-4.92,8.96-7.39,19.97-7.39,33.05,0,6.77,2.01,10.16,6.02,10.16,4.58,0,10.19-3.54,16.81-10.62,9.17-9.84,14.44-20.99,15.79-33.44l1.02-8.59Z"/>
      <path class="cls-2" d="m270.29,255.48c6.09-9.17,12.8-16.73,20.12-22.7,7.32-5.96,13.58-8.95,18.79-8.95s7.58,3.51,7.58,10.53c0,2.08-.3,5.28-.91,9.6l-4.17,29.11c-.86,5.83-1.29,10.43-1.29,13.81,0,2.71.73,4.06,2.19,4.06,3.6,0,8.01-4.77,13.23-14.3,1.3.78,1.96,1.59,1.96,2.42,0,3.39-2.91,7.83-8.72,13.32-5.81,5.5-10.54,8.24-14.19,8.24-4.07,0-6.1-2.92-6.1-8.75,0-4.27.55-10.18,1.64-17.73l2.71-18.91c.88-6.2,1.33-11.12,1.33-14.77,0-4.01-1.43-6.02-4.29-6.02-6.65,0-13.38,4.52-20.19,13.55-6.81,9.04-10.81,18.74-12,29.1l-2.08,18.75-11.69,4.77.23-2.19.62-5.79.62-5.46,7.59-68.48c1.82-16.16,7.81-29.95,17.96-41.39,10.15-11.44,21.5-17.16,34.05-17.16,2.6,0,5.13.29,7.58.86l-11.48,11.25c-2.97-.88-5.78-1.33-8.43-1.33-15.46,0-24.54,12.09-27.25,36.28l-5.42,48.25Z"/>
      <path class="cls-2" d="m359.53,234.94l-3.78,34.53c-.68,6.2-1.02,10.78-1.02,13.75,0,5.89,2,8.83,6,8.83,4.31,0,8.77-3.54,13.39-10.62.78.99,1.17,1.88,1.17,2.66,0,2.92-2.57,6.41-7.7,10.47-5.13,4.06-9.54,6.09-13.24,6.09-7.4,0-11.09-4.74-11.09-14.22,0-3.49.44-9.14,1.33-16.95l3.75-34.53h-16.4l9.09-9.06h8.32l1.65-14.22,11.51-3.83-1.9,18.05h33.13l-9.16,9.06h-25.04Z"/>
      <path class="cls-2" d="m451.85,237.98l-12.66,12.19c-1.25-4.06-1.88-8.12-1.88-12.19,0-12.81,4.86-23.5,14.57-32.07,9.71-8.57,21.86-12.85,36.45-12.85,2.03,0,3.93.08,5.71.23,1.98.16,3.23.23,3.75.23h.86c-.21,1.82-.31,3.12-.31,3.91,0,10.73,6.94,24.38,20.81,40.94l5.85,6.88,5.14,6.17c5.46,6.51,9.77,12.5,12.94,17.97l5.18-42.42c3.29-25.88,9.32-44.04,18.09-54.45,10.02-11.88,21.09-17.81,33.2-17.81,4.54,0,9.03.83,13.47,2.5l-11.58,11.48c-4.75-2.76-8.95-4.14-12.6-4.14-8.09,0-14.23,3.71-18.43,11.13s-7.47,20.35-9.82,38.79l-8.2,66.17-9.91,20.31c-2.4-9.58-4.95-16.88-7.66-21.88-2.71-5-8.1-12.34-16.18-22.03l-6.02-7.27c-9.25-11.2-15.79-21.19-19.63-29.97l-3.88,35.05-.94,8.44c-.83,6.98-2.17,12.1-4.02,15.35-1.85,3.26-5.53,6.94-11.05,11.05l17.26,1.56-9.29,9.06-33.98-1.72,10.08-9.69,8.67.78c3.96-2.86,6.69-5.96,8.2-9.3,1.51-3.33,2.71-8.85,3.59-16.56l.7-6.8,5.99-54.06h-3.67c-21.65,0-32.47,7.16-32.47,21.48,0,4.48,1.22,8.98,3.67,13.52Z"/>
      <path class="cls-2" d="m592.71,300.64c-11.72,0-17.58-7.76-17.58-23.28,0-12.5,4.58-24.54,13.75-36.13,9.17-11.59,18.67-17.38,28.52-17.38,11.88,0,17.81,7.76,17.81,23.28,0,12.55-4.58,24.61-13.75,36.17-9.17,11.56-18.75,17.34-28.75,17.34Zm9.45-8.75c5.99,0,11-3.33,15.04-10,4.04-6.67,6.05-14.97,6.05-24.92,0-16.25-5.05-24.38-15.16-24.38-5.94,0-10.93,3.35-14.96,10.04-4.04,6.69-6.05,14.99-6.05,24.88,0,16.25,5.03,24.38,15.08,24.38Z"/>
      <path class="cls-2" d="m661.22,300.41c0-12.07-.86-23.54-2.58-34.41l-2.58-16.54c-1.46-9.42-3.96-14.25-7.5-14.51-3.96-.31-6.72,3.59-8.28,11.72-1.67-.47-2.5-1.51-2.5-3.12,0-3.96,1.86-8.23,5.59-12.81,3.72-4.58,7.15-6.88,10.27-6.88,4.58,0,8.19,3.78,10.82,11.33,2.63,7.55,4.88,20.52,6.75,38.91l.47,4.77c9.17-16.82,16.02-32.19,20.56-46.09l9.27-8.91c.62,7.03,1.22,12.47,1.79,16.33l1.87,12.5,1.32,8.75,3.42,20,1.88-3.05c12.07-19.69,18.1-32.32,18.1-37.89,0-3.02-1.59-5.6-4.77-7.73l9.45-8.91c3.85,2.14,5.78,4.97,5.78,8.52,0,4.27-2.97,11.33-8.91,21.17l-4.77,7.89-5.86,10.23c-4.22,7.34-7.3,13.88-9.22,19.61l-9.36,9.38c-.73-9.38-2.01-19.24-3.83-29.61l-1.33-7.34-3.37-18.28-3.66,6.72c-6.64,12.19-12.25,24.66-16.81,37.42l-12.01,10.86Z"/>
    </g>
    <g class="cls-5">
      <path class="cls-2" d="m153.4,280.67l-6.56,16.17c-5.83,2.39-10.62,5.7-14.38,9.92-.52-.73-.78-1.48-.78-2.27,0-6.98,7.24-14.92,21.72-23.83Zm-15.63-62.11c-1.4-.83-2.1-1.64-2.1-2.42,0-1.88,2.27-5.57,6.8-11.09,6.09-7.5,11.75-11.25,16.95-11.25,3.8,0,5.7,2.52,5.7,7.57,0,2.13-.78,8.69-2.34,19.66l-3.05,21.22-.78,5.38-.62,4.29c-.26,1.82-.39,3.36-.39,4.6,0,2.6.73,3.9,2.18,3.9,4.04,0,8.4-4.45,13.06-13.36.98.88,1.48,1.77,1.48,2.66,0,3.18-2.93,7.45-8.79,12.81-5.86,5.36-10.53,8.05-14.02,8.05-3.91,0-5.86-2.71-5.86-8.12,0-1.04.21-3.17.62-6.4l.7-5.23c.05-.42.34-2.52.86-6.32l3.2-22.32.78-4.99c.68-4.94,1.02-8.25,1.02-9.91,0-2.24-.65-3.36-1.94-3.36-4.36,0-8.84,4.87-13.46,14.61Z"/>
    </g>
    <g>
      <path class="cls-1" d="m80.14,239.72c1.04,1.98,1.8,3.46,2.27,4.45,8.29,16.02,14.17,26.55,17.66,31.6,3.49,5.05,6.72,7.65,9.69,7.8,4.69.26,8.34-3.33,10.94-10.78,1.72.99,2.58,2.06,2.58,3.2,0,3.28-2.21,7.37-6.61,12.27-4.41,4.89-8.1,7.34-11.07,7.34-4.33,0-9.96-4.74-16.9-14.22-6.94-9.48-13.8-21.88-20.59-37.19-2.87.26-5.32.39-7.36.39s-4.49-.13-7.52-.39l-.57,5.16-1.02,8.98c-.89,7.45-2.48,12.8-4.77,16.05-2.29,3.26-6.75,6.45-13.36,9.57l18.44,1.17-9.38,9.06-33.83-1.72,10-9.69,8.52.94c6.3-4.01,10.21-12.21,11.72-24.61l.86-7.58,6.56-59.22c-23.7,4.48-35.55,13.41-35.55,26.8,0,5.37,1.12,10.13,3.36,14.3l-12.58,11.09c-1.09-4.01-1.64-8.07-1.64-12.19,0-14.11,6.02-25.65,18.05-34.61,12.03-8.96,27.53-13.44,46.48-13.44,25.73,0,38.59,8.19,38.59,24.56,0,11.94-7.66,22.24-22.99,30.89Zm-21.09-47.95l-5.03,45.39c4.18.68,7.99,1.02,11.45,1.02,3.24,0,6.77-.34,10.58-1.02,9.36-6.68,14.03-14.76,14.03-24.26,0-14.09-10.34-21.13-31.03-21.13Z"/>
      <path class="cls-1" d="m234.14,220.75c-.26.94-.42,1.51-.47,1.72l-.86,4.14c-.68,3.02-1.04,4.69-1.09,5l-3.12,28.59c-.52,4.79-1.07,13.2-1.64,25.23-.73,15.05-2.16,26.2-4.3,33.44-2.14,7.24-5.91,13.7-11.33,19.37-12.4,13.07-25.6,19.61-39.61,19.61-6.77,0-12.39-2.29-16.88-6.87-4.48-4.58-6.72-10.3-6.72-17.17,0-13.99,8.57-27.81,25.7-41.43-3.65-2.87-5.47-7.92-5.47-15.17,0-15.75,5.18-29.43,15.55-41.06,10.36-11.63,22.6-17.44,36.72-17.44,5.99,0,10.49.68,13.52,2.03Zm-16.9,41.06c-14.06,21.48-26.78,32.22-38.18,32.22-.47,0-1.3-.05-2.5-.16-12.14,12.17-18.2,23.01-18.2,32.53,0,6.5,2.31,11.95,6.92,16.34,4.62,4.39,10.34,6.59,17.17,6.59,10.53,0,18.62-4.63,24.25-13.9,4.28-7.13,7.25-24.13,8.92-50.99.62-10.15,1.16-17.7,1.62-22.65Zm3.48-31.29c-3.75-2.66-8.47-3.98-14.15-3.98-7.14,0-13.17,4.48-18.1,13.44-4.92,8.96-7.39,19.97-7.39,33.05,0,6.77,2.01,10.16,6.02,10.16,4.58,0,10.19-3.54,16.81-10.62,9.17-9.84,14.44-20.99,15.79-33.44l1.02-8.59Z"/>
      <path class="cls-1" d="m264.22,249.35c6.09-9.17,12.8-16.73,20.12-22.7,7.32-5.96,13.58-8.95,18.79-8.95s7.58,3.51,7.58,10.53c0,2.08-.3,5.28-.91,9.6l-4.17,29.11c-.86,5.83-1.29,10.43-1.29,13.81,0,2.71.73,4.06,2.19,4.06,3.6,0,8.01-4.77,13.23-14.3,1.3.78,1.96,1.59,1.96,2.42,0,3.39-2.91,7.83-8.72,13.32-5.81,5.5-10.54,8.24-14.19,8.24-4.07,0-6.1-2.92-6.1-8.75,0-4.27.55-10.18,1.64-17.73l2.71-18.91c.88-6.2,1.33-11.12,1.33-14.77,0-4.01-1.43-6.02-4.29-6.02-6.65,0-13.38,4.52-20.19,13.55-6.81,9.04-10.81,18.74-12,29.1l-2.08,18.75-11.69,4.77.23-2.19.62-5.79.62-5.46,7.59-68.48c1.82-16.16,7.81-29.95,17.96-41.39,10.15-11.44,21.5-17.16,34.05-17.16,2.6,0,5.13.29,7.58.86l-11.48,11.25c-2.97-.88-5.78-1.33-8.43-1.33-15.46,0-24.54,12.09-27.25,36.28l-5.42,48.25Z"/>
      <path class="cls-1" d="m353.46,228.8l-3.78,34.53c-.68,6.2-1.02,10.78-1.02,13.75,0,5.89,2,8.83,6,8.83,4.31,0,8.77-3.54,13.39-10.63.78.99,1.17,1.88,1.17,2.66,0,2.92-2.57,6.41-7.7,10.47-5.13,4.06-9.54,6.09-13.24,6.09-7.4,0-11.09-4.74-11.09-14.22,0-3.49.44-9.14,1.33-16.95l3.75-34.53h-16.4l9.09-9.06h8.32l1.65-14.22,11.51-3.83-1.9,18.05h33.13l-9.16,9.06h-25.04Z"/>
      <path class="cls-1" d="m445.78,231.85l-12.66,12.19c-1.25-4.06-1.88-8.12-1.88-12.19,0-12.81,4.86-23.5,14.57-32.07,9.71-8.57,21.86-12.85,36.45-12.85,2.03,0,3.93.08,5.71.23,1.98.16,3.23.23,3.75.23h.86c-.21,1.82-.31,3.12-.31,3.91,0,10.73,6.94,24.38,20.81,40.94l5.85,6.88,5.14,6.17c5.46,6.51,9.77,12.5,12.94,17.97l5.18-42.42c3.29-25.88,9.32-44.04,18.09-54.45,10.02-11.88,21.09-17.81,33.2-17.81,4.54,0,9.03.83,13.47,2.5l-11.58,11.48c-4.75-2.76-8.95-4.14-12.6-4.14-8.09,0-14.23,3.71-18.43,11.13s-7.47,20.35-9.82,38.79l-8.2,66.17-9.91,20.31c-2.4-9.58-4.95-16.88-7.66-21.88-2.71-5-8.1-12.34-16.18-22.03l-6.02-7.27c-9.25-11.2-15.79-21.19-19.63-29.97l-3.88,35.05-.94,8.44c-.83,6.98-2.17,12.1-4.02,15.35-1.85,3.26-5.53,6.94-11.05,11.05l17.26,1.56-9.29,9.06-33.98-1.72,10.08-9.69,8.67.78c3.96-2.86,6.69-5.96,8.2-9.3,1.51-3.33,2.71-8.85,3.59-16.56l.7-6.8,5.99-54.06h-3.67c-21.65,0-32.47,7.16-32.47,21.48,0,4.48,1.22,8.98,3.67,13.52Z"/>
      <path class="cls-1" d="m586.64,294.5c-11.72,0-17.58-7.76-17.58-23.28,0-12.5,4.58-24.54,13.75-36.13,9.17-11.59,18.67-17.38,28.52-17.38,11.88,0,17.81,7.76,17.81,23.28,0,12.55-4.58,24.61-13.75,36.17-9.17,11.56-18.75,17.34-28.75,17.34Zm9.45-8.75c5.99,0,11-3.33,15.04-10,4.04-6.67,6.05-14.97,6.05-24.92,0-16.25-5.05-24.38-15.16-24.38-5.94,0-10.93,3.35-14.96,10.04-4.04,6.69-6.05,14.99-6.05,24.88,0,16.25,5.03,24.38,15.08,24.38Z"/>
      <path class="cls-1" d="m655.16,294.27c0-12.07-.86-23.54-2.58-34.41l-2.58-16.54c-1.46-9.42-3.96-14.25-7.5-14.51-3.96-.31-6.72,3.59-8.28,11.72-1.67-.47-2.5-1.51-2.5-3.12,0-3.96,1.86-8.23,5.59-12.81,3.72-4.58,7.15-6.88,10.27-6.88,4.58,0,8.19,3.78,10.82,11.33,2.63,7.55,4.88,20.52,6.75,38.91l.47,4.77c9.17-16.82,16.02-32.19,20.56-46.09l9.27-8.91c.62,7.03,1.22,12.47,1.79,16.33l1.87,12.5,1.32,8.75,3.42,20,1.88-3.05c12.07-19.69,18.1-32.32,18.1-37.89,0-3.02-1.59-5.6-4.77-7.73l9.45-8.91c3.85,2.14,5.78,4.97,5.78,8.52,0,4.27-2.97,11.33-8.91,21.17l-4.77,7.89-5.86,10.23c-4.22,7.34-7.3,13.88-9.22,19.61l-9.36,9.38c-.73-9.38-2.01-19.24-3.83-29.61l-1.33-7.34-3.37-18.28-3.66,6.72c-6.64,12.19-12.25,24.66-16.81,37.42l-12.01,10.86Z"/>
    </g>
    <path class="cls-1" d="m147.33,274.53l-6.56,16.17c-5.83,2.4-10.62,5.7-14.38,9.92-.52-.73-.78-1.48-.78-2.27,0-6.98,7.24-14.92,21.72-23.83Zm-15.63-62.11c-1.4-.83-2.1-1.64-2.1-2.42,0-1.88,2.27-5.57,6.8-11.09,6.09-7.5,11.75-11.25,16.95-11.25,3.8,0,5.7,2.52,5.7,7.57,0,2.13-.78,8.69-2.34,19.66l-3.05,21.22-.78,5.38-.62,4.29c-.26,1.82-.39,3.36-.39,4.6,0,2.6.73,3.9,2.18,3.9,4.04,0,8.4-4.45,13.06-13.36.98.88,1.48,1.77,1.48,2.66,0,3.18-2.93,7.45-8.79,12.81-5.86,5.36-10.53,8.05-14.02,8.05-3.91,0-5.86-2.71-5.86-8.12,0-1.04.21-3.17.62-6.4l.7-5.23c.05-.42.34-2.52.86-6.32l3.2-22.32.78-4.99c.68-4.94,1.02-8.25,1.02-9.91,0-2.24-.65-3.36-1.94-3.36-4.36,0-8.84,4.87-13.46,14.61Z"/>
  </g>
</svg>