<?xml version="1.0" encoding="UTF-8"?>
<svg id="_레이어_2" data-name="레이어 2" xmlns="http://www.w3.org/2000/svg" viewBox="0 0 801.06 581">
  <defs>
    <style>
      .cls-1 {
        fill: #4371c4;
      }

      .cls-1, .cls-2, .cls-3, .cls-4 {
        stroke-width: 0px;
      }

      .cls-5 {
        opacity: .2;
      }

      .cls-3 {
        fill: #d7d797;
      }

      .cls-4 {
        fill: #fafaaa;
      }
    </style>
  </defs>
  <g id="_레이어_1-2" data-name="레이어 1">
    <g class="cls-5">
      <polygon class="cls-2" points="109.57 16 674.57 16 674.57 476.03 585.97 581 109.57 581 109.57 16"/>
      <polygon class="cls-2" points="585.57 476 674.57 476 585.57 581 585.57 476"/>
    </g>
    <g>
      <polygon class="cls-4" points="109.57 0 674.57 0 674.57 460.03 585.97 565 109.57 565 109.57 0"/>
      <polygon class="cls-3" points="585.57 460 674.57 460 585.57 565 585.57 460"/>
    </g>
  </g>
  <g id="_레이어_3" data-name="레이어 3">
    <g class="cls-5">
      <path class="cls-2" d="m180.62,228.91c4.57-1.62,10.24-5.18,11.93-10.22,1.88-5.58-5.25-11.89-11.02-10.23-5.07,1.46-24.45,17.1-26.09,21.95-1.76,5.22,17.12,1.36,25.18-1.51Z"/>
      <path class="cls-2" d="m440.33,239.27c2.53-5.31,4.57-11.05,4.57-14.47,0-2.28-.84-5.5-2.32-7.78-2.32-3.61-4.85-3.8-8.01.38-4.85,6.26-9.28,12.53-15.82,22.78-4.64.38-10.33.57-15.18.38-4.85-.19-6.96,1.71-4.01,5.69,1.69,2.28,5.48,4.37,12.02,5.12-2.3,3.73-4.57,7.56-6.75,11.35-.23.27-.43.57-.61.92-6.33,11.58-47.69,60.41-61.84,55.12-2.77-1.03-4.01-2.47-4.01-6.45,0-3.04.84-7.02,2.74-11.2,2.32-4.56,7.59-12.53,19.19-31.13,1.69-2.66,2.32-5.31,2.32-7.97,0-7.4-6.12-13.29-12.23-13.29-4.01,0-11.39,2.28-17.72,6.45,2.11-2.66,15.19-20.31,19.4-26.57,5.06-7.97,7.59-15,7.59-20.12,0-2.66-.63-5.12-1.69-7.21-1.9-3.8-5.06-4.56-8.44-.76-11.17,12.91-32.91,44.59-48.97,70.53-8.85,10.73-38.43,39.21-65.76,48.29,6.96-14.43,15.4-28.28,22.14-40.24,5.27-9.49,7.59-14.62,7.59-19.74,0-3.99-1.48-7.59-3.37-9.68-2.74-2.85-6.54-3.04-9.07,1.33-1.27,2.09-2.53,3.99-3.37,5.31-1.9-4.56-6.54-7.97-13.5-7.97-15.03,0-37.99,16.57-49.39,36.05-.45.39-.86.94-1.23,1.68-6.54,12.91-28.18,35.05-48.74,32.68-2.3-.27-3.16-1.71-3.16-4.75s1.05-7.02,2.95-11.39c3.59-7.59,13.29-21.83,17.29-29.99,5.48-9.49,3.8-17.65-.21-21.45-2.74-2.85-5.27-2.47-8.44,1.33-3.99,5.05-12.35,18.26-18.25,28.17-12.94,23.01-56.19,62.68-68.59,21.06-3.03-10.18-1.73-12.78-1.08-18.19,18.83-6.04,37.73-18.3,46.79-29.33,7.8-9.68,12.23-20.5,6.54-33.22-5.27-11.96-15.61-16.13-26.78-15.75-7.8.38-15.18,2.28-23.2,4.56-7.59,2.28-15.61,4.37-24.04,5.5-4.43.57-5.48,2.09-3.8,4.75,2.53,3.99,5.48,6.64,12.44,7.78-18.56,26-37.12,60.55-42.39,77.06-1.05,3.42-1.48,6.83-1.48,9.49,0,4.75,1.69,7.78,4.01,10.06,3.16,2.85,5.48,2.47,6.96-1.14,6.33-14.05,11.81-24.87,17.08-34.17l11.33-2.91c-2.59,11.36-5.4,23.49,5.22,34,13.7,13.56,35.23,11.28,47.04,6.2,9.12-3.92,17.12-8.41,23.22-13.87.9,8.16,6.67,13.38,18.43,13.79,18.39.65,34.91-6.62,45.54-15.1,1.61,8.92,8.21,14.72,18.59,14.72,5.69,0,11.18-1.9,15.82-4.75l-2.74,6.26c-25.73,7.97-46.19,27.52-46.19,44.61,0,5.88,3.16,10.82,6.12,14.81,4.43,5.31,9.7,6.07,14.76,4.37,17.08-7.21,32.48-36.06,43.66-60.55,21.03-5.84,39.6-16.95,53.17-27.5-.08.18-.16.37-.24.55-5.27,12.53-2.32,17.08,1.05,20.69,2.53,2.85,5.69,2.28,7.38-1.14,5.06-11.39,12.65-24.49,19.82-35.11,11.18-16.32,31.21-28.28,33.11-28.28,1.48,0-1.69,4.56-5.69,10.82-8.01,11.2-18.35,27.71-18.35,39.67,0,9.87,6.34,15.44,20.25,16.13,15.32.77,33.04-11.1,46.97-23.82-.09.83-.13,1.62-.13,2.38,0,13.1,9.7,21.26,20.88,21.26,17.72,0,31.85-16.32,34.8-22.02,2.32-4.37,3.16-7.21,2.11-11.2-1.48-5.12-6.33-4.75-8.65-.19-7.38,14.24-18.35,26.19-26.57,26.19-3.59,0-5.69-3.99-5.69-9.68,0-4.18,1.27-9.11,3.8-14.24,7.38-14.43,19.4-33.22,27.42-45.55,4.64-.57,41.61-.16,63.05-1.14,5.09-.23,8-6.58,5.89-10-1.48-2.28-52.39,3.57-63.38.74Zm-386.28,8.31c5.27-8.92,7.8-15.56,8.01-20.88l8.23-2.47c6.75-2.09,14.76-4.56,19.61-4.56,3.16,0,5.48.95,6.75,3.99,5.48,12.53-15.19,37.58-57.37,47.26,3.8-5.88,9.07-13.86,14.76-23.35Zm137.96,116.92c-6.54,10.25-11.81,15.94-13.71,14.62-2.11-1.71.63-10.63,6.75-19.93,4.43-6.64,10.97-13.48,19.82-19.17-4.01,9.49-8.65,17.84-12.86,24.49Zm35.43-73.84c-10.33,15.94-20.25,27.52-27,27.33-1.9,0-2.74-2.47-2.74-6.07,0-22.02,32.48-51.82,39.65-51.82,1.48,0,2.11,1.14,2.11,3.42,0,4.94-3.8,14.24-12.02,27.14Z"/>
      <path class="cls-2" d="m643.74,215.69c0-2.66-.63-5.12-1.9-7.4-2.32-3.61-4.85-4.56-8.01-.57-13.92,19.55-34.38,52.77-48.72,79.91,1.48-21.83,3.37-41.57,6.33-56.94.63-3.42,1.05-6.45,1.05-9.11,0-6.83-2.95-10.82-9.28-14.99-3.16-2.28-5.69-2.28-8.44,1.9-16.03,23.92-42.81,69.09-53.78,94.53-1.69,3.99-2.74,8.54-2.74,11.39,0,4.37,1.9,8.16,4.01,10.63,2.95,2.85,6.12,2.66,7.59-1.14,9.28-23.35,24.25-49.54,39.23-72.7-1.9,16.13-2.74,31.89-2.74,42.9,0,4.56.21,8.35.63,13.86.84,9.68,4.22,14.62,11.18,17.84,3.59,1.71,5.91.57,7.17-1.71,12.86-25.62,38.81-70.23,50.62-87.69,6.54-9.49,7.8-16.13,7.8-20.69Z"/>
      <path class="cls-2" d="m796.14,247.96c-6.12,0-20.25,9.87-24.68,41.57-10.54,16.89-21.93,29.04-28.47,29.04-1.48,0-2.32-1.52-2.32-3.99,0-2.66,1.48-7.02,3.8-11.39,6.54-13.1,15.4-24.68,19.4-32.08,2.74-4.75,3.59-8.73,3.59-12.53,0-3.99-1.27-6.64-3.37-9.49-2.74-3.42-5.69-2.66-8.86,1.33-3.59,4.56-6.75,9.49-9.91,15.18-4.01,6.45-9.07,14.81-17.93,27.9-9.28,14.05-16.66,24.3-21.3,24.3-1.9,0-2.53-1.14-2.53-3.42,0-2.66.84-6.26,2.74-10.44,4.22-8.92,9.28-17.27,16.24-27.71,4.64-6.64,6.96-12.53,6.96-17.27,0-3.04-1.05-6.07-3.16-8.73-2.32-2.85-6.33-3.23-8.86.19-2.32,2.85-5.27,7.02-7.38,10.06-6.33,9.11-16.45,16.89-26.15,18.6,1.05-10.44-2.53-16.51-6.75-20.31-1.05-.95-2.11-1.9-2.95-3.04-4.85-5.88-8.65-7.59-16.24-7.02-12.87.76-27,12.15-34.8,24.49-5.27,8.35-8.86,18.6-8.86,26.57,0,5.69,2.11,11.77,6.12,16.51,5.91,6.83,13.5,9.49,20.04,9.49,19.4,0,36.28-21.64,41.76-39.29,4.01,0,8.23-.57,12.44-1.9-2.32,4.56-4.01,8.54-5.69,12.91-1.9,4.94-2.74,9.3-2.74,12.91,0,8.35,4.43,15,14.34,15,9.28,0,16.87-4.56,23.2-10.63,1.27,6.64,6.75,11.58,14.97,11.58,14.55,0,29.53-14.24,43.87-35.3,13.71-19.74,16.66-27.9,18.14-35.11,1.05-5.12-1.05-7.97-4.64-7.97Zm-138.77,48.4c-7.38,12.91-16.24,19.74-21.72,19.74-2.74,0-4.64-2.09-4.64-7.78,0-7.02,3.16-17.46,8.86-26.57,3.37-5.69,7.8-10.63,12.02-14.62,1.27,6.26,6.75,11.96,13.08,15-1.69,4.18-4.22,8.92-7.59,14.24Zm10.76-20.5c-2.32-2.47-3.37-7.4-3.37-10.82,0-3.04,1.9-4.56,3.16-4.56,1.48,0,3.16,1.14,3.16,3.99,0,2.47-.84,7.02-2.95,11.39Z"/>
    </g>
    <g>
      <path class="cls-1" d="m180.14,216.42c4.57-1.62,10.24-5.18,11.93-10.22,1.88-5.58-5.25-11.89-11.02-10.23-5.07,1.46-24.45,17.1-26.09,21.95-1.76,5.22,17.12,1.36,25.18-1.51Z"/>
      <path class="cls-1" d="m439.85,226.78c2.53-5.31,4.57-11.05,4.57-14.47,0-2.28-.84-5.5-2.32-7.78-2.32-3.61-4.85-3.8-8.01.38-4.85,6.26-9.28,12.53-15.82,22.78-4.64.38-10.33.57-15.18.38-4.85-.19-6.96,1.71-4.01,5.69,1.69,2.28,5.48,4.37,12.02,5.12-2.3,3.73-4.57,7.56-6.75,11.35-.23.27-.43.57-.61.92-6.33,11.58-47.69,60.41-61.84,55.12-2.77-1.03-4.01-2.47-4.01-6.45,0-3.04.84-7.02,2.74-11.2,2.32-4.56,7.59-12.53,19.19-31.13,1.69-2.66,2.32-5.31,2.32-7.97,0-7.4-6.12-13.29-12.23-13.29-4.01,0-11.39,2.28-17.72,6.45,2.11-2.66,15.19-20.31,19.4-26.57,5.06-7.97,7.59-15,7.59-20.12,0-2.66-.63-5.12-1.69-7.21-1.9-3.8-5.06-4.56-8.44-.76-11.17,12.91-32.91,44.59-48.97,70.53-8.85,10.73-38.43,39.21-65.76,48.29,6.96-14.43,15.4-28.28,22.14-40.24,5.27-9.49,7.59-14.62,7.59-19.74,0-3.99-1.48-7.59-3.37-9.68-2.74-2.85-6.54-3.04-9.07,1.33-1.27,2.09-2.53,3.99-3.37,5.31-1.9-4.56-6.54-7.97-13.5-7.97-15.03,0-37.99,16.57-49.39,36.05-.45.39-.86.94-1.23,1.68-6.54,12.91-28.18,35.05-48.74,32.68-2.3-.27-3.16-1.71-3.16-4.75s1.05-7.02,2.95-11.39c3.59-7.59,13.29-21.83,17.29-29.99,5.48-9.49,3.8-17.65-.21-21.45-2.74-2.85-5.27-2.47-8.44,1.33-3.99,5.05-12.35,18.26-18.25,28.17-12.94,23.01-56.19,62.68-68.59,21.06-3.03-10.18-1.73-12.78-1.08-18.19,18.83-6.04,37.73-18.3,46.79-29.33,7.8-9.68,12.23-20.5,6.54-33.22-5.27-11.96-15.61-16.13-26.78-15.75-7.8.38-15.18,2.28-23.2,4.56-7.59,2.28-15.61,4.37-24.04,5.5-4.43.57-5.48,2.09-3.8,4.75,2.53,3.99,5.48,6.64,12.44,7.78-18.56,26-37.12,60.55-42.39,77.06-1.05,3.42-1.48,6.83-1.48,9.49,0,4.75,1.69,7.78,4.01,10.06,3.16,2.85,5.48,2.47,6.96-1.14,6.33-14.05,11.81-24.87,17.08-34.17l11.33-2.91c-2.59,11.36-5.4,23.49,5.22,34,13.7,13.56,35.23,11.28,47.04,6.2,9.12-3.92,17.12-8.41,23.22-13.87.9,8.16,6.67,13.38,18.43,13.79,18.39.65,34.91-6.62,45.54-15.1,1.61,8.92,8.21,14.72,18.59,14.72,5.69,0,11.18-1.9,15.82-4.75l-2.74,6.26c-25.73,7.97-46.19,27.52-46.19,44.61,0,5.88,3.16,10.82,6.12,14.81,4.43,5.31,9.7,6.07,14.76,4.37,17.08-7.21,32.48-36.06,43.66-60.55,21.03-5.84,39.6-16.95,53.17-27.5-.08.18-.16.37-.24.55-5.27,12.53-2.32,17.08,1.05,20.69,2.53,2.85,5.69,2.28,7.38-1.14,5.06-11.39,12.65-24.49,19.82-35.11,11.18-16.32,31.21-28.28,33.11-28.28,1.48,0-1.69,4.56-5.69,10.82-8.01,11.2-18.35,27.71-18.35,39.67,0,9.87,6.34,15.44,20.25,16.13,15.32.77,33.04-11.1,46.97-23.82-.09.83-.13,1.62-.13,2.38,0,13.1,9.7,21.26,20.88,21.26,17.72,0,31.85-16.32,34.8-22.02,2.32-4.37,3.16-7.21,2.11-11.2-1.48-5.12-6.33-4.75-8.65-.19-7.38,14.24-18.35,26.19-26.57,26.19-3.59,0-5.69-3.99-5.69-9.68,0-4.18,1.27-9.11,3.8-14.24,7.38-14.43,19.4-33.22,27.42-45.55,4.64-.57,41.61-.16,63.05-1.14,5.09-.23,8-6.58,5.89-10-1.48-2.28-52.39,3.57-63.38.74Zm-386.28,8.31c5.27-8.92,7.8-15.56,8.01-20.88l8.23-2.47c6.75-2.09,14.76-4.56,19.61-4.56,3.16,0,5.48.95,6.75,3.99,5.48,12.53-15.19,37.58-57.37,47.26,3.8-5.88,9.07-13.86,14.76-23.35Zm137.96,116.92c-6.54,10.25-11.81,15.94-13.71,14.62-2.11-1.71.63-10.63,6.75-19.93,4.43-6.64,10.97-13.48,19.82-19.17-4.01,9.49-8.65,17.84-12.86,24.49Zm35.43-73.84c-10.33,15.94-20.25,27.52-27,27.33-1.9,0-2.74-2.47-2.74-6.07,0-22.02,32.48-51.82,39.65-51.82,1.48,0,2.11,1.14,2.11,3.42,0,4.94-3.8,14.24-12.02,27.14Z"/>
      <path class="cls-1" d="m643.25,203.2c0-2.66-.63-5.12-1.9-7.4-2.32-3.61-4.85-4.56-8.01-.57-13.92,19.55-34.38,52.77-48.72,79.91,1.48-21.83,3.37-41.57,6.33-56.94.63-3.42,1.05-6.45,1.05-9.11,0-6.83-2.95-10.82-9.28-14.99-3.16-2.28-5.69-2.28-8.44,1.9-16.03,23.92-42.81,69.09-53.78,94.53-1.69,3.99-2.74,8.54-2.74,11.39,0,4.37,1.9,8.16,4.01,10.63,2.95,2.85,6.12,2.66,7.59-1.14,9.28-23.35,24.25-49.54,39.23-72.7-1.9,16.13-2.74,31.89-2.74,42.9,0,4.56.21,8.35.63,13.86.84,9.68,4.22,14.62,11.18,17.84,3.59,1.71,5.91.57,7.17-1.71,12.86-25.62,38.81-70.23,50.62-87.69,6.54-9.49,7.8-16.13,7.8-20.69Z"/>
      <path class="cls-1" d="m795.66,235.47c-6.12,0-20.25,9.87-24.68,41.57-10.54,16.89-21.93,29.04-28.47,29.04-1.48,0-2.32-1.52-2.32-3.99,0-2.66,1.48-7.02,3.8-11.39,6.54-13.1,15.4-24.68,19.4-32.08,2.74-4.75,3.59-8.73,3.59-12.53,0-3.99-1.27-6.64-3.37-9.49-2.74-3.42-5.69-2.66-8.86,1.33-3.59,4.56-6.75,9.49-9.91,15.18-4.01,6.45-9.07,14.81-17.93,27.9-9.28,14.05-16.66,24.3-21.3,24.3-1.9,0-2.53-1.14-2.53-3.42,0-2.66.84-6.26,2.74-10.44,4.22-8.92,9.28-17.27,16.24-27.71,4.64-6.64,6.96-12.53,6.96-17.27,0-3.04-1.05-6.07-3.16-8.73-2.32-2.85-6.33-3.23-8.86.19-2.32,2.85-5.27,7.02-7.38,10.06-6.33,9.11-16.45,16.89-26.15,18.6,1.05-10.44-2.53-16.51-6.75-20.31-1.05-.95-2.11-1.9-2.95-3.04-4.85-5.88-8.65-7.59-16.24-7.02-12.87.76-27,12.15-34.8,24.49-5.27,8.35-8.86,18.6-8.86,26.57,0,5.69,2.11,11.77,6.12,16.51,5.91,6.83,13.5,9.49,20.04,9.49,19.4,0,36.28-21.64,41.76-39.29,4.01,0,8.23-.57,12.44-1.9-2.32,4.56-4.01,8.54-5.69,12.91-1.9,4.94-2.74,9.3-2.74,12.91,0,8.35,4.43,15,14.34,15,9.28,0,16.87-4.56,23.2-10.63,1.27,6.64,6.75,11.58,14.97,11.58,14.55,0,29.53-14.24,43.87-35.3,13.71-19.74,16.66-27.9,18.14-35.11,1.05-5.12-1.05-7.97-4.64-7.97Zm-138.77,48.4c-7.38,12.91-16.24,19.74-21.72,19.74-2.74,0-4.64-2.09-4.64-7.78,0-7.02,3.16-17.46,8.86-26.57,3.37-5.69,7.8-10.63,12.02-14.62,1.27,6.26,6.75,11.96,13.08,15-1.69,4.18-4.22,8.92-7.59,14.24Zm10.76-20.5c-2.32-2.47-3.37-7.4-3.37-10.82,0-3.04,1.9-4.56,3.16-4.56,1.48,0,3.16,1.14,3.16,3.99,0,2.47-.84,7.02-2.95,11.39Z"/>
    </g>
  </g>
</svg>