<?xml version="1.0" encoding="UTF-8"?>
<svg id="_레이어_2" data-name="레이어 2" xmlns="http://www.w3.org/2000/svg" viewBox="0 0 853.21 605.25">
  <defs>
    <style>
      .cls-1 {
        fill: #4371c4;
      }

      .cls-1, .cls-2, .cls-3 {
        stroke-width: 0px;
      }

      .cls-2 {
        fill: #b2b2b2;
      }

      .cls-3 {
        fill: #b1b1b1;
      }
    </style>
  </defs>
  <g id="_레이어_1-2" data-name="레이어 1">
    <rect class="cls-1" y="78.25" width="141" height="141" rx="19.08" ry="19.08"/>
    <g>
      <path class="cls-1" d="m166.15,88.01c3.36,0,5.31,3.01,5.31,7.33s-1.95,7.29-5.31,7.29-5.29-2.99-5.29-7.29,1.95-7.33,5.29-7.33Zm0,2.16c-1.54,0-2.67,1.93-2.67,5.17s1.13,5.13,2.67,5.13,2.74-1.91,2.74-5.13-1.15-5.17-2.74-5.17Zm8.39,16.92v-20.49h2.67v20.49h-2.67Z"/>
      <path class="cls-1" d="m180.83,98.08v-10.23h2.71v3.17h4.28v-3.22h2.67v10.28h-9.66Zm6.99-4.97h-4.28v2.83h4.28v-2.83Zm-4.19,13.43v-6.46h2.69v4.35h11.24v2.12h-13.94Zm7.89-12.28v-2.18h2.92v-5.47h2.67v14.85h-2.67v-7.2h-2.92Z"/>
      <path class="cls-1" d="m207.92,107.07v-7.13h-7.84v-2.14h18.51v2.14h-7.96v7.13h-2.71Zm-7.01-12.85c3.08-.32,6.48-2.16,6.94-4.6h-6.12v-2.14h15.18v2.14h-6.12c.48,2.44,3.91,4.18,6.97,4.51-.37.71-.76,1.4-1.13,2.09-2.67-.3-6.19-2.16-7.31-4.12-1.08,2.09-4.44,3.84-7.24,4.21l-1.17-2.09Z"/>
      <path class="cls-1" d="m220.57,96.24v-8.6h9.59v8.6h-9.59Zm1.98,10.69v-5.5h10.72v-1.43h-10.81v-2.14h13.54v5.5h-10.78v1.4h11.36v2.16h-14.03Zm4.94-17.22h-4.25v4.44h4.25v-4.44Zm8.51,3.29v3.79h-2.74v-10.19h2.74v4.19h2.9v2.21h-2.9Z"/>
      <path class="cls-1" d="m264.43,98.11h-18.51v-2.14h18.51v2.14Zm-9.24,8.9c-4.53,0-7.13-1.45-7.13-3.79s2.6-3.84,7.1-3.84,7.15,1.47,7.15,3.84-2.6,3.79-7.13,3.79Zm-6.81-12.67v-7.13h13.73v2.16h-11.04v2.83h11.2v2.14h-13.89Zm6.78,7.17c-2.64,0-4.35.64-4.35,1.72s1.7,1.66,4.35,1.66,4.39-.62,4.39-1.66-1.72-1.72-4.39-1.72Z"/>
      <path class="cls-1" d="m276.2,98.38c-1.54-.6-3.7-2.46-4.58-4.35-.62,2.07-2.76,4.18-4.69,4.92l-1.61-2.12c2.97-1.08,4.9-3.82,4.9-6.92v-2.16h2.76v2.02c0,3.17,2.37,5.73,4.76,6.51l-1.54,2.09Zm-7.4,8.19v-6.65h2.69v4.53h10.85v2.12h-13.54Zm13.04-14.1h2.92v2.23h-2.92v6.76h-2.69v-14.85h2.69v5.86Z"/>
    </g>
    <g>
      <path class="cls-3" d="m163.18,133.09l-1.56.02v-9.74h1.72v8.26c1.97,0,4.61-.19,6.32-.65l.24,1.43c-1.82.44-4.81.66-6.71.68Zm9.57-3.98v7.85h-1.73v-15.15h1.73v5.85h2.35v1.44h-2.35Z"/>
      <path class="cls-3" d="m180.03,122.99c2.43,0,3.84,2.11,3.84,5.32s-1.41,5.29-3.84,5.29-3.88-2.11-3.88-5.3,1.44-5.3,3.88-5.3Zm0,1.43c-1.27,0-2.16,1.45-2.16,3.88s.88,3.89,2.16,3.89,2.19-1.46,2.19-3.89-.9-3.88-2.19-3.88Zm6.41,12.54v-15.15h1.73v15.15h-1.73Z"/>
      <path class="cls-3" d="m194.89,134.28l.32-1.38c.63.39,1.63.75,2.53.75,1.7,0,2.72-.88,2.72-2.38,0-1.6-.95-2.23-2.65-2.23-.75,0-1.82.32-2.36.58l.42-6.22h5.93v1.41h-4.57l-.2,3.13c.41-.12,1.07-.22,1.51-.22,2.35,0,3.74,1.14,3.74,3.57,0,2.11-1.53,3.83-4.11,3.83-1.34,0-2.55-.37-3.28-.83Z"/>
      <path class="cls-3" d="m204.03,129.59v-.82c0-4.11,2.06-5.56,4.4-5.56s4.28,1.46,4.28,5.49v.87c0,4-1.92,5.54-4.32,5.54s-4.37-1.6-4.37-5.52Zm6.87.15v-1.05c0-2.8-.85-4.08-2.48-4.08s-2.52,1.22-2.52,3.98v1.05c0,2.77.85,4.08,2.5,4.08s2.5-1.14,2.5-3.98Z"/>
      <path class="cls-3" d="m221.44,132.84c-1.26.29-3.21.43-5.05.43h-1.53v-9.6h5.71v1.41c-1.31,0-2.65-.02-3.94-.02v6.77c1.89,0,3.45-.12,4.59-.37l.22,1.39Zm4.01,4.13v-7.67h-1.53v6.94h-1.65v-14.11h1.65v5.71h1.53v-6.02h1.68v15.15h-1.68Z"/>
      <path class="cls-3" d="m237.13,122.26h1.5l-4.05,14.41h-1.5l4.05-14.41Z"/>
      <path class="cls-3" d="m251.89,130.05c-1.24-.53-2.79-1.77-3.45-3.23-.46,1.56-2.04,3.01-3.57,3.6l-1.05-1.34c2.18-.87,3.72-2.69,3.72-5.03v-1.51h1.78v1.45c0,2.36,1.85,4.11,3.57,4.71l-1,1.36Zm-.49,6.92c-3.26,0-5.13-1.21-5.13-2.99s1.87-3.03,5.13-3.03,5.17,1.21,5.17,3.03-1.87,2.99-5.17,2.99Zm0-4.61c-2.09,0-3.33.61-3.33,1.62s1.24,1.6,3.33,1.6,3.37-.61,3.37-1.6-1.22-1.62-3.37-1.62Zm3.3-1.63v-4.28h-2.77v-1.43h2.77v-3.2h1.73v8.91h-1.73Z"/>
      <path class="cls-3" d="m259.2,129.06v-6.58h1.75v1.99h3.52v-2.02h1.75v6.61h-7.02Zm5.27-3.2h-3.52v1.78h3.52v-1.78Zm-3.2,10.98v-3.96h8.12v-1.19h-8.19v-1.41h9.93v3.91h-8.11v1.27h8.6v1.38h-10.35Zm8.11-7.29v-1.62h-2.4v-1.34h2.4v-1.51h-2.4v-1.34h2.4v-1.92h1.73v7.73h-1.73Z"/>
      <path class="cls-3" d="m286.58,128.62c-1.87.44-4.57.65-6.56.66l-1.61.02v-6.65h1.72v5.15c2.24-.02,4.42-.19,6.22-.59l.24,1.41Zm-6.7,8.14v-5.71h9.69v5.71h-9.69Zm7.96-4.35h-6.2v2.97h6.2v-2.97Zm1.73-5.85v3.62h-1.73v-8.36h1.73v3.28h2.23v1.46h-2.23Z"/>
      <path class="cls-3" d="m300.47,130.05c-1.24-.53-2.79-1.77-3.45-3.23-.46,1.56-2.04,3.01-3.57,3.6l-1.05-1.34c2.18-.87,3.72-2.69,3.72-5.03v-1.51h1.78v1.45c0,2.36,1.85,4.11,3.57,4.71l-1,1.36Zm-.49,6.92c-3.26,0-5.13-1.21-5.13-2.99s1.87-3.03,5.13-3.03,5.17,1.21,5.17,3.03-1.87,2.99-5.17,2.99Zm0-4.61c-2.09,0-3.33.61-3.33,1.62s1.24,1.6,3.33,1.6,3.37-.61,3.37-1.6-1.22-1.62-3.37-1.62Zm3.3-1.63v-4.28h-2.77v-1.43h2.77v-3.2h1.73v8.91h-1.73Z"/>
    </g>
    <rect class="cls-1" y="270.25" width="141" height="141" rx="19.08" ry="19.08"/>
    <g>
      <path class="cls-1" d="m166.15,280.01c3.36,0,5.31,3.01,5.31,7.33s-1.95,7.29-5.31,7.29-5.29-2.99-5.29-7.29,1.95-7.33,5.29-7.33Zm0,2.16c-1.54,0-2.67,1.93-2.67,5.17s1.13,5.13,2.67,5.13,2.74-1.91,2.74-5.13-1.15-5.17-2.74-5.17Zm8.39,16.92v-20.49h2.67v20.49h-2.67Z"/>
      <path class="cls-1" d="m180.83,290.08v-10.23h2.71v3.17h4.28v-3.22h2.67v10.28h-9.66Zm6.99-4.97h-4.28v2.83h4.28v-2.83Zm-4.19,13.43v-6.46h2.69v4.35h11.24v2.12h-13.94Zm7.89-12.28v-2.19h2.92v-5.47h2.67v14.86h-2.67v-7.2h-2.92Z"/>
      <path class="cls-1" d="m207.92,299.07v-7.13h-7.84v-2.14h18.51v2.14h-7.96v7.13h-2.71Zm-7.01-12.85c3.08-.32,6.48-2.16,6.94-4.6h-6.12v-2.14h15.18v2.14h-6.12c.48,2.44,3.91,4.18,6.97,4.51-.37.71-.76,1.4-1.13,2.09-2.67-.3-6.19-2.16-7.31-4.12-1.08,2.09-4.44,3.84-7.24,4.21l-1.17-2.09Z"/>
      <path class="cls-1" d="m220.57,288.24v-8.6h9.59v8.6h-9.59Zm1.98,10.69v-5.5h10.72v-1.43h-10.81v-2.14h13.54v5.5h-10.78v1.4h11.36v2.16h-14.03Zm4.94-17.22h-4.25v4.44h4.25v-4.44Zm8.51,3.29v3.79h-2.74v-10.19h2.74v4.19h2.9v2.21h-2.9Z"/>
      <path class="cls-1" d="m264.43,290.11h-18.51v-2.14h18.51v2.14Zm-9.24,8.9c-4.53,0-7.13-1.45-7.13-3.79s2.6-3.84,7.1-3.84,7.15,1.47,7.15,3.84-2.6,3.79-7.13,3.79Zm-6.81-12.67v-7.13h13.73v2.16h-11.04v2.83h11.2v2.14h-13.89Zm6.78,7.17c-2.64,0-4.35.64-4.35,1.72s1.7,1.66,4.35,1.66,4.39-.62,4.39-1.66-1.72-1.72-4.39-1.72Z"/>
      <path class="cls-1" d="m276.2,290.38c-1.54-.6-3.7-2.46-4.58-4.35-.62,2.07-2.76,4.19-4.69,4.92l-1.61-2.12c2.97-1.08,4.9-3.82,4.9-6.92v-2.16h2.76v2.02c0,3.17,2.37,5.73,4.76,6.51l-1.54,2.09Zm-7.4,8.19v-6.65h2.69v4.53h10.85v2.12h-13.54Zm13.04-14.1h2.92v2.23h-2.92v6.76h-2.69v-14.86h2.69v5.86Z"/>
    </g>
    <rect class="cls-1" x="511" y="79.25" width="141" height="141" rx="19.08" ry="19.08"/>
    <g>
      <path class="cls-1" d="m677.15,89.01c3.36,0,5.31,3.01,5.31,7.33s-1.96,7.29-5.31,7.29-5.29-2.99-5.29-7.29,1.95-7.33,5.29-7.33Zm0,2.16c-1.54,0-2.67,1.93-2.67,5.17s1.13,5.13,2.67,5.13,2.74-1.91,2.74-5.13-1.15-5.17-2.74-5.17Zm8.39,16.92v-20.49h2.67v20.49h-2.67Z"/>
      <path class="cls-1" d="m691.83,99.08v-10.23h2.71v3.17h4.28v-3.22h2.67v10.28h-9.66Zm6.99-4.97h-4.28v2.83h4.28v-2.83Zm-4.19,13.43v-6.46h2.69v4.35h11.25v2.12h-13.94Zm7.89-12.28v-2.18h2.92v-5.47h2.67v14.85h-2.67v-7.2h-2.92Z"/>
      <path class="cls-1" d="m718.92,108.07v-7.13h-7.84v-2.14h18.51v2.14h-7.96v7.13h-2.71Zm-7.01-12.85c3.08-.32,6.49-2.16,6.95-4.6h-6.12v-2.14h15.18v2.14h-6.12c.48,2.44,3.91,4.18,6.97,4.51-.37.71-.76,1.4-1.13,2.09-2.67-.3-6.19-2.16-7.31-4.12-1.08,2.09-4.44,3.84-7.24,4.21l-1.17-2.09Z"/>
      <path class="cls-1" d="m731.57,97.24v-8.6h9.59v8.6h-9.59Zm1.98,10.69v-5.5h10.72v-1.43h-10.81v-2.14h13.54v5.5h-10.78v1.4h11.36v2.16h-14.03Zm4.94-17.22h-4.25v4.44h4.25v-4.44Zm8.51,3.29v3.79h-2.74v-10.19h2.74v4.19h2.9v2.21h-2.9Z"/>
      <path class="cls-1" d="m775.43,99.11h-18.51v-2.14h18.51v2.14Zm-9.24,8.9c-4.53,0-7.13-1.45-7.13-3.79s2.6-3.84,7.11-3.84,7.15,1.47,7.15,3.84-2.6,3.79-7.13,3.79Zm-6.81-12.67v-7.13h13.73v2.16h-11.04v2.83h11.2v2.14h-13.89Zm6.78,7.17c-2.64,0-4.35.64-4.35,1.72s1.7,1.66,4.35,1.66,4.39-.62,4.39-1.66-1.72-1.72-4.39-1.72Z"/>
      <path class="cls-1" d="m787.2,99.38c-1.54-.6-3.7-2.46-4.58-4.35-.62,2.07-2.76,4.18-4.69,4.92l-1.61-2.12c2.97-1.08,4.9-3.82,4.9-6.92v-2.16h2.76v2.02c0,3.17,2.37,5.73,4.76,6.51l-1.54,2.09Zm-7.4,8.19v-6.65h2.69v4.53h10.85v2.12h-13.54Zm13.04-14.1h2.92v2.23h-2.92v6.76h-2.69v-14.85h2.69v5.86Z"/>
    </g>
    <rect class="cls-1" x="511" y="271.25" width="141" height="141" rx="19.08" ry="19.08"/>
    <g>
      <path class="cls-1" d="m677.15,281.01c3.36,0,5.31,3.01,5.31,7.33s-1.96,7.29-5.31,7.29-5.29-2.99-5.29-7.29,1.95-7.33,5.29-7.33Zm0,2.16c-1.54,0-2.67,1.93-2.67,5.17s1.13,5.13,2.67,5.13,2.74-1.91,2.74-5.13-1.15-5.17-2.74-5.17Zm8.39,16.92v-20.49h2.67v20.49h-2.67Z"/>
      <path class="cls-1" d="m691.83,291.08v-10.23h2.71v3.17h4.28v-3.22h2.67v10.28h-9.66Zm6.99-4.97h-4.28v2.83h4.28v-2.83Zm-4.19,13.43v-6.46h2.69v4.35h11.25v2.12h-13.94Zm7.89-12.28v-2.19h2.92v-5.47h2.67v14.86h-2.67v-7.2h-2.92Z"/>
      <path class="cls-1" d="m718.92,300.07v-7.13h-7.84v-2.14h18.51v2.14h-7.96v7.13h-2.71Zm-7.01-12.85c3.08-.32,6.49-2.16,6.95-4.6h-6.12v-2.14h15.18v2.14h-6.12c.48,2.44,3.91,4.18,6.97,4.51-.37.71-.76,1.4-1.13,2.09-2.67-.3-6.19-2.16-7.31-4.12-1.08,2.09-4.44,3.84-7.24,4.21l-1.17-2.09Z"/>
      <path class="cls-1" d="m731.57,289.24v-8.6h9.59v8.6h-9.59Zm1.98,10.69v-5.5h10.72v-1.43h-10.81v-2.14h13.54v5.5h-10.78v1.4h11.36v2.16h-14.03Zm4.94-17.22h-4.25v4.44h4.25v-4.44Zm8.51,3.29v3.79h-2.74v-10.19h2.74v4.19h2.9v2.21h-2.9Z"/>
      <path class="cls-1" d="m775.43,291.11h-18.51v-2.14h18.51v2.14Zm-9.24,8.9c-4.53,0-7.13-1.45-7.13-3.79s2.6-3.84,7.11-3.84,7.15,1.47,7.15,3.84-2.6,3.79-7.13,3.79Zm-6.81-12.67v-7.13h13.73v2.16h-11.04v2.83h11.2v2.14h-13.89Zm6.78,7.17c-2.64,0-4.35.64-4.35,1.72s1.7,1.66,4.35,1.66,4.39-.62,4.39-1.66-1.72-1.72-4.39-1.72Z"/>
      <path class="cls-1" d="m787.2,291.38c-1.54-.6-3.7-2.46-4.58-4.35-.62,2.07-2.76,4.19-4.69,4.92l-1.61-2.12c2.97-1.08,4.9-3.82,4.9-6.92v-2.16h2.76v2.02c0,3.17,2.37,5.73,4.76,6.51l-1.54,2.09Zm-7.4,8.19v-6.65h2.69v4.53h10.85v2.12h-13.54Zm13.04-14.1h2.92v2.23h-2.92v6.76h-2.69v-14.86h2.69v5.86Z"/>
    </g>
    <g>
      <path class="cls-2" d="m168.35,155.32c-1.26.29-3.21.43-5.05.43h-1.53v-9.6h5.71v1.41c-1.31,0-2.65-.02-3.94-.02v6.77c1.89,0,3.45-.12,4.59-.37l.22,1.39Zm4.01,4.13v-7.67h-1.53v6.94h-1.65v-14.11h1.65v5.71h1.53v-6.02h1.68v15.15h-1.68Z"/>
      <path class="cls-2" d="m183.75,152.4c-1.24-.53-2.8-1.78-3.45-3.23-.46,1.6-2.04,2.99-3.57,3.64l-1.07-1.38c2.18-.88,3.72-2.69,3.72-5.01v-1.45h1.8v1.36c0,2.36,1.85,4.15,3.57,4.71l-1,1.36Zm-.95,7.05c-3.23,0-5.12-1.21-5.12-3.01s1.89-3.03,5.12-3.03,5.15,1.19,5.15,3.03-1.9,3.01-5.15,3.01Zm0-4.62c-2.11,0-3.33.59-3.33,1.61s1.22,1.6,3.33,1.6,3.37-.59,3.37-1.6-1.24-1.61-3.37-1.61Zm4.95-5.41v3.84h-1.75v-8.96h1.75v3.67h2.23v1.44h-2.23Z"/>
      <path class="cls-2" d="m191.57,148.47h1.85v1.8h-1.85v-1.8Zm0,6.27h1.85v1.8h-1.85v-1.8Z"/>
      <path class="cls-2" d="m201.96,155.58l-1.56.02v-9.74h1.72v8.26c1.97,0,4.61-.19,6.32-.65l.24,1.43c-1.82.44-4.81.66-6.71.68Zm9.57-3.98v7.85h-1.73v-15.15h1.73v5.85h2.35v1.44h-2.35Z"/>
      <path class="cls-2" d="m218.8,145.48c2.43,0,3.84,2.11,3.84,5.32s-1.41,5.29-3.84,5.29-3.88-2.11-3.88-5.3,1.44-5.3,3.88-5.3Zm0,1.43c-1.27,0-2.16,1.45-2.16,3.88s.88,3.89,2.16,3.89,2.19-1.46,2.19-3.89-.9-3.88-2.19-3.88Zm6.41,12.54v-15.15h1.73v15.15h-1.73Z"/>
      <path class="cls-2" d="m239.61,159.47v-5.1h-5.95v-1.41h13.68v1.41h-6v5.1h-1.73Zm5.97-8.55h-10.17v-5.98h10.17v5.98Zm-1.73-4.57h-6.68v3.16h6.68v-3.16Z"/>
      <path class="cls-2" d="m257.77,152.97c-2.87.39-6.27.53-9.54.56l-.25-1.45c.88,0,2.02.02,3.13,0v-3.18h1.72v3.11h.03c1.53-.05,3.69-.2,4.76-.36l.15,1.31Zm-1.58-2.21l-1.67-.26c.22-.92.37-2.4.36-3.69h-5.85v-1.41h7.6c-.02,2.28-.1,4.06-.44,5.35Zm-5.75,8.29v-4.44h1.75v3.04h8.53v1.39h-10.28Zm9.81-8.7v5.24h-1.73v-11.29h1.73v4.61h2.18v1.45h-2.18Z"/>
      <path class="cls-2" d="m271.13,144.75h1.5l-4.05,14.41h-1.5l4.05-14.41Z"/>
      <path class="cls-2" d="m285.88,152.53c-1.24-.53-2.79-1.77-3.45-3.23-.46,1.56-2.04,3.01-3.57,3.6l-1.05-1.34c2.18-.87,3.72-2.69,3.72-5.03v-1.51h1.78v1.45c0,2.36,1.85,4.11,3.57,4.71l-1,1.36Zm-.49,6.92c-3.26,0-5.13-1.21-5.13-2.99s1.87-3.03,5.13-3.03,5.17,1.21,5.17,3.03-1.87,2.99-5.17,2.99Zm0-4.61c-2.09,0-3.33.61-3.33,1.62s1.24,1.6,3.33,1.6,3.37-.61,3.37-1.6-1.22-1.62-3.37-1.62Zm3.3-1.63v-4.28h-2.77v-1.43h2.77v-3.2h1.73v8.91h-1.73Z"/>
      <path class="cls-2" d="m293.19,151.55v-6.58h1.75v1.99h3.52v-2.02h1.75v6.61h-7.02Zm5.27-3.2h-3.52v1.78h3.52v-1.78Zm-3.2,10.98v-3.96h8.13v-1.19h-8.19v-1.41h9.93v3.91h-8.11v1.27h8.6v1.38h-10.35Zm8.11-7.29v-1.62h-2.4v-1.34h2.4v-1.51h-2.4v-1.34h2.4v-1.92h1.73v7.73h-1.73Z"/>
      <path class="cls-2" d="m317.78,159.47v-5.1h-5.95v-1.41h13.68v1.41h-6v5.1h-1.73Zm5.97-8.55h-10.17v-5.98h10.17v5.98Zm-1.73-4.57h-6.68v3.16h6.68v-3.16Z"/>
      <path class="cls-2" d="m335.93,152.97c-2.87.39-6.27.53-9.54.56l-.25-1.45c.88,0,2.02.02,3.13,0v-3.18h1.72v3.11h.03c1.53-.05,3.69-.2,4.76-.36l.15,1.31Zm-1.58-2.21l-1.67-.26c.22-.92.37-2.4.36-3.69h-5.85v-1.41h7.6c-.02,2.28-.1,4.06-.44,5.35Zm-5.75,8.29v-4.44h1.75v3.04h8.53v1.39h-10.28Zm9.81-8.7v5.24h-1.73v-11.29h1.73v4.61h2.18v1.45h-2.18Z"/>
    </g>
    <g>
      <path class="cls-1" d="m36.61,25.98c-.9-.06-2.04-.06-3.36.06,1.2,5.58-6.06,10.92-9.12,11.76-1.32.36-2.82.66-4.44.66-2.1,0-4.14-.48-6-1.92-2.28-1.62-4.2-4.38-4.2-9.36C9.49,14.4,21.67,3.06,28.45.72c1.74-.6,3.06-.72,4.38-.72,1.56,0,3.06.42,4.08,1.14,2.88,2.1,3.66,4.92,3.66,6.54,0,.9-.24,1.98-.78,3.24-.66,1.56-1.62,3.9-2.28,5.64-.3.78-1.02,1.38-2.16.48-1.14-.9-2.16-2.1-2.16-3.96,0-.66.06-1.32.54-2.58,1.68-4.32,2.28-6,1.62-6.66-1.74-1.8-10.74,3.36-16.14,11.58-3.18,4.86-4.32,9.96-4.32,13.8,0,4.62,1.5,6.18,3.42,6.18,3.18,0,7.44-3.3,10.26-8.58-1.56.3-3,.48-4.2.6-3.12.24-5.4-1.14-6.3-3-.36-.9-.06-1.5,1.14-1.5,2.4-.06,4.8-.48,7.02-.9,2.04-.3,3.9-.66,5.7-.66,3.3-.06,5.1,1.32,5.94,3.24.36.9.42,1.5-1.26,1.38Z"/>
      <path class="cls-1" d="m53.65,13.5c2.16,0,3.48,1.08,4.02,2.64l1.14-1.86c.72-1.2,1.74-1.26,2.46-.42,1.02,1.2,1.56,3.84,0,6.96-1.56,3.3-6.6,9.84-6.6,13.86,0,.9.24,1.44.84,1.44,2.16,0,5.16-4.08,7.14-7.98.66-1.2,1.2-1.26,1.8,0,.24.54.6,2.16-.24,3.9-1.56,3.3-5.4,6.48-9.06,6.48-3,0-4.74-1.56-5.22-3.78-1.74,1.68-4.44,3.54-6.84,3.54-3.54,0-5.46-2.58-5.46-6.12,0-2.58,1.08-5.94,3.24-8.94,4.8-6.9,9.72-9.72,12.78-9.72Zm-2.1,13.44c2.34-4.08,3.42-7.02,3.42-8.58,0-.72-.12-1.14-.72-1.14-1.2,0-5.34,3.78-8.4,8.7-1.8,2.82-2.82,6-2.82,7.92,0,1.08.24,1.8.84,1.8,1.98,0,4.74-3.66,7.68-8.7Z"/>
      <path class="cls-1" d="m63.19,26.64c1.2-2.94,3.48-7.68,5.88-12-1.86-.24-2.94-.9-3.42-1.62-.84-1.26-.24-1.86,1.14-1.8s3,0,4.32-.12c1.86-3.24,3.12-5.22,4.5-7.2.9-1.32,1.62-1.26,2.28-.12.42.72.66,1.74.66,2.46,0,1.08-.24,2.46-.96,4.14,1.86.24,2.88,1.2,3.3,1.92.6,1.08.18,1.8-1.26,1.62-1.08-.12-2.64,0-3.96.18-2.28,3.9-5.7,9.84-7.8,14.4-.72,1.62-1.08,3.18-1.08,4.5,0,1.8.6,3.06,1.62,3.06,2.34,0,5.46-3.78,7.56-8.28.66-1.44,2.04-1.56,2.46.06.3,1.26.06,2.16-.6,3.54-.84,1.8-4.86,6.96-9.9,6.96-3.18,0-5.94-2.58-5.94-6.72,0-1.32.36-3,1.2-4.98Z"/>
      <path class="cls-1" d="m84.31,29.28c-1.44,0-2.88-.42-4.26-1.32-.36,1.2-.54,2.46-.54,3.54,0,2.64,1.08,4.5,2.88,4.5,4.56,0,8.58-4.44,11.04-8.16.66-.96,1.44-1.08,1.92.12.18.54.24,2.28-.84,3.9-2.52,3.66-7.32,6.48-12,6.54-5.58.06-8.64-3.6-8.64-8.4,0-2.16.6-4.5,1.86-6.9,3.12-6.36,7.98-9.54,11.46-9.54.84,0,1.5.12,2.1.48,1.68.96,2.88,1.92,3.72,3.12.36.54.6,1.44.6,2.22,0,3.6-4.02,9.9-9.3,9.9Zm-3.42-3.6c.48.3.9.42,1.32.42,1.44,0,3.36-1.8,4.56-3.42,1.74-2.34,3-5.16,2.34-5.7-.9-.72-5.34,2.94-8.22,8.7Z"/>
    </g>
    <g>
      <path class="cls-3" d="m675.8,130.75l-1.56.02v-9.74h1.72v8.26c1.97,0,4.61-.19,6.32-.65l.24,1.43c-1.82.44-4.81.66-6.71.68Zm9.57-3.98v7.85h-1.73v-15.15h1.73v5.85h2.35v1.44h-2.35Z"/>
      <path class="cls-3" d="m692.65,120.65c2.43,0,3.84,2.11,3.84,5.32s-1.41,5.29-3.84,5.29-3.88-2.11-3.88-5.3,1.45-5.3,3.88-5.3Zm0,1.43c-1.28,0-2.16,1.45-2.16,3.88s.88,3.89,2.16,3.89,2.19-1.46,2.19-3.89-.9-3.88-2.19-3.88Zm6.41,12.54v-15.15h1.73v15.15h-1.73Z"/>
      <path class="cls-3" d="m707.5,131.94l.32-1.38c.63.39,1.63.75,2.53.75,1.7,0,2.72-.88,2.72-2.38,0-1.6-.95-2.23-2.65-2.23-.75,0-1.82.32-2.36.58l.42-6.22h5.93v1.41h-4.57l-.2,3.13c.41-.12,1.07-.22,1.51-.22,2.35,0,3.74,1.14,3.74,3.57,0,2.11-1.53,3.83-4.11,3.83-1.34,0-2.55-.37-3.28-.83Z"/>
      <path class="cls-3" d="m716.65,127.24v-.82c0-4.11,2.06-5.56,4.4-5.56s4.28,1.46,4.28,5.49v.87c0,4-1.92,5.54-4.32,5.54s-4.37-1.6-4.37-5.52Zm6.87.15v-1.05c0-2.8-.85-4.08-2.48-4.08s-2.52,1.22-2.52,3.98v1.05c0,2.77.85,4.08,2.5,4.08s2.5-1.14,2.5-3.98Z"/>
      <path class="cls-3" d="m734.06,130.49c-1.26.29-3.21.43-5.05.43h-1.53v-9.6h5.71v1.41c-1.31,0-2.65-.02-3.94-.02v6.77c1.89,0,3.45-.12,4.59-.37l.22,1.39Zm4.01,4.13v-7.67h-1.53v6.94h-1.65v-14.11h1.65v5.71h1.53v-6.02h1.68v15.15h-1.68Z"/>
      <path class="cls-3" d="m749.75,119.92h1.5l-4.04,14.41h-1.5l4.05-14.41Z"/>
      <path class="cls-3" d="m764.5,127.7c-1.24-.53-2.79-1.77-3.45-3.23-.46,1.56-2.04,3.01-3.57,3.6l-1.05-1.34c2.18-.87,3.72-2.69,3.72-5.03v-1.51h1.79v1.45c0,2.36,1.85,4.11,3.57,4.71l-1,1.36Zm-.49,6.92c-3.26,0-5.13-1.21-5.13-2.99s1.87-3.03,5.13-3.03,5.17,1.21,5.17,3.03-1.87,2.99-5.17,2.99Zm0-4.61c-2.09,0-3.33.61-3.33,1.62s1.24,1.6,3.33,1.6,3.37-.61,3.37-1.6-1.22-1.62-3.37-1.62Zm3.3-1.63v-4.28h-2.77v-1.43h2.77v-3.2h1.73v8.91h-1.73Z"/>
      <path class="cls-3" d="m771.81,126.72v-6.58h1.75v1.99h3.52v-2.02h1.75v6.61h-7.02Zm5.27-3.2h-3.52v1.78h3.52v-1.78Zm-3.2,10.98v-3.96h8.12v-1.19h-8.19v-1.41h9.93v3.91h-8.11v1.27h8.6v1.38h-10.35Zm8.11-7.29v-1.62h-2.4v-1.34h2.4v-1.51h-2.4v-1.34h2.4v-1.92h1.73v7.73h-1.73Z"/>
      <path class="cls-3" d="m799.2,126.28c-1.87.44-4.57.65-6.56.66l-1.61.02v-6.65h1.72v5.15c2.24-.02,4.42-.19,6.22-.59l.24,1.41Zm-6.7,8.14v-5.71h9.69v5.71h-9.69Zm7.96-4.35h-6.2v2.97h6.2v-2.97Zm1.73-5.85v3.62h-1.73v-8.36h1.73v3.28h2.23v1.46h-2.23Z"/>
      <path class="cls-3" d="m813.09,127.7c-1.24-.53-2.79-1.77-3.45-3.23-.46,1.56-2.04,3.01-3.57,3.6l-1.05-1.34c2.18-.87,3.72-2.69,3.72-5.03v-1.51h1.78v1.45c0,2.36,1.85,4.11,3.57,4.71l-1,1.36Zm-.49,6.92c-3.26,0-5.13-1.21-5.13-2.99s1.87-3.03,5.13-3.03,5.17,1.21,5.17,3.03-1.87,2.99-5.17,2.99Zm0-4.61c-2.09,0-3.33.61-3.33,1.62s1.24,1.6,3.33,1.6,3.37-.61,3.37-1.6-1.22-1.62-3.37-1.62Zm3.3-1.63v-4.28h-2.77v-1.43h2.77v-3.2h1.73v8.91h-1.73Z"/>
    </g>
    <g>
      <path class="cls-2" d="m680.97,152.97c-1.26.29-3.21.43-5.05.43h-1.53v-9.6h5.71v1.41c-1.31,0-2.65-.02-3.94-.02v6.77c1.89,0,3.45-.12,4.59-.37l.22,1.39Zm4.01,4.13v-7.67h-1.53v6.94h-1.65v-14.11h1.65v5.71h1.53v-6.02h1.68v15.15h-1.68Z"/>
      <path class="cls-2" d="m696.37,150.05c-1.24-.53-2.8-1.78-3.45-3.23-.46,1.6-2.04,2.99-3.57,3.64l-1.07-1.38c2.18-.88,3.72-2.69,3.72-5.01v-1.45h1.8v1.36c0,2.36,1.85,4.15,3.57,4.71l-1,1.36Zm-.95,7.05c-3.23,0-5.12-1.21-5.12-3.01s1.89-3.03,5.12-3.03,5.15,1.19,5.15,3.03-1.9,3.01-5.15,3.01Zm0-4.62c-2.11,0-3.33.59-3.33,1.61s1.22,1.6,3.33,1.6,3.37-.59,3.37-1.6-1.24-1.61-3.37-1.61Zm4.95-5.41v3.84h-1.75v-8.96h1.75v3.67h2.23v1.44h-2.23Z"/>
      <path class="cls-2" d="m704.19,146.12h1.85v1.8h-1.85v-1.8Zm0,6.27h1.85v1.8h-1.85v-1.8Z"/>
      <path class="cls-2" d="m714.57,153.23l-1.56.02v-9.74h1.72v8.26c1.97,0,4.61-.19,6.32-.65l.24,1.43c-1.82.44-4.81.66-6.71.68Zm9.57-3.98v7.85h-1.73v-15.15h1.73v5.85h2.35v1.44h-2.35Z"/>
      <path class="cls-2" d="m731.42,143.13c2.43,0,3.84,2.11,3.84,5.32s-1.41,5.29-3.84,5.29-3.88-2.11-3.88-5.3,1.44-5.3,3.88-5.3Zm0,1.43c-1.27,0-2.16,1.45-2.16,3.88s.88,3.89,2.16,3.89,2.19-1.46,2.19-3.89-.9-3.88-2.19-3.88Zm6.41,12.54v-15.15h1.73v15.15h-1.73Z"/>
      <path class="cls-2" d="m752.23,157.12v-5.1h-5.95v-1.41h13.68v1.41h-6v5.1h-1.73Zm5.97-8.55h-10.17v-5.98h10.17v5.98Zm-1.73-4.57h-6.68v3.16h6.68v-3.16Z"/>
      <path class="cls-2" d="m770.38,150.63c-2.87.39-6.27.53-9.54.56l-.25-1.45c.88,0,2.02.02,3.13,0v-3.18h1.72v3.11h.03c1.53-.05,3.69-.2,4.76-.36l.15,1.31Zm-1.58-2.21l-1.67-.26c.22-.92.37-2.4.36-3.69h-5.85v-1.41h7.6c-.02,2.28-.1,4.06-.44,5.35Zm-5.75,8.29v-4.44h1.75v3.04h8.53v1.39h-10.28Zm9.81-8.7v5.24h-1.73v-11.29h1.73v4.61h2.18v1.45h-2.18Z"/>
      <path class="cls-2" d="m783.75,142.4h1.5l-4.05,14.41h-1.5l4.05-14.41Z"/>
      <path class="cls-2" d="m798.5,150.19c-1.24-.53-2.79-1.77-3.45-3.23-.46,1.56-2.04,3.01-3.57,3.6l-1.05-1.34c2.18-.87,3.72-2.69,3.72-5.03v-1.51h1.78v1.45c0,2.36,1.85,4.11,3.57,4.71l-1,1.36Zm-.49,6.92c-3.26,0-5.13-1.21-5.13-2.99s1.87-3.03,5.13-3.03,5.17,1.21,5.17,3.03-1.87,2.99-5.17,2.99Zm0-4.61c-2.09,0-3.33.61-3.33,1.62s1.24,1.6,3.33,1.6,3.37-.61,3.37-1.6-1.22-1.62-3.37-1.62Zm3.3-1.63v-4.28h-2.77v-1.43h2.77v-3.2h1.73v8.91h-1.73Z"/>
      <path class="cls-2" d="m805.81,149.2v-6.58h1.75v1.99h3.52v-2.02h1.75v6.61h-7.02Zm5.27-3.2h-3.52v1.78h3.52v-1.78Zm-3.2,10.98v-3.96h8.12v-1.19h-8.19v-1.41h9.93v3.91h-8.11v1.27h8.6v1.38h-10.35Zm8.11-7.29v-1.62h-2.4v-1.34h2.4v-1.51h-2.4v-1.34h2.4v-1.92h1.73v7.73h-1.73Z"/>
      <path class="cls-2" d="m830.39,157.12v-5.1h-5.95v-1.41h13.68v1.41h-6v5.1h-1.73Zm5.97-8.55h-10.17v-5.98h10.17v5.98Zm-1.73-4.57h-6.68v3.16h6.68v-3.16Z"/>
      <path class="cls-2" d="m848.55,150.63c-2.87.39-6.27.53-9.54.56l-.25-1.45c.88,0,2.02.02,3.13,0v-3.18h1.72v3.11h.03c1.53-.05,3.69-.2,4.76-.36l.15,1.31Zm-1.58-2.21l-1.67-.26c.22-.92.37-2.4.36-3.69h-5.85v-1.41h7.6c-.02,2.28-.1,4.06-.44,5.35Zm-5.75,8.29v-4.44h1.75v3.04h8.53v1.39h-10.28Zm9.81-8.7v5.24h-1.73v-11.29h1.73v4.61h2.18v1.45h-2.18Z"/>
    </g>
    <g>
      <path class="cls-3" d="m163.8,326.75l-1.56.02v-9.74h1.72v8.26c1.97,0,4.61-.19,6.32-.65l.24,1.43c-1.82.44-4.81.66-6.71.68Zm9.57-3.98v7.85h-1.73v-15.15h1.73v5.85h2.35v1.44h-2.35Z"/>
      <path class="cls-3" d="m180.65,316.65c2.43,0,3.84,2.11,3.84,5.32s-1.41,5.29-3.84,5.29-3.88-2.11-3.88-5.3,1.44-5.3,3.88-5.3Zm0,1.43c-1.27,0-2.16,1.45-2.16,3.88s.88,3.89,2.16,3.89,2.19-1.46,2.19-3.89-.9-3.88-2.19-3.88Zm6.41,12.54v-15.15h1.73v15.15h-1.73Z"/>
      <path class="cls-3" d="m195.5,327.94l.32-1.38c.63.39,1.63.75,2.53.75,1.7,0,2.72-.88,2.72-2.38,0-1.6-.95-2.23-2.65-2.23-.75,0-1.82.32-2.36.58l.42-6.22h5.93v1.41h-4.57l-.2,3.13c.41-.12,1.07-.22,1.51-.22,2.35,0,3.74,1.14,3.74,3.57,0,2.11-1.53,3.83-4.11,3.83-1.34,0-2.55-.37-3.28-.83Z"/>
      <path class="cls-3" d="m204.65,323.24v-.82c0-4.11,2.06-5.56,4.4-5.56s4.28,1.46,4.28,5.49v.87c0,4-1.92,5.54-4.32,5.54s-4.37-1.6-4.37-5.52Zm6.87.15v-1.05c0-2.8-.85-4.08-2.48-4.08s-2.52,1.22-2.52,3.98v1.05c0,2.77.85,4.08,2.5,4.08s2.5-1.14,2.5-3.98Z"/>
      <path class="cls-3" d="m222.06,326.49c-1.26.29-3.21.43-5.05.43h-1.53v-9.6h5.71v1.41c-1.31,0-2.65-.02-3.94-.02v6.77c1.89,0,3.45-.12,4.59-.37l.22,1.39Zm4.01,4.13v-7.67h-1.53v6.94h-1.65v-14.11h1.65v5.71h1.53v-6.02h1.68v15.15h-1.68Z"/>
      <path class="cls-3" d="m237.75,315.92h1.5l-4.05,14.41h-1.5l4.05-14.41Z"/>
      <path class="cls-3" d="m252.5,323.7c-1.24-.53-2.79-1.77-3.45-3.23-.46,1.56-2.04,3.01-3.57,3.6l-1.05-1.34c2.18-.87,3.72-2.69,3.72-5.03v-1.51h1.78v1.45c0,2.36,1.85,4.11,3.57,4.71l-1,1.36Zm-.49,6.92c-3.26,0-5.13-1.21-5.13-2.99s1.87-3.03,5.13-3.03,5.17,1.21,5.17,3.03-1.87,2.99-5.17,2.99Zm0-4.61c-2.09,0-3.33.61-3.33,1.62s1.24,1.6,3.33,1.6,3.37-.61,3.37-1.6-1.22-1.62-3.37-1.62Zm3.3-1.63v-4.28h-2.77v-1.43h2.77v-3.2h1.73v8.91h-1.73Z"/>
      <path class="cls-3" d="m259.81,322.72v-6.58h1.75v1.99h3.52v-2.02h1.75v6.61h-7.02Zm5.27-3.2h-3.52v1.78h3.52v-1.78Zm-3.2,10.98v-3.96h8.12v-1.19h-8.19v-1.41h9.93v3.91h-8.11v1.27h8.6v1.38h-10.35Zm8.11-7.29v-1.62h-2.4v-1.34h2.4v-1.51h-2.4v-1.34h2.4v-1.92h1.73v7.73h-1.73Z"/>
      <path class="cls-3" d="m287.2,322.28c-1.87.44-4.57.65-6.56.66l-1.61.02v-6.65h1.72v5.15c2.24-.02,4.42-.19,6.22-.59l.24,1.41Zm-6.7,8.14v-5.71h9.69v5.71h-9.69Zm7.96-4.35h-6.2v2.97h6.2v-2.97Zm1.73-5.85v3.62h-1.73v-8.36h1.73v3.28h2.23v1.46h-2.23Z"/>
      <path class="cls-3" d="m301.09,323.7c-1.24-.53-2.79-1.77-3.45-3.23-.46,1.56-2.04,3.01-3.57,3.6l-1.05-1.34c2.18-.87,3.72-2.69,3.72-5.03v-1.51h1.78v1.45c0,2.36,1.85,4.11,3.57,4.71l-1,1.36Zm-.49,6.92c-3.26,0-5.13-1.21-5.13-2.99s1.87-3.03,5.13-3.03,5.17,1.21,5.17,3.03-1.87,2.99-5.17,2.99Zm0-4.61c-2.09,0-3.33.61-3.33,1.62s1.24,1.6,3.33,1.6,3.37-.61,3.37-1.6-1.22-1.62-3.37-1.62Zm3.3-1.63v-4.28h-2.77v-1.43h2.77v-3.2h1.73v8.91h-1.73Z"/>
    </g>
    <g>
      <path class="cls-2" d="m168.97,348.97c-1.26.29-3.21.43-5.05.43h-1.53v-9.6h5.71v1.41c-1.31,0-2.65-.02-3.94-.02v6.77c1.89,0,3.45-.12,4.59-.37l.22,1.39Zm4.01,4.13v-7.67h-1.53v6.94h-1.65v-14.11h1.65v5.71h1.53v-6.02h1.68v15.15h-1.68Z"/>
      <path class="cls-2" d="m184.37,346.05c-1.24-.53-2.8-1.78-3.45-3.23-.46,1.6-2.04,2.99-3.57,3.64l-1.07-1.38c2.18-.88,3.72-2.69,3.72-5.01v-1.45h1.8v1.36c0,2.36,1.85,4.15,3.57,4.71l-1,1.36Zm-.95,7.05c-3.23,0-5.12-1.21-5.12-3.01s1.89-3.03,5.12-3.03,5.15,1.19,5.15,3.03-1.9,3.01-5.15,3.01Zm0-4.62c-2.11,0-3.33.59-3.33,1.61s1.22,1.6,3.33,1.6,3.37-.59,3.37-1.6-1.24-1.61-3.37-1.61Zm4.95-5.41v3.84h-1.75v-8.96h1.75v3.67h2.23v1.44h-2.23Z"/>
      <path class="cls-2" d="m192.19,342.12h1.85v1.8h-1.85v-1.8Zm0,6.27h1.85v1.8h-1.85v-1.8Z"/>
      <path class="cls-2" d="m202.57,349.23l-1.56.02v-9.74h1.72v8.26c1.97,0,4.61-.19,6.32-.65l.24,1.43c-1.82.44-4.81.66-6.71.68Zm9.57-3.98v7.85h-1.73v-15.15h1.73v5.85h2.35v1.44h-2.35Z"/>
      <path class="cls-2" d="m219.42,339.13c2.43,0,3.84,2.11,3.84,5.32s-1.41,5.29-3.84,5.29-3.88-2.11-3.88-5.3,1.44-5.3,3.88-5.3Zm0,1.43c-1.27,0-2.16,1.45-2.16,3.88s.88,3.89,2.16,3.89,2.19-1.46,2.19-3.89-.9-3.88-2.19-3.88Zm6.41,12.54v-15.15h1.73v15.15h-1.73Z"/>
      <path class="cls-2" d="m240.23,353.12v-5.1h-5.95v-1.41h13.68v1.41h-6v5.1h-1.73Zm5.97-8.55h-10.17v-5.98h10.17v5.98Zm-1.73-4.57h-6.68v3.16h6.68v-3.16Z"/>
      <path class="cls-2" d="m258.38,346.63c-2.87.39-6.27.53-9.54.56l-.25-1.45c.88,0,2.02.02,3.13,0v-3.18h1.72v3.11h.03c1.53-.05,3.69-.2,4.76-.36l.15,1.31Zm-1.58-2.21l-1.67-.26c.22-.92.37-2.4.36-3.69h-5.85v-1.41h7.6c-.02,2.28-.1,4.06-.44,5.35Zm-5.75,8.29v-4.44h1.75v3.04h8.53v1.39h-10.28Zm9.81-8.7v5.24h-1.73v-11.29h1.73v4.61h2.18v1.45h-2.18Z"/>
      <path class="cls-2" d="m271.75,338.4h1.5l-4.05,14.41h-1.5l4.05-14.41Z"/>
      <path class="cls-2" d="m286.5,346.19c-1.24-.53-2.79-1.77-3.45-3.23-.46,1.56-2.04,3.01-3.57,3.6l-1.05-1.34c2.18-.87,3.72-2.69,3.72-5.03v-1.51h1.78v1.45c0,2.36,1.85,4.11,3.57,4.71l-1,1.36Zm-.49,6.92c-3.26,0-5.13-1.21-5.13-2.99s1.87-3.03,5.13-3.03,5.17,1.21,5.17,3.03-1.87,2.99-5.17,2.99Zm0-4.61c-2.09,0-3.33.61-3.33,1.62s1.24,1.6,3.33,1.6,3.37-.61,3.37-1.6-1.22-1.62-3.37-1.62Zm3.3-1.63v-4.28h-2.77v-1.43h2.77v-3.2h1.73v8.91h-1.73Z"/>
      <path class="cls-2" d="m293.81,345.2v-6.58h1.75v1.99h3.52v-2.02h1.75v6.61h-7.02Zm5.27-3.2h-3.52v1.78h3.52v-1.78Zm-3.2,10.98v-3.96h8.13v-1.19h-8.19v-1.41h9.93v3.91h-8.11v1.27h8.6v1.38h-10.35Zm8.11-7.29v-1.62h-2.4v-1.34h2.4v-1.51h-2.4v-1.34h2.4v-1.92h1.73v7.73h-1.73Z"/>
      <path class="cls-2" d="m318.39,353.12v-5.1h-5.95v-1.41h13.68v1.41h-6v5.1h-1.73Zm5.97-8.55h-10.17v-5.98h10.17v5.98Zm-1.73-4.57h-6.68v3.16h6.68v-3.16Z"/>
      <path class="cls-2" d="m336.55,346.63c-2.87.39-6.27.53-9.54.56l-.25-1.45c.88,0,2.02.02,3.13,0v-3.18h1.72v3.11h.03c1.53-.05,3.69-.2,4.76-.36l.15,1.31Zm-1.58-2.21l-1.67-.26c.22-.92.37-2.4.36-3.69h-5.85v-1.41h7.6c-.02,2.28-.1,4.06-.44,5.35Zm-5.75,8.29v-4.44h1.75v3.04h8.53v1.39h-10.28Zm9.81-8.7v5.24h-1.73v-11.29h1.73v4.61h2.18v1.45h-2.18Z"/>
    </g>
    <g>
      <path class="cls-3" d="m674.8,323.75l-1.56.02v-9.74h1.72v8.26c1.97,0,4.61-.19,6.32-.65l.24,1.43c-1.82.44-4.81.66-6.71.68Zm9.57-3.98v7.85h-1.73v-15.15h1.73v5.85h2.35v1.44h-2.35Z"/>
      <path class="cls-3" d="m691.65,313.65c2.43,0,3.84,2.11,3.84,5.32s-1.41,5.29-3.84,5.29-3.88-2.11-3.88-5.3,1.45-5.3,3.88-5.3Zm0,1.43c-1.28,0-2.16,1.45-2.16,3.88s.88,3.89,2.16,3.89,2.19-1.46,2.19-3.89-.9-3.88-2.19-3.88Zm6.41,12.54v-15.15h1.73v15.15h-1.73Z"/>
      <path class="cls-3" d="m706.5,324.94l.32-1.38c.63.39,1.63.75,2.53.75,1.7,0,2.72-.88,2.72-2.38,0-1.6-.95-2.23-2.65-2.23-.75,0-1.82.32-2.36.58l.42-6.22h5.93v1.41h-4.57l-.2,3.13c.41-.12,1.07-.22,1.51-.22,2.35,0,3.74,1.14,3.74,3.57,0,2.11-1.53,3.83-4.11,3.83-1.34,0-2.55-.37-3.28-.83Z"/>
      <path class="cls-3" d="m715.65,320.24v-.82c0-4.11,2.06-5.56,4.4-5.56s4.28,1.46,4.28,5.49v.87c0,4-1.92,5.54-4.32,5.54s-4.37-1.6-4.37-5.52Zm6.87.15v-1.05c0-2.8-.85-4.08-2.48-4.08s-2.52,1.22-2.52,3.98v1.05c0,2.77.85,4.08,2.5,4.08s2.5-1.14,2.5-3.98Z"/>
      <path class="cls-3" d="m733.06,323.49c-1.26.29-3.21.43-5.05.43h-1.53v-9.6h5.71v1.41c-1.31,0-2.65-.02-3.94-.02v6.77c1.89,0,3.45-.12,4.59-.37l.22,1.39Zm4.01,4.13v-7.67h-1.53v6.94h-1.65v-14.11h1.65v5.71h1.53v-6.02h1.68v15.15h-1.68Z"/>
      <path class="cls-3" d="m748.75,312.92h1.5l-4.04,14.41h-1.5l4.05-14.41Z"/>
      <path class="cls-3" d="m763.5,320.7c-1.24-.53-2.79-1.77-3.45-3.23-.46,1.56-2.04,3.01-3.57,3.6l-1.05-1.34c2.18-.87,3.72-2.69,3.72-5.03v-1.51h1.79v1.45c0,2.36,1.85,4.11,3.57,4.71l-1,1.36Zm-.49,6.92c-3.26,0-5.13-1.21-5.13-2.99s1.87-3.03,5.13-3.03,5.17,1.21,5.17,3.03-1.87,2.99-5.17,2.99Zm0-4.61c-2.09,0-3.33.61-3.33,1.62s1.24,1.6,3.33,1.6,3.37-.61,3.37-1.6-1.22-1.62-3.37-1.62Zm3.3-1.63v-4.28h-2.77v-1.43h2.77v-3.2h1.73v8.91h-1.73Z"/>
      <path class="cls-3" d="m770.81,319.72v-6.58h1.75v1.99h3.52v-2.02h1.75v6.61h-7.02Zm5.27-3.2h-3.52v1.78h3.52v-1.78Zm-3.2,10.98v-3.96h8.12v-1.19h-8.19v-1.41h9.93v3.91h-8.11v1.27h8.6v1.38h-10.35Zm8.11-7.29v-1.62h-2.4v-1.34h2.4v-1.51h-2.4v-1.34h2.4v-1.92h1.73v7.73h-1.73Z"/>
      <path class="cls-3" d="m798.2,319.28c-1.87.44-4.57.65-6.56.66l-1.61.02v-6.65h1.72v5.15c2.24-.02,4.42-.19,6.22-.59l.24,1.41Zm-6.7,8.14v-5.71h9.69v5.71h-9.69Zm7.96-4.35h-6.2v2.97h6.2v-2.97Zm1.73-5.85v3.62h-1.73v-8.36h1.73v3.28h2.23v1.46h-2.23Z"/>
      <path class="cls-3" d="m812.09,320.7c-1.24-.53-2.79-1.77-3.45-3.23-.46,1.56-2.04,3.01-3.57,3.6l-1.05-1.34c2.18-.87,3.72-2.69,3.72-5.03v-1.51h1.78v1.45c0,2.36,1.85,4.11,3.57,4.71l-1,1.36Zm-.49,6.92c-3.26,0-5.13-1.21-5.13-2.99s1.87-3.03,5.13-3.03,5.17,1.21,5.17,3.03-1.87,2.99-5.17,2.99Zm0-4.61c-2.09,0-3.33.61-3.33,1.62s1.24,1.6,3.33,1.6,3.37-.61,3.37-1.6-1.22-1.62-3.37-1.62Zm3.3-1.63v-4.28h-2.77v-1.43h2.77v-3.2h1.73v8.91h-1.73Z"/>
    </g>
    <g>
      <path class="cls-2" d="m679.97,345.97c-1.26.29-3.21.43-5.05.43h-1.53v-9.6h5.71v1.41c-1.31,0-2.65-.02-3.94-.02v6.77c1.89,0,3.45-.12,4.59-.37l.22,1.39Zm4.01,4.13v-7.67h-1.53v6.94h-1.65v-14.11h1.65v5.71h1.53v-6.02h1.68v15.15h-1.68Z"/>
      <path class="cls-2" d="m695.37,343.05c-1.24-.53-2.8-1.78-3.45-3.23-.46,1.6-2.04,2.99-3.57,3.64l-1.07-1.38c2.18-.88,3.72-2.69,3.72-5.01v-1.45h1.8v1.36c0,2.36,1.85,4.15,3.57,4.71l-1,1.36Zm-.95,7.05c-3.23,0-5.12-1.21-5.12-3.01s1.89-3.03,5.12-3.03,5.15,1.19,5.15,3.03-1.9,3.01-5.15,3.01Zm0-4.62c-2.11,0-3.33.59-3.33,1.61s1.22,1.6,3.33,1.6,3.37-.59,3.37-1.6-1.24-1.61-3.37-1.61Zm4.95-5.41v3.84h-1.75v-8.96h1.75v3.67h2.23v1.44h-2.23Z"/>
      <path class="cls-2" d="m703.19,339.12h1.85v1.8h-1.85v-1.8Zm0,6.27h1.85v1.8h-1.85v-1.8Z"/>
      <path class="cls-2" d="m713.57,346.23l-1.56.02v-9.74h1.72v8.26c1.97,0,4.61-.19,6.32-.65l.24,1.43c-1.82.44-4.81.66-6.71.68Zm9.57-3.98v7.85h-1.73v-15.15h1.73v5.85h2.35v1.44h-2.35Z"/>
      <path class="cls-2" d="m730.42,336.13c2.43,0,3.84,2.11,3.84,5.32s-1.41,5.29-3.84,5.29-3.88-2.11-3.88-5.3,1.44-5.3,3.88-5.3Zm0,1.43c-1.27,0-2.16,1.45-2.16,3.88s.88,3.89,2.16,3.89,2.19-1.46,2.19-3.89-.9-3.88-2.19-3.88Zm6.41,12.54v-15.15h1.73v15.15h-1.73Z"/>
      <path class="cls-2" d="m751.23,350.12v-5.1h-5.95v-1.41h13.68v1.41h-6v5.1h-1.73Zm5.97-8.55h-10.17v-5.98h10.17v5.98Zm-1.73-4.57h-6.68v3.16h6.68v-3.16Z"/>
      <path class="cls-2" d="m769.38,343.63c-2.87.39-6.27.53-9.54.56l-.25-1.45c.88,0,2.02.02,3.13,0v-3.18h1.72v3.11h.03c1.53-.05,3.69-.2,4.76-.36l.15,1.31Zm-1.58-2.21l-1.67-.26c.22-.92.37-2.4.36-3.69h-5.85v-1.41h7.6c-.02,2.28-.1,4.06-.44,5.35Zm-5.75,8.29v-4.44h1.75v3.04h8.53v1.39h-10.28Zm9.81-8.7v5.24h-1.73v-11.29h1.73v4.61h2.18v1.45h-2.18Z"/>
      <path class="cls-2" d="m782.75,335.4h1.5l-4.05,14.41h-1.5l4.05-14.41Z"/>
      <path class="cls-2" d="m797.5,343.19c-1.24-.53-2.79-1.77-3.45-3.23-.46,1.56-2.04,3.01-3.57,3.6l-1.05-1.34c2.18-.87,3.72-2.69,3.72-5.03v-1.51h1.78v1.45c0,2.36,1.85,4.11,3.57,4.71l-1,1.36Zm-.49,6.92c-3.26,0-5.13-1.21-5.13-2.99s1.87-3.03,5.13-3.03,5.17,1.21,5.17,3.03-1.87,2.99-5.17,2.99Zm0-4.61c-2.09,0-3.33.61-3.33,1.62s1.24,1.6,3.33,1.6,3.37-.61,3.37-1.6-1.22-1.62-3.37-1.62Zm3.3-1.63v-4.28h-2.77v-1.43h2.77v-3.2h1.73v8.91h-1.73Z"/>
      <path class="cls-2" d="m804.81,342.2v-6.58h1.75v1.99h3.52v-2.02h1.75v6.61h-7.02Zm5.27-3.2h-3.52v1.78h3.52v-1.78Zm-3.2,10.98v-3.96h8.12v-1.19h-8.19v-1.41h9.93v3.91h-8.11v1.27h8.6v1.38h-10.35Zm8.11-7.29v-1.62h-2.4v-1.34h2.4v-1.51h-2.4v-1.34h2.4v-1.92h1.73v7.73h-1.73Z"/>
      <path class="cls-2" d="m829.39,350.12v-5.1h-5.95v-1.41h13.68v1.41h-6v5.1h-1.73Zm5.97-8.55h-10.17v-5.98h10.17v5.98Zm-1.73-4.57h-6.68v3.16h6.68v-3.16Z"/>
      <path class="cls-2" d="m847.55,343.63c-2.87.39-6.27.53-9.54.56l-.25-1.45c.88,0,2.02.02,3.13,0v-3.18h1.72v3.11h.03c1.53-.05,3.69-.2,4.76-.36l.15,1.31Zm-1.58-2.21l-1.67-.26c.22-.92.37-2.4.36-3.69h-5.85v-1.41h7.6c-.02,2.28-.1,4.06-.44,5.35Zm-5.75,8.29v-4.44h1.75v3.04h8.53v1.39h-10.28Zm9.81-8.7v5.24h-1.73v-11.29h1.73v4.61h2.18v1.45h-2.18Z"/>
    </g>
    <rect class="cls-1" y="463.25" width="141" height="141" rx="19.08" ry="19.08"/>
    <g>
      <path class="cls-1" d="m166.15,473.01c3.36,0,5.31,3.01,5.31,7.33s-1.95,7.29-5.31,7.29-5.29-2.99-5.29-7.29,1.95-7.33,5.29-7.33Zm0,2.16c-1.54,0-2.67,1.93-2.67,5.17s1.13,5.13,2.67,5.13,2.74-1.91,2.74-5.13-1.15-5.17-2.74-5.17Zm8.39,16.92v-20.49h2.67v20.49h-2.67Z"/>
      <path class="cls-1" d="m180.83,483.08v-10.23h2.71v3.17h4.28v-3.22h2.67v10.28h-9.66Zm6.99-4.97h-4.28v2.83h4.28v-2.83Zm-4.19,13.43v-6.46h2.69v4.35h11.24v2.12h-13.94Zm7.89-12.28v-2.19h2.92v-5.47h2.67v14.86h-2.67v-7.2h-2.92Z"/>
      <path class="cls-1" d="m207.92,492.07v-7.13h-7.84v-2.14h18.51v2.14h-7.96v7.13h-2.71Zm-7.01-12.85c3.08-.32,6.48-2.16,6.94-4.6h-6.12v-2.14h15.18v2.14h-6.12c.48,2.44,3.91,4.18,6.97,4.51-.37.71-.76,1.4-1.13,2.09-2.67-.3-6.19-2.16-7.31-4.12-1.08,2.09-4.44,3.84-7.24,4.21l-1.17-2.09Z"/>
      <path class="cls-1" d="m220.57,481.24v-8.6h9.59v8.6h-9.59Zm1.98,10.69v-5.5h10.72v-1.43h-10.81v-2.14h13.54v5.5h-10.78v1.4h11.36v2.16h-14.03Zm4.94-17.22h-4.25v4.44h4.25v-4.44Zm8.51,3.29v3.79h-2.74v-10.19h2.74v4.19h2.9v2.21h-2.9Z"/>
      <path class="cls-1" d="m264.43,483.11h-18.51v-2.14h18.51v2.14Zm-9.24,8.9c-4.53,0-7.13-1.45-7.13-3.79s2.6-3.84,7.1-3.84,7.15,1.47,7.15,3.84-2.6,3.79-7.13,3.79Zm-6.81-12.67v-7.13h13.73v2.16h-11.04v2.83h11.2v2.14h-13.89Zm6.78,7.17c-2.64,0-4.35.64-4.35,1.72s1.7,1.66,4.35,1.66,4.39-.62,4.39-1.66-1.72-1.72-4.39-1.72Z"/>
      <path class="cls-1" d="m276.2,483.38c-1.54-.6-3.7-2.46-4.58-4.35-.62,2.07-2.76,4.19-4.69,4.92l-1.61-2.12c2.97-1.08,4.9-3.82,4.9-6.92v-2.16h2.76v2.02c0,3.17,2.37,5.73,4.76,6.51l-1.54,2.09Zm-7.4,8.19v-6.65h2.69v4.53h10.85v2.12h-13.54Zm13.04-14.1h2.92v2.23h-2.92v6.76h-2.69v-14.86h2.69v5.86Z"/>
    </g>
    <rect class="cls-1" x="511" y="464.25" width="141" height="141" rx="19.08" ry="19.08"/>
    <g>
      <path class="cls-1" d="m677.15,474.01c3.36,0,5.31,3.01,5.31,7.33s-1.96,7.29-5.31,7.29-5.29-2.99-5.29-7.29,1.95-7.33,5.29-7.33Zm0,2.16c-1.54,0-2.67,1.93-2.67,5.17s1.13,5.13,2.67,5.13,2.74-1.91,2.74-5.13-1.15-5.17-2.74-5.17Zm8.39,16.92v-20.49h2.67v20.49h-2.67Z"/>
      <path class="cls-1" d="m691.83,484.08v-10.23h2.71v3.17h4.28v-3.22h2.67v10.28h-9.66Zm6.99-4.97h-4.28v2.83h4.28v-2.83Zm-4.19,13.43v-6.46h2.69v4.35h11.25v2.12h-13.94Zm7.89-12.28v-2.19h2.92v-5.47h2.67v14.86h-2.67v-7.2h-2.92Z"/>
      <path class="cls-1" d="m718.92,493.07v-7.13h-7.84v-2.14h18.51v2.14h-7.96v7.13h-2.71Zm-7.01-12.85c3.08-.32,6.49-2.16,6.95-4.6h-6.12v-2.14h15.18v2.14h-6.12c.48,2.44,3.91,4.18,6.97,4.51-.37.71-.76,1.4-1.13,2.09-2.67-.3-6.19-2.16-7.31-4.12-1.08,2.09-4.44,3.84-7.24,4.21l-1.17-2.09Z"/>
      <path class="cls-1" d="m731.57,482.24v-8.6h9.59v8.6h-9.59Zm1.98,10.69v-5.5h10.72v-1.43h-10.81v-2.14h13.54v5.5h-10.78v1.4h11.36v2.16h-14.03Zm4.94-17.22h-4.25v4.44h4.25v-4.44Zm8.51,3.29v3.79h-2.74v-10.19h2.74v4.19h2.9v2.21h-2.9Z"/>
      <path class="cls-1" d="m775.43,484.11h-18.51v-2.14h18.51v2.14Zm-9.24,8.9c-4.53,0-7.13-1.45-7.13-3.79s2.6-3.84,7.11-3.84,7.15,1.47,7.15,3.84-2.6,3.79-7.13,3.79Zm-6.81-12.67v-7.13h13.73v2.16h-11.04v2.83h11.2v2.14h-13.89Zm6.78,7.17c-2.64,0-4.35.64-4.35,1.72s1.7,1.66,4.35,1.66,4.39-.62,4.39-1.66-1.72-1.72-4.39-1.72Z"/>
      <path class="cls-1" d="m787.2,484.38c-1.54-.6-3.7-2.46-4.58-4.35-.62,2.07-2.76,4.19-4.69,4.92l-1.61-2.12c2.97-1.08,4.9-3.82,4.9-6.92v-2.16h2.76v2.02c0,3.17,2.37,5.73,4.76,6.51l-1.54,2.09Zm-7.4,8.19v-6.65h2.69v4.53h10.85v2.12h-13.54Zm13.04-14.1h2.92v2.23h-2.92v6.76h-2.69v-14.86h2.69v5.86Z"/>
    </g>
    <g>
      <path class="cls-3" d="m163.8,519.75l-1.56.02v-9.74h1.72v8.26c1.97,0,4.61-.19,6.32-.65l.24,1.43c-1.82.44-4.81.66-6.71.68Zm9.57-3.98v7.85h-1.73v-15.15h1.73v5.85h2.35v1.44h-2.35Z"/>
      <path class="cls-3" d="m180.65,509.65c2.43,0,3.84,2.11,3.84,5.32s-1.41,5.29-3.84,5.29-3.88-2.11-3.88-5.3,1.44-5.3,3.88-5.3Zm0,1.43c-1.27,0-2.16,1.45-2.16,3.88s.88,3.89,2.16,3.89,2.19-1.46,2.19-3.89-.9-3.88-2.19-3.88Zm6.41,12.54v-15.15h1.73v15.15h-1.73Z"/>
      <path class="cls-3" d="m195.5,520.94l.32-1.38c.63.39,1.63.75,2.53.75,1.7,0,2.72-.88,2.72-2.38,0-1.6-.95-2.23-2.65-2.23-.75,0-1.82.32-2.36.58l.42-6.22h5.93v1.41h-4.57l-.2,3.13c.41-.12,1.07-.22,1.51-.22,2.35,0,3.74,1.14,3.74,3.57,0,2.11-1.53,3.83-4.11,3.83-1.34,0-2.55-.37-3.28-.83Z"/>
      <path class="cls-3" d="m204.65,516.24v-.82c0-4.11,2.06-5.56,4.4-5.56s4.28,1.46,4.28,5.49v.87c0,4-1.92,5.54-4.32,5.54s-4.37-1.6-4.37-5.52Zm6.87.15v-1.05c0-2.8-.85-4.08-2.48-4.08s-2.52,1.22-2.52,3.98v1.05c0,2.77.85,4.08,2.5,4.08s2.5-1.14,2.5-3.98Z"/>
      <path class="cls-3" d="m222.06,519.49c-1.26.29-3.21.43-5.05.43h-1.53v-9.6h5.71v1.41c-1.31,0-2.65-.02-3.94-.02v6.77c1.89,0,3.45-.12,4.59-.37l.22,1.39Zm4.01,4.13v-7.67h-1.53v6.94h-1.65v-14.11h1.65v5.71h1.53v-6.02h1.68v15.15h-1.68Z"/>
      <path class="cls-3" d="m237.75,508.92h1.5l-4.05,14.41h-1.5l4.05-14.41Z"/>
      <path class="cls-3" d="m252.5,516.7c-1.24-.53-2.79-1.77-3.45-3.23-.46,1.56-2.04,3.01-3.57,3.6l-1.05-1.34c2.18-.87,3.72-2.69,3.72-5.03v-1.51h1.78v1.45c0,2.36,1.85,4.11,3.57,4.71l-1,1.36Zm-.49,6.92c-3.26,0-5.13-1.21-5.13-2.99s1.87-3.03,5.13-3.03,5.17,1.21,5.17,3.03-1.87,2.99-5.17,2.99Zm0-4.61c-2.09,0-3.33.61-3.33,1.62s1.24,1.6,3.33,1.6,3.37-.61,3.37-1.6-1.22-1.62-3.37-1.62Zm3.3-1.63v-4.28h-2.77v-1.43h2.77v-3.2h1.73v8.91h-1.73Z"/>
      <path class="cls-3" d="m259.81,515.72v-6.58h1.75v1.99h3.52v-2.02h1.75v6.61h-7.02Zm5.27-3.2h-3.52v1.78h3.52v-1.78Zm-3.2,10.98v-3.96h8.12v-1.19h-8.19v-1.41h9.93v3.91h-8.11v1.27h8.6v1.38h-10.35Zm8.11-7.29v-1.62h-2.4v-1.34h2.4v-1.51h-2.4v-1.34h2.4v-1.92h1.73v7.73h-1.73Z"/>
      <path class="cls-3" d="m287.2,515.28c-1.87.44-4.57.65-6.56.66l-1.61.02v-6.65h1.72v5.15c2.24-.02,4.42-.19,6.22-.59l.24,1.41Zm-6.7,8.14v-5.71h9.69v5.71h-9.69Zm7.96-4.35h-6.2v2.97h6.2v-2.97Zm1.73-5.85v3.62h-1.73v-8.36h1.73v3.28h2.23v1.46h-2.23Z"/>
      <path class="cls-3" d="m301.09,516.7c-1.24-.53-2.79-1.77-3.45-3.23-.46,1.56-2.04,3.01-3.57,3.6l-1.05-1.34c2.18-.87,3.72-2.69,3.72-5.03v-1.51h1.78v1.45c0,2.36,1.85,4.11,3.57,4.71l-1,1.36Zm-.49,6.92c-3.26,0-5.13-1.21-5.13-2.99s1.87-3.03,5.13-3.03,5.17,1.21,5.17,3.03-1.87,2.99-5.17,2.99Zm0-4.61c-2.09,0-3.33.61-3.33,1.62s1.24,1.6,3.33,1.6,3.37-.61,3.37-1.6-1.22-1.62-3.37-1.62Zm3.3-1.63v-4.28h-2.77v-1.43h2.77v-3.2h1.73v8.91h-1.73Z"/>
    </g>
    <g>
      <path class="cls-2" d="m168.97,541.97c-1.26.29-3.21.43-5.05.43h-1.53v-9.6h5.71v1.41c-1.31,0-2.65-.02-3.94-.02v6.77c1.89,0,3.45-.12,4.59-.37l.22,1.39Zm4.01,4.13v-7.67h-1.53v6.94h-1.65v-14.11h1.65v5.71h1.53v-6.02h1.68v15.15h-1.68Z"/>
      <path class="cls-2" d="m184.37,539.05c-1.24-.53-2.8-1.78-3.45-3.23-.46,1.6-2.04,2.99-3.57,3.64l-1.07-1.38c2.18-.88,3.72-2.69,3.72-5.01v-1.45h1.8v1.36c0,2.36,1.85,4.15,3.57,4.71l-1,1.36Zm-.95,7.05c-3.23,0-5.12-1.21-5.12-3.01s1.89-3.03,5.12-3.03,5.15,1.19,5.15,3.03-1.9,3.01-5.15,3.01Zm0-4.62c-2.11,0-3.33.59-3.33,1.61s1.22,1.6,3.33,1.6,3.37-.59,3.37-1.6-1.24-1.61-3.37-1.61Zm4.95-5.41v3.84h-1.75v-8.96h1.75v3.67h2.23v1.44h-2.23Z"/>
      <path class="cls-2" d="m192.19,535.12h1.85v1.8h-1.85v-1.8Zm0,6.27h1.85v1.8h-1.85v-1.8Z"/>
      <path class="cls-2" d="m202.57,542.23l-1.56.02v-9.74h1.72v8.26c1.97,0,4.61-.19,6.32-.65l.24,1.43c-1.82.44-4.81.66-6.71.68Zm9.57-3.98v7.85h-1.73v-15.15h1.73v5.85h2.35v1.44h-2.35Z"/>
      <path class="cls-2" d="m219.42,532.13c2.43,0,3.84,2.11,3.84,5.32s-1.41,5.29-3.84,5.29-3.88-2.11-3.88-5.3,1.44-5.3,3.88-5.3Zm0,1.43c-1.27,0-2.16,1.45-2.16,3.88s.88,3.89,2.16,3.89,2.19-1.46,2.19-3.89-.9-3.88-2.19-3.88Zm6.41,12.54v-15.15h1.73v15.15h-1.73Z"/>
      <path class="cls-2" d="m240.23,546.12v-5.1h-5.95v-1.41h13.68v1.41h-6v5.1h-1.73Zm5.97-8.55h-10.17v-5.98h10.17v5.98Zm-1.73-4.57h-6.68v3.16h6.68v-3.16Z"/>
      <path class="cls-2" d="m258.38,539.63c-2.87.39-6.27.53-9.54.56l-.25-1.45c.88,0,2.02.02,3.13,0v-3.18h1.72v3.11h.03c1.53-.05,3.69-.2,4.76-.36l.15,1.31Zm-1.58-2.21l-1.67-.26c.22-.92.37-2.4.36-3.69h-5.85v-1.41h7.6c-.02,2.28-.1,4.06-.44,5.35Zm-5.75,8.29v-4.44h1.75v3.04h8.53v1.39h-10.28Zm9.81-8.7v5.24h-1.73v-11.29h1.73v4.61h2.18v1.45h-2.18Z"/>
      <path class="cls-2" d="m271.75,531.4h1.5l-4.05,14.41h-1.5l4.05-14.41Z"/>
      <path class="cls-2" d="m286.5,539.19c-1.24-.53-2.79-1.77-3.45-3.23-.46,1.56-2.04,3.01-3.57,3.6l-1.05-1.34c2.18-.87,3.72-2.69,3.72-5.03v-1.51h1.78v1.45c0,2.36,1.85,4.11,3.57,4.71l-1,1.36Zm-.49,6.92c-3.26,0-5.13-1.21-5.13-2.99s1.87-3.03,5.13-3.03,5.17,1.21,5.17,3.03-1.87,2.99-5.17,2.99Zm0-4.61c-2.09,0-3.33.61-3.33,1.62s1.24,1.6,3.33,1.6,3.37-.61,3.37-1.6-1.22-1.62-3.37-1.62Zm3.3-1.63v-4.28h-2.77v-1.43h2.77v-3.2h1.73v8.91h-1.73Z"/>
      <path class="cls-2" d="m293.81,538.2v-6.58h1.75v1.99h3.52v-2.02h1.75v6.61h-7.02Zm5.27-3.2h-3.52v1.78h3.52v-1.78Zm-3.2,10.98v-3.96h8.13v-1.19h-8.19v-1.41h9.93v3.91h-8.11v1.27h8.6v1.38h-10.35Zm8.11-7.29v-1.62h-2.4v-1.34h2.4v-1.51h-2.4v-1.34h2.4v-1.92h1.73v7.73h-1.73Z"/>
      <path class="cls-2" d="m318.39,546.12v-5.1h-5.95v-1.41h13.68v1.41h-6v5.1h-1.73Zm5.97-8.55h-10.17v-5.98h10.17v5.98Zm-1.73-4.57h-6.68v3.16h6.68v-3.16Z"/>
      <path class="cls-2" d="m336.55,539.63c-2.87.39-6.27.53-9.54.56l-.25-1.45c.88,0,2.02.02,3.13,0v-3.18h1.72v3.11h.03c1.53-.05,3.69-.2,4.76-.36l.15,1.31Zm-1.58-2.21l-1.67-.26c.22-.92.37-2.4.36-3.69h-5.85v-1.41h7.6c-.02,2.28-.1,4.06-.44,5.35Zm-5.75,8.29v-4.44h1.75v3.04h8.53v1.39h-10.28Zm9.81-8.7v5.24h-1.73v-11.29h1.73v4.61h2.18v1.45h-2.18Z"/>
    </g>
    <g>
      <path class="cls-3" d="m674.8,516.75l-1.56.02v-9.74h1.72v8.26c1.97,0,4.61-.19,6.32-.65l.24,1.43c-1.82.44-4.81.66-6.71.68Zm9.57-3.98v7.85h-1.73v-15.15h1.73v5.85h2.35v1.44h-2.35Z"/>
      <path class="cls-3" d="m691.65,506.65c2.43,0,3.84,2.11,3.84,5.32s-1.41,5.29-3.84,5.29-3.88-2.11-3.88-5.3,1.45-5.3,3.88-5.3Zm0,1.43c-1.28,0-2.16,1.45-2.16,3.88s.88,3.89,2.16,3.89,2.19-1.46,2.19-3.89-.9-3.88-2.19-3.88Zm6.41,12.54v-15.15h1.73v15.15h-1.73Z"/>
      <path class="cls-3" d="m706.5,517.94l.32-1.38c.63.39,1.63.75,2.53.75,1.7,0,2.72-.88,2.72-2.38,0-1.6-.95-2.23-2.65-2.23-.75,0-1.82.32-2.36.58l.42-6.22h5.93v1.41h-4.57l-.2,3.13c.41-.12,1.07-.22,1.51-.22,2.35,0,3.74,1.14,3.74,3.57,0,2.11-1.53,3.83-4.11,3.83-1.34,0-2.55-.37-3.28-.83Z"/>
      <path class="cls-3" d="m715.65,513.24v-.82c0-4.11,2.06-5.56,4.4-5.56s4.28,1.46,4.28,5.49v.87c0,4-1.92,5.54-4.32,5.54s-4.37-1.6-4.37-5.52Zm6.87.15v-1.05c0-2.8-.85-4.08-2.48-4.08s-2.52,1.22-2.52,3.98v1.05c0,2.77.85,4.08,2.5,4.08s2.5-1.14,2.5-3.98Z"/>
      <path class="cls-3" d="m733.06,516.49c-1.26.29-3.21.43-5.05.43h-1.53v-9.6h5.71v1.41c-1.31,0-2.65-.02-3.94-.02v6.77c1.89,0,3.45-.12,4.59-.37l.22,1.39Zm4.01,4.13v-7.67h-1.53v6.94h-1.65v-14.11h1.65v5.71h1.53v-6.02h1.68v15.15h-1.68Z"/>
      <path class="cls-3" d="m748.75,505.92h1.5l-4.04,14.41h-1.5l4.05-14.41Z"/>
      <path class="cls-3" d="m763.5,513.7c-1.24-.53-2.79-1.77-3.45-3.23-.46,1.56-2.04,3.01-3.57,3.6l-1.05-1.34c2.18-.87,3.72-2.69,3.72-5.03v-1.51h1.79v1.45c0,2.36,1.85,4.11,3.57,4.71l-1,1.36Zm-.49,6.92c-3.26,0-5.13-1.21-5.13-2.99s1.87-3.03,5.13-3.03,5.17,1.21,5.17,3.03-1.87,2.99-5.17,2.99Zm0-4.61c-2.09,0-3.33.61-3.33,1.62s1.24,1.6,3.33,1.6,3.37-.61,3.37-1.6-1.22-1.62-3.37-1.62Zm3.3-1.63v-4.28h-2.77v-1.43h2.77v-3.2h1.73v8.91h-1.73Z"/>
      <path class="cls-3" d="m770.81,512.72v-6.58h1.75v1.99h3.52v-2.02h1.75v6.61h-7.02Zm5.27-3.2h-3.52v1.78h3.52v-1.78Zm-3.2,10.98v-3.96h8.12v-1.19h-8.19v-1.41h9.93v3.91h-8.11v1.27h8.6v1.38h-10.35Zm8.11-7.29v-1.62h-2.4v-1.34h2.4v-1.51h-2.4v-1.34h2.4v-1.92h1.73v7.73h-1.73Z"/>
      <path class="cls-3" d="m798.2,512.28c-1.87.44-4.57.65-6.56.66l-1.61.02v-6.65h1.72v5.15c2.24-.02,4.42-.19,6.22-.59l.24,1.41Zm-6.7,8.14v-5.71h9.69v5.71h-9.69Zm7.96-4.35h-6.2v2.97h6.2v-2.97Zm1.73-5.85v3.62h-1.73v-8.36h1.73v3.28h2.23v1.46h-2.23Z"/>
      <path class="cls-3" d="m812.09,513.7c-1.24-.53-2.79-1.77-3.45-3.23-.46,1.56-2.04,3.01-3.57,3.6l-1.05-1.34c2.18-.87,3.72-2.69,3.72-5.03v-1.51h1.78v1.45c0,2.36,1.85,4.11,3.57,4.71l-1,1.36Zm-.49,6.92c-3.26,0-5.13-1.21-5.13-2.99s1.87-3.03,5.13-3.03,5.17,1.21,5.17,3.03-1.87,2.99-5.17,2.99Zm0-4.61c-2.09,0-3.33.61-3.33,1.62s1.24,1.6,3.33,1.6,3.37-.61,3.37-1.6-1.22-1.62-3.37-1.62Zm3.3-1.63v-4.28h-2.77v-1.43h2.77v-3.2h1.73v8.91h-1.73Z"/>
    </g>
    <g>
      <path class="cls-2" d="m679.97,538.97c-1.26.29-3.21.43-5.05.43h-1.53v-9.6h5.71v1.41c-1.31,0-2.65-.02-3.94-.02v6.77c1.89,0,3.45-.12,4.59-.37l.22,1.39Zm4.01,4.13v-7.67h-1.53v6.94h-1.65v-14.11h1.65v5.71h1.53v-6.02h1.68v15.15h-1.68Z"/>
      <path class="cls-2" d="m695.37,536.05c-1.24-.53-2.8-1.78-3.45-3.23-.46,1.6-2.04,2.99-3.57,3.64l-1.07-1.38c2.18-.88,3.72-2.69,3.72-5.01v-1.45h1.8v1.36c0,2.36,1.85,4.15,3.57,4.71l-1,1.36Zm-.95,7.05c-3.23,0-5.12-1.21-5.12-3.01s1.89-3.03,5.12-3.03,5.15,1.19,5.15,3.03-1.9,3.01-5.15,3.01Zm0-4.62c-2.11,0-3.33.59-3.33,1.61s1.22,1.6,3.33,1.6,3.37-.59,3.37-1.6-1.24-1.61-3.37-1.61Zm4.95-5.41v3.84h-1.75v-8.96h1.75v3.67h2.23v1.44h-2.23Z"/>
      <path class="cls-2" d="m703.19,532.12h1.85v1.8h-1.85v-1.8Zm0,6.27h1.85v1.8h-1.85v-1.8Z"/>
      <path class="cls-2" d="m713.57,539.23l-1.56.02v-9.74h1.72v8.26c1.97,0,4.61-.19,6.32-.65l.24,1.43c-1.82.44-4.81.66-6.71.68Zm9.57-3.98v7.85h-1.73v-15.15h1.73v5.85h2.35v1.44h-2.35Z"/>
      <path class="cls-2" d="m730.42,529.13c2.43,0,3.84,2.11,3.84,5.32s-1.41,5.29-3.84,5.29-3.88-2.11-3.88-5.3,1.44-5.3,3.88-5.3Zm0,1.43c-1.27,0-2.16,1.45-2.16,3.88s.88,3.89,2.16,3.89,2.19-1.46,2.19-3.89-.9-3.88-2.19-3.88Zm6.41,12.54v-15.15h1.73v15.15h-1.73Z"/>
      <path class="cls-2" d="m751.23,543.12v-5.1h-5.95v-1.41h13.68v1.41h-6v5.1h-1.73Zm5.97-8.55h-10.17v-5.98h10.17v5.98Zm-1.73-4.57h-6.68v3.16h6.68v-3.16Z"/>
      <path class="cls-2" d="m769.38,536.63c-2.87.39-6.27.53-9.54.56l-.25-1.45c.88,0,2.02.02,3.13,0v-3.18h1.72v3.11h.03c1.53-.05,3.69-.2,4.76-.36l.15,1.31Zm-1.58-2.21l-1.67-.26c.22-.92.37-2.4.36-3.69h-5.85v-1.41h7.6c-.02,2.28-.1,4.06-.44,5.35Zm-5.75,8.29v-4.44h1.75v3.04h8.53v1.39h-10.28Zm9.81-8.7v5.24h-1.73v-11.29h1.73v4.61h2.18v1.45h-2.18Z"/>
      <path class="cls-2" d="m782.75,528.4h1.5l-4.05,14.41h-1.5l4.05-14.41Z"/>
      <path class="cls-2" d="m797.5,536.19c-1.24-.53-2.79-1.77-3.45-3.23-.46,1.56-2.04,3.01-3.57,3.6l-1.05-1.34c2.18-.87,3.72-2.69,3.72-5.03v-1.51h1.78v1.45c0,2.36,1.85,4.11,3.57,4.71l-1,1.36Zm-.49,6.92c-3.26,0-5.13-1.21-5.13-2.99s1.87-3.03,5.13-3.03,5.17,1.21,5.17,3.03-1.87,2.99-5.17,2.99Zm0-4.61c-2.09,0-3.33.61-3.33,1.62s1.24,1.6,3.33,1.6,3.37-.61,3.37-1.6-1.22-1.62-3.37-1.62Zm3.3-1.63v-4.28h-2.77v-1.43h2.77v-3.2h1.73v8.91h-1.73Z"/>
      <path class="cls-2" d="m804.81,535.2v-6.58h1.75v1.99h3.52v-2.02h1.75v6.61h-7.02Zm5.27-3.2h-3.52v1.78h3.52v-1.78Zm-3.2,10.98v-3.96h8.12v-1.19h-8.19v-1.41h9.93v3.91h-8.11v1.27h8.6v1.38h-10.35Zm8.11-7.29v-1.62h-2.4v-1.34h2.4v-1.51h-2.4v-1.34h2.4v-1.92h1.73v7.73h-1.73Z"/>
      <path class="cls-2" d="m829.39,543.12v-5.1h-5.95v-1.41h13.68v1.41h-6v5.1h-1.73Zm5.97-8.55h-10.17v-5.98h10.17v5.98Zm-1.73-4.57h-6.68v3.16h6.68v-3.16Z"/>
      <path class="cls-2" d="m847.55,536.63c-2.87.39-6.27.53-9.54.56l-.25-1.45c.88,0,2.02.02,3.13,0v-3.18h1.72v3.11h.03c1.53-.05,3.69-.2,4.76-.36l.15,1.31Zm-1.58-2.21l-1.67-.26c.22-.92.37-2.4.36-3.69h-5.85v-1.41h7.6c-.02,2.28-.1,4.06-.44,5.35Zm-5.75,8.29v-4.44h1.75v3.04h8.53v1.39h-10.28Zm9.81-8.7v5.24h-1.73v-11.29h1.73v4.61h2.18v1.45h-2.18Z"/>
    </g>
  </g>
</svg>