<?xml version="1.0" encoding="utf-8"?>
<!-- Generator: Adobe Illustrator 27.8.1, SVG Export Plug-In . SVG Version: 6.00 Build 0)  -->
<svg version="1.1" id="_레이어_2" xmlns="http://www.w3.org/2000/svg" xmlns:xlink="http://www.w3.org/1999/xlink" x="0px"
	 y="0px" viewBox="0 0 997.9 280.6" style="enable-background:new 0 0 997.9 280.6;" xml:space="preserve">
<style type="text/css">
	.st0{fill:#FAFAAA;}
	.st1{fill:#4371C4;}
	.st2{fill:#009EE2;}
	.st3{fill:#FFFFFF;}
	.st4{fill:#CACACA;}
	.st5{fill:#00ACE8;}
	.st6{fill:#1DBBEE;}
</style>
<g>
	<path class="st0" d="M7.5,169.4l-1.2-1.9c4-0.7,7-2.9,7.8-6.1H7.3v-1.9h9.4C16.5,165.1,12.2,168.2,7.5,169.4L7.5,169.4z M9.7,178.8
		v-5.5h11v-1.5H9.6v-1.9h13.5v5.2h-11v1.8h11.7v1.9H9.7L9.7,178.8z M20.7,168.8v-3.7h-4.1v-1.9h4.1v-4.7h2.4v10.4L20.7,168.8
		L20.7,168.8z"/>
	<path class="st0" d="M31.5,159.9c3,0,4.9,2.5,5.2,6.2h3.9v-7.7H43V179h-2.4v-10.9h-3.9c-0.2,3.8-2.1,6.4-5.2,6.4
		c-3.3,0-5.2-2.9-5.2-7.3S28.2,159.9,31.5,159.9L31.5,159.9z M31.5,161.8c-1.7,0-2.9,2.1-2.9,5.4s1.2,5.4,2.9,5.4s3-2.1,3-5.4
		S33.2,161.8,31.5,161.8z"/>
	<path class="st0" d="M57,174.3c-1.8-1.1-4-3.7-4.8-6c-0.7,2.4-2.8,5-5,6.4l-1.5-1.7c3.2-2.1,5.2-5.4,5.2-9.4v-3.4h2.4v3.2
		c0,3.9,2,7.2,5.1,9.1L57,174.3L57,174.3z M60.5,179v-11.4h-4v-2h4v-7.1h2.4V179H60.5L60.5,179z"/>
	<path class="st0" d="M75,163l-2.8,0.6v-1.4l3.9-1.8h1.3v15.8H75V163z"/>
	<path class="st0" d="M81.3,169v-1.1c0-5.6,2.8-7.5,6-7.5s5.8,2,5.8,7.4v1.2c0,5.4-2.6,7.5-5.8,7.5S81.3,174.3,81.3,169L81.3,169z
		 M90.6,169.2v-1.4c0-3.8-1.2-5.5-3.4-5.5s-3.4,1.7-3.4,5.4v1.4c0,3.8,1.2,5.5,3.4,5.5S90.6,173.1,90.6,169.2z"/>
	<path class="st0" d="M103.5,174.6V171h-8.2v-2h18.5v1.9h-7.9v3.6h-2.4V174.6z M97.7,167.2v-8.1h2.3v2.3h9v-2.3h2.3v8.1H97.7
		L97.7,167.2z M97.7,178.4v-5.7h2.4v3.8h11.6v1.9H97.7L97.7,178.4z M109.1,163.2h-9v2h9V163.2z"/>
	<path class="st0" d="M122.5,175.2l-1.5-1.8c4.7-2.2,7.7-6.5,8.1-10.8h-6.9v-1.9h9.5C131.4,167,128.3,172,122.5,175.2L122.5,175.2z
		 M135.8,179v-10.4h-4.2v-2h4.2v-8.1h2.3V179H135.8L135.8,179z"/>
	<path class="st0" d="M154,173.6c-2.2,0.4-5.5,0.6-9.2,0.6h-2.5v-8.3h6.9v-3.8h-7v-1.9h9.4v7.5h-6.9v4.4c2.4,0,6.5-0.1,9.1-0.6
		L154,173.6L154,173.6z M155.6,179v-20.5h2.3V179H155.6z"/>
	<path class="st0" d="M174.9,173.7c-4.4,0.5-8.8,0.7-13.6,0.7l-0.4-2c2.2,0,4.4,0,6.8-0.1c2.9-0.1,5.2-0.3,7-0.5L174.9,173.7z
		 M167.5,169.7c-3,0-5.2-1.9-5.2-4.7s2.3-4.9,5.2-4.9s5.4,2,5.4,4.9S170.5,169.7,167.5,169.7z M167.5,162.1c-1.6,0-2.9,1.1-2.9,2.9
		s1.4,2.7,2.9,2.7s3-1.1,3-2.7C170.5,163.2,169.2,162.1,167.5,162.1z M178.2,179h-2.3v-20.5h2.3V179z"/>
	<path class="st0" d="M6.2,204v-1.9h8v-4.7H8.5v-9.7h13.9v9.7h-5.8v4.7h8.1v1.9H6.2L6.2,204z M20.1,189.6h-9.2v5.9h9.2
		C20.1,195.5,20.1,189.6,20.1,189.6z"/>
	<path class="st0" d="M31.9,196.8c-2.9,0-5.2-1.8-5.2-4.7s2.3-4.9,5.2-4.9s5.3,2,5.3,4.9S34.9,196.8,31.9,196.8z M31.9,189.2
		c-1.8,0-3,1.3-3,2.9c0,1.7,1.2,2.9,3,2.9s3-1.3,3-2.9S33.8,189.2,31.9,189.2z M29.6,206.3v-7.6H43v7.6H29.6z M40.6,200.5H32v3.9
		h8.7v-3.9H40.6z M43,186.1v11.5h-2.4v-11.5H43z"/>
	<path class="st0" d="M46,196.3v-1.9h18.5v1.9H46z M48.4,206.4v-5.2h11.3v-1.5H48.3v-1.9H62v5.1H50.7v1.6h12.1v1.9L48.4,206.4
		L48.4,206.4z M48.4,192.9v-6.4h13.7v1.9H50.8v2.6h11.5v1.9H48.4z"/>
	<path class="st0" d="M77.3,187.6c3.2,0,5.2,2.9,5.2,7.2s-2,7.2-5.2,7.2s-5.1-2.9-5.1-7.2S74.1,187.6,77.3,187.6z M77.3,189.5
		c-1.7,0-2.9,2.1-2.9,5.3s1.1,5.3,2.9,5.3s2.9-2.1,2.9-5.3S79,189.5,77.3,189.5z M83.2,196.9h3.2v-4.7h-3.2v-1.9h3.3v-4.2h2.4v20.5
		h-2.4v-7.8h-3.3V196.9z"/>
	<path class="st0" d="M93.2,202.7l-1.5-1.8c4.7-2.2,7.8-6.5,8.2-10.8h-7v-1.9h9.5C102.3,194.6,99.1,199.5,93.2,202.7L93.2,202.7z
		 M106.4,206.6v-20.5h2.3v20.5H106.4z"/>
	<path class="st0" d="M129.7,200.9c-2.2,0.5-5.5,0.7-8.9,0.7h-2.2V188h9.3v1.9h-7v9.7c2.5,0.1,5.9-0.1,8.5-0.6L129.7,200.9
		L129.7,200.9z M133.7,195.9v10.7h-2.3v-20.5h2.3v7.8h3.1v2H133.7L133.7,195.9z"/>
	<path class="st0" d="M149.5,196.8c-2.9,0-5.3-1.8-5.3-4.7s2.3-4.9,5.3-4.9s5.3,2,5.3,4.9S152.4,196.8,149.5,196.8z M150.1,202.7
		c-0.5,1.6-2.1,3.2-4,4l-1.3-1.6c2.2-0.9,4-2.9,4-5.5v-1h2.3v0.9c0,2.1,1.5,3.3,2.6,3.7l-1.5,1.7
		C151.5,204.4,150.5,203.6,150.1,202.7L150.1,202.7z M149.5,189.1c-1.8,0-3,1.3-3,2.9c0,1.7,1.2,2.9,3,2.9s3-1.3,3-2.9
		S151.3,189.1,149.5,189.1z M161.3,206.5c-1.4-0.6-3.2-2.2-3.7-3.7c-0.4,1.5-2.2,3.3-3.8,4.1l-1.3-1.6c2.4-1.1,4-3.2,4-5.8v-0.9h2.3
		v0.9c0,2.6,1.6,4.6,3.9,5.4L161.3,206.5L161.3,206.5z M160.6,186.1v11.4h-2.4v-11.4H160.6z"/>
	<path class="st0" d="M169,187.5c3,0,4.9,2.5,5.2,6.2h3.9V186h2.4v20.5h-2.4v-10.9h-3.9c-0.2,3.8-2.1,6.4-5.2,6.4
		c-3.3,0-5.2-2.9-5.2-7.3S165.7,187.5,169,187.5L169,187.5z M169,189.4c-1.7,0-2.9,2.1-2.9,5.4s1.2,5.4,2.9,5.4s3-2.1,3-5.4
		S170.8,189.4,169,189.4z"/>
	<path class="st0" d="M183.5,204v-1.9h4.3v-3.6h2.4v3.6h5.1v-3.6h2.4v3.6h4.4v1.9H183.5z M192.8,198c-4.4,0-7.4-2.2-7.4-5.3
		s3-5.3,7.4-5.3s7.5,2.2,7.5,5.3S197.3,198,192.8,198z M192.8,189.4c-3,0-5,1.3-5,3.3s2,3.3,5,3.3s5-1.3,5-3.3
		S195.8,189.4,192.8,189.4z"/>
	<path class="st0" d="M204.3,201.6h2.5v2.5h-2.5V201.6z"/>
</g>
<path class="st0" d="M18,51.4V39.5H4.3v-3.8h32.2v3.8H22.7v11.8H18V51.4z M20.4,33c-7.7,0-12.6-3.2-12.6-7.9s5-7.9,12.6-7.9
	S33,20.4,33,25.1S28.1,33,20.4,33z M20.4,21c-4.8,0-7.8,1.8-7.8,4.2s3,4.2,7.8,4.2s7.8-1.8,7.8-4.2S25.2,21,20.4,21z"/>
<path class="st0" d="M60.9,42c-3.8,0.8-10.4,1.2-16.4,1.2h-3.8V28.4h11.6v-5.9H40.5v-3.7H57v13.4H45.3v7.2c3.4,0,10.5-0.2,15-1
	L60.9,42L60.9,42z M68.1,15.7v35.6h-4.6V15.7H68.1L68.1,15.7z"/>
<path class="st0" d="M101.7,28.9v3.4h13.8V36H83.3v-3.7H97v-3.4h-9.4V16.5h23.9v3.8H92.3v5h19.5V29L101.7,28.9L101.7,28.9z
	 M99.4,51.4c-7.9,0-12.4-2.6-12.4-6.7s4.5-6.6,12.4-6.6s12.4,2.6,12.4,6.6S107.3,51.4,99.4,51.4L99.4,51.4z M99.4,41.8
	c-4.6,0-7.6,1.1-7.6,3s3,2.9,7.6,2.9s7.6-1.1,7.6-2.9S104,41.8,99.4,41.8z"/>
<path class="st0" d="M134.3,41.6c-1.8,0.6-7.6,1.1-11.9,1.1h-3.2V18.8h4.6v20c3.5,0,7.7-0.3,9.9-1L134.3,41.6L134.3,41.6z
	 M129.2,30.6v-3.8h7V16.3h4.4v33.3h-4.4v-19L129.2,30.6L129.2,30.6z M143.5,51.3V15.7h4.4v35.6H143.5z"/>
<path class="st0" d="M170.8,49.7V33.1h-3c-0.4,5.8-2.7,10.8-7.7,10.8c-5.5,0-7.7-6.3-7.7-12.8s2.2-12.7,7.7-12.7
	c5,0,7.3,5.1,7.7,10.9h3V16.4h4.4v33.3L170.8,49.7L170.8,49.7z M160.1,22.4c-2.3,0-3.3,3.9-3.3,8.7s1,8.6,3.3,8.6s3.4-3.9,3.4-8.6
	S162.5,22.4,160.1,22.4z M178,51.3V15.7h4.4v35.6H178z"/>
<path class="st0" d="M205.4,43.4c-3-1.8-7-6.3-8.2-10c-1.2,4.1-4.8,8.6-8.5,10.6l-2.8-3.4c5.7-3.7,8.8-9.4,8.8-16.4v-5.4h4.8V24
	c0,7,3.2,12.6,8.6,16L205.4,43.4z M211.2,51.3V31.7h-6.4v-4h6.4v-12h4.7v35.6H211.2L211.2,51.3z"/>
<path class="st0" d="M231.8,21.9h18.8v3.7h-6.7c0.9,3.8,4.2,5.9,7.6,6.8c-0.8,1.2-1.5,2.4-2.3,3.6c-2.7-0.8-6.4-3.3-7.9-6.3
	c-1.3,3.2-4.8,6.2-8.4,7.3c-0.8-1.2-1.7-2.4-2.6-3.6c4.4-1.4,7.4-3.9,8.2-7.8h-6.7L231.8,21.9L231.8,21.9z M259.5,37.8v3.7h-9.3
	c1,3.6,6.3,6.4,11,6.5l-2.2,3.6c-4.8-0.4-10.1-4-11.5-6.4c-1.2,2.5-6.4,6-11.5,6.4l-2.2-3.6c4.9,0,10.2-2.7,11.2-6.4h-9.3v-3.7
	L259.5,37.8L259.5,37.8z M236,16.2h10.4v3.6H236V16.2z M258.9,28.3V36h-4.6V15.7h4.6v8.8h4.9v3.8H258.9z"/>
<path class="st0" d="M265.4,37v-3.8h32.2V37H265.4z M269.5,50.4V39.8h4.6v6.8h19.7v3.7h-24.3V50.4z M269.7,29.2V16.8h4.7v8.7h19.2
	v3.7H269.7z"/>
<path class="st0" d="M206.7,106.8v-3.7h13.7v-7.6h-9.8v-17h24.5v17.1h-10v7.6h13.8v3.7L206.7,106.8L206.7,106.8z M230.4,82.2h-15.2
	v9.7h15.2V82.2z"/>
<path class="st0" d="M251.8,77.6c5.3,0,9.4,3.6,9.4,8.6s-4.1,8.3-9.4,8.3s-9.4-3.2-9.4-8.3S246.5,77.6,251.8,77.6z M251.8,90.9
	c2.8,0,5-2,5-4.7s-1.9-4.7-5-4.7s-4.9,2.1-4.9,4.7C246.9,88.9,248.8,90.9,251.8,90.9z M247.1,110.9V97.7h23.4v13.2
	C270.5,110.9,247.1,110.9,247.1,110.9z M265.9,101.2h-14.1v6h14.1V101.2z M270.5,75.7v20.1h-4.6V75.7H270.5z"/>
<path class="st0" d="M9.5,235.6h93c4.1,0,7.5,3.3,7.5,7.5v30c0,4.1-3.3,7.5-7.5,7.5h-93c-4.1,0-7.5-3.3-7.5-7.5v-30
	C2,238.9,5.4,235.6,9.5,235.6z"/>
<g>
	<path class="st1" d="M34.4,255.3h2.3v1.7H22.2v-1.7h10.2c0.2-0.9,0.4-2.4,0.4-3.4H24v-1.7h10.8C34.8,252.3,34.7,253.9,34.4,255.3
		L34.4,255.3z M24,265.5v-4.3h8.8V260h-9v-1.7h11.1v4.3H26v1.1h9.4v1.7L24,265.5L24,265.5z"/>
	<path class="st1" d="M49.8,249.9c3.6,0,5.7,1.1,5.7,2.9c0,1.6-1.7,2.6-4.7,2.8v0.9H57v1.7H42.5v-1.7h6.2v-0.9
		c-2.9-0.2-4.6-1.3-4.6-2.8C44.1,251,46.1,249.9,49.8,249.9L49.8,249.9z M44.3,265.6v-4.1H53v-0.9h-8.8V259H55v4h-8.6v0.9h9.2v1.7
		H44.3L44.3,265.6z M49.8,254c2.2,0,3.5-0.6,3.5-1.3s-1.3-1.3-3.5-1.3s-3.5,0.6-3.5,1.3S47.6,254,49.8,254z"/>
	<path class="st1" d="M68.1,261.5c-1.7,0.3-4.7,0.5-7.4,0.5H59v-6.7h5.2v-2.7h-5.3V251h7.4v6H61v3.3c1.5,0,4.7-0.1,6.8-0.5
		L68.1,261.5L68.1,261.5z M71.3,249.7v16h-2.1v-16L71.3,249.7L71.3,249.7z"/>
	<path class="st1" d="M74.8,262.8l-1.3-1.6c3.5-1.6,5.9-5,6.2-8.1h-5.2v-1.8H82C81.8,256.2,79.7,260.1,74.8,262.8L74.8,262.8z
		 M84.8,265.7v-16h2.1v16H84.8z"/>
</g>
<g>
	<path class="st2" d="M536.4,196.5c1.6-0.6,3.5-1.8,4.1-3.5c0.6-1.9-1.8-4.1-3.8-3.5c-1.7,0.5-8.3,5.8-8.9,7.5
		C527.2,198.8,533.6,197.5,536.4,196.5L536.4,196.5z"/>
	<path class="st2" d="M624.9,200c0.9-1.8,1.6-3.8,1.6-4.9c0-0.8-0.3-1.9-0.8-2.6c-0.8-1.2-1.7-1.3-2.7,0.1c-1.7,2.1-3.2,4.3-5.4,7.8
		c-1.6,0.1-3.5,0.2-5.2,0.1s-2.4,0.6-1.4,1.9c0.6,0.8,1.9,1.5,4.1,1.8c-0.8,1.3-1.6,2.6-2.3,3.9c-0.1,0.1-0.2,0.2-0.2,0.3
		c-2.2,3.9-16.2,20.6-21.1,18.8c-0.9-0.4-1.4-0.8-1.4-2.2c0-1,0.3-2.4,0.9-3.8c0.8-1.6,2.6-4.3,6.5-10.6c0.6-0.9,0.8-1.8,0.8-2.7
		c0-2.5-2.1-4.5-4.2-4.5c-1.4,0-3.9,0.8-6,2.2c0.7-0.9,5.2-6.9,6.6-9.1c1.7-2.7,2.6-5.1,2.6-6.9c0-0.9-0.2-1.8-0.6-2.5
		c-0.7-1.3-1.7-1.6-2.9-0.3c-3.8,4.4-11.2,15.2-16.7,24c-3,3.7-13.1,13.4-22.4,16.4c2.4-4.9,5.2-9.6,7.5-13.7c1.8-3.2,2.6-5,2.6-6.7
		c0-1.4-0.5-2.6-1.2-3.3c-0.9-1-2.2-1-3.1,0.4c-0.4,0.7-0.9,1.4-1.2,1.8c-0.7-1.6-2.2-2.7-4.6-2.7c-5.1,0-12.9,5.6-16.8,12.3
		c-0.2,0.1-0.3,0.3-0.4,0.6c-2.2,4.4-9.6,11.9-16.6,11.1c-0.8-0.1-1.1-0.6-1.1-1.6s0.4-2.4,1-3.9c1.2-2.6,4.5-7.4,5.9-10.2
		c1.9-3.2,1.3-6-0.1-7.3c-0.9-1-1.8-0.8-2.9,0.4c-1.4,1.7-4.2,6.2-6.2,9.6c-4.4,7.8-19.1,21.4-23.4,7.2c-1-3.5-0.6-4.4-0.4-6.2
		c6.4-2.1,12.9-6.2,15.9-10c2.7-3.3,4.2-7,2.2-11.3c-1.8-4.1-5.3-5.5-9.1-5.4c-2.7,0.1-5.2,0.8-7.9,1.6c-2.6,0.8-5.3,1.5-8.2,1.9
		c-1.5,0.2-1.9,0.7-1.3,1.6c0.9,1.4,1.9,2.3,4.2,2.6c-6.3,8.9-12.7,20.6-14.4,26.3c-0.4,1.2-0.5,2.3-0.5,3.2c0,1.6,0.6,2.6,1.4,3.4
		c1.1,1,1.9,0.8,2.4-0.4c2.2-4.8,4-8.5,5.8-11.6l3.9-1c-0.9,3.9-1.8,8,1.8,11.6c4.7,4.6,12,3.8,16,2.1c3.1-1.3,5.8-2.9,7.9-4.7
		c0.3,2.8,2.3,4.6,6.3,4.7c6.3,0.2,11.9-2.3,15.5-5.1c0.5,3,2.8,5,6.3,5c1.9,0,3.8-0.6,5.4-1.6l-0.9,2.1
		c-8.8,2.7-15.7,9.4-15.7,15.2c0,2,1.1,3.7,2.1,5c1.5,1.8,3.3,2.1,5,1.5c5.8-2.5,11.1-12.3,14.9-20.6c7.2-2,13.5-5.8,18.1-9.4
		c0,0.1-0.1,0.1-0.1,0.2c-1.8,4.3-0.8,5.8,0.4,7.1c0.9,1,1.9,0.8,2.5-0.4c1.7-3.9,4.3-8.3,6.8-12c3.8-5.6,10.6-9.6,11.3-9.6
		c0.5,0-0.6,1.6-1.9,3.7c-2.7,3.8-6.2,9.4-6.2,13.5c0,3.4,2.2,5.3,6.9,5.5c5.2,0.3,11.3-3.8,16-8.1c0,0.3,0,0.6,0,0.8
		c0,4.5,3.3,7.2,7.1,7.2c6,0,10.8-5.6,11.9-7.5c0.8-1.5,1.1-2.5,0.7-3.8c-0.5-1.8-2.2-1.6-2.9-0.1c-2.5,4.9-6.2,8.9-9.1,8.9
		c-1.2,0-1.9-1.4-1.9-3.3c0-1.4,0.4-3.1,1.3-4.9c2.5-4.9,6.6-11.3,9.3-15.5c1.6-0.2,14.2-0.1,21.5-0.4c1.7-0.1,2.7-2.2,2-3.4
		C646,198.9,628.6,200.9,624.9,200L624.9,200z M493.2,202.8c1.8-3,2.7-5.3,2.7-7.1l2.8-0.8c2.3-0.7,5-1.6,6.7-1.6
		c1.1,0,1.9,0.3,2.3,1.4c1.9,4.3-5.2,12.8-19.5,16.1C489.5,208.8,491.3,206.1,493.2,202.8L493.2,202.8z M540.3,242.7
		c-2.2,3.5-4,5.4-4.7,5c-0.7-0.6,0.2-3.6,2.3-6.8c1.5-2.3,3.7-4.6,6.8-6.5C543.3,237.6,541.7,240.4,540.3,242.7L540.3,242.7z
		 M552.3,217.5c-3.5,5.4-6.9,9.4-9.2,9.3c-0.7,0-0.9-0.8-0.9-2.1c0-7.5,11.1-17.7,13.5-17.7c0.5,0,0.7,0.4,0.7,1.2
		C556.4,209.9,555.1,213.1,552.3,217.5L552.3,217.5z"/>
	<path class="st2" d="M694.2,192c0-0.9-0.2-1.8-0.7-2.5c-0.8-1.2-1.7-1.6-2.7-0.2c-4.7,6.7-11.7,18-16.6,27.2
		c0.5-7.4,1.2-14.2,2.2-19.4c0.2-1.2,0.4-2.2,0.4-3.1c0-2.3-1-3.7-3.2-5.1c-1.1-0.8-1.9-0.8-2.9,0.6c-5.5,8.1-14.6,23.5-18.3,32.2
		c-0.6,1.4-0.9,2.9-0.9,3.9c0,1.5,0.7,2.8,1.4,3.6c1,1,2.1,0.9,2.6-0.4c3.2-8,8.3-16.9,13.4-24.8c-0.7,5.5-0.9,10.9-0.9,14.6
		c0,1.6,0.1,2.9,0.2,4.7c0.3,3.3,1.4,5,3.8,6.1c1.2,0.6,2,0.2,2.4-0.6c4.4-8.7,13.2-23.9,17.2-29.9
		C693.8,195.8,694.2,193.5,694.2,192L694.2,192z"/>
	<path class="st2" d="M746.1,203c-2.1,0-6.9,3.4-8.4,14.2c-3.6,5.8-7.5,9.9-9.7,9.9c-0.5,0-0.8-0.5-0.8-1.4s0.5-2.4,1.3-3.9
		c2.2-4.5,5.2-8.4,6.6-10.9c0.9-1.6,1.2-3,1.2-4.3c0-1.4-0.4-2.3-1.2-3.2c-0.9-1.2-1.9-0.9-3,0.4c-1.2,1.6-2.3,3.2-3.4,5.2
		c-1.4,2.2-3.1,5-6.1,9.5c-3.2,4.8-5.7,8.3-7.3,8.3c-0.7,0-0.9-0.4-0.9-1.2c0-0.9,0.3-2.1,0.9-3.6c1.4-3,3.2-5.9,5.5-9.4
		c1.6-2.3,2.4-4.3,2.4-5.9c0-1-0.4-2.1-1.1-3c-0.8-1-2.2-1.1-3,0.1c-0.8,1-1.8,2.4-2.5,3.4c-2.2,3.1-5.6,5.8-8.9,6.3
		c0.4-3.6-0.9-5.6-2.3-6.9c-0.4-0.3-0.7-0.6-1-1c-1.7-2-2.9-2.6-5.5-2.4c-4.4,0.3-9.2,4.1-11.9,8.3c-1.8,2.9-3,6.3-3,9.1
		c0,1.9,0.7,4,2.1,5.6c2,2.3,4.6,3.2,6.8,3.2c6.6,0,12.4-7.4,14.2-13.4c1.4,0,2.8-0.2,4.2-0.6c-0.8,1.6-1.4,2.9-1.9,4.4
		c-0.7,1.7-0.9,3.2-0.9,4.4c0,2.9,1.5,5.1,4.9,5.1c3.2,0,5.8-1.6,7.9-3.6c0.4,2.3,2.3,3.9,5.1,3.9c5,0,10.1-4.9,14.9-12
		c4.7-6.7,5.7-9.5,6.2-12C748,203.9,747.3,203,746.1,203L746.1,203z M698.8,219.5c-2.5,4.4-5.5,6.7-7.4,6.7c-0.9,0-1.6-0.7-1.6-2.6
		c0-2.4,1.1-5.9,3-9.1c1.2-1.9,2.7-3.6,4.1-5c0.4,2.1,2.3,4.1,4.5,5.1C700.9,216,700,217.7,698.8,219.5L698.8,219.5z M702.5,212.5
		c-0.8-0.8-1.2-2.5-1.2-3.7c0-1,0.7-1.6,1.1-1.6c0.5,0,1.1,0.4,1.1,1.4C703.5,209.4,703.2,211,702.5,212.5L702.5,212.5z"/>
</g>
<g>
	<polygon class="st2" points="908.1,257.1 785.8,203.7 785.8,58 908.1,111.3 	"/>
	<polygon class="st3" points="865.5,238.2 822.2,218.7 822.2,142 865.5,161.5 	"/>
	<polygon class="st4" points="865.5,238.2 822.2,218.7 799.8,231.7 843,251.2 	"/>
	<polygon class="st5" points="997.9,57.3 875.6,4 785.8,58 908.1,111.3 	"/>
	<polygon class="st6" points="908.1,257.1 997.3,203.7 997.3,58 908.1,111.3 	"/>
</g>
<g>
	<path class="st0" d="M43.6,83.6c1.1-0.4,2.5-1.3,2.9-2.5c0.5-1.4-1.3-2.9-2.7-2.5c-1.2,0.4-6,4.2-6.4,5.3
		C37.1,85.2,41.7,84.3,43.6,83.6L43.6,83.6z"/>
	<path class="st0" d="M106.8,86.1c0.6-1.3,1.1-2.7,1.1-3.5c0-0.6-0.2-1.3-0.6-1.9c-0.6-0.9-1.2-0.9-2,0.1c-1.2,1.5-2.3,3.1-3.8,5.5
		c-1.1,0.1-2.5,0.1-3.7,0.1s-1.7,0.4-1,1.4c0.4,0.6,1.3,1.1,2.9,1.2c-0.6,0.9-1.1,1.8-1.6,2.8c0,0.1,0,0.2-0.1,0.2
		c-1.5,2.8-11.6,14.7-15,13.4c-0.7-0.2-1-0.6-1-1.6c0-0.7,0.2-1.7,0.7-2.7c0.6-1.1,1.9-3.1,4.7-7.6c0.4-0.7,0.6-1.3,0.6-1.9
		c0-1.8-1.5-3.2-3-3.2c-1,0-2.8,0.6-4.3,1.6c0.5-0.7,3.7-4.9,4.7-6.5c1.2-1.9,1.8-3.7,1.8-4.9c0-0.7-0.2-1.2-0.4-1.8
		c-0.5-0.9-1.2-1.1-2-0.2c-2.7,3.1-8,10.8-11.9,17.2c-2.1,2.6-9.4,9.5-16,11.7c1.7-3.5,3.7-6.9,5.4-9.8c1.3-2.3,1.9-3.6,1.9-4.8
		c0-1-0.4-1.8-0.8-2.3c-0.7-0.7-1.6-0.7-2.2,0.3c-0.3,0.5-0.6,1-0.8,1.3c-0.5-1.1-1.6-1.9-3.3-1.9c-3.7,0-9.2,4-12,8.8
		c-0.1,0.1-0.2,0.2-0.3,0.4c-1.6,3.1-6.9,8.5-11.9,7.9c-0.6-0.1-0.8-0.4-0.8-1.2s0.3-1.7,0.7-2.8c0.9-1.8,3.2-5.3,4.2-7.3
		c1.3-2.3,0.9-4.3,0-5.2c-0.7-0.7-1.3-0.6-2,0.3c-1,1.2-3,4.4-4.4,6.8c-3.1,5.6-13.7,15.2-16.7,5.1c-0.7-2.5-0.4-3.1-0.3-4.4
		c4.6-1.5,9.2-4.4,11.4-7.1c1.9-2.3,3-5,1.6-8.1c-1.3-2.9-3.8-3.9-6.5-3.8c-1.9,0.1-3.7,0.6-5.6,1.1c-1.9,0.6-3.8,1.1-5.9,1.3
		c-1.1,0.1-1.3,0.5-0.9,1.2c0.6,1,1.3,1.6,3,1.9c-4.5,6.3-9,14.7-10.3,18.7c-0.3,0.8-0.4,1.7-0.4,2.3c0,1.2,0.4,1.9,1,2.4
		c0.8,0.7,1.3,0.6,1.7-0.3c1.5-3.4,2.9-6.1,4.1-8.3l2.8-0.7c-0.6,2.8-1.3,5.7,1.3,8.3c3.3,3.3,8.6,2.7,11.4,1.5
		c2.2-0.9,4.2-2.1,5.6-3.4c0.2,2,1.6,3.2,4.5,3.3c4.5,0.2,8.5-1.6,11.1-3.7c0.4,2.2,2,3.6,4.5,3.6c1.4,0,2.7-0.5,3.9-1.2l-0.7,1.5
		C44.9,109.1,40,113.9,40,118c0,1.4,0.8,2.6,1.5,3.6c1.1,1.3,2.4,1.5,3.6,1.1c4.1-1.8,7.9-8.8,10.6-14.7c5.1-1.4,9.6-4.1,12.9-6.7
		c0,0,0,0.1-0.1,0.1c-1.3,3.1-0.6,4.2,0.3,5c0.6,0.7,1.4,0.6,1.8-0.3c1.2-2.8,3.1-6,4.8-8.5c2.7-4,7.6-6.9,8.1-6.9
		c0.4,0-0.4,1.1-1.4,2.6c-2,2.7-4.5,6.7-4.5,9.7c0,2.4,1.5,3.8,4.9,3.9c3.7,0.2,8-2.7,11.4-5.8c0,0.2,0,0.4,0,0.6
		c0,3.2,2.4,5.2,5.1,5.2c4.3,0,7.8-4,8.5-5.4c0.6-1.1,0.8-1.8,0.5-2.7c-0.4-1.2-1.5-1.2-2.1-0.1c-1.8,3.5-4.5,6.4-6.5,6.4
		c-0.9,0-1.4-1-1.4-2.3c0-1,0.3-2.2,0.9-3.5c1.8-3.5,4.7-8.1,6.7-11.1c1.1-0.1,10.1,0,15.3-0.3c1.2-0.1,2-1.6,1.4-2.4
		C121.9,85.4,109.5,86.8,106.8,86.1L106.8,86.1z M12.9,88.1c1.3-2.2,1.9-3.8,2-5.1l2-0.6c1.6-0.5,3.6-1.1,4.8-1.1
		c0.8,0,1.3,0.2,1.6,1c1.3,3.1-3.7,9.1-14,11.5C10.2,92.4,11.5,90.4,12.9,88.1L12.9,88.1z M46.4,116.6c-1.6,2.5-2.9,3.9-3.3,3.6
		c-0.5-0.4,0.1-2.6,1.6-4.8c1.1-1.6,2.7-3.3,4.8-4.7C48.6,112.9,47.4,115,46.4,116.6L46.4,116.6z M55,98.6c-2.5,3.9-4.9,6.7-6.6,6.7
		c-0.5,0-0.7-0.6-0.7-1.5c0-5.3,7.9-12.6,9.6-12.6c0.4,0,0.5,0.3,0.5,0.8C57.9,93.2,57,95.5,55,98.6L55,98.6z"/>
	<path class="st0" d="M156.3,80.4c0-0.7-0.2-1.2-0.5-1.8c-0.6-0.9-1.2-1.1-2-0.1c-3.4,4.8-8.4,12.8-11.8,19.4
		c0.4-5.3,0.8-10.1,1.5-13.8c0.2-0.8,0.3-1.6,0.3-2.2c0-1.7-0.7-2.6-2.3-3.7c-0.8-0.6-1.4-0.6-2,0.5c-3.9,5.8-10.4,16.8-13.1,23
		c-0.4,1-0.7,2.1-0.7,2.8c0,1.1,0.5,2,1,2.6c0.7,0.7,1.5,0.7,1.8-0.3c2.3-5.7,5.9-12.1,9.5-17.7c-0.5,3.9-0.7,7.8-0.7,10.4
		c0,1.1,0,2,0.2,3.4c0.2,2.3,1,3.6,2.7,4.3c0.9,0.4,1.4,0.1,1.7-0.4c3.1-6.2,9.4-17.1,12.3-21.3C156,83.1,156.3,81.5,156.3,80.4
		L156.3,80.4z"/>
	<path class="st0" d="M193.3,88.2c-1.5,0-4.9,2.4-6,10.1c-2.6,4.1-5.3,7.1-6.9,7.1c-0.4,0-0.6-0.4-0.6-1c0-0.7,0.4-1.7,0.9-2.8
		c1.6-3.2,3.7-6,4.7-7.8c0.7-1.2,0.9-2.1,0.9-3.1s-0.3-1.6-0.8-2.3c-0.7-0.8-1.4-0.7-2.2,0.3c-0.9,1.1-1.6,2.3-2.4,3.7
		c-1,1.6-2.2,3.6-4.4,6.8c-2.3,3.4-4,5.9-5.2,5.9c-0.5,0-0.6-0.3-0.6-0.8c0-0.7,0.2-1.5,0.7-2.5c1-2.2,2.3-4.2,4-6.7
		c1.1-1.6,1.7-3.1,1.7-4.2c0-0.7-0.3-1.5-0.8-2.1c-0.6-0.7-1.5-0.8-2.2,0.1c-0.6,0.7-1.3,1.7-1.8,2.4c-1.5,2.2-4,4.1-6.4,4.5
		c0.3-2.5-0.6-4-1.6-4.9c-0.3-0.2-0.5-0.5-0.7-0.7c-1.2-1.4-2.1-1.8-4-1.7c-3.1,0.2-6.6,2.9-8.5,6c-1.3,2-2.2,4.5-2.2,6.5
		c0,1.4,0.5,2.9,1.5,4c1.4,1.7,3.3,2.3,4.9,2.3c4.7,0,8.8-5.3,10.2-9.6c1,0,2-0.1,3-0.5c-0.6,1.1-1,2.1-1.4,3.1
		c-0.5,1.2-0.7,2.3-0.7,3.1c0,2,1.1,3.7,3.5,3.7c2.3,0,4.1-1.1,5.6-2.6c0.3,1.6,1.6,2.8,3.6,2.8c3.5,0,7.2-3.5,10.7-8.6
		c3.3-4.8,4-6.8,4.4-8.5C194.8,88.9,194.2,88.2,193.3,88.2L193.3,88.2z M159.6,100c-1.8,3.1-4,4.8-5.3,4.8c-0.7,0-1.1-0.5-1.1-1.9
		c0-1.7,0.8-4.2,2.2-6.5c0.8-1.4,1.9-2.6,2.9-3.6c0.3,1.5,1.6,2.9,3.2,3.7C161,97.6,160.4,98.7,159.6,100L159.6,100z M162.2,95
		c-0.6-0.6-0.8-1.8-0.8-2.6c0-0.7,0.5-1.1,0.8-1.1c0.4,0,0.8,0.3,0.8,1C162.9,92.8,162.7,94,162.2,95L162.2,95z"/>
</g>
</svg>
