<?xml version="1.0" encoding="UTF-8"?>
<svg id="_레이어_2" data-name="레이어 2" xmlns="http://www.w3.org/2000/svg" viewBox="0 0 1426.78 280.58">
  <defs>
    <style>
      .cls-1 {
        fill: #4371c4;
      }

      .cls-1, .cls-2, .cls-3, .cls-4, .cls-5, .cls-6, .cls-7 {
        stroke-width: 0px;
      }

      .cls-2 {
        fill: #00ace8;
      }

      .cls-3 {
        fill: #009ee2;
      }

      .cls-4 {
        fill: #fff;
      }

      .cls-5 {
        fill: #fafaaa;
      }

      .cls-6 {
        fill: #1dbbee;
      }

      .cls-7 {
        fill: #cacaca;
      }
    </style>
  </defs>
  <g id="_레이어_1-2" data-name="레이어 1">
    <g>
      <path class="cls-5" d="m436.38,169.35l-1.2-1.89c3.96-.71,6.97-2.9,7.77-6.05h-6.78v-1.95h9.43c-.21,5.68-4.53,8.71-9.22,9.89Zm2.21,9.47v-5.47h11.04v-1.54h-11.11v-1.89h13.45v5.22h-11.01v1.82h11.68v1.86h-14.05Zm11.01-9.98v-3.68h-4.09v-1.95h4.09v-4.71h2.35v10.35h-2.35Z"/>
      <path class="cls-5" d="m460.37,159.92c3.04,0,4.9,2.51,5.2,6.23h3.93v-7.66h2.37v20.49h-2.37v-10.9h-3.91c-.25,3.84-2.12,6.39-5.22,6.39-3.29,0-5.2-2.94-5.2-7.27s1.91-7.29,5.2-7.29Zm0,1.91c-1.68,0-2.9,2.12-2.9,5.4s1.22,5.38,2.9,5.38,2.97-2.14,2.97-5.38-1.22-5.4-2.97-5.4Z"/>
      <path class="cls-5" d="m485.92,174.31c-1.75-1.1-4.05-3.73-4.78-5.98-.71,2.44-2.76,5.01-4.97,6.35l-1.47-1.7c3.17-2.07,5.17-5.45,5.17-9.36v-3.38h2.41v3.24c0,3.93,2.05,7.2,5.06,9.08l-1.43,1.75Zm3.5,4.67v-11.45h-4v-1.98h4v-7.06h2.35v20.49h-2.35Z"/>
      <path class="cls-5" d="m503.86,163.02l-2.76.6v-1.4l3.89-1.75h1.26v15.82h-2.39v-13.27Z"/>
      <path class="cls-5" d="m510.19,169v-1.1c0-5.56,2.78-7.52,5.96-7.52s5.79,1.98,5.79,7.43v1.17c0,5.4-2.6,7.5-5.84,7.5s-5.91-2.16-5.91-7.47Zm9.29.21v-1.43c0-3.79-1.15-5.52-3.36-5.52s-3.4,1.66-3.4,5.38v1.43c0,3.75,1.15,5.52,3.38,5.52s3.38-1.54,3.38-5.38Z"/>
      <path class="cls-5" d="m532.38,174.56v-3.61h-8.21v-1.91h18.51v1.91h-7.93v3.61h-2.37Zm-5.84-7.38v-8.05h2.37v2.28h9.04v-2.3h2.35v8.07h-13.75Zm.02,11.2v-5.68h2.37v3.82h11.61v1.86h-13.98Zm11.38-15.13h-9.04v2.02h9.04v-2.02Z"/>
      <path class="cls-5" d="m551.33,175.21l-1.47-1.79c4.67-2.16,7.68-6.53,8.07-10.83h-6.92v-1.93h9.45c-.14,6.35-3.24,11.34-9.13,14.56Zm13.31,3.77v-10.42h-4.19v-1.98h4.19v-8.09h2.35v20.49h-2.35Z"/>
      <path class="cls-5" d="m582.89,173.55c-2.25.41-5.47.62-9.17.64l-2.53.02v-8.28h6.94v-3.77h-7.04v-1.89h9.38v7.54h-6.94v4.44c2.44,0,6.46-.14,9.11-.64l.25,1.93Zm1.63,5.43v-20.49h2.35v20.49h-2.35Z"/>
      <path class="cls-5" d="m603.73,173.74c-4.39.48-8.81.69-13.61.71l-.37-2.02c2.18.02,4.42.02,6.81-.12,2.92-.11,5.22-.28,6.99-.46l.18,1.89Zm-7.36-4.07c-2.99,0-5.24-1.89-5.24-4.67s2.28-4.9,5.24-4.9,5.36,2.02,5.36,4.9-2.35,4.67-5.36,4.67Zm0-7.54c-1.59,0-2.94,1.15-2.94,2.85s1.38,2.69,2.94,2.69,2.99-1.06,2.99-2.69c0-1.77-1.33-2.85-2.99-2.85Zm10.67,16.85h-2.35v-20.49h2.35v20.49Z"/>
      <path class="cls-5" d="m435.09,203.98v-1.89h8.05v-4.71h-5.75v-9.68h13.94v9.68h-5.84v4.71h8.12v1.89h-18.51Zm13.89-14.4h-9.24v5.93h9.24v-5.93Z"/>
      <path class="cls-5" d="m460.81,196.83c-2.87,0-5.24-1.84-5.24-4.74s2.32-4.88,5.24-4.88,5.27,2.02,5.27,4.88-2.32,4.74-5.27,4.74Zm0-7.66c-1.77,0-2.97,1.31-2.97,2.9,0,1.7,1.22,2.94,2.97,2.94s2.97-1.26,2.97-2.94-1.13-2.9-2.97-2.9Zm-2.35,17.15v-7.61h13.41v7.61h-13.41Zm11.06-5.77h-8.69v3.89h8.69v-3.89Zm2.32-14.46v11.52h-2.35v-11.52h2.35Z"/>
      <path class="cls-5" d="m474.88,196.28v-1.89h18.51v1.89h-18.51Zm2.37,10.16v-5.17h11.31v-1.54h-11.41v-1.89h13.77v5.15h-11.34v1.56h12.07v1.89h-14.42Zm.07-13.54v-6.42h13.71v1.89h-11.34v2.64h11.54v1.89h-13.91Z"/>
      <path class="cls-5" d="m506.19,187.61c3.17,0,5.17,2.9,5.17,7.24s-2,7.2-5.17,7.2-5.15-2.9-5.15-7.22,1.98-7.22,5.15-7.22Zm0,1.91c-1.7,0-2.85,2.05-2.85,5.31s1.15,5.33,2.85,5.33,2.9-2.05,2.9-5.33-1.17-5.31-2.9-5.31Zm5.91,7.43h3.24v-4.69h-3.24l-.05-1.91h3.29v-4.25h2.37v20.49h-2.37v-7.75h-3.29l.05-1.89Z"/>
      <path class="cls-5" d="m522.1,202.74l-1.47-1.79c4.71-2.16,7.77-6.46,8.16-10.76h-6.97v-1.93h9.5c-.14,6.35-3.31,11.24-9.22,14.49Zm13.15,3.84v-20.49h2.35v20.49h-2.35Z"/>
      <path class="cls-5" d="m558.6,200.88c-2.23.46-5.52.69-8.94.69h-2.16v-13.57h9.31v1.93h-6.99v9.66c2.53.05,5.86-.09,8.48-.64l.3,1.93Zm3.96-4.97v10.67h-2.35v-20.49h2.35v7.84h3.08v1.98h-3.08Z"/>
      <path class="cls-5" d="m578.38,196.81c-2.9,0-5.27-1.82-5.27-4.71s2.35-4.88,5.27-4.88,5.27,2,5.27,4.88-2.35,4.71-5.27,4.71Zm.58,5.91c-.51,1.63-2.12,3.2-3.98,4l-1.29-1.59c2.16-.92,4.02-2.92,4.02-5.52v-.97h2.3v.85c0,2.07,1.45,3.31,2.62,3.68l-1.52,1.66c-.74-.39-1.75-1.22-2.16-2.12Zm-.58-13.57c-1.77,0-2.97,1.33-2.97,2.92,0,1.7,1.22,2.94,2.97,2.94s2.97-1.26,2.97-2.94-1.13-2.92-2.97-2.92Zm11.77,17.36c-1.36-.6-3.15-2.18-3.68-3.7-.41,1.54-2.21,3.27-3.79,4.05l-1.33-1.59c2.37-1.08,3.96-3.17,3.96-5.79v-.94h2.28v.92c0,2.58,1.59,4.55,3.86,5.36l-1.29,1.7Zm-.69-20.42v11.45h-2.37v-11.45h2.37Z"/>
      <path class="cls-5" d="m597.88,187.52c3.04,0,4.9,2.51,5.2,6.23h3.93v-7.66h2.37v20.49h-2.37v-10.9h-3.91c-.25,3.84-2.12,6.39-5.22,6.39-3.29,0-5.2-2.94-5.2-7.27s1.91-7.29,5.2-7.29Zm0,1.91c-1.68,0-2.9,2.12-2.9,5.4s1.22,5.38,2.9,5.38,2.97-2.14,2.97-5.38-1.22-5.4-2.97-5.4Z"/>
      <path class="cls-5" d="m612.4,203.98v-1.89h4.28v-3.56l2.39-.02v3.59h5.1v-3.59l2.37.02v3.56h4.37v1.89h-18.51Zm9.24-5.98c-4.44,0-7.4-2.16-7.4-5.27s2.97-5.27,7.4-5.27,7.45,2.18,7.45,5.27-2.94,5.27-7.45,5.27Zm0-8.58c-3.01,0-5.01,1.33-5.01,3.31s2,3.31,5.01,3.31,5.04-1.33,5.04-3.31-1.98-3.31-5.04-3.31Z"/>
      <path class="cls-5" d="m633.21,201.57h2.53v2.48h-2.53v-2.48Z"/>
    </g>
    <rect class="cls-5" x="430.92" y="235.58" width="108" height="45" rx="7.48" ry="7.48"/>
    <g>
      <path class="cls-1" d="m463.24,255.32h2.32v1.67h-14.49v-1.67h10.17c.23-.9.38-2.39.36-3.44h-8.68v-1.66h10.79c0,2.03-.14,3.67-.47,5.1Zm-10.41,10.17v-4.3h8.84v-1.19h-8.97v-1.66h11.06v4.3h-8.84v1.15h9.42v1.69h-11.51Z"/>
      <path class="cls-1" d="m478.64,249.88c3.6,0,5.67,1.15,5.67,2.86,0,1.57-1.69,2.65-4.68,2.84v.86h6.23v1.67h-14.49v-1.67h6.16v-.86c-2.92-.22-4.56-1.31-4.56-2.84,0-1.71,2.05-2.86,5.67-2.86Zm-5.42,15.75v-4.07h8.64v-.9h-8.75v-1.66h10.84v4.03h-8.64v.88h9.22v1.71h-11.31Zm5.42-11.6c2.21,0,3.51-.58,3.51-1.3s-1.3-1.3-3.51-1.3-3.49.58-3.49,1.3,1.28,1.3,3.49,1.3Z"/>
      <path class="cls-1" d="m496.93,261.51c-1.69.34-4.68.52-7.4.52h-1.69v-6.66h5.2v-2.67h-5.28v-1.67h7.4v6.01h-5.24v3.26c1.53,0,4.72-.09,6.77-.47l.23,1.67Zm3.26-11.85v16.04h-2.09v-16.04h2.09Z"/>
      <path class="cls-1" d="m503.68,262.81l-1.3-1.58c3.51-1.6,5.91-4.95,6.19-8.14h-5.22v-1.75h7.49c-.13,4.84-2.27,8.8-7.17,11.47Zm9.99,2.9v-16.04h2.11v16.04h-2.11Z"/>
    </g>
    <g>
      <path class="cls-3" d="m965.25,196.48c1.56-.55,3.49-1.77,4.07-3.48.64-1.9-1.79-4.05-3.75-3.48-1.73.5-8.33,5.83-8.89,7.48-.6,1.78,5.84.46,8.58-.51Z"/>
      <path class="cls-3" d="m1053.74,200.01c.86-1.81,1.56-3.77,1.56-4.93,0-.78-.29-1.88-.79-2.65-.79-1.23-1.65-1.29-2.73.13-1.65,2.13-3.16,4.27-5.39,7.76-1.58.13-3.52.19-5.17.13-1.65-.06-2.37.58-1.37,1.94.57.78,1.87,1.49,4.1,1.75-.78,1.27-1.56,2.58-2.3,3.87-.08.09-.15.2-.21.31-2.16,3.95-16.25,20.58-21.07,18.78-.94-.35-1.37-.84-1.37-2.2,0-1.03.29-2.39.93-3.82.79-1.55,2.59-4.27,6.54-10.61.57-.91.79-1.81.79-2.72,0-2.52-2.08-4.53-4.17-4.53-1.37,0-3.88.78-6.04,2.2.72-.91,5.17-6.92,6.61-9.05,1.72-2.72,2.59-5.11,2.59-6.86,0-.91-.22-1.75-.57-2.46-.65-1.29-1.72-1.55-2.87-.26-3.81,4.4-11.21,15.19-16.69,24.03-3.02,3.66-13.09,13.36-22.41,16.45,2.37-4.92,5.25-9.64,7.55-13.71,1.8-3.23,2.59-4.98,2.59-6.73,0-1.36-.5-2.59-1.15-3.3-.93-.97-2.23-1.03-3.09.45-.43.71-.86,1.36-1.15,1.81-.65-1.55-2.23-2.72-4.6-2.72-5.12,0-12.94,5.65-16.83,12.29-.15.13-.29.32-.42.57-2.23,4.4-9.6,11.94-16.61,11.14-.79-.09-1.08-.58-1.08-1.62s.36-2.39,1.01-3.88c1.22-2.59,4.53-7.44,5.89-10.22,1.87-3.23,1.29-6.02-.07-7.31-.93-.97-1.8-.84-2.87.45-1.36,1.72-4.21,6.22-6.22,9.6-4.41,7.84-19.15,21.36-23.37,7.18-1.03-3.47-.59-4.35-.37-6.2,6.42-2.06,12.86-6.23,15.94-9.99,2.66-3.3,4.17-6.99,2.23-11.32-1.8-4.07-5.32-5.5-9.13-5.37-2.66.13-5.17.78-7.91,1.55-2.59.78-5.32,1.49-8.19,1.88-1.51.19-1.87.71-1.29,1.62.86,1.36,1.87,2.26,4.24,2.65-6.32,8.86-12.65,20.63-14.44,26.26-.36,1.16-.5,2.33-.5,3.23,0,1.62.57,2.65,1.37,3.43,1.08.97,1.87.84,2.37-.39,2.16-4.79,4.02-8.47,5.82-11.64l3.86-.99c-.88,3.87-1.84,8,1.78,11.59,4.67,4.62,12,3.84,16.03,2.11,3.11-1.34,5.84-2.87,7.91-4.73.31,2.78,2.27,4.56,6.28,4.7,6.26.22,11.89-2.26,15.52-5.15.55,3.04,2.8,5.02,6.34,5.02,1.94,0,3.81-.65,5.39-1.62l-.93,2.13c-8.77,2.72-15.74,9.38-15.74,15.2,0,2.01,1.08,3.69,2.08,5.04,1.51,1.81,3.31,2.07,5.03,1.49,5.82-2.46,11.07-12.29,14.88-20.63,7.17-1.99,13.49-5.78,18.12-9.37-.03.06-.06.13-.08.19-1.8,4.27-.79,5.82.36,7.05.86.97,1.94.78,2.52-.39,1.72-3.88,4.31-8.34,6.76-11.97,3.81-5.56,10.64-9.64,11.28-9.64.5,0-.57,1.55-1.94,3.69-2.73,3.82-6.25,9.44-6.25,13.52,0,3.36,2.16,5.26,6.9,5.5,5.22.26,11.26-3.78,16-8.12-.03.28-.04.55-.04.81,0,4.46,3.31,7.24,7.11,7.24,6.04,0,10.85-5.56,11.86-7.5.79-1.49,1.08-2.46.72-3.82-.5-1.75-2.16-1.62-2.95-.06-2.52,4.85-6.25,8.93-9.06,8.93-1.22,0-1.94-1.36-1.94-3.3,0-1.42.43-3.1,1.29-4.85,2.52-4.92,6.61-11.32,9.34-15.52,1.58-.19,14.18-.06,21.48-.39,1.73-.08,2.73-2.24,2.01-3.41-.5-.78-17.85,1.22-21.6.25Zm-131.62,2.83c1.8-3.04,2.66-5.3,2.73-7.11l2.8-.84c2.3-.71,5.03-1.55,6.68-1.55,1.08,0,1.87.32,2.3,1.36,1.87,4.27-5.17,12.81-19.55,16.1,1.29-2,3.09-4.72,5.03-7.96Zm47.01,39.84c-2.23,3.49-4.02,5.43-4.67,4.98-.72-.58.22-3.62,2.3-6.79,1.51-2.26,3.74-4.59,6.76-6.53-1.37,3.23-2.95,6.08-4.38,8.34Zm12.07-25.16c-3.52,5.43-6.9,9.38-9.2,9.31-.65,0-.93-.84-.93-2.07,0-7.5,11.07-17.66,13.51-17.66.5,0,.72.39.72,1.16,0,1.68-1.29,4.85-4.1,9.25Z"/>
      <path class="cls-3" d="m1123.05,191.98c0-.91-.22-1.75-.65-2.52-.79-1.23-1.65-1.55-2.73-.19-4.74,6.66-11.71,17.98-16.6,27.23.5-7.44,1.15-14.16,2.16-19.4.22-1.16.36-2.2.36-3.1,0-2.33-1.01-3.69-3.16-5.11-1.08-.78-1.94-.78-2.87.65-5.46,8.15-14.59,23.54-18.33,32.21-.57,1.36-.93,2.91-.93,3.88,0,1.49.65,2.78,1.37,3.62,1.01.97,2.08.91,2.59-.39,3.16-7.96,8.26-16.88,13.37-24.77-.65,5.5-.93,10.87-.93,14.62,0,1.55.07,2.85.22,4.72.29,3.3,1.44,4.98,3.81,6.08,1.22.58,2.01.19,2.44-.58,4.38-8.73,13.22-23.93,17.25-29.88,2.23-3.23,2.66-5.5,2.66-7.05Z"/>
      <path class="cls-3" d="m1174.99,202.97c-2.08,0-6.9,3.36-8.41,14.16-3.59,5.76-7.47,9.9-9.7,9.9-.5,0-.79-.52-.79-1.36,0-.91.5-2.39,1.29-3.88,2.23-4.46,5.25-8.41,6.61-10.93.93-1.62,1.22-2.98,1.22-4.27,0-1.36-.43-2.26-1.15-3.23-.93-1.16-1.94-.91-3.02.45-1.22,1.55-2.3,3.23-3.38,5.17-1.37,2.2-3.09,5.04-6.11,9.51-3.16,4.79-5.68,8.28-7.26,8.28-.65,0-.86-.39-.86-1.16,0-.91.29-2.13.93-3.56,1.44-3.04,3.16-5.89,5.53-9.44,1.58-2.26,2.37-4.27,2.37-5.89,0-1.03-.36-2.07-1.08-2.98-.79-.97-2.16-1.1-3.02.06-.79.97-1.8,2.39-2.52,3.43-2.16,3.1-5.61,5.76-8.91,6.34.36-3.56-.86-5.63-2.3-6.92-.36-.32-.72-.65-1.01-1.03-1.65-2-2.95-2.59-5.53-2.39-4.38.26-9.2,4.14-11.86,8.34-1.8,2.85-3.02,6.34-3.02,9.05,0,1.94.72,4.01,2.08,5.63,2.01,2.33,4.6,3.23,6.83,3.23,6.61,0,12.36-7.37,14.23-13.39,1.37,0,2.8-.19,4.24-.65-.79,1.55-1.37,2.91-1.94,4.4-.65,1.68-.93,3.17-.93,4.4,0,2.85,1.51,5.11,4.89,5.11,3.16,0,5.75-1.55,7.91-3.62.43,2.26,2.3,3.95,5.1,3.95,4.96,0,10.06-4.85,14.95-12.03,4.67-6.73,5.68-9.51,6.18-11.97.36-1.75-.36-2.72-1.58-2.72Zm-47.29,16.49c-2.52,4.4-5.53,6.73-7.4,6.73-.93,0-1.58-.71-1.58-2.65,0-2.39,1.08-5.95,3.02-9.05,1.15-1.94,2.66-3.62,4.1-4.98.43,2.13,2.3,4.07,4.46,5.11-.57,1.42-1.44,3.04-2.59,4.85Zm3.67-6.99c-.79-.84-1.15-2.52-1.15-3.69,0-1.03.65-1.55,1.08-1.55.5,0,1.08.39,1.08,1.36,0,.84-.29,2.39-1.01,3.88Z"/>
    </g>
    <g>
      <polygon class="cls-3" points="1336.99 257.08 1214.66 203.72 1214.66 57.97 1336.99 111.32 1336.99 257.08"/>
      <polygon class="cls-4" points="1294.34 238.21 1251.1 218.69 1251.1 142 1294.34 161.52 1294.34 238.21"/>
      <polygon class="cls-7" points="1294.34 238.21 1251.1 218.69 1228.68 231.7 1271.92 251.22 1294.34 238.21"/>
      <polygon class="cls-2" points="1426.78 57.32 1304.45 3.96 1214.66 57.97 1336.99 111.32 1426.78 57.32"/>
      <polygon class="cls-6" points="1336.99 257.08 1426.13 203.72 1426.13 57.97 1336.99 111.32 1336.99 257.08"/>
    </g>
    <g>
      <polygon class="cls-3" points="35.32 73.08 0 57.68 0 15.59 35.32 31 35.32 73.08"/>
      <polygon class="cls-4" points="23.01 67.63 10.52 62 10.52 39.85 23.01 45.49 23.01 67.63"/>
      <polygon class="cls-7" points="23.01 67.63 10.52 62 4.05 65.75 16.53 71.39 23.01 67.63"/>
      <polygon class="cls-2" points="61.24 15.41 25.93 0 0 15.59 35.32 31 61.24 15.41"/>
      <polygon class="cls-6" points="35.32 73.08 61.06 57.68 61.06 15.59 35.32 31 35.32 73.08"/>
    </g>
    <g>
      <path class="cls-5" d="m472.52,83.6c1.11-.4,2.49-1.26,2.9-2.49.46-1.36-1.28-2.89-2.68-2.49-1.23.36-5.95,4.16-6.35,5.34-.43,1.27,4.16.33,6.12-.37Z"/>
      <path class="cls-5" d="m535.69,86.12c.62-1.29,1.11-2.69,1.11-3.52,0-.55-.21-1.34-.56-1.89-.56-.88-1.18-.92-1.95.09-1.18,1.52-2.26,3.05-3.85,5.54-1.13.09-2.51.14-3.69.09-1.18-.05-1.69.42-.97,1.38.41.55,1.33,1.06,2.92,1.25-.56.91-1.11,1.84-1.64,2.76-.06.07-.11.14-.15.22-1.54,2.82-11.6,14.69-15.04,13.41-.67-.25-.97-.6-.97-1.57,0-.74.21-1.71.67-2.72.56-1.11,1.85-3.05,4.67-7.57.41-.65.56-1.29.56-1.94,0-1.8-1.49-3.23-2.98-3.23-.97,0-2.77.55-4.31,1.57.51-.65,3.69-4.94,4.72-6.46,1.23-1.94,1.85-3.65,1.85-4.89,0-.65-.15-1.25-.41-1.75-.46-.92-1.23-1.11-2.05-.18-2.72,3.14-8,10.84-11.91,17.15-2.15,2.61-9.35,9.54-15.99,11.74,1.69-3.51,3.74-6.88,5.39-9.79,1.28-2.31,1.85-3.55,1.85-4.8,0-.97-.36-1.85-.82-2.35-.67-.69-1.59-.74-2.21.32-.31.51-.62.97-.82,1.29-.46-1.11-1.59-1.94-3.28-1.94-3.66,0-9.24,4.03-12.01,8.77-.11.1-.21.23-.3.41-1.59,3.14-6.85,8.52-11.85,7.95-.56-.06-.77-.42-.77-1.15s.26-1.71.72-2.77c.87-1.85,3.23-5.31,4.21-7.29,1.33-2.31.92-4.29-.05-5.22-.67-.69-1.28-.6-2.05.32-.97,1.23-3,4.44-4.44,6.85-3.15,5.6-13.67,15.24-16.68,5.12-.74-2.48-.42-3.11-.26-4.42,4.58-1.47,9.18-4.45,11.38-7.13,1.9-2.35,2.98-4.99,1.59-8.08-1.28-2.91-3.8-3.92-6.51-3.83-1.9.09-3.69.55-5.64,1.11-1.85.55-3.8,1.06-5.85,1.34-1.08.14-1.33.51-.92,1.15.62.97,1.33,1.62,3.03,1.89-4.51,6.32-9.03,14.73-10.31,18.74-.26.83-.36,1.66-.36,2.31,0,1.15.41,1.89.97,2.45.77.69,1.33.6,1.69-.28,1.54-3.42,2.87-6.05,4.15-8.31l2.76-.71c-.63,2.76-1.31,5.71,1.27,8.27,3.33,3.3,8.57,2.74,11.44,1.51,2.22-.95,4.16-2.05,5.65-3.37.22,1.98,1.62,3.25,4.48,3.35,4.47.16,8.49-1.61,11.08-3.67.39,2.17,2,3.58,4.52,3.58,1.38,0,2.72-.46,3.85-1.15l-.67,1.52c-6.26,1.94-11.23,6.69-11.23,10.85,0,1.43.77,2.63,1.49,3.6,1.08,1.29,2.36,1.48,3.59,1.06,4.15-1.75,7.9-8.77,10.62-14.73,5.11-1.42,9.63-4.12,12.93-6.69-.02.04-.04.09-.06.13-1.28,3.05-.56,4.15.26,5.03.62.69,1.38.55,1.8-.28,1.23-2.77,3.08-5.96,4.82-8.54,2.72-3.97,7.59-6.88,8.05-6.88.36,0-.41,1.11-1.38,2.63-1.95,2.72-4.46,6.74-4.46,9.65,0,2.4,1.54,3.75,4.92,3.92,3.73.19,8.04-2.7,11.42-5.79-.02.2-.03.39-.03.58,0,3.19,2.36,5.17,5.08,5.17,4.31,0,7.75-3.97,8.46-5.36.56-1.06.77-1.75.51-2.72-.36-1.25-1.54-1.15-2.1-.05-1.8,3.46-4.46,6.37-6.46,6.37-.87,0-1.38-.97-1.38-2.35,0-1.02.31-2.22.92-3.46,1.8-3.51,4.72-8.08,6.67-11.08,1.13-.14,10.12-.04,15.33-.28,1.24-.06,1.95-1.6,1.43-2.43-.36-.55-12.74.87-15.42.18Zm-93.95,2.02c1.28-2.17,1.9-3.79,1.95-5.08l2-.6c1.64-.51,3.59-1.11,4.77-1.11.77,0,1.33.23,1.64.97,1.33,3.05-3.69,9.14-13.95,11.49.92-1.43,2.21-3.37,3.59-5.68Zm33.55,28.44c-1.59,2.49-2.87,3.88-3.33,3.55-.51-.42.15-2.59,1.64-4.85,1.08-1.62,2.67-3.28,4.82-4.66-.97,2.31-2.1,4.34-3.13,5.96Zm8.62-17.96c-2.51,3.88-4.92,6.69-6.57,6.65-.46,0-.67-.6-.67-1.48,0-5.35,7.9-12.6,9.64-12.6.36,0,.51.28.51.83,0,1.2-.92,3.46-2.92,6.6Z"/>
      <path class="cls-5" d="m585.16,80.38c0-.65-.15-1.25-.46-1.8-.56-.88-1.18-1.11-1.95-.14-3.39,4.75-8.36,12.83-11.85,19.43.36-5.31.82-10.11,1.54-13.85.15-.83.26-1.57.26-2.22,0-1.66-.72-2.63-2.26-3.65-.77-.55-1.38-.55-2.05.46-3.9,5.82-10.41,16.8-13.08,22.99-.41.97-.67,2.08-.67,2.77,0,1.06.46,1.99.97,2.59.72.69,1.49.65,1.85-.28,2.26-5.68,5.9-12.05,9.54-17.68-.46,3.92-.67,7.76-.67,10.43,0,1.11.05,2.03.15,3.37.21,2.35,1.03,3.55,2.72,4.34.87.42,1.44.14,1.74-.42,3.13-6.23,9.44-17.08,12.31-21.33,1.59-2.31,1.9-3.92,1.9-5.03Z"/>
      <path class="cls-5" d="m622.22,88.23c-1.49,0-4.92,2.4-6,10.11-2.56,4.11-5.33,7.06-6.92,7.06-.36,0-.56-.37-.56-.97,0-.65.36-1.71.92-2.77,1.59-3.19,3.74-6,4.72-7.8.67-1.15.87-2.12.87-3.05,0-.97-.31-1.62-.82-2.31-.67-.83-1.38-.65-2.15.32-.87,1.11-1.64,2.31-2.41,3.69-.97,1.57-2.21,3.6-4.36,6.79-2.26,3.42-4.05,5.91-5.18,5.91-.46,0-.62-.28-.62-.83,0-.65.21-1.52.67-2.54,1.03-2.17,2.26-4.2,3.95-6.74,1.13-1.62,1.69-3.05,1.69-4.2,0-.74-.26-1.48-.77-2.12-.56-.69-1.54-.78-2.15.05-.56.69-1.28,1.71-1.8,2.45-1.54,2.22-4,4.11-6.36,4.52.26-2.54-.62-4.02-1.64-4.94-.26-.23-.51-.46-.72-.74-1.18-1.43-2.1-1.85-3.95-1.71-3.13.18-6.57,2.95-8.46,5.96-1.28,2.03-2.15,4.52-2.15,6.46,0,1.38.51,2.86,1.49,4.02,1.44,1.66,3.28,2.31,4.87,2.31,4.72,0,8.82-5.26,10.16-9.56.97,0,2-.14,3.03-.46-.56,1.11-.97,2.08-1.38,3.14-.46,1.2-.67,2.26-.67,3.14,0,2.03,1.08,3.65,3.49,3.65,2.26,0,4.1-1.11,5.64-2.59.31,1.62,1.64,2.82,3.64,2.82,3.54,0,7.18-3.46,10.67-8.59,3.33-4.8,4.05-6.79,4.41-8.54.26-1.25-.26-1.94-1.13-1.94Zm-33.75,11.77c-1.8,3.14-3.95,4.8-5.28,4.8-.67,0-1.13-.51-1.13-1.89,0-1.71.77-4.25,2.15-6.46.82-1.38,1.9-2.59,2.92-3.55.31,1.52,1.64,2.91,3.18,3.65-.41,1.02-1.03,2.17-1.85,3.46Zm2.62-4.99c-.56-.6-.82-1.8-.82-2.63,0-.74.46-1.11.77-1.11.36,0,.77.28.77.97,0,.6-.21,1.71-.72,2.77Z"/>
    </g>
  </g>
</svg>